<?xml version="1.0" encoding="utf-8"?>
<!-- Generator: Adobe Illustrator 23.0.4, SVG Export Plug-In . SVG Version: 6.00 Build 0)  -->
<svg version="1.1" id="Layer_1" xmlns="http://www.w3.org/2000/svg" xmlns:xlink="http://www.w3.org/1999/xlink" x="0px" y="0px"
	 viewBox="0 0 382.3 566.9" style="enable-background:new 0 0 382.3 566.9;" xml:space="preserve">
<style type="text/css">
	.st0{opacity:0.2;fill:#0B0780;}
	.st1{fill:#B2B3B3;}
	.st2{fill:url(#SVGID_1_);}
	.st3{fill:#050A30;}
	.st4{fill:#7EA6DE;}
	.st5{fill:#303354;}
	.st6{fill:none;}
	.st7{fill:none;stroke:#FFFFFF;stroke-miterlimit:10;}
	.st8{enable-background:new    ;}
	.st9{fill:#FFFFFF;}
	.st10{fill:#7CA4DC;}
</style>
<path id="Shadow" class="st0" d="M281.3,396.9H79.3c-1.3,0-2.4-1.1-2.4-2.4l2-9c0-1.3,1.1-2.4,2.4-2.4h197.9c1.3,0,2.4,1.1,2.4,2.4
	l2,9C283.7,395.8,282.6,396.9,281.3,396.9z"/>
<g id="Plain_background">
	<g id="Brainregionsback">
		<path class="st1" d="M283.5,366.7L105,376.2c-5.2,0-18.5-9.5-18.8-18.9v-185c0-5.2,4.2-8.4,9.4-8.4h183c12.1-0.6,22.1,7,22.1,12.2
			L293,357.3C292.9,362.5,288.7,366.7,283.5,366.7z"/>
		
			<linearGradient id="SVGID_1_" gradientUnits="userSpaceOnUse" x1="278.6781" y1="377.0528" x2="-95.2261" y2="-7.5727" gradientTransform="matrix(1 0 0 -1 0 567.89)">
			<stop  offset="0" style="stop-color:#E4E9F5"/>
			<stop  offset="0.9992" style="stop-color:#7EA6DE"/>
		</linearGradient>
		<path class="st2" d="M293,376.2H105c-5.2,0-9.4-4.2-9.4-9.4v-188c0-5.2,4.2-9.4,9.4-9.4h188c5.2,0,9.4,4.2,9.4,9.4v188
			C302.4,372,298.2,376.2,293,376.2z"/>
		<path class="st3" d="M214,210.1v0.1c0,0.1,0,0.2,0,0.4c0,1.4-0.1,2.9-0.3,4.3c-0.1,1.3-0.2,2.5-0.3,3.8c0,0,0,0.2-0.1,0.5
			c-1.2,11.5-3.8,21.9-9.6,19.8c-0.2,0-0.5-0.1-0.7-0.3c-0.5-0.2-1-0.5-1.5-0.8c-0.8-0.4-1.5-0.8-2-1.1s-0.9-0.5-0.9-0.5
			c-2-1.3-3.8-2.7-5.3-4.1c-1.5-1.5-2.7-3-3.7-4.6c-1.8-3-2.5-6.3-2.5-10.1c0-0.2,0-0.5,0-0.8s0-0.7,0.1-1.1c0-0.2,0-0.4,0-0.6
			c0-0.4,0.1-0.8,0.1-1.1c0-0.1,0-0.3,0-0.4c0-0.4,0.1-0.6,0.1-0.6c1.1-7.7,4.2-20,6.4-28.1c1.9-7.1,11.2-9,15.6-3.1
			c0.5,0.7,1,1.4,1.4,2.1c0,0,0,0,0,0.1C211.2,185,213.2,197.5,214,210.1z"/>
		<path class="st3" d="M159.8,231l-0.1,0.5c-0.7,2.9-4.8,19-9,31.4c-3.1,9.3-6.2,29.4-7.9,45.4c-0.1,1.4-0.2,2.7-0.4,4
			c-0.5,5.7-0.8,10.7-0.8,14.2c0,2.8-1.1,4.6-3,5.8h-0.1l0,0c-3.4,2.1-9,2-14,1.2c-1.4-0.2-2.8-0.6-4-1.2c-4.7-2.1-8.3-6.4-9-11.6
			c-3-20.7,6.4-43.9,14.1-55.5C134.8,251.5,159.8,231,159.8,231z"/>
		<path class="st4" d="M178.9,355.2c-49,6.1-59.7-23.7-59.7-23.7l1.5,0.7c1.3,0.6,2.6,1,4,1.2c5,0.8,10.6,0.9,14-1.2l0,0l21.1,3.3
			c0.3,0.5,5.1,14,16,18.5C176,354.2,178.8,355.2,178.9,355.2z"/>
		<path class="st3" d="M193.3,232.1c-1.1-0.5-2.1-0.9-3.1-1.1c-3.3-0.8-5.9,0.2-7.4,3.9c-0.2,0.4-0.2,0.8-0.1,1.3
			c1.1,5.1,8.3,41.3-0.1,53.9c-4.5,6.8-11.4,16-16.5,24.5l0,0c-0.5,1-1.1,1.9-1.6,2.8h-2.3c-3-0.1-5.9-0.5-8.8-1.2h-0.1
			c-0.7-0.2-1.5-0.4-2.2-0.6l-4.3-1.5l-4.3-1.7l0,0c0.1-1,0.2-2.1,0.3-3.2c0.5-4.6,1.1-9.6,1.8-14.6c0.2-1.4,0.4-2.8,0.6-4.2
			c1.2-8,2.6-15.7,4-21.6c0.1-0.6,0.3-1.2,0.5-1.8c0.4-1.5,0.7-2.8,1.1-4c4.1-12.4,8.2-28.5,9-31.4l0.1-0.5c0,0,9.5-24,27.7-18.2
			c0,0,0,0.2-0.1,0.6c0,0.5-0.1,1.3-0.2,2.1c-0.1,0.4-0.1,0.8-0.1,1.1s0,0.6,0,0.8c0,3.8,0.8,7.1,2.5,10.1
			C190.6,229.1,191.8,230.6,193.3,232.1z"/>
		<path class="st5" d="M273.1,264.6c-9.1-36.4-34.1-72.1-58-79.2c-0.5-0.7-0.9-1.4-1.4-2.1c-4.4-5.9-13.7-4-15.6,3.1
			c-2.2,8.1-5.3,20.5-6.4,28.1c-18.2-5.7-27.7,18.2-27.7,18.2l-0.1,0.5l0,0c-2.4,2-25.3,21-33.9,33.9c-7.8,11.6-17.1,34.8-14.1,55.5
			c0.7,4.8,3.7,8.7,7.8,11l-0.3-0.1c0,0,10.6,29.5,59.7,23.4l0,0c3.4,1.2,7.6,2.2,12.7,3c25.8,4.3,31.3-3.6,31.8-12.1
			c4.6,1.4,12,3.1,18.3,2.4c0,0.2,27.2,14.3,27.2,0.7C273.1,337.4,282.2,301,273.1,264.6z M192.3,232.6c-0.1,0-0.3,0-0.4,0
			C192,232.6,192.1,232.6,192.3,232.6z M193.3,232.6c-0.2,0-0.3,0-0.5,0C193,232.6,193.2,232.6,193.3,232.6z M191.5,216.9
			c0,0.1,0,0.2,0,0.4C191.5,217.2,191.5,217,191.5,216.9z M191.3,232.7c-0.1,0-0.3,0.1-0.4,0.1C191,232.7,191.2,232.7,191.3,232.7z
			 M190.4,232.9c-0.2,0.1-0.3,0.2-0.4,0.2C190.1,233.1,190.2,233,190.4,232.9z M189.5,233.3c-0.1,0.1-0.2,0.2-0.4,0.3
			C189.3,233.5,189.4,233.4,189.5,233.3z M188.8,233.9c-0.1,0.1-0.2,0.3-0.3,0.4C188.6,234.2,188.7,234.1,188.8,233.9z M188.1,234.7
			c-0.1,0.1-0.2,0.3-0.3,0.5C187.9,235.1,188,234.9,188.1,234.7z M187.5,235.7L187.5,235.7c-0.5,0.9-0.6,2-0.4,3
			c0,0.2,0.1,0.3,0.1,0.5c0-0.2-0.1-0.4-0.1-0.5C186.8,237.7,187,236.6,187.5,235.7z M168.6,319.2h-0.5c-5.7,0-11.3-1.1-16.6-3.2
			l-4.7-1.9l0,0l4.2,1.7l4.3,1.5c0.7,0.2,1.5,0.4,2.2,0.6h0.1c2.9,0.7,5.8,1.1,8.8,1.2L168.6,319.2z M165.9,341.3
			c0.6,1.2,1.4,2.6,2.4,4c0.3,0.5,0.6,0.9,0.9,1.3c0.7,1,1.5,2,2.5,3c0.3,0.3,0.6,0.7,1,1C169.4,347.6,167.2,344,165.9,341.3z
			 M173.4,351.5c0.4,0.4,0.8,0.7,1.2,1C174.2,352.2,173.8,351.9,173.4,351.5z M174.7,352.7c0.3,0.3,0.7,0.5,1,0.8
			C175.3,353.2,175,352.9,174.7,352.7z M178.4,355.1c0.5,0.3,1.1,0.5,1.7,0.8l0,0c0,0,0.1,0.1,0.3,0.1c-0.1-0.1-0.3-0.1-0.3-0.1
			C179.5,355.7,178.9,355.4,178.4,355.1z M177,354.4c0.2,0.1,0.3,0.2,0.5,0.3C177.3,354.5,177.2,354.5,177,354.4z M183,357L183,357
			L183,357L183,357z M187.5,290.7c-0.2,0.4-0.5,0.8-0.7,1.2C187,291.5,187.3,291.1,187.5,290.7z M190.8,272.9c0-0.5,0-0.9,0-1.4
			C190.8,272,190.8,272.5,190.8,272.9z M187.6,290.5c0.2-0.4,0.4-0.7,0.5-1.1C188,289.8,187.8,290.1,187.6,290.5z M188.4,288.7
			c0.1-0.2,0.2-0.5,0.3-0.7C188.6,288.2,188.5,288.4,188.4,288.7z M189,287c0.1-0.2,0.1-0.4,0.2-0.6
			C189.1,286.6,189.1,286.8,189,287z M189.4,285.5c0.1-0.2,0.1-0.4,0.2-0.7C189.5,285,189.5,285.2,189.4,285.5z M189.8,283.9
			c0.1-0.3,0.1-0.6,0.2-0.9C189.9,283.4,189.8,283.7,189.8,283.9z M190.1,281.9c0-0.2,0.1-0.4,0.1-0.6
			C190.2,281.5,190.2,281.7,190.1,281.9z M190.4,280.1c0-0.2,0.1-0.5,0.1-0.7C190.4,279.7,190.4,279.9,190.4,280.1z M190.7,276.1
			c0-0.2,0-0.3,0-0.5C190.7,275.8,190.7,275.9,190.7,276.1z M190.8,274.7c0-0.4,0-0.7,0-1.1C190.8,274,190.8,274.4,190.8,274.7z
			 M187.2,239.4c0.1,0.5,0.2,1.1,0.3,1.7C187.4,240.5,187.3,239.9,187.2,239.4z M187.6,241.3c0.1,0.6,0.2,1.3,0.4,2
			C187.8,242.6,187.7,241.9,187.6,241.3z M188,243.8c0,0.2,0.1,0.4,0.1,0.5C188.1,244.1,188,243.9,188,243.8z M188.3,245.2
			c0,0.3,0.1,0.6,0.2,0.9C188.4,245.8,188.3,245.5,188.3,245.2z M188.5,246.7c0,0.2,0.1,0.5,0.1,0.8
			C188.6,247.2,188.5,246.9,188.5,246.7z M188.8,248.3c0,0.1,0,0.3,0.1,0.4C188.8,248.5,188.8,248.4,188.8,248.3z M189,249.9
			c0,0.1,0,0.3,0.1,0.4C189.1,250.2,189,250.1,189,249.9z M189.3,251.7c0,0.3,0.1,0.6,0.1,0.9C189.3,252.3,189.3,252,189.3,251.7z
			 M189.5,253.5c0,0.3,0.1,0.6,0.1,0.8C189.6,254.1,189.5,253.8,189.5,253.5z M189.7,255.4c0,0.3,0.1,0.6,0.1,0.9
			C189.8,256,189.8,255.7,189.7,255.4z M190,257.3c0,0.3,0.1,0.5,0.1,0.8C190,257.9,190,257.6,190,257.3z M190.5,263.4
			c0,0.2,0,0.4,0,0.7C190.5,263.8,190.5,263.6,190.5,263.4z M190.6,265.4c0,0.2,0,0.3,0,0.5C190.6,265.8,190.6,265.6,190.6,265.4z
			 M190.7,267.5c0,0.2,0,0.4,0,0.6C190.7,267.9,190.7,267.7,190.7,267.5z M190.8,269.5c0,0.4,0,0.7,0,1.1
			C190.8,270.3,190.8,269.9,190.8,269.5z M204.6,239.1c0.1,0.1,0.3,0.2,0.4,0.2C204.9,239.2,204.7,239.1,204.6,239.1z"/>
	</g>
</g>
<g id="Fill">
	<path id="S1Trfill" class="st6" d="M183.1,357.1c-49,6.1-59.7-23.4-59.7-23.4l1.4,0.4c1.3,0.6,2.6,1,4,1.2c5,0.8,10.6,0.9,14-1.2
		l0,0l21.1,3.3c0.3,0.5,5.1,14,16,18.5C180.2,356,183,357.1,183.1,357.1z"/>
	<g id="S1FLfilll">
		<path class="st6" d="M218.2,212v0.1c0,0.1,0,0.2,0,0.4c0,1.4-0.1,2.9-0.3,4.3c-0.1,1.3-0.2,2.5-0.3,3.8c0,0,0,0.2-0.1,0.5
			c-1.2,11.5-3.8,21.9-9.6,19.8c-0.2,0-0.5-0.1-0.7-0.3c-0.5-0.2-1-0.5-1.5-0.8c-0.8-0.4-1.5-0.8-2-1.1s-0.9-0.5-0.9-0.5
			c-2-1.3-3.8-2.7-5.3-4.1c-1.5-1.5-2.7-3-3.7-4.6c-1.8-3-2.5-6.3-2.5-10.1c0-0.2,0-0.5,0-0.8s0-0.7,0.1-1.1c0-0.2,0-0.4,0-0.6
			c0-0.4,0.1-0.8,0.1-1.1c0-0.1,0-0.3,0-0.4c0-0.4,0.1-0.6,0.1-0.6c1.1-7.7,4.2-20,6.4-28.1c1.9-7.1,11.2-9,15.6-3.1
			c0.5,0.7,1,1.4,1.4,2.1c0,0,0,0,0,0.1C215.4,186.8,217.4,199.3,218.2,212z"/>
		<path class="st6" d="M164,337.4l-21.1-3.3c1.8-1.1,3-3,3-5.8c0-3.5,0.3-8.5,0.8-14.2l4.8,1.9c5.3,2.1,10.9,3.2,16.6,3.2h0.5
			C164.5,326.7,162,333.3,164,337.4z"/>
	</g>
	<path id="S1Shfill" class="st6" d="M197.5,233.9c-1.1-0.5-2.1-0.9-3.1-1.1c-3-0.7-5.4,0-6.9,2.9c-0.5,0.9-0.6,1.9-0.4,3
		c1.4,7.1,7.9,41.1-0.3,53.3c-4.5,6.8-11.4,16-16.5,24.5l0,0c-0.5,1-1.1,1.9-1.6,2.8h-2.3c-3-0.1-5.9-0.5-8.8-1.2h-0.1
		c-0.7-0.2-1.5-0.4-2.2-0.6L151,316l-4.3-1.7l0,0c0.1-1,0.2-2.1,0.3-3.2c0.5-4.6,1.1-9.6,1.8-14.6c0.2-1.4,0.4-2.8,0.6-4.2
		c1.2-8,2.6-15.7,4-21.6c0.1-0.6,0.3-1.2,0.5-1.8c0.4-1.5,0.7-2.8,1.1-4c4.1-12.4,8.2-28.5,9-31.4l0.1-0.5c0,0,9.5-24,27.7-18.2
		c0,0,0,0.2-0.1,0.6c0,0.5-0.1,1.3-0.2,2.1c-0.1,0.4-0.1,0.8-0.1,1.1s0,0.6,0,0.8c0,3.8,0.8,7.1,2.5,10.1
		C194.8,231,196,232.5,197.5,233.9z"/>
	<path id="S1HLfill" class="st6" d="M164.1,233.1l-0.1,0.5c-0.7,2.9-4.8,19-9,31.4c-3.1,9.3-6.2,29.4-7.9,45.4
		c-0.1,1.4-0.2,2.7-0.4,4c-0.5,5.7-0.8,10.7-0.8,14.2c0,2.8-1.1,4.6-3,5.8h-0.1l0,0c-3.4,2.1-9,2-14,1.2c-1.4-0.2-2.8-0.6-4-1.2
		c-4.7-2.1-8.3-6.4-9-11.6c-3-20.7,6.4-43.9,14.1-55.5C139.1,253.6,164.1,233.1,164.1,233.1z"/>
</g>
<g id="Lines__x2B__text">
	<g id="Brainregionslinestext">
		<path class="st7" d="M232.2,310.1c-4.5,13.6-4.5,27.3-4.5,36.4c0,0.5,0,1,0,1.5c-0.5,8.5-6,16.5-31.8,12.1
			c-5.1-0.9-9.3-1.9-12.7-3l0,0c0,0,0,0-0.1,0c0,0,0,0-0.1,0c-0.3-0.1-0.5-0.1-0.7-0.3c-0.8-0.3-2-0.8-2.1-0.8l0,0
			c-1.3-0.6-2.6-1.2-3.7-2c-1.2-0.9-2.3-1.8-3.3-2.7c-0.5-0.5-1-1-1.4-1.5c-0.9-1-1.7-2-2.5-3c-0.3-0.4-0.6-0.9-0.9-1.3
			c-2.7-4.1-4-7.7-4.2-8c-2-4,0.5-10.7,4.6-18.2c0.5-0.9,1-1.8,1.6-2.8l0,0c5.2-8.5,12-17.6,16.5-24.5c8.1-12.2,1.7-46.2,0.3-53.2
			c-0.2-1-0.1-2.1,0.4-3c1.5-2.9,3.9-3.6,6.9-2.9c1,0.2,2,0.6,3.1,1.1c1.5,1.4,3.2,2.8,5.3,4.1c0,0,0.4,0.2,0.9,0.5
			c0.6,0.4,1.3,0.8,2,1.1c0.5,0.3,1,0.6,1.5,0.8c5.3,4.4,11,10,16,15C236.8,269.2,236.8,296.5,232.2,310.1z"/>
		<path class="st7" d="M218.2,212v0.1c0,0.1,0,0.2,0,0.4c0,1.4-0.1,2.9-0.3,4.3c-0.1,1.3-0.2,2.5-0.3,3.8c0,0,0,0.2-0.1,0.5
			c-1.2,11.5-3.8,21.9-9.6,19.8c-0.2,0-0.5-0.1-0.7-0.3c-0.5-0.2-1-0.5-1.5-0.8c-0.8-0.4-1.5-0.8-2-1.1s-0.9-0.5-0.9-0.5
			c-2-1.3-3.8-2.7-5.3-4.1c-1.5-1.5-2.7-3-3.7-4.6c-1.8-3-2.5-6.3-2.5-10.1c0-0.2,0-0.5,0-0.8s0-0.7,0.1-1.1c0-0.2,0-0.4,0-0.6
			c0-0.4,0.1-0.8,0.1-1.1c0-0.1,0-0.3,0-0.4c0-0.4,0.1-0.6,0.1-0.6c1.1-7.7,4.2-20,6.4-28.1c1.9-7.1,11.2-9,15.6-3.1
			c0.5,0.7,1,1.4,1.4,2.1c0,0,0,0,0,0.1C215.4,186.8,217.4,199.3,218.2,212z"/>
		<path class="st7" d="M183.1,357.1c-49,6.1-59.7-23.4-59.7-23.4l1.4,0.4c1.3,0.6,2.6,1,4,1.2c5,0.8,10.6,0.9,14-1.2l0,0l21.1,3.3
			c0.3,0.5,5.1,14,16,18.5C180.2,356,183,357.1,183.1,357.1z"/>
		<path class="st7" d="M164,337.4l-21.1-3.3c1.8-1.1,3-3,3-5.8c0-3.5,0.3-8.5,0.8-14.2l4.8,1.9c5.3,2.1,10.9,3.2,16.6,3.2h0.5
			C164.5,326.7,162,333.3,164,337.4z"/>
		<path class="st7" d="M197.5,233.9c-1.1-0.5-2.1-0.9-3.1-1.1c-3-0.7-5.4,0-6.9,2.9c-0.5,0.9-0.6,1.9-0.4,3
			c1.4,7.1,7.9,41.1-0.3,53.3c-4.5,6.8-11.4,16-16.5,24.5l0,0c-0.5,1-1.1,1.9-1.6,2.8h-2.3c-3-0.1-5.9-0.5-8.8-1.2h-0.1
			c-0.7-0.2-1.5-0.4-2.2-0.6L151,316l-4.3-1.7l0,0c0.1-1,0.2-2.1,0.3-3.2c0.5-4.6,1.1-9.6,1.8-14.6c0.2-1.4,0.4-2.8,0.6-4.2
			c1.2-8,2.6-15.7,4-21.6c0.1-0.6,0.3-1.2,0.5-1.8c0.4-1.5,0.7-2.8,1.1-4c4.1-12.4,8.2-28.5,9-31.4l0.1-0.5c0,0,9.5-24,27.7-18.2
			c0,0,0,0.2-0.1,0.6c0,0.5-0.1,1.3-0.2,2.1c-0.1,0.4-0.1,0.8-0.1,1.1s0,0.6,0,0.8c0,3.8,0.8,7.1,2.5,10.1
			C194.8,231,196,232.5,197.5,233.9z"/>
		<path class="st7" d="M273.1,351c0,13.6-27.2-0.5-27.2-0.7c4.5-27,9-49.6,4.5-85.7c-0.3-2.3-0.7-4.5-1.1-6.5
			c-5.6-24.1-23.8-34.3-31.6-37.6h-0.1c0.1-1.3,0.2-2.5,0.3-3.8c0.1-1.4,0.2-2.9,0.3-4.3c0-0.1,0-0.2,0-0.4v0
			c-0.8-12.6-2.8-25.1-3-26.5v-0.1c23.9,7.2,48.9,42.9,58,79.2C282.2,301,273.1,337.4,273.1,351z"/>
		<path class="st7" d="M246,350.3c-6.4,0.7-13.7-1-18.3-2.4c0-0.5,0-1,0-1.5c0-9.1,0-22.7,4.5-36.4c4.5-13.6,4.5-40.9-9.1-54.6
			c-5-5-10.6-10.6-16-15c0.2,0.1,0.5,0.2,0.7,0.3c5.8,2.1,8.4-8.3,9.6-19.8c0-0.3,0.1-0.5,0.1-0.5s0,0,0.1,0
			c7.8,3.3,26,13.5,31.6,37.6c0.5,2,0.9,4.2,1.1,6.5C254.9,300.7,250.5,323.4,246,350.3z"/>
		<g class="st8">
			<path class="st9" d="M148.5,346.5c0,0.4-0.1,0.7-0.3,1.1c-0.2,0.3-0.5,0.6-0.9,0.7s-0.8,0.3-1.4,0.3c-0.6,0-1.2-0.1-1.6-0.4
				c-0.3-0.2-0.5-0.4-0.7-0.7c-0.2-0.3-0.3-0.6-0.3-0.8c0-0.2,0.1-0.3,0.2-0.4c0.1-0.1,0.2-0.2,0.4-0.2c0.1,0,0.3,0,0.3,0.1
				c0.1,0.1,0.2,0.2,0.2,0.4c0.1,0.2,0.2,0.4,0.3,0.5c0.1,0.1,0.2,0.3,0.4,0.3c0.2,0.1,0.4,0.1,0.7,0.1c0.4,0,0.7-0.1,0.9-0.3
				c0.2-0.2,0.4-0.4,0.4-0.7c0-0.2-0.1-0.4-0.2-0.5c-0.1-0.1-0.3-0.2-0.5-0.3c-0.2-0.1-0.5-0.1-0.8-0.2c-0.5-0.1-0.9-0.2-1.2-0.4
				c-0.3-0.1-0.6-0.3-0.7-0.6c-0.2-0.3-0.3-0.6-0.3-0.9c0-0.4,0.1-0.7,0.3-0.9s0.5-0.5,0.8-0.6c0.4-0.1,0.8-0.2,1.3-0.2
				c0.4,0,0.7,0,1,0.1c0.3,0.1,0.5,0.2,0.7,0.4c0.2,0.2,0.3,0.3,0.4,0.5s0.1,0.4,0.1,0.5c0,0.2-0.1,0.3-0.2,0.4
				c-0.1,0.1-0.2,0.2-0.4,0.2c-0.1,0-0.3,0-0.3-0.1c-0.1-0.1-0.2-0.2-0.3-0.4c-0.1-0.2-0.3-0.4-0.4-0.6c-0.2-0.1-0.4-0.2-0.8-0.2
				c-0.3,0-0.6,0.1-0.8,0.2c-0.2,0.1-0.3,0.3-0.3,0.5c0,0.1,0,0.2,0.1,0.3s0.2,0.2,0.3,0.2s0.2,0.1,0.4,0.2s0.3,0.1,0.6,0.2
				c0.4,0.1,0.7,0.2,1,0.3c0.3,0.1,0.5,0.2,0.8,0.4c0.2,0.1,0.4,0.3,0.5,0.6C148.4,345.9,148.5,346.1,148.5,346.5z"/>
			<path class="st9" d="M151.5,347.8v-4c-0.7,0.6-1.2,0.9-1.5,0.9c-0.1,0-0.2,0-0.3-0.1c-0.1-0.1-0.1-0.2-0.1-0.3
				c0-0.1,0-0.3,0.1-0.3s0.3-0.2,0.5-0.3c0.4-0.2,0.6-0.3,0.9-0.5c0.2-0.2,0.4-0.4,0.6-0.6s0.3-0.4,0.3-0.4s0.1-0.1,0.3-0.1
				c0.2,0,0.3,0.1,0.4,0.2s0.1,0.3,0.1,0.5v5c0,0.6-0.2,0.9-0.6,0.9c-0.2,0-0.3-0.1-0.4-0.2S151.5,348,151.5,347.8z"/>
			<path class="st9" d="M159.1,343h-1.4v4.7c0,0.3-0.1,0.5-0.2,0.6c-0.1,0.1-0.3,0.2-0.5,0.2c-0.2,0-0.4-0.1-0.5-0.2
				c-0.1-0.1-0.2-0.3-0.2-0.6V343H155c-0.2,0-0.4,0-0.5-0.1c-0.1-0.1-0.2-0.2-0.2-0.4c0-0.2,0.1-0.3,0.2-0.4
				c0.1-0.1,0.3-0.1,0.5-0.1h4.1c0.2,0,0.4,0,0.5,0.1c0.1,0.1,0.2,0.2,0.2,0.4c0,0.2-0.1,0.3-0.2,0.4C159.5,343,159.4,343,159.1,343
				z"/>
			<path class="st9" d="M161.4,346.8v1c0,0.2-0.1,0.4-0.2,0.5c-0.1,0.1-0.3,0.2-0.4,0.2c-0.2,0-0.3-0.1-0.4-0.2s-0.2-0.3-0.2-0.5
				v-3.3c0-0.5,0.2-0.8,0.6-0.8c0.2,0,0.3,0.1,0.4,0.2s0.1,0.3,0.1,0.6c0.1-0.2,0.3-0.4,0.4-0.6c0.2-0.1,0.4-0.2,0.6-0.2
				s0.5,0.1,0.7,0.2s0.4,0.3,0.4,0.5c0,0.1-0.1,0.3-0.2,0.4c-0.1,0.1-0.2,0.1-0.3,0.1c0,0-0.2,0-0.3-0.1c-0.2-0.1-0.3-0.1-0.4-0.1
				c-0.2,0-0.3,0-0.4,0.1c-0.1,0.1-0.2,0.2-0.3,0.4s-0.1,0.4-0.1,0.6C161.4,346.1,161.4,346.4,161.4,346.8z"/>
		</g>
		<path class="st7" d="M164.1,233.1l-0.1,0.5c-0.7,2.9-4.8,19-9,31.4c-3.1,9.3-6.2,29.4-7.9,45.4c-0.1,1.4-0.2,2.7-0.4,4
			c-0.5,5.7-0.8,10.7-0.8,14.2c0,2.8-1.1,4.6-3,5.8h-0.1l0,0c-3.4,2.1-9,2-14,1.2c-1.4-0.2-2.8-0.6-4-1.2c-4.7-2.1-8.3-6.4-9-11.6
			c-3-20.7,6.4-43.9,14.1-55.5C139.1,253.6,164.1,233.1,164.1,233.1z"/>
		<g>
			<g class="st8">
				<path class="st9" d="M165.8,276.5c0,0.4-0.1,0.7-0.3,1.1c-0.2,0.3-0.5,0.6-0.9,0.7s-0.8,0.3-1.4,0.3c-0.6,0-1.2-0.1-1.6-0.4
					c-0.3-0.2-0.5-0.4-0.7-0.7c-0.2-0.3-0.3-0.6-0.3-0.8c0-0.2,0.1-0.3,0.2-0.4c0.1-0.1,0.2-0.2,0.4-0.2c0.1,0,0.3,0,0.3,0.1
					c0.1,0.1,0.2,0.2,0.2,0.4c0.1,0.2,0.2,0.4,0.3,0.5c0.1,0.1,0.2,0.3,0.4,0.3c0.2,0.1,0.4,0.1,0.7,0.1c0.4,0,0.7-0.1,0.9-0.3
					c0.2-0.2,0.4-0.4,0.4-0.7c0-0.2-0.1-0.4-0.2-0.5c-0.1-0.1-0.3-0.2-0.5-0.3c-0.2-0.1-0.5-0.1-0.8-0.2c-0.5-0.1-0.9-0.2-1.2-0.4
					c-0.3-0.1-0.6-0.3-0.7-0.6c-0.2-0.3-0.3-0.6-0.3-0.9c0-0.4,0.1-0.7,0.3-0.9s0.5-0.5,0.8-0.6c0.4-0.1,0.8-0.2,1.3-0.2
					c0.4,0,0.7,0,1,0.1c0.3,0.1,0.5,0.2,0.7,0.4c0.2,0.2,0.3,0.3,0.4,0.5s0.1,0.4,0.1,0.5c0,0.2-0.1,0.3-0.2,0.4
					c-0.1,0.1-0.2,0.2-0.4,0.2c-0.1,0-0.3,0-0.3-0.1c-0.1-0.1-0.2-0.2-0.3-0.4c-0.1-0.2-0.3-0.4-0.4-0.6c-0.2-0.1-0.4-0.2-0.8-0.2
					c-0.3,0-0.6,0.1-0.8,0.2c-0.2,0.1-0.3,0.3-0.3,0.5c0,0.1,0,0.2,0.1,0.3s0.2,0.2,0.3,0.2s0.2,0.1,0.4,0.2s0.3,0.1,0.6,0.2
					c0.4,0.1,0.7,0.2,1,0.3c0.3,0.1,0.5,0.2,0.8,0.4c0.2,0.1,0.4,0.3,0.5,0.6C165.7,275.9,165.8,276.1,165.8,276.5z"/>
				<path class="st9" d="M168.7,277.8v-4c-0.7,0.6-1.2,0.9-1.5,0.9c-0.1,0-0.2,0-0.3-0.1c-0.1-0.1-0.1-0.2-0.1-0.3
					c0-0.1,0-0.3,0.1-0.3s0.3-0.2,0.5-0.3c0.4-0.2,0.6-0.3,0.9-0.5c0.2-0.2,0.4-0.4,0.6-0.6s0.3-0.4,0.3-0.4s0.1-0.1,0.3-0.1
					c0.2,0,0.3,0.1,0.4,0.2s0.1,0.3,0.1,0.5v5c0,0.6-0.2,0.9-0.6,0.9c-0.2,0-0.3-0.1-0.4-0.2S168.7,278,168.7,277.8z"/>
				<path class="st9" d="M177.1,276.5c0,0.4-0.1,0.7-0.3,1.1c-0.2,0.3-0.5,0.6-0.9,0.7s-0.8,0.3-1.4,0.3c-0.6,0-1.2-0.1-1.6-0.4
					c-0.3-0.2-0.5-0.4-0.7-0.7c-0.2-0.3-0.3-0.6-0.3-0.8c0-0.2,0.1-0.3,0.2-0.4c0.1-0.1,0.2-0.2,0.4-0.2c0.1,0,0.3,0,0.3,0.1
					c0.1,0.1,0.2,0.2,0.2,0.4c0.1,0.2,0.2,0.4,0.3,0.5c0.1,0.1,0.2,0.3,0.4,0.3c0.2,0.1,0.4,0.1,0.7,0.1c0.4,0,0.7-0.1,0.9-0.3
					c0.2-0.2,0.4-0.4,0.4-0.7c0-0.2-0.1-0.4-0.2-0.5c-0.1-0.1-0.3-0.2-0.5-0.3c-0.2-0.1-0.5-0.1-0.8-0.2c-0.5-0.1-0.9-0.2-1.2-0.4
					c-0.3-0.1-0.6-0.3-0.7-0.6c-0.2-0.3-0.3-0.6-0.3-0.9c0-0.4,0.1-0.7,0.3-0.9s0.5-0.5,0.8-0.6c0.4-0.1,0.8-0.2,1.3-0.2
					c0.4,0,0.7,0,1,0.1c0.3,0.1,0.5,0.2,0.7,0.4c0.2,0.2,0.3,0.3,0.4,0.5s0.1,0.4,0.1,0.5c0,0.2-0.1,0.3-0.2,0.4
					c-0.1,0.1-0.2,0.2-0.4,0.2c-0.1,0-0.3,0-0.3-0.1c-0.1-0.1-0.2-0.2-0.3-0.4c-0.1-0.2-0.3-0.4-0.4-0.6c-0.2-0.1-0.4-0.2-0.8-0.2
					c-0.3,0-0.6,0.1-0.8,0.2c-0.2,0.1-0.3,0.3-0.3,0.5c0,0.1,0,0.2,0.1,0.3s0.2,0.2,0.3,0.2s0.2,0.1,0.4,0.2s0.3,0.1,0.6,0.2
					c0.4,0.1,0.7,0.2,1,0.3c0.3,0.1,0.5,0.2,0.8,0.4c0.2,0.1,0.4,0.3,0.5,0.6C177.1,275.9,177.1,276.1,177.1,276.5z"/>
				<path class="st9" d="M179.3,272.6v1.8c0.2-0.2,0.3-0.3,0.4-0.4c0.1-0.1,0.3-0.2,0.5-0.2c0.2-0.1,0.4-0.1,0.6-0.1
					c0.3,0,0.6,0.1,0.8,0.2s0.4,0.3,0.6,0.6c0.1,0.1,0.1,0.3,0.2,0.5c0,0.2,0,0.4,0,0.6v2.3c0,0.2-0.1,0.4-0.2,0.5
					c-0.1,0.1-0.3,0.2-0.4,0.2c-0.4,0-0.6-0.2-0.6-0.7v-2c0-0.4-0.1-0.7-0.2-0.9c-0.1-0.2-0.3-0.3-0.7-0.3c-0.2,0-0.4,0.1-0.6,0.2
					c-0.2,0.1-0.3,0.3-0.4,0.5c-0.1,0.2-0.1,0.5-0.1,1v1.6c0,0.2-0.1,0.4-0.2,0.5c-0.1,0.1-0.3,0.2-0.4,0.2c-0.4,0-0.6-0.2-0.6-0.7
					v-5.2c0-0.2,0.1-0.4,0.2-0.5c0.1-0.1,0.2-0.2,0.4-0.2c0.2,0,0.3,0.1,0.4,0.2C179.3,272.1,179.3,272.3,179.3,272.6z"/>
			</g>
		</g>
		<g>
			<g class="st8">
				<path class="st9" d="M199.3,217.1c0,0.4-0.1,0.7-0.3,1.1c-0.2,0.3-0.5,0.6-0.9,0.7s-0.8,0.3-1.4,0.3c-0.6,0-1.2-0.1-1.6-0.4
					c-0.3-0.2-0.5-0.4-0.7-0.7c-0.2-0.3-0.3-0.6-0.3-0.8c0-0.2,0.1-0.3,0.2-0.4c0.1-0.1,0.2-0.2,0.4-0.2c0.1,0,0.3,0,0.3,0.1
					c0.1,0.1,0.2,0.2,0.2,0.4c0.1,0.2,0.2,0.4,0.3,0.5c0.1,0.1,0.2,0.3,0.4,0.3c0.2,0.1,0.4,0.1,0.7,0.1c0.4,0,0.7-0.1,0.9-0.3
					c0.2-0.2,0.4-0.4,0.4-0.7c0-0.2-0.1-0.4-0.2-0.5c-0.1-0.1-0.3-0.2-0.5-0.3c-0.2-0.1-0.5-0.1-0.8-0.2c-0.5-0.1-0.9-0.2-1.2-0.4
					c-0.3-0.1-0.6-0.3-0.7-0.6c-0.2-0.3-0.3-0.6-0.3-0.9c0-0.4,0.1-0.7,0.3-0.9s0.5-0.5,0.8-0.6c0.4-0.1,0.8-0.2,1.3-0.2
					c0.4,0,0.7,0,1,0.1c0.3,0.1,0.5,0.2,0.7,0.4c0.2,0.2,0.3,0.3,0.4,0.5s0.1,0.4,0.1,0.5c0,0.2-0.1,0.3-0.2,0.4
					c-0.1,0.1-0.2,0.2-0.4,0.2c-0.1,0-0.3,0-0.3-0.1c-0.1-0.1-0.2-0.2-0.3-0.4c-0.1-0.2-0.3-0.4-0.4-0.6c-0.2-0.1-0.4-0.2-0.8-0.2
					c-0.3,0-0.6,0.1-0.8,0.2c-0.2,0.1-0.3,0.3-0.3,0.5c0,0.1,0,0.2,0.1,0.3s0.2,0.2,0.3,0.2s0.2,0.1,0.4,0.2c0.1,0,0.3,0.1,0.6,0.2
					c0.4,0.1,0.7,0.2,1,0.3c0.3,0.1,0.5,0.2,0.8,0.4c0.2,0.1,0.4,0.3,0.5,0.6C199.3,216.5,199.3,216.8,199.3,217.1z"/>
				<path class="st9" d="M202.3,218.4v-4c-0.7,0.6-1.2,0.9-1.5,0.9c-0.1,0-0.2,0-0.3-0.1c-0.1-0.1-0.1-0.2-0.1-0.3
					c0-0.1,0-0.3,0.1-0.3s0.3-0.2,0.5-0.3c0.4-0.2,0.6-0.3,0.9-0.5c0.2-0.2,0.4-0.4,0.6-0.6s0.3-0.4,0.3-0.4
					c0.1-0.1,0.1-0.1,0.3-0.1c0.2,0,0.3,0.1,0.4,0.2s0.1,0.3,0.1,0.5v5c0,0.6-0.2,0.9-0.6,0.9c-0.2,0-0.3-0.1-0.4-0.2
					C202.3,218.8,202.3,218.7,202.3,218.4z"/>
				<path class="st9" d="M209.6,213.6h-2.6v1.6h2.1c0.2,0,0.3,0,0.4,0.1c0.1,0.1,0.1,0.2,0.1,0.4s0,0.3-0.1,0.4s-0.2,0.1-0.4,0.1
					h-2.1v2.1c0,0.3-0.1,0.5-0.2,0.6c-0.1,0.1-0.3,0.2-0.5,0.2c-0.2,0-0.4-0.1-0.5-0.2s-0.2-0.3-0.2-0.6v-5c0-0.2,0-0.3,0.1-0.5
					c0.1-0.1,0.1-0.2,0.3-0.3c0.1-0.1,0.3-0.1,0.5-0.1h3.1c0.2,0,0.4,0,0.5,0.1c0.1,0.1,0.2,0.2,0.2,0.4c0,0.2-0.1,0.3-0.2,0.4
					C210,213.5,209.9,213.6,209.6,213.6z"/>
				<path class="st9" d="M212.5,213.3v4.7h2.6c0.2,0,0.4,0.1,0.5,0.2c0.1,0.1,0.2,0.2,0.2,0.4c0,0.2-0.1,0.3-0.2,0.4
					c-0.1,0.1-0.3,0.1-0.5,0.1H212c-0.3,0-0.5-0.1-0.6-0.2c-0.1-0.1-0.2-0.3-0.2-0.6v-5c0-0.3,0.1-0.5,0.2-0.6
					c0.1-0.1,0.3-0.2,0.5-0.2c0.2,0,0.4,0.1,0.5,0.2C212.4,212.8,212.5,213,212.5,213.3z"/>
			</g>
		</g>
		<g class="st8">
			<path class="st9" d="M126.6,303c0,0.4-0.1,0.7-0.3,1.1c-0.2,0.3-0.5,0.6-0.9,0.7s-0.8,0.3-1.4,0.3c-0.6,0-1.2-0.1-1.6-0.4
				c-0.3-0.2-0.5-0.4-0.7-0.7c-0.2-0.3-0.3-0.6-0.3-0.8c0-0.2,0.1-0.3,0.2-0.4c0.1-0.1,0.2-0.2,0.4-0.2c0.1,0,0.3,0,0.3,0.1
				c0.1,0.1,0.2,0.2,0.2,0.4c0.1,0.2,0.2,0.4,0.3,0.5c0.1,0.1,0.2,0.3,0.4,0.3c0.2,0.1,0.4,0.1,0.7,0.1c0.4,0,0.7-0.1,0.9-0.3
				c0.2-0.2,0.4-0.4,0.4-0.7c0-0.2-0.1-0.4-0.2-0.5c-0.1-0.1-0.3-0.2-0.5-0.3c-0.2-0.1-0.5-0.1-0.8-0.2c-0.5-0.1-0.9-0.2-1.2-0.4
				c-0.3-0.1-0.6-0.3-0.7-0.6c-0.2-0.3-0.3-0.6-0.3-0.9c0-0.4,0.1-0.7,0.3-0.9s0.5-0.5,0.8-0.6c0.4-0.1,0.8-0.2,1.3-0.2
				c0.4,0,0.7,0,1,0.1c0.3,0.1,0.5,0.2,0.7,0.4c0.2,0.2,0.3,0.3,0.4,0.5s0.1,0.4,0.1,0.5c0,0.2-0.1,0.3-0.2,0.4
				c-0.1,0.1-0.2,0.2-0.4,0.2c-0.1,0-0.3,0-0.3-0.1c-0.1-0.1-0.2-0.2-0.3-0.4c-0.1-0.2-0.3-0.4-0.4-0.6c-0.2-0.1-0.4-0.2-0.8-0.2
				c-0.3,0-0.6,0.1-0.8,0.2c-0.2,0.1-0.3,0.3-0.3,0.5c0,0.1,0,0.2,0.1,0.3s0.2,0.2,0.3,0.2s0.2,0.1,0.4,0.2s0.3,0.1,0.6,0.2
				c0.4,0.1,0.7,0.2,1,0.3c0.3,0.1,0.5,0.2,0.8,0.4c0.2,0.1,0.4,0.3,0.5,0.6C126.5,302.4,126.6,302.6,126.6,303z"/>
			<path class="st9" d="M129.5,304.3v-4c-0.7,0.6-1.2,0.9-1.5,0.9c-0.1,0-0.2,0-0.3-0.1c-0.1-0.1-0.1-0.2-0.1-0.3
				c0-0.1,0-0.3,0.1-0.3s0.3-0.2,0.5-0.3c0.4-0.2,0.6-0.3,0.9-0.5c0.2-0.2,0.4-0.4,0.6-0.6s0.3-0.4,0.3-0.4s0.1-0.1,0.3-0.1
				c0.2,0,0.3,0.1,0.4,0.2s0.1,0.3,0.1,0.5v5c0,0.6-0.2,0.9-0.6,0.9c-0.2,0-0.3-0.1-0.4-0.2S129.5,304.5,129.5,304.3z"/>
			<path class="st9" d="M134.3,299.1v1.8h2.8v-1.8c0-0.3,0.1-0.5,0.2-0.6c0.1-0.1,0.3-0.2,0.5-0.2c0.2,0,0.4,0.1,0.5,0.2
				c0.1,0.1,0.2,0.3,0.2,0.6v5.1c0,0.3-0.1,0.5-0.2,0.6s-0.3,0.2-0.5,0.2c-0.2,0-0.4-0.1-0.5-0.2c-0.1-0.1-0.2-0.3-0.2-0.6V302h-2.8
				v2.2c0,0.3-0.1,0.5-0.2,0.6s-0.3,0.2-0.5,0.2c-0.2,0-0.4-0.1-0.5-0.2c-0.1-0.1-0.2-0.3-0.2-0.6v-5.1c0-0.3,0.1-0.5,0.2-0.6
				c0.1-0.1,0.3-0.2,0.5-0.2c0.2,0,0.4,0.1,0.5,0.2C134.3,298.7,134.3,298.9,134.3,299.1z"/>
			<path class="st9" d="M141.1,299.1v4.7h2.6c0.2,0,0.4,0.1,0.5,0.2c0.1,0.1,0.2,0.2,0.2,0.4c0,0.2-0.1,0.3-0.2,0.4
				c-0.1,0.1-0.3,0.1-0.5,0.1h-3.2c-0.3,0-0.5-0.1-0.6-0.2c-0.1-0.1-0.2-0.3-0.2-0.6v-5c0-0.3,0.1-0.5,0.2-0.6
				c0.1-0.1,0.3-0.2,0.5-0.2c0.2,0,0.4,0.1,0.5,0.2C141.1,298.7,141.1,298.9,141.1,299.1z"/>
		</g>
		<g class="st8">
			<path class="st10" d="M118.5,193c0,1-0.3,1.9-0.8,2.7c-0.5,0.8-1.3,1.4-2.3,1.9s-2.2,0.7-3.5,0.7c-1.6,0-3-0.3-4-0.9
				c-0.7-0.4-1.4-1-1.8-1.8c-0.5-0.7-0.7-1.5-0.7-2.2c0-0.4,0.1-0.8,0.4-1c0.3-0.3,0.6-0.4,1.1-0.4c0.4,0,0.6,0.1,0.9,0.3
				c0.2,0.2,0.5,0.6,0.6,1c0.2,0.5,0.4,1,0.7,1.3c0.2,0.4,0.6,0.6,1,0.9s1,0.3,1.7,0.3c1,0,1.8-0.2,2.4-0.7c0.6-0.5,0.9-1,0.9-1.7
				c0-0.5-0.2-1-0.5-1.3c-0.3-0.3-0.8-0.6-1.3-0.8c-0.5-0.2-1.2-0.4-2.1-0.6c-1.2-0.3-2.2-0.6-3-1c-0.8-0.4-1.4-0.9-1.9-1.5
				c-0.5-0.6-0.7-1.4-0.7-2.4c0-0.9,0.2-1.7,0.7-2.4s1.2-1.2,2.1-1.6s2-0.6,3.3-0.6c1,0,1.9,0.1,2.6,0.4c0.7,0.3,1.3,0.6,1.8,1
				c0.5,0.4,0.8,0.9,1.1,1.3s0.3,0.9,0.3,1.3c0,0.4-0.1,0.8-0.4,1.1c-0.3,0.3-0.6,0.5-1.1,0.5c-0.4,0-0.7-0.1-0.9-0.3
				c-0.2-0.2-0.4-0.5-0.6-0.9c-0.3-0.6-0.7-1.1-1.1-1.5c-0.4-0.3-1.1-0.5-2-0.5c-0.9,0-1.6,0.2-2.1,0.6c-0.5,0.4-0.8,0.8-0.8,1.4
				c0,0.3,0.1,0.6,0.3,0.9s0.4,0.4,0.7,0.6c0.3,0.2,0.6,0.3,1,0.4c0.3,0.1,0.9,0.2,1.6,0.4c0.9,0.2,1.8,0.5,2.5,0.7
				c0.8,0.3,1.4,0.6,1.9,1c0.5,0.4,0.9,0.8,1.2,1.4C118.4,191.5,118.5,192.2,118.5,193z"/>
			<path class="st10" d="M126,196.4v-10.2c-1.9,1.5-3.2,2.2-3.8,2.2c-0.3,0-0.6-0.1-0.8-0.4c-0.2-0.3-0.4-0.5-0.4-0.9
				c0-0.4,0.1-0.7,0.4-0.8s0.7-0.4,1.3-0.7c0.9-0.4,1.6-0.9,2.2-1.3c0.5-0.5,1-1,1.4-1.6s0.7-0.9,0.8-1.1s0.4-0.2,0.7-0.2
				c0.4,0,0.7,0.2,1,0.5s0.4,0.7,0.4,1.3V196c0,1.5-0.5,2.3-1.5,2.3c-0.5,0-0.8-0.2-1.1-0.5S126,197,126,196.4z"/>
		</g>
	</g>
</g>
</svg>
