<svg xmlns="http://www.w3.org/2000/svg" viewBox="0 0 295.23 507.79"><defs><style>.cls-1,.cls-2,.cls-3,.cls-4,.cls-5{fill:#303354;stroke-width:1.38px;}.cls-1,.cls-9{stroke:#ffc807;}.cls-1,.cls-13,.cls-16,.cls-2,.cls-20,.cls-22,.cls-24,.cls-3,.cls-4,.cls-5,.cls-9{stroke-linecap:round;}.cls-1,.cls-13,.cls-16,.cls-2,.cls-20,.cls-3,.cls-4,.cls-5,.cls-9{stroke-miterlimit:10;}.cls-13,.cls-2{stroke:#84bbf8;}.cls-16,.cls-3{stroke:#657be1;}.cls-20,.cls-22,.cls-4{stroke:#33b080;}.cls-5{stroke:#b2b3b3;}.cls-6,.cls-7{fill:#ffc807;}.cls-12,.cls-15,.cls-17,.cls-7{font-size:10px;font-family:ArialMT, Arial;}.cls-8{fill:#fff;}.cls-13,.cls-16,.cls-20,.cls-22,.cls-24,.cls-9{fill:none;}.cls-10{fill:#ec1e24;}.cls-11,.cls-12{fill:#84bbf8;}.cls-14,.cls-15{fill:#657be1;}.cls-17,.cls-19{fill:#33b080;}.cls-18{letter-spacing:-0.07em;}.cls-21{fill:#b2b3b3;}.cls-22,.cls-24{stroke-linejoin:round;}.cls-23{opacity:0.5;}.cls-24{stroke:#e5ecf0;stroke-dasharray:2.95 2.95;}.cls-25{fill:#e5ecf0;}</style></defs><title>Asset 11</title><g id="Layer_2" data-name="Layer 2"><g id="Layer_1-2" data-name="Layer 1"><rect class="cls-1" x="110.54" y="-49.3" width="91.69" height="191.67" rx="2.95" transform="translate(202.92 -109.85) rotate(90)"/><rect class="cls-2" x="110.54" y="55.13" width="91.69" height="191.67" rx="2.95" transform="translate(307.35 -5.42) rotate(90)"/><rect class="cls-3" x="110.54" y="158.17" width="91.69" height="191.67" rx="2.95" transform="translate(410.39 97.62) rotate(90)"/><rect class="cls-4" x="110.54" y="261.21" width="91.69" height="191.67" rx="2.95" transform="translate(513.43 200.66) rotate(90)"/><rect class="cls-5" x="110.54" y="365.42" width="91.69" height="191.67" rx="2.95" transform="translate(617.64 304.87) rotate(90)"/><path class="cls-6" d="M125.54,41.62a5.73,5.73,0,0,1-3.3-.86A13,13,0,0,0,119,37a23.59,23.59,0,0,0-8.7-4.3,10.83,10.83,0,0,0-5.62-.12,5.28,5.28,0,0,1-1.48-.16h0l.18-.3a2.37,2.37,0,0,0-.6-2.78A2.59,2.59,0,0,0,101,29l0,0c.67-.44.37-1,.33-1.29s-.61-.65-1.83-.49a2.93,2.93,0,0,0-2.11,2.06c-.09.51-1,2.92-1,2.92-.39.17-.78.36-1.16.57-1.41.81-3.61,1.69-4.79,3.47a8,8,0,0,1-.65,1c-.18.19-1.8,1.74-1.73,2.39s.49.69.53.83a.67.67,0,0,0,.7.3s.06.67,1.13,1a6.69,6.69,0,0,0,2.61,0c.4,0,.79.07,1.07.05.11,0,.47.15,1,.3A6.86,6.86,0,0,1,97.38,44l.18.24h0a2.15,2.15,0,0,0,0,.23,2.16,2.16,0,0,1-.37,1.09,2.1,2.1,0,0,1-.5.53,2.91,2.91,0,0,1-1,.55c-.14,0-1.11-.11-1.45-.09s-1,.35-.91,1c0,0,.14.12.23.09s.18.42,1-.16c0,0-.14.7.51.51s.71-.49.71-.49a.6.6,0,0,0,.51.12,1,1,0,0,0,.42-.3s-.09.3.37.32a.68.68,0,0,0,.79-.64c0-.44,1.19-1.16,1.19-1.16.48.28,1,.69.68,1.16a.56.56,0,0,0-.05.08,9.22,9.22,0,0,0-1,.75,2.49,2.49,0,0,1-1.62.85S96.6,48,96.3,48a2.64,2.64,0,0,0-1.14,1.13h.16s-.25.16,0,.3c0,0-.2.44.22.55a.8.8,0,0,0,1.08-.44s0,.35.42.28l.83-.16s.07.59.55.38a.25.25,0,0,0,0-.31,1.58,1.58,0,0,0,.83-.19c.16-.11.68-.52,1.13-.9.43.14,1-.46,1.43-.58a18.24,18.24,0,0,1,2.12-.92l2.59-.35c.14.25,1,.19,1.9.16s3.58-.41,4.5-.53a7.46,7.46,0,0,1,2.62.25,8.14,8.14,0,0,0,3.82-.67l.51.35v1.09l-.63.74a4.88,4.88,0,0,0-1.43.48c-.3.26-.83.77-.72,1s.51.23.81.14.57-.58.57-.58-.38.69-.11.84a1.06,1.06,0,0,0,.93-.14c0-.1,0-.47.11-.54a1.84,1.84,0,0,0,.28-.27,1.89,1.89,0,0,0-.18.78c.07.23.69.29.85.17s.14-.49.14-.49l.23-.32a1.54,1.54,0,0,0,.47-.12c.07-.07.5.25.83.49a.4.4,0,0,0,.63-.19,1,1,0,0,0-.47-.79,1.87,1.87,0,0,1-.53-.39s0-1.46.07-2,.07-1.34-.21-1.57l-.47-.37.38-.16a3.09,3.09,0,0,0,1-1.23,18.75,18.75,0,0,1,4.71-.3c1.94.28,5.62,2.81,5.32,4.91s-3.56,3.74-3.56,3.74c-5.46,2.64-8.56,1.81-12.45,1.76s-4.67,2.69-4.67,2.69c3.93-5.23,8.09,1,17.63-4S129.29,41.59,125.54,41.62Z"/><text class="cls-7" transform="translate(83.03 72.15)">Experiments</text><text class="cls-7" transform="translate(177.85 72.15)">Sparse data</text><line class="cls-8" x1="146.22" y1="40.77" x2="167" y2="40.77"/><line class="cls-9" x1="146.22" y1="40.77" x2="161.03" y2="40.77"/><polygon class="cls-6" points="158.22 44.47 159.79 40.77 158.22 37.06 167 40.77 158.22 44.47"/><path class="cls-6" d="M232.84,33.93a.47.47,0,0,1-.12.34L211.49,55.48a.42.42,0,0,1-.35.14.68.68,0,0,1-.47-.21l-4.22-4.22h3.4a2.8,2.8,0,0,0,2.87-2.75V28.75L220,21.52a.51.51,0,0,1,.34-.12h0a.6.6,0,0,1,.46.21l11.86,11.85A.73.73,0,0,1,232.84,33.93Z"/><path class="cls-10" d="M201.08,49l0,0v0Z"/><path class="cls-6" d="M202.36,53.4a.58.58,0,0,1-.45.68l-16.13,4.6a.62.62,0,0,1-.76-.33l-8.23-28.86a.45.45,0,0,1,.07-.37.78.78,0,0,1,.4-.3l13-3.69V48.44a2.81,2.81,0,0,0,2.87,2.75h8.65Z"/><polygon class="cls-6" points="201.1 48.96 201.1 49 201.08 48.96 201.1 48.96"/><path class="cls-6" d="M210.49,18.43v30a.58.58,0,0,1-.64.52H193.09a.59.59,0,0,1-.64-.52v-30a.59.59,0,0,1,.64-.51h16.76A.58.58,0,0,1,210.49,18.43Z"/><polygon class="cls-6" points="201.1 48.96 201.1 49 201.08 48.96 201.1 48.96"/><path class="cls-10" d="M201.08,49l0,0v0Z"/><rect class="cls-11" x="174.17" y="124.01" width="37.17" height="8.98" rx="1.39"/><rect class="cls-11" x="182.21" y="135.56" width="37.17" height="8.98" rx="1.39"/><rect class="cls-11" x="190.24" y="147.11" width="37.17" height="8.98" rx="1.39"/><rect class="cls-11" x="198.28" y="158.66" width="37.17" height="8.98" rx="1.39"/><text class="cls-12" transform="translate(167.01 183.34)">Semi-dense data</text><line class="cls-13" x1="145.24" y1="148.89" x2="162.01" y2="148.89"/><polygon class="cls-11" points="159.21 152.6 160.78 148.89 159.21 145.19 167.98 148.89 159.21 152.6"/><text class="cls-12" transform="translate(83.85 183.34)">Sparse data</text><path class="cls-11" d="M141.5,141.05a.53.53,0,0,1-.13.38l-23.24,23.22a.5.5,0,0,1-.39.14.73.73,0,0,1-.51-.23L112.62,160h3.72a3.07,3.07,0,0,0,3.14-3V135.39l7.91-7.92a.56.56,0,0,1,.37-.14h0a.73.73,0,0,1,.5.23l13,13A.75.75,0,0,1,141.5,141.05Z"/><path class="cls-11" d="M106.74,157.51l0,0v0Z"/><path class="cls-11" d="M108.14,162.37a.63.63,0,0,1-.5.74l-17.66,5a.68.68,0,0,1-.83-.37l-9-31.59a.48.48,0,0,1,.07-.4.82.82,0,0,1,.44-.33l14.19-4v25.52A3.08,3.08,0,0,0,98,160h9.47Z"/><polygon class="cls-11" points="106.76 157.51 106.76 157.55 106.74 157.51 106.76 157.51"/><path class="cls-11" d="M117,124.09v32.85a.64.64,0,0,1-.69.57H98a.65.65,0,0,1-.7-.57V124.09a.65.65,0,0,1,.7-.56h18.35A.63.63,0,0,1,117,124.09Z"/><polygon class="cls-11" points="106.76 157.51 106.76 157.55 106.74 157.51 106.76 157.51"/><path class="cls-11" d="M106.74,157.51l0,0v0Z"/><path class="cls-14" d="M104.3,220.22l-4-2a.21.21,0,0,1,0-.38l4-2,.1,0h12.83l.1,0,4,2a.21.21,0,0,1,0,.38l-4,2-.1,0H104.4Z"/><path class="cls-14" d="M103,222.17v39.66a.21.21,0,0,1-.3.19l-4-2a.21.21,0,0,1-.12-.19V220.18a.21.21,0,0,1,.3-.19l4,2A.21.21,0,0,1,103,222.17Z"/><rect class="cls-14" x="105.19" y="222.45" width="11.25" height="40.4" rx="0.21"/><path class="cls-14" d="M123,260,119,262a.21.21,0,0,1-.3-.19V222.17a.22.22,0,0,1,.11-.2l4.06-2a.21.21,0,0,1,.3.19v39.67A.21.21,0,0,1,123,260Z"/><text class="cls-15" transform="translate(80.52 280.02)">Dense digital <tspan x="-1.11" y="12">reconstruction</tspan></text><line class="cls-16" x1="146.18" y1="245.94" x2="161.07" y2="245.94"/><polygon class="cls-14" points="158.26 249.65 159.84 245.94 158.26 242.24 167.04 245.94 158.26 249.65"/><text class="cls-15" transform="translate(180.07 283.67)">Predictions</text><path class="cls-14" d="M230.83,231.45l-4.78-2,.62,1.47H206.13c-.51,0-1-.08-1.54-.08a16.88,16.88,0,0,0-15.7,10.77V224.74l1.47.63-2-4.78-2,4.78,1.47-.63V246s0,.05,0,.07c0,.52-.08,1-.08,1.58a16.87,16.87,0,0,0,10.78,15.7H183l.62-1.47-4.78,2,4.78,2-.62-1.47h20.38c.42,0,.84.07,1.26.07a16.87,16.87,0,0,0,15.8-11v15l-1.47-.63,2,4.78,2-4.78-1.47.63v-21.3a.52.52,0,0,0-.07-.25A16.85,16.85,0,0,0,210.71,232h16l-.62,1.47Zm-24.32,24.81h-2.45v-2.45h2.45Zm4.42-13a4.41,4.41,0,0,1-.53,2.12,10,10,0,0,1-2.11,2.35,10.53,10.53,0,0,0-1.37,1.37,3,3,0,0,0-.48,1,8.33,8.33,0,0,0-.18,1.87h-2.07c0-.29,0-.51,0-.65a6.05,6.05,0,0,1,.36-2.19,4.91,4.91,0,0,1,.85-1.4,16.19,16.19,0,0,1,1.54-1.5,7.29,7.29,0,0,0,1.46-1.57,2.57,2.57,0,0,0,.33-1.28,3,3,0,0,0-1-2.2,3.28,3.28,0,0,0-2.4-.95,3.22,3.22,0,0,0-2.3.86,4.53,4.53,0,0,0-1.2,2.69l-2.22-.27a5.75,5.75,0,0,1,1.78-3.75,5.67,5.67,0,0,1,3.9-1.3,5.8,5.8,0,0,1,4.1,1.4A4.41,4.41,0,0,1,210.93,243.22Z"/><text class="cls-17" transform="translate(87.84 382.03)"><tspan class="cls-18">V</tspan><tspan x="5.93" y="0">alidation </tspan><tspan x="-13.99" y="12">against literature</tspan></text><path class="cls-19" d="M137.65,331.43l-4.94-2.08.65,1.51H112.18c-.53-.05-1.05-.07-1.59-.07a17.38,17.38,0,0,0-16.18,11.1V324.5l1.51.65-2.08-4.93-2.08,4.93,1.52-.65v22s0,0,0,.06c-.05.54-.07,1.08-.07,1.63a17.4,17.4,0,0,0,11.11,16.2h-16l.64-1.52L84,364.92,88.92,367l-.64-1.51h21c.43,0,.85.06,1.29.06a17.41,17.41,0,0,0,16.3-11.38v15.42l-1.53-.65,2.08,4.94,2.09-4.94-1.53.65v-22a.57.57,0,0,0-.06-.25,17.39,17.39,0,0,0-11-15.38h16.46l-.65,1.52Zm-14.2,16.87a12.64,12.64,0,1,1-12.64-12.64A12.64,12.64,0,0,1,123.45,348.3Zm-20.26,0a7.63,7.63,0,1,0,7.62-7.63A7.63,7.63,0,0,0,103.19,348.3Z"/><path class="cls-19" d="M231.64,330.59l-4.93-2.08.64,1.52H206.17c-.52,0-1-.08-1.58-.08a17.4,17.4,0,0,0-16.19,11.1V323.67l1.52.65-2.08-4.93-2.08,4.93,1.51-.65v22a.14.14,0,0,0,0,.06c0,.54-.09,1.08-.09,1.63a17.41,17.41,0,0,0,11.11,16.2h-16l.64-1.52L178,364.09l4.93,2.08-.64-1.52h21c.43,0,.86.06,1.3.06a17.39,17.39,0,0,0,16.28-11.36v15.41l-1.52-.65,2.08,4.93,2.08-4.93-1.51.65v-22a.55.55,0,0,0-.07-.25,17.42,17.42,0,0,0-11-15.39h16.45l-.64,1.52Zm-20.21,13.26a1.69,1.69,0,0,1-1.72.49c-.5.61-1,1.43-1.21,1.66-.54.7-1,1.43-1.53,2.17a44,44,0,0,0-3,5.43,1.91,1.91,0,0,1-3,.39l-4.82-4.62c-1.75-1.67.91-4.33,2.66-2.65l3,2.82a42.65,42.65,0,0,1,2.39-4c1.08-1.58,2.4-3.77,4-4.91C210.51,338.94,213.65,341.62,211.43,343.85Z"/><text class="cls-17" transform="translate(182.94 382.03)"><tspan class="cls-18">V</tspan><tspan x="5.93" y="0">alidated </tspan><tspan x="-2.31" y="12">predictions</tspan></text><line class="cls-20" x1="145.86" y1="349.88" x2="161.4" y2="349.88"/><polygon class="cls-19" points="158.59 353.58 160.16 349.88 158.59 346.18 167.37 349.88 158.59 353.58"/><path class="cls-21" d="M185.22,434.05l-5.13-2.16.67,1.58h-22c-.54-.05-1.09-.09-1.64-.09a18.1,18.1,0,0,0-16.84,11.55V426.86l1.58.67-2.16-5.13-2.16,5.13,1.58-.67V449.7s0,0,0,.06c0,.56-.09,1.13-.09,1.7a18.09,18.09,0,0,0,11.56,16.84H133.88l.67-1.58-5.13,2.16,5.13,2.17-.67-1.58h21.86c.45,0,.89.07,1.35.07A18.11,18.11,0,0,0,174,457.72v16l-1.58-.67,2.16,5.13,2.16-5.13-1.58.67V450.9a.46.46,0,0,0-.07-.26,18.07,18.07,0,0,0-11.47-16h17.11l-.67,1.57Zm-26.07,26.6h-2.63V458h2.63Zm4.74-14a4.54,4.54,0,0,1-.58,2.27,10.69,10.69,0,0,1-2.26,2.52,11.31,11.31,0,0,0-1.47,1.48,3.22,3.22,0,0,0-.51,1.09,8.75,8.75,0,0,0-.19,2h-2.22c0-.31,0-.54,0-.7A6.38,6.38,0,0,1,157,453a5.24,5.24,0,0,1,.91-1.5,16.51,16.51,0,0,1,1.66-1.61,8,8,0,0,0,1.56-1.69,2.7,2.7,0,0,0,.36-1.37,3.19,3.19,0,0,0-1.05-2.36,3.58,3.58,0,0,0-2.58-1,3.49,3.49,0,0,0-2.46.92,4.91,4.91,0,0,0-1.3,2.89l-2.37-.29a5.66,5.66,0,0,1,6.09-5.42,6.28,6.28,0,0,1,4.4,1.5A4.75,4.75,0,0,1,163.89,446.67Z"/><path class="cls-19" d="M42.28,389.79v36.32a2.06,2.06,0,0,1-2.12,2H19.87a2.06,2.06,0,0,1-2.12-2v-1.19H31.32a4.68,4.68,0,0,0,4.82-4.51v-32.6h4A2.06,2.06,0,0,1,42.28,389.79Z"/><path class="cls-19" d="M33.44,384.1v36.31a2,2,0,0,1-2.12,2H11a2,2,0,0,1-2.11-2v-1.2H22.41a4.67,4.67,0,0,0,4.81-4.5v-32.6h4.1A2.05,2.05,0,0,1,33.44,384.1Z"/><path class="cls-19" d="M24.52,378.39v36.32a2,2,0,0,1-2.11,2H2.12a2.06,2.06,0,0,1-2.12-2V378.39a2.05,2.05,0,0,1,2.12-2H22.41A2,2,0,0,1,24.52,378.39Z"/><text class="cls-17" transform="translate(2.85 440.6)">All data </text><path class="cls-6" d="M141.43,92.85l12.47,17a3.06,3.06,0,0,0,5-.13l11-16.88"/><path class="cls-11" d="M141.43,197l12.47,17a3.05,3.05,0,0,0,5-.14l11-16.88"/><path class="cls-14" d="M141.43,299.75l12.47,17a3.06,3.06,0,0,0,5-.13l11-16.88"/><path class="cls-22" d="M239,146.34h26a13.85,13.85,0,0,1,13.85,13.85V328.42a13.85,13.85,0,0,1-13.85,13.85h-4.86"/><polygon class="cls-19" points="263.02 338.57 261.45 342.27 263.02 345.97 254.24 342.27 263.02 338.57"/><g class="cls-23"><path class="cls-24" d="M238.14,131.41h42.74a13.85,13.85,0,0,1,13.85,13.85V431.05a13.84,13.84,0,0,1-13.85,13.84H259.33"/><polygon class="cls-25" points="262.14 441.19 260.57 444.89 262.14 448.6 253.36 444.89 262.14 441.19"/></g><path class="cls-22" d="M18.89,370.28V353.45A12.15,12.15,0,0,1,31,341.3H54.19"/><polygon class="cls-19" points="51.39 345.01 52.96 341.3 51.39 337.6 60.16 341.3 51.39 345.01"/></g></g></svg>