<?xml version="1.0" encoding="utf-8"?>
<!-- Generator: Adobe Illustrator 23.0.4, SVG Export Plug-In . SVG Version: 6.00 Build 0)  -->
<svg version="1.1" id="Layer_1" xmlns="http://www.w3.org/2000/svg" xmlns:xlink="http://www.w3.org/1999/xlink" x="0px" y="0px"
	 viewBox="0 0 382.3 566.9" style="enable-background:new 0 0 382.3 566.9;" xml:space="preserve">
<style type="text/css">
	.st0{opacity:0.2;fill:#0B0780;}
	.st1{fill:#B2B3B3;}
	.st2{fill:url(#SVGID_1_);}
	.st3{fill:#050A30;}
	.st4{fill:#52617D;}
	.st5{fill:#303354;stroke:#FFFFFF;stroke-miterlimit:10;}
	.st6{fill:none;}
	.st7{enable-background:new    ;}
	.st8{fill:#FFFFFF;}
	.st9{fill:#FFC807;}
	.st10{fill:none;stroke:#FFFFFF;stroke-miterlimit:10;}
</style>
<path id="Shadow" class="st0" d="M278.2,396.2H77.1c-1.3,0-2.4-1.1-2.4-2.4l3-8.5c0-1.3,1.1-2.4,2.4-2.4h195.2
	c1.3,0,2.4,1.1,2.4,2.4l3,8.5C280.6,395.2,279.5,396.2,278.2,396.2z"/>
<g id="Background_1_">
	<path class="st1" d="M280.8,367l-179.5,8.8c-5.1,0-16.3-4.7-16.7-18.1V172.9c0-5.1,4.2-8.3,9.3-8.3h179.6
		c13.3-0.2,24.2,7.8,24.2,13l-7.6,180.2C290.1,362.8,285.9,367,280.8,367z"/>

	<linearGradient id="SVGID_1_" gradientUnits="userSpaceOnUse" x1="275.9889" y1="375.6509" x2="-95.721" y2="-6.7171" gradientTransform="matrix(1 0 0 -1 0 567.89)">
		<stop  offset="0" style="stop-color:#FFFFFF"/>
		<stop  offset="0.1" style="stop-color:#FFFEFA"/>
		<stop  offset="0.2259" style="stop-color:#FFFAEA"/>
		<stop  offset="0.3656" style="stop-color:#FFF5D0"/>
		<stop  offset="0.5154" style="stop-color:#FFEDAC"/>
		<stop  offset="0.6731" style="stop-color:#FFE27E"/>
		<stop  offset="0.836" style="stop-color:#FFD646"/>
		<stop  offset="0.9989" style="stop-color:#FFC807"/>
	</linearGradient>

	<path class="st2" d="M290.2,376.5H103.3c-5.1,0-9.3-4.2-9.3-9.3V180.3c0-5.1,4.2-9.3,9.3-9.3h186.9c5.1,0,9.3,4.2,9.3,9.3v186.9
		C299.5,372.3,295.3,376.5,290.2,376.5z"/>
	<g id="Background">
		<path class="st3" d="M274.4,215.5c-5.2-6.2-3.7-5.9-8.1-12.9c-63.2-28-118.5-16.5-118.5-16.5l3.1,18.4c47-1.8,81,10.8,115,27.5
			C267.9,228.1,270.1,218.3,274.4,215.5z"/>
		<path class="st3" d="M144.9,324.9l4.6,29.1c0,0,28.4-19.4,64.8-11.1c0.3,0.3-0.9,0.7-1.8-7C192.8,328.8,170,324.1,144.9,324.9z"/>
		<path class="st3" d="M145.4,291.6l3.3,27.6c29.5-0.5,53.9-10.9,77.9-1.8c0.3,0.3-1.4-2.7-6.7-11.7
			C178.8,289.9,145.4,291.6,145.4,291.6z"/>
		<path class="st3" d="M145.1,259.4l4.6,27.7c36.2,1.6,60.9-14.3,91-1c0.3,0-1.2-0.3-9.9-13.3C183,253.6,145.1,259.4,145.1,259.4z"
			/>
		<path class="st3" d="M145.1,210.5l6.3,42.3c45-0.2,75.5-25.7,111-10.6c0.9,0,1.5,0.7-10.1-15.5
			C193.7,201.3,145.1,210.5,145.1,210.5z"/>
		<path class="st4" d="M156,193.2l-7.9-5.9c-0.3,0.3-0.3-0.8-0.3-0.5l3.4,19.1l7.9,5.7L156,193.2z"/>
		<path class="st4" d="M153.5,217.6l-8.3-6c-0.3,0.3-0.3-0.8-0.3-0.5l6.6,42.6l8.3,6.3L153.5,217.6z"/>
		<path class="st4" d="M153.5,266.5l-7.9-7.4c-0.3,0.3-0.3,0.5-0.3,0.8l4.2,27.2l8.5,7L153.5,266.5z"/>
		<path class="st4" d="M153.5,298.8l-8.5-7.4c-0.3,0.3,4.2,30,4.2,30l8.1,5.7L153.5,298.8z"/>
		<path class="st4" d="M153.2,332l-8.3-7.5c-0.3,0.3-0.4,0.5-0.3,1l4.9,28.4l8.3,7.4L153.2,332z"/>
		<g>
			<path id="L1fill_1_" class="st5" d="M266.9,234.1c-29.2-14.3-64.7-24.1-106.5-22.7c-0.7,0-1.4-0.5-1.5-1.2l-2.7-15.7c0-0.8,0.5-1.5,1.4-1.6
				c9.1-1.2,59.9-6.3,117.1,22.3L266.9,234.1z"/>
			<path id="L23fill_1_" class="st5" d="M263.6,241.2c-53.9-27.6-99.9-24.6-108.7-23.7c-0.8,0-1.4,0.8-1.2,1.5l5.9,39.6
				c0,0.7,0.7,1.2,1.4,1.2c32.2,0.1,60.6,8.1,84.7,19.2C251.7,266.4,257.7,253.8,263.6,241.2"/>
			<path id="L4fill_1_" class="st5" d="M229.6,312.2c-20.6-9.4-44.3-16.6-70.3-17.9c-0.7,0-1.2-0.5-1.4-1.2l-4.1-25c-0.3-0.8,0.3-1.6,1.2-1.6
				c7.8-0.4,43.4-0.9,86.9,19.8L229.6,312.2z"/>
			<path id="L5fill_1_" class="st5" d="M217.6,337.4c-17-6.3-36.8-10.6-59-10.3c-0.8,0-1.5-0.4-1.5-1.2l-3.4-25.4c-0.1-1,0.5-1.6,1.5-1.6
				c7.3,0.3,36.4,2.7,71.6,18.5L217.6,337.4z"/>
			<path id="L6fill_1_" class="st5" d="M154.7,332c-0.7,0-1.4,0.7-1.2,1.6l4.1,26.1c0.1,0.8,0.8,1.2,1.5,1.2
				c5-0.5,23.1-1.8,45.7,3.9c3.4-7.4,6.8-14.9,10.3-22.3C197.8,335.9,177.6,331.5,154.7,332z"/>
		</g>
	</g>
</g>
<g id="linesandtext">
	<g class="st7">
		<path class="st8" d="M215.5,203.3l0,6.4l3.6,0c0.3,0,0.5,0.1,0.7,0.2c0.2,0.1,0.2,0.3,0.2,0.5c0,0.2-0.1,0.4-0.2,0.5
			c-0.2,0.1-0.4,0.2-0.7,0.2l-4.3,0c-0.4,0-0.7-0.1-0.8-0.3s-0.3-0.5-0.3-0.8l0-6.8c0-0.4,0.1-0.6,0.2-0.8c0.2-0.2,0.4-0.3,0.6-0.3
			c0.3,0,0.5,0.1,0.7,0.3C215.4,202.7,215.5,202.9,215.5,203.3z"/>
		<path class="st8" d="M223.7,210.3l0-5.5c-1,0.8-1.7,1.2-2,1.2c-0.2,0-0.3-0.1-0.4-0.2c-0.1-0.1-0.2-0.3-0.2-0.5
			c0-0.2,0.1-0.4,0.2-0.4c0.1-0.1,0.4-0.2,0.7-0.4c0.5-0.2,0.9-0.5,1.2-0.7c0.3-0.3,0.5-0.5,0.8-0.8s0.4-0.5,0.4-0.6
			c0.1-0.1,0.2-0.1,0.4-0.1c0.2,0,0.4,0.1,0.5,0.2s0.2,0.4,0.2,0.7l0,6.9c0,0.8-0.3,1.2-0.8,1.2c-0.2,0-0.4-0.1-0.6-0.2
			C223.8,210.9,223.7,210.6,223.7,210.3z"/>
	</g>
	<g class="st7">
		<path class="st8" d="M200,238.9l0,6.4l3.6,0c0.3,0,0.5,0.1,0.7,0.2c0.2,0.1,0.2,0.3,0.2,0.5c0,0.2-0.1,0.4-0.2,0.5
			c-0.2,0.1-0.4,0.2-0.7,0.2l-4.3,0c-0.4,0-0.7-0.1-0.8-0.3s-0.3-0.5-0.3-0.8l0-6.8c0-0.4,0.1-0.6,0.2-0.8c0.2-0.2,0.4-0.3,0.6-0.3
			c0.3,0,0.5,0.1,0.7,0.3C200,238.3,200,238.6,200,238.9z"/>
		<path class="st8" d="M207.5,245.4l3.1,0c0.3,0,0.5,0.1,0.7,0.2c0.2,0.1,0.2,0.3,0.2,0.5c0,0.2-0.1,0.4-0.2,0.5
			c-0.1,0.1-0.3,0.2-0.6,0.2l-4.4,0c-0.3,0-0.5-0.1-0.7-0.2c-0.2-0.2-0.3-0.4-0.3-0.6c0-0.1,0.1-0.3,0.2-0.6s0.2-0.4,0.4-0.6
			c0.5-0.6,1-1,1.4-1.4c0.4-0.4,0.7-0.7,0.9-0.8c0.3-0.2,0.6-0.5,0.8-0.7c0.2-0.2,0.4-0.5,0.5-0.7c0.1-0.2,0.2-0.5,0.2-0.7
			c0-0.3-0.1-0.5-0.2-0.7c-0.1-0.2-0.3-0.4-0.5-0.5c-0.2-0.1-0.4-0.2-0.7-0.2c-0.5,0-0.9,0.2-1.2,0.7c0,0.1-0.1,0.2-0.2,0.5
			s-0.2,0.5-0.3,0.6c-0.1,0.1-0.3,0.2-0.5,0.2c-0.2,0-0.4-0.1-0.5-0.2s-0.2-0.3-0.2-0.5c0-0.3,0.1-0.6,0.2-0.9
			c0.1-0.3,0.3-0.6,0.6-0.8c0.2-0.2,0.6-0.4,0.9-0.6s0.8-0.2,1.3-0.2c0.6,0,1.1,0.1,1.6,0.3c0.3,0.1,0.5,0.3,0.7,0.5
			c0.2,0.2,0.4,0.5,0.5,0.8c0.1,0.3,0.2,0.6,0.2,0.9c0,0.5-0.1,0.9-0.4,1.4c-0.2,0.4-0.5,0.7-0.8,1s-0.7,0.6-1.3,1.1
			c-0.6,0.5-1,0.9-1.2,1.1C207.7,245.1,207.6,245.2,207.5,245.4z"/>
		<path class="st8" d="M215.4,241.5c0.4,0,0.7-0.1,1-0.3c0.3-0.2,0.4-0.5,0.4-0.9c0-0.3-0.1-0.6-0.3-0.8s-0.5-0.3-0.9-0.3
			c-0.2,0-0.4,0-0.6,0.1c-0.2,0.1-0.3,0.2-0.4,0.3c-0.1,0.1-0.2,0.3-0.3,0.4c-0.1,0.2-0.2,0.3-0.2,0.5c0,0.1-0.1,0.1-0.2,0.2
			c-0.1,0-0.2,0.1-0.4,0.1c-0.2,0-0.3-0.1-0.4-0.2c-0.1-0.1-0.2-0.3-0.2-0.5c0-0.2,0.1-0.4,0.2-0.7c0.1-0.2,0.3-0.4,0.6-0.7
			c0.2-0.2,0.5-0.4,0.9-0.5c0.4-0.1,0.8-0.2,1.2-0.2c0.4,0,0.7,0.1,1.1,0.2c0.3,0.1,0.6,0.3,0.8,0.5c0.2,0.2,0.4,0.4,0.5,0.7
			c0.1,0.3,0.2,0.5,0.2,0.9c0,0.4-0.1,0.7-0.3,1c-0.2,0.3-0.4,0.6-0.7,0.8c0.3,0.2,0.6,0.4,0.8,0.6c0.2,0.2,0.4,0.5,0.5,0.7
			c0.1,0.3,0.2,0.5,0.2,0.8c0,0.4-0.1,0.7-0.2,1.1c-0.1,0.3-0.4,0.6-0.6,0.9c-0.3,0.3-0.6,0.5-1,0.6c-0.4,0.1-0.8,0.2-1.3,0.2
			c-0.5,0-0.9-0.1-1.3-0.3s-0.7-0.4-0.9-0.6c-0.2-0.3-0.4-0.5-0.6-0.8c-0.1-0.3-0.2-0.5-0.2-0.7c0-0.2,0.1-0.4,0.2-0.6
			c0.1-0.1,0.3-0.2,0.6-0.2c0.1,0,0.2,0,0.3,0.1c0.1,0.1,0.2,0.1,0.2,0.2c0.2,0.6,0.4,1,0.7,1.2c0.2,0.3,0.6,0.4,1,0.4
			c0.2,0,0.5-0.1,0.7-0.2c0.2-0.1,0.4-0.3,0.6-0.5c0.1-0.2,0.2-0.5,0.2-0.8c0-0.5-0.1-0.8-0.4-1.1c-0.3-0.3-0.6-0.4-1.1-0.4
			c-0.1,0-0.2,0-0.4,0c-0.2,0-0.3,0-0.3,0c-0.2,0-0.4-0.1-0.5-0.2c-0.1-0.1-0.2-0.3-0.2-0.5c0-0.2,0.1-0.3,0.2-0.5s0.4-0.2,0.6-0.2
			H215.4z"/>
	</g>
	<g class="st7">
		<path class="st8" d="M193,281.9l0.1,6.4l3.6,0c0.3,0,0.5,0.1,0.7,0.2c0.2,0.1,0.2,0.3,0.2,0.5c0,0.2-0.1,0.4-0.2,0.5
			c-0.2,0.1-0.4,0.2-0.7,0.2l-4.3,0c-0.4,0-0.7-0.1-0.8-0.2s-0.3-0.4-0.3-0.8l-0.1-6.8c0-0.4,0.1-0.6,0.2-0.8
			c0.2-0.2,0.4-0.3,0.6-0.3c0.3,0,0.5,0.1,0.7,0.3C192.9,281.3,193,281.5,193,281.9z"/>
		<path class="st8" d="M202.1,288.9l0-1.1l-3,0c-0.4,0-0.7-0.1-0.9-0.2c-0.2-0.2-0.3-0.4-0.3-0.7c0-0.1,0-0.2,0-0.2
			c0-0.1,0.1-0.2,0.1-0.2c0.1-0.1,0.1-0.2,0.2-0.3c0.1-0.1,0.1-0.2,0.2-0.3l3.1-4.3c0.2-0.3,0.4-0.5,0.5-0.6
			c0.1-0.1,0.3-0.2,0.5-0.2c0.6,0,0.9,0.3,0.9,1l0.1,4.6l0.3,0c0.3,0,0.6,0,0.7,0.1c0.2,0.1,0.3,0.3,0.3,0.5c0,0.2-0.1,0.4-0.2,0.5
			c-0.2,0.1-0.4,0.2-0.7,0.2l-0.4,0l0,1.1c0,0.3-0.1,0.5-0.2,0.7c-0.1,0.2-0.3,0.2-0.5,0.2c-0.2,0-0.4-0.1-0.5-0.2
			C202.1,289.4,202.1,289.2,202.1,288.9z M199.5,286.5l2.6,0l0-3.5L199.5,286.5z"/>
	</g>
	<g class="st7">
		<path class="st8" d="M184.3,314.1l-0.1,6.4l3.6,0c0.3,0,0.5,0.1,0.7,0.2c0.2,0.1,0.2,0.3,0.2,0.5c0,0.2-0.1,0.4-0.2,0.5
			c-0.2,0.1-0.4,0.2-0.7,0.2l-4.3,0c-0.4,0-0.7-0.1-0.8-0.3s-0.2-0.5-0.2-0.8l0.1-6.8c0-0.4,0.1-0.6,0.3-0.8
			c0.2-0.2,0.4-0.3,0.6-0.3c0.3,0,0.5,0.1,0.6,0.3S184.3,313.8,184.3,314.1z"/>
		<path class="st8" d="M194.7,314.8l-2.9,0l-0.4,1.9c0.6-0.3,1.1-0.4,1.6-0.4c0.4,0,0.7,0.1,1.1,0.2c0.3,0.1,0.6,0.3,0.9,0.6
			c0.2,0.3,0.4,0.6,0.6,0.9c0.1,0.3,0.2,0.7,0.2,1.1c0,0.6-0.1,1.1-0.4,1.6c-0.3,0.5-0.6,0.8-1.1,1.1c-0.5,0.3-1.1,0.4-1.7,0.4
			c-0.7,0-1.3-0.1-1.7-0.4c-0.4-0.3-0.8-0.6-0.9-0.9s-0.3-0.6-0.3-0.9c0-0.2,0.1-0.3,0.2-0.4s0.3-0.2,0.5-0.2c0.3,0,0.6,0.2,0.7,0.6
			c0.2,0.4,0.4,0.6,0.6,0.8c0.3,0.2,0.6,0.3,0.9,0.3c0.3,0,0.6-0.1,0.8-0.2c0.2-0.2,0.4-0.4,0.5-0.7c0.1-0.3,0.2-0.6,0.2-1
			c0-0.4-0.1-0.7-0.2-1c-0.1-0.3-0.3-0.5-0.5-0.6c-0.2-0.1-0.5-0.2-0.8-0.2c-0.3,0-0.6,0-0.7,0.1c-0.1,0.1-0.4,0.2-0.6,0.4
			c-0.3,0.2-0.5,0.3-0.7,0.3c-0.2,0-0.4-0.1-0.5-0.2c-0.2-0.1-0.2-0.3-0.2-0.5c0,0,0-0.2,0.1-0.4l0.5-2.9c0.1-0.3,0.2-0.6,0.3-0.7
			c0.2-0.2,0.4-0.2,0.7-0.2l3.2,0c0.6,0,0.9,0.2,0.9,0.7c0,0.2-0.1,0.4-0.2,0.5C195.2,314.7,195,314.8,194.7,314.8z"/>
	</g>
	<g class="st7">
		<path class="st8" d="M180.5,345.2l-0.1,6.4l3.6,0.1c0.3,0,0.5,0.1,0.7,0.2c0.2,0.1,0.2,0.3,0.2,0.5c0,0.2-0.1,0.4-0.2,0.5
			c-0.2,0.1-0.4,0.2-0.7,0.2l-4.3-0.1c-0.4,0-0.7-0.1-0.8-0.3s-0.2-0.5-0.2-0.8l0.1-6.8c0-0.4,0.1-0.6,0.3-0.8
			c0.2-0.2,0.4-0.3,0.6-0.3c0.3,0,0.5,0.1,0.6,0.3C180.4,344.5,180.5,344.8,180.5,345.2z"/>
		<path class="st8" d="M187.4,348.4c0.3-0.3,0.6-0.6,0.9-0.7c0.3-0.2,0.7-0.2,1.1-0.2c0.4,0,0.7,0.1,1,0.2c0.3,0.1,0.6,0.4,0.8,0.6
			c0.2,0.3,0.4,0.6,0.5,0.9c0.1,0.4,0.2,0.7,0.2,1.1c0,0.6-0.1,1.1-0.4,1.5s-0.6,0.8-1.1,1.1s-1,0.4-1.6,0.4c-0.7,0-1.2-0.2-1.7-0.5
			c-0.5-0.3-0.8-0.8-1.1-1.5c-0.2-0.6-0.4-1.4-0.3-2.4c0-0.8,0.1-1.4,0.3-2c0.2-0.6,0.4-1.1,0.7-1.5c0.3-0.4,0.7-0.7,1.1-0.9
			c0.4-0.2,0.9-0.3,1.4-0.3c0.5,0,1,0.1,1.3,0.3c0.4,0.2,0.7,0.5,0.9,0.8c0.2,0.3,0.3,0.6,0.3,0.9c0,0.2-0.1,0.3-0.2,0.4
			c-0.1,0.1-0.3,0.2-0.5,0.2c-0.2,0-0.3-0.1-0.5-0.2c-0.1-0.1-0.2-0.3-0.3-0.4c-0.1-0.2-0.2-0.4-0.4-0.6c-0.2-0.1-0.4-0.2-0.7-0.2
			c-0.2,0-0.4,0.1-0.6,0.2c-0.2,0.1-0.4,0.3-0.5,0.5C187.6,346.6,187.4,347.3,187.4,348.4z M188.9,352.2c0.4,0,0.7-0.2,1-0.5
			c0.3-0.3,0.4-0.8,0.4-1.3c0-0.4-0.1-0.7-0.2-0.9c-0.1-0.3-0.3-0.5-0.5-0.6c-0.2-0.1-0.5-0.2-0.7-0.2c-0.2,0-0.5,0.1-0.7,0.2
			c-0.2,0.1-0.4,0.3-0.6,0.6c-0.1,0.2-0.2,0.5-0.2,0.9c0,0.5,0.1,1,0.4,1.4C188.1,352,188.5,352.1,188.9,352.2z"/>
	</g>
	<g class="st7">
		<path class="st9" d="M272.3,356.9c0,1-0.3,1.9-0.8,2.7c-0.5,0.8-1.3,1.4-2.3,1.9s-2.2,0.7-3.5,0.7c-1.6,0-3-0.3-4-0.9
			c-0.7-0.4-1.4-1-1.8-1.8c-0.5-0.7-0.7-1.5-0.7-2.2c0-0.4,0.1-0.8,0.4-1c0.3-0.3,0.6-0.4,1.1-0.4c0.4,0,0.6,0.1,0.9,0.3
			c0.2,0.2,0.5,0.6,0.6,1c0.2,0.5,0.4,1,0.7,1.3c0.2,0.4,0.6,0.6,1,0.9c0.4,0.2,1,0.3,1.7,0.3c1,0,1.8-0.2,2.4-0.7
			c0.6-0.5,0.9-1,0.9-1.7c0-0.5-0.2-1-0.5-1.3s-0.8-0.6-1.3-0.8c-0.5-0.2-1.2-0.4-2.1-0.6c-1.2-0.3-2.2-0.6-3-1
			c-0.8-0.4-1.4-0.9-1.9-1.5c-0.5-0.6-0.7-1.4-0.7-2.4c0-0.9,0.2-1.7,0.7-2.4s1.2-1.2,2.1-1.6c0.9-0.4,2-0.6,3.3-0.6
			c1,0,1.9,0.1,2.6,0.4c0.7,0.3,1.3,0.6,1.8,1c0.5,0.4,0.8,0.9,1.1,1.3s0.3,0.9,0.3,1.3c0,0.4-0.1,0.8-0.4,1.1
			c-0.3,0.3-0.6,0.5-1,0.5c-0.4,0-0.7-0.1-0.9-0.3c-0.2-0.2-0.4-0.5-0.6-0.9c-0.3-0.6-0.7-1.1-1.1-1.5c-0.4-0.3-1.1-0.5-2-0.5
			c-0.9,0-1.6,0.2-2.1,0.6c-0.5,0.4-0.8,0.8-0.8,1.4c0,0.3,0.1,0.6,0.3,0.9s0.4,0.4,0.7,0.6c0.3,0.2,0.6,0.3,1,0.4
			c0.3,0.1,0.9,0.2,1.6,0.4c0.9,0.2,1.8,0.5,2.5,0.7c0.8,0.3,1.4,0.6,1.9,1c0.5,0.4,0.9,0.8,1.2,1.4
			C272.1,355.3,272.3,356,272.3,356.9z"/>
		<path class="st9" d="M279.8,360.3V350c-1.9,1.5-3.2,2.2-3.8,2.2c-0.3,0-0.6-0.1-0.8-0.4c-0.2-0.3-0.4-0.5-0.4-0.9
			c0-0.4,0.1-0.7,0.4-0.8c0.2-0.2,0.7-0.4,1.3-0.7c0.9-0.4,1.6-0.9,2.2-1.3c0.5-0.5,1-1,1.4-1.6c0.4-0.6,0.7-0.9,0.8-1.1
			c0.1-0.1,0.4-0.2,0.7-0.2c0.4,0,0.7,0.2,1,0.5c0.2,0.3,0.4,0.7,0.4,1.3v12.9c0,1.5-0.5,2.3-1.5,2.3c-0.5,0-0.8-0.2-1.1-0.5
			C279.9,361.3,279.8,360.9,279.8,360.3z"/>
	</g>
	<g>
		<path class="st10" d="M267.6,231.7c-0.5,1.3-2,1.8-3.3,1.2c-28.7-13.6-63.4-22.8-103.9-21.5c-0.7,0-1.4-0.5-1.5-1.2l-2.7-15.7
			c0-0.8,0.5-1.5,1.4-1.6c9-1.2,58.7-6.2,115,21.3c1.2,0.6,1.7,2,1.2,3.1L267.6,231.7z"/>
		<path class="st10" d="M214.1,344.9c0.5-1.3-0.1-2.8-1.4-3.2c-16.8-6.2-36.2-10.1-58-9.6c-0.7,0-1.4,0.7-1.2,1.6l4.1,26.1
			c0.1,0.8,0.8,1.2,1.5,1.2c4.9-0.5,22.5-1.7,44.5,3.6c1.2,0.3,2.4-0.3,2.8-1.4L214.1,344.9z"/>
		<path class="st10" d="M217.3,337.3c-17-6.3-36.6-10.4-58.6-10.2c-0.8,0-1.5-0.4-1.5-1.2l-3.4-25.4c-0.1-1,0.5-1.6,1.5-1.6
			c7.3,0.3,36.6,2.7,71.9,18.7L217.3,337.3z"/>
		<path class="st10" d="M230.9,310.1c-0.6,1.2-2,1.7-3.2,1.2c-20.1-9-43.2-15.7-68.4-17c-0.7,0-1.2-0.5-1.4-1.2l-4.1-25
			c-0.3-0.8,0.3-1.6,1.2-1.6c7.7-0.4,42.3-0.9,84.8,18.8c1.2,0.6,1.7,2,1.2,3.3L230.9,310.1z"/>
		<path class="st10" d="M247.6,277.2c-0.5,1.2-2,1.8-3.2,1.2c-23.8-10.8-51.8-18.5-83.4-18.6c-0.7,0-1.4-0.5-1.4-1.2l-5.9-39.6
			c-0.1-0.7,0.4-1.5,1.2-1.5c8.6-0.9,53.5-3.8,106.4,22.5c1.2,0.6,1.7,2,1.1,3.2L247.6,277.2z"/>
	</g>
</g>
</svg>
