<?xml version="1.0" encoding="utf-8"?>
<!-- Generator: Adobe Illustrator 23.0.4, SVG Export Plug-In . SVG Version: 6.00 Build 0)  -->
<svg version="1.1" id="Layer_1" xmlns="http://www.w3.org/2000/svg" xmlns:xlink="http://www.w3.org/1999/xlink" x="0px" y="0px"
	 viewBox="0 0 382.3 566.9" style="enable-background:new 0 0 382.3 566.9;" xml:space="preserve">
<style type="text/css">
	.st0{opacity:0.2;fill:#0B0780;}
	.st1{fill:#303354;stroke:#FFFFFF;stroke-miterlimit:10;}
	.st2{fill:none;}
	.st3{enable-background:new    ;}
	.st4{fill:#FFFFFF;}
	.st5{fill:none;stroke:#FFFFFF;stroke-miterlimit:10;}
</style>
<g id="shadow_1_">
	<polygon id="Shadow" class="st0" points="221.4,370 157.7,370 125.8,385.6 157.7,401.3 221.4,401.3 253.3,385.6 	"/>
</g>
<g id="Plain_background">
	<polygon id="Microcircuitback" class="st1" points="228.6,141.9 164.8,141.9 133,157.6 133.1,157.8 133.1,191.8 133.1,191.8 
		133.1,256.7 133.1,256.8 133.1,257.5 133.1,291.1 133.1,291.1 133.1,291.8 133.1,325.5 133.1,325.5 133.1,326.2 133.1,359.5 
		164.8,375.1 228.6,375.1 260.3,359.5 260.3,326.2 260.3,325.5 260.3,325.5 260.3,291.8 260.3,291.1 260.3,291.1 260.3,257.5 
		260.3,256.8 260.3,256.7 260.3,191.8 260.3,191.8 260.3,157.8 260.4,157.6 	"/>
</g>
<polygon id="Layer1fill" class="st2" points="228.6,173.2 228.6,173.2 164.8,173.2 164.8,173.2 133,157.6 164.8,141.9 133,157.6 
	133.1,157.8 133.1,191.8 133.1,191.8 164.8,207.4 164.8,207.4 228.6,207.4 228.6,207.4 260.3,191.8 260.3,191.8 260.3,157.8 
	260.4,157.6 "/>
<polygon id="Layer23fill" class="st2" points="228.6,207.4 228.6,207.4 164.8,207.4 164.8,207.4 133.1,191.8 133.1,256.7 
	133.1,256.8 164.8,272.3 164.8,272.4 228.6,272.4 228.6,272.3 260.3,256.8 260.3,256.7 260.3,191.8 "/>
<polygon id="Layer4fill" class="st2" points="228.6,272.3 228.6,272.4 164.8,272.4 164.8,272.3 133.1,256.8 133.1,257.5 
	133.1,291.1 133.1,291.1 164.8,306.7 164.8,306.7 228.6,306.7 228.6,306.7 260.3,291.1 260.3,291.1 260.3,257.5 260.3,256.8 "/>
<polygon id="Layer6fill" class="st2" points="228.6,341.1 228.6,341.1 164.8,341.1 164.8,341.1 133.1,325.5 133.1,326.2 
	133.1,359.5 164.8,375.1 228.6,375.1 260.3,359.5 260.3,326.2 260.3,325.5 "/>
<polygon id="Layer5fill" class="st2" points="228.6,306.7 228.6,306.7 164.8,306.7 164.8,306.7 133.1,291.1 133.1,291.8 
	133.1,325.5 133.1,325.5 164.8,341.1 164.8,341.1 228.6,341.1 228.6,341.1 260.3,325.5 260.3,325.5 260.3,291.8 260.3,291.1 "/>
<g id="Textandlines">
	<g class="st3">
		<path class="st4" d="M192.2,187v6.1h3.4c0.3,0,0.5,0.1,0.6,0.2c0.1,0.1,0.2,0.3,0.2,0.5c0,0.2-0.1,0.4-0.2,0.5
			c-0.1,0.1-0.4,0.2-0.6,0.2h-4.1c-0.4,0-0.6-0.1-0.8-0.2c-0.2-0.2-0.2-0.4-0.2-0.8V187c0-0.3,0.1-0.6,0.2-0.8
			c0.2-0.2,0.4-0.3,0.6-0.3c0.3,0,0.5,0.1,0.6,0.3C192.1,186.4,192.2,186.7,192.2,187z"/>
		<path class="st4" d="M200,193.8v-5.2c-1,0.7-1.6,1.1-2,1.1c-0.2,0-0.3-0.1-0.4-0.2s-0.2-0.3-0.2-0.4c0-0.2,0.1-0.3,0.2-0.4
			c0.1-0.1,0.3-0.2,0.6-0.4c0.5-0.2,0.8-0.4,1.1-0.7c0.3-0.2,0.5-0.5,0.7-0.8c0.2-0.3,0.4-0.5,0.4-0.5c0.1-0.1,0.2-0.1,0.4-0.1
			c0.2,0,0.4,0.1,0.5,0.2c0.1,0.2,0.2,0.4,0.2,0.6v6.5c0,0.8-0.3,1.1-0.8,1.1c-0.2,0-0.4-0.1-0.6-0.2
			C200.1,194.3,200,194.1,200,193.8z"/>
	</g>
	<g class="st3">
		<path class="st4" d="M188.8,238.2v6.1h3.4c0.3,0,0.5,0.1,0.6,0.2c0.1,0.1,0.2,0.3,0.2,0.5c0,0.2-0.1,0.4-0.2,0.5s-0.4,0.2-0.6,0.2
			h-4.1c-0.4,0-0.6-0.1-0.8-0.2c-0.2-0.2-0.2-0.4-0.2-0.8v-6.5c0-0.3,0.1-0.6,0.2-0.8c0.2-0.2,0.4-0.3,0.6-0.3
			c0.3,0,0.5,0.1,0.6,0.3C188.7,237.6,188.8,237.8,188.8,238.2z"/>
		<path class="st4" d="M195.9,244.3h3c0.3,0,0.5,0.1,0.7,0.2s0.2,0.3,0.2,0.5c0,0.2-0.1,0.3-0.2,0.5c-0.1,0.1-0.3,0.2-0.6,0.2h-4.2
			c-0.3,0-0.5-0.1-0.7-0.2s-0.2-0.3-0.2-0.6c0-0.1,0.1-0.3,0.2-0.5c0.1-0.2,0.2-0.4,0.3-0.5c0.5-0.5,1-1,1.4-1.4
			c0.4-0.4,0.7-0.6,0.9-0.7c0.3-0.2,0.6-0.4,0.8-0.7c0.2-0.2,0.4-0.5,0.5-0.7c0.1-0.2,0.2-0.5,0.2-0.7c0-0.2-0.1-0.5-0.2-0.7
			s-0.3-0.3-0.5-0.4c-0.2-0.1-0.4-0.2-0.7-0.2c-0.5,0-0.9,0.2-1.2,0.7c0,0.1-0.1,0.2-0.2,0.5c-0.1,0.3-0.2,0.5-0.3,0.6
			c-0.1,0.1-0.3,0.2-0.5,0.2c-0.2,0-0.3-0.1-0.5-0.2s-0.2-0.3-0.2-0.5c0-0.3,0.1-0.5,0.2-0.8c0.1-0.3,0.3-0.5,0.5-0.8
			s0.5-0.4,0.9-0.6c0.4-0.1,0.8-0.2,1.3-0.2c0.6,0,1.1,0.1,1.5,0.3c0.3,0.1,0.5,0.3,0.7,0.5c0.2,0.2,0.4,0.5,0.5,0.7
			s0.2,0.6,0.2,0.9c0,0.5-0.1,0.9-0.4,1.3s-0.5,0.7-0.7,0.9c-0.2,0.2-0.7,0.6-1.2,1c-0.6,0.5-1,0.8-1.2,1.1
			C196.1,244.1,196,244.2,195.9,244.3z"/>
		<path class="st4" d="M203.4,240.6c0.4,0,0.7-0.1,0.9-0.3c0.3-0.2,0.4-0.5,0.4-0.9c0-0.3-0.1-0.5-0.3-0.8c-0.2-0.2-0.5-0.3-0.8-0.3
			c-0.2,0-0.4,0-0.6,0.1c-0.2,0.1-0.3,0.2-0.4,0.3s-0.2,0.2-0.2,0.4c-0.1,0.2-0.1,0.3-0.2,0.5c0,0.1-0.1,0.1-0.2,0.2
			c-0.1,0-0.2,0.1-0.3,0.1c-0.2,0-0.3-0.1-0.4-0.2c-0.1-0.1-0.2-0.3-0.2-0.5c0-0.2,0.1-0.4,0.2-0.6s0.3-0.4,0.5-0.6
			c0.2-0.2,0.5-0.4,0.9-0.5c0.3-0.1,0.7-0.2,1.1-0.2c0.4,0,0.7,0,1,0.2c0.3,0.1,0.6,0.2,0.8,0.4c0.2,0.2,0.4,0.4,0.5,0.7
			c0.1,0.3,0.2,0.5,0.2,0.8c0,0.4-0.1,0.7-0.2,1s-0.4,0.5-0.7,0.8c0.3,0.2,0.5,0.3,0.8,0.5c0.2,0.2,0.4,0.4,0.5,0.7
			c0.1,0.2,0.2,0.5,0.2,0.8c0,0.3-0.1,0.7-0.2,1c-0.1,0.3-0.3,0.6-0.6,0.9c-0.3,0.3-0.6,0.5-1,0.6c-0.4,0.1-0.8,0.2-1.2,0.2
			c-0.5,0-0.9-0.1-1.2-0.2c-0.4-0.2-0.7-0.4-0.9-0.6c-0.2-0.2-0.4-0.5-0.5-0.8c-0.1-0.3-0.2-0.5-0.2-0.7c0-0.2,0.1-0.4,0.2-0.5
			c0.1-0.1,0.3-0.2,0.5-0.2c0.1,0,0.2,0,0.3,0.1c0.1,0.1,0.2,0.1,0.2,0.2c0.2,0.5,0.4,0.9,0.6,1.2c0.2,0.3,0.5,0.4,1,0.4
			c0.2,0,0.5-0.1,0.7-0.2c0.2-0.1,0.4-0.3,0.5-0.5s0.2-0.5,0.2-0.8c0-0.4-0.1-0.8-0.4-1c-0.2-0.3-0.6-0.4-1-0.4c-0.1,0-0.2,0-0.4,0
			c-0.2,0-0.3,0-0.3,0c-0.2,0-0.4-0.1-0.5-0.2c-0.1-0.1-0.2-0.2-0.2-0.4c0-0.2,0.1-0.3,0.2-0.4c0.1-0.1,0.3-0.2,0.6-0.2H203.4z"/>
	</g>
	<g class="st3">
		<path class="st4" d="M192.2,286.7v6.1h3.4c0.3,0,0.5,0.1,0.6,0.2c0.1,0.1,0.2,0.3,0.2,0.5c0,0.2-0.1,0.4-0.2,0.5
			c-0.1,0.1-0.4,0.2-0.6,0.2h-4.1c-0.4,0-0.6-0.1-0.8-0.2c-0.2-0.2-0.2-0.4-0.2-0.8v-6.5c0-0.3,0.1-0.6,0.2-0.8
			c0.2-0.2,0.4-0.3,0.6-0.3c0.3,0,0.5,0.1,0.6,0.3C192.1,286.1,192.2,286.4,192.2,286.7z"/>
		<path class="st4" d="M200.8,293.5v-1.1h-2.9c-0.4,0-0.6-0.1-0.8-0.2s-0.3-0.4-0.3-0.7c0-0.1,0-0.1,0-0.2c0-0.1,0.1-0.2,0.1-0.2
			c0.1-0.1,0.1-0.2,0.2-0.2c0.1-0.1,0.1-0.2,0.2-0.3l3-4.1c0.2-0.3,0.4-0.5,0.5-0.6c0.1-0.1,0.3-0.2,0.5-0.2c0.6,0,0.9,0.3,0.9,1
			v4.4h0.2c0.3,0,0.5,0,0.7,0.1c0.2,0.1,0.3,0.3,0.3,0.5c0,0.2-0.1,0.4-0.2,0.5c-0.1,0.1-0.4,0.2-0.7,0.2h-0.3v1.1
			c0,0.3-0.1,0.5-0.2,0.7c-0.1,0.1-0.3,0.2-0.5,0.2c-0.2,0-0.4-0.1-0.5-0.2S200.8,293.8,200.8,293.5z M198.3,291.2h2.5v-3.3
			L198.3,291.2z"/>
	</g>
	<g class="st3">
		<path class="st4" d="M192.2,320.4v6.1h3.4c0.3,0,0.5,0.1,0.6,0.2c0.1,0.1,0.2,0.3,0.2,0.5c0,0.2-0.1,0.4-0.2,0.5
			c-0.1,0.1-0.4,0.2-0.6,0.2h-4.1c-0.4,0-0.6-0.1-0.8-0.2c-0.2-0.2-0.2-0.4-0.2-0.8v-6.5c0-0.3,0.1-0.6,0.2-0.8
			c0.2-0.2,0.4-0.3,0.6-0.3c0.3,0,0.5,0.1,0.6,0.3C192.1,319.8,192.2,320.1,192.2,320.4z"/>
		<path class="st4" d="M202.1,320.9h-2.7l-0.3,1.9c0.5-0.3,1-0.4,1.5-0.4c0.4,0,0.7,0.1,1,0.2c0.3,0.1,0.6,0.3,0.8,0.6
			s0.4,0.5,0.6,0.9c0.1,0.3,0.2,0.7,0.2,1.1c0,0.6-0.1,1.1-0.4,1.5c-0.2,0.5-0.6,0.8-1.1,1.1c-0.5,0.3-1,0.4-1.6,0.4
			c-0.7,0-1.2-0.1-1.7-0.4c-0.4-0.3-0.7-0.5-0.9-0.9s-0.3-0.6-0.3-0.9c0-0.1,0.1-0.3,0.2-0.4c0.1-0.1,0.3-0.2,0.5-0.2
			c0.3,0,0.6,0.2,0.7,0.6c0.2,0.3,0.4,0.6,0.6,0.8c0.3,0.2,0.5,0.3,0.9,0.3c0.3,0,0.6-0.1,0.8-0.2s0.4-0.4,0.5-0.6
			c0.1-0.3,0.2-0.6,0.2-0.9c0-0.4-0.1-0.7-0.2-0.9c-0.1-0.3-0.3-0.5-0.5-0.6s-0.5-0.2-0.7-0.2c-0.3,0-0.6,0-0.7,0.1
			c-0.1,0.1-0.3,0.2-0.6,0.4c-0.3,0.2-0.5,0.3-0.7,0.3c-0.2,0-0.4-0.1-0.5-0.2c-0.1-0.1-0.2-0.3-0.2-0.5c0,0,0-0.1,0.1-0.4l0.5-2.7
			c0.1-0.3,0.2-0.6,0.3-0.7s0.4-0.2,0.7-0.2h3c0.6,0,0.9,0.2,0.9,0.7c0,0.2-0.1,0.4-0.2,0.5S202.4,320.9,202.1,320.9z"/>
	</g>
	<g class="st3">
		<path class="st4" d="M192.2,353.9v6.1h3.4c0.3,0,0.5,0.1,0.6,0.2c0.1,0.1,0.2,0.3,0.2,0.5c0,0.2-0.1,0.4-0.2,0.5
			c-0.1,0.1-0.4,0.2-0.6,0.2h-4.1c-0.4,0-0.6-0.1-0.8-0.2c-0.2-0.2-0.2-0.4-0.2-0.8v-6.5c0-0.3,0.1-0.6,0.2-0.8
			c0.2-0.2,0.4-0.3,0.6-0.3c0.3,0,0.5,0.1,0.6,0.3C192.1,353.3,192.2,353.6,192.2,353.9z"/>
		<path class="st4" d="M198.8,356.9c0.3-0.3,0.5-0.5,0.8-0.7c0.3-0.1,0.6-0.2,1-0.2c0.4,0,0.7,0.1,1,0.2c0.3,0.1,0.6,0.3,0.8,0.6
			c0.2,0.2,0.4,0.5,0.5,0.9c0.1,0.3,0.2,0.7,0.2,1.1c0,0.5-0.1,1-0.4,1.5c-0.2,0.4-0.6,0.8-1,1c-0.4,0.2-0.9,0.4-1.5,0.4
			c-0.6,0-1.2-0.2-1.7-0.5s-0.8-0.8-1.1-1.4c-0.2-0.6-0.4-1.4-0.4-2.2c0-0.7,0.1-1.4,0.2-1.9c0.1-0.6,0.4-1,0.6-1.4
			c0.3-0.4,0.6-0.7,1-0.8s0.8-0.3,1.4-0.3c0.5,0,0.9,0.1,1.3,0.3c0.4,0.2,0.7,0.4,0.8,0.7c0.2,0.3,0.3,0.6,0.3,0.8
			c0,0.2-0.1,0.3-0.2,0.4c-0.1,0.1-0.3,0.2-0.5,0.2c-0.2,0-0.3-0.1-0.4-0.2c-0.1-0.1-0.2-0.2-0.3-0.4c-0.1-0.2-0.2-0.4-0.4-0.6
			c-0.2-0.1-0.4-0.2-0.7-0.2c-0.2,0-0.4,0.1-0.6,0.2s-0.4,0.3-0.5,0.5C199,355.1,198.8,355.9,198.8,356.9z M200.3,360.5
			c0.4,0,0.7-0.2,1-0.5c0.3-0.3,0.4-0.7,0.4-1.2c0-0.3-0.1-0.6-0.2-0.9c-0.1-0.2-0.3-0.4-0.5-0.6c-0.2-0.1-0.4-0.2-0.7-0.2
			c-0.2,0-0.5,0.1-0.7,0.2c-0.2,0.1-0.4,0.3-0.5,0.5s-0.2,0.5-0.2,0.8c0,0.5,0.1,0.9,0.4,1.3C199.6,360.3,199.9,360.5,200.3,360.5z"
			/>
	</g>
	<polygon class="st5" points="260.4,157.6 228.6,141.9 164.8,141.9 133,157.6 133.1,157.8 133.1,359.5 164.8,375.1 228.6,375.1 
		260.3,359.5 260.3,157.8 	"/>
	<g>
		<polygon class="st5" points="133.1,191.8 133.1,256.3 164.8,272 228.6,272 260.3,256.3 260.3,191.8 228.4,207.2 165,207.2 		"/>
	</g>
	<polygon class="st5" points="228.6,141.9 164.8,141.9 133,157.6 164.8,173.2 228.6,173.2 260.4,157.6 	"/>
	<polyline class="st5" points="133,191.8 164.8,207.4 228.6,207.4 260.4,191.8 	"/>
	<line class="st5" x1="164.8" y1="173.4" x2="164.8" y2="207.4"/>
	<line class="st5" x1="228.6" y1="173.4" x2="228.6" y2="207.4"/>
	<line class="st5" x1="260.3" y1="157.8" x2="260.3" y2="191.8"/>
	<line class="st5" x1="133.1" y1="157.8" x2="133.1" y2="191.8"/>
	<path class="st5" d="M164.8,272.4"/>
	<path class="st5" d="M164.8,238.4"/>
	<path class="st5" d="M228.6,272.4"/>
	<path class="st5" d="M228.6,238.4"/>
	<line class="st5" x1="260.3" y1="191.8" x2="260.3" y2="256.7"/>
	<line class="st5" x1="228.6" y1="207" x2="228.6" y2="272.8"/>
	<line class="st5" x1="133.1" y1="191.8" x2="133.1" y2="256.7"/>
	<line class="st5" x1="164.8" y1="207" x2="164.8" y2="272.4"/>
	<polyline class="st5" points="133,291.1 164.8,306.7 228.6,306.7 260.4,291.1 	"/>
	<line class="st5" x1="164.8" y1="272.7" x2="164.8" y2="306.7"/>
	<line class="st5" x1="228.6" y1="272.7" x2="228.6" y2="306.7"/>
	<line class="st5" x1="260.3" y1="257.5" x2="260.3" y2="291.1"/>
	<line class="st5" x1="228.6" y1="272.7" x2="228.6" y2="275.4"/>
	<line class="st5" x1="133.1" y1="257.5" x2="133.1" y2="291.1"/>
	<line class="st5" x1="164.8" y1="272.7" x2="164.8" y2="275.4"/>
	<polyline class="st5" points="133,325.5 164.8,341.1 228.6,341.1 260.4,325.5 	"/>
	<line class="st5" x1="164.8" y1="307.1" x2="164.8" y2="341.1"/>
	<line class="st5" x1="228.6" y1="307.1" x2="228.6" y2="341.1"/>
	<line class="st5" x1="260.3" y1="291.8" x2="260.3" y2="325.5"/>
	<line class="st5" x1="228.6" y1="307.1" x2="228.6" y2="309.8"/>
	<line class="st5" x1="133.1" y1="291.8" x2="133.1" y2="325.5"/>
	<line class="st5" x1="164.8" y1="307.1" x2="164.8" y2="309.8"/>
	<polyline class="st5" points="133,359.8 164.8,375.5 228.6,375.5 260.4,359.8 	"/>
	<line class="st5" x1="164.8" y1="341.5" x2="164.8" y2="375.5"/>
	<line class="st5" x1="228.6" y1="341.5" x2="228.6" y2="375.5"/>
	<line class="st5" x1="260.3" y1="326.2" x2="260.3" y2="359.8"/>
	<line class="st5" x1="228.6" y1="341.5" x2="228.6" y2="344.2"/>
	<line class="st5" x1="133.1" y1="326.2" x2="133.1" y2="359.8"/>
	<line class="st5" x1="164.8" y1="341.5" x2="164.8" y2="344.2"/>
</g>
</svg>
