<?xml version="1.0" encoding="utf-8"?>
<!-- Generator: Adobe Illustrator 23.0.4, SVG Export Plug-In . SVG Version: 6.00 Build 0)  -->
<svg version="1.1" xmlns="http://www.w3.org/2000/svg" xmlns:xlink="http://www.w3.org/1999/xlink" x="0px" y="0px"
	 viewBox="0 0 382.3 566.9" style="enable-background:new 0 0 382.3 566.9;" xml:space="preserve">
<style type="text/css">
	.st0{opacity:0.2;}
	.st1{fill:#120085;}
	.st2{fill:#14A5FC;}
	.st3{fill:#FFFFFF;}
	.st4{font-family:'ArialRoundedMTBold';}
	.st5{font-size:11.7086px;}
	.st6{fill:none;stroke:#FFFFFF;stroke-miterlimit:10;}
</style>
<g id="shadow">
	<g id="Microcircuitshadow" class="st0">
		
			<image style="overflow:visible;" width="200" height="105" xlink:href="EC202AFAAE70C909.png"  transform="matrix(1 0 0 1 86.9647 332)">
		</image>
	</g>
</g>
<g id="Plain_background">
	<polygon id="Microcircuitback" class="st1" points="228.6,141.9 164.8,141.9 133,157.6 133.1,157.8 133.1,191.8 133.1,191.8 
		133.1,256.7 133.1,256.8 133.1,257.5 133.1,291.1 133.1,291.1 133.1,291.8 133.1,325.5 133.1,325.5 133.1,326.2 133.1,359.5 
		164.8,375.1 228.6,375.1 260.3,359.5 260.3,326.2 260.3,325.5 260.3,325.5 260.3,291.8 260.3,291.1 260.3,291.1 260.3,257.5 
		260.3,256.8 260.3,256.7 260.3,191.8 260.3,191.8 260.3,157.8 260.4,157.6 	"/>
</g>
<g id="Fill">
	<polygon id="Layer1fill" class="st2" points="228.6,173.2 228.6,173.2 164.8,173.2 164.8,173.2 133,157.6 164.8,141.9 133,157.6 
		133.1,157.8 133.1,191.8 133.1,191.8 164.8,207.4 164.8,207.4 228.6,207.4 228.6,207.4 260.3,191.8 260.3,191.8 260.3,157.8 
		260.4,157.6 	"/>
	<polygon id="Layer2fill" class="st2" points="228.6,207.4 228.6,207.4 164.8,207.4 164.8,207.4 133.1,191.8 133.1,256.7 
		133.1,256.8 164.8,272.3 164.8,272.4 228.6,272.4 228.6,272.3 260.3,256.8 260.3,256.7 260.3,191.8 	"/>
	<polygon id="Layer3fill" class="st2" points="228.6,272.3 228.6,272.4 164.8,272.4 164.8,272.3 133.1,256.8 133.1,257.5 
		133.1,291.1 133.1,291.1 164.8,306.7 164.8,306.7 228.6,306.7 228.6,306.7 260.3,291.1 260.3,291.1 260.3,257.5 260.3,256.8 	"/>
	<polygon id="Layer6fill" class="st2" points="228.6,341.1 228.6,341.1 164.8,341.1 164.8,341.1 133.1,325.5 133.1,326.2 
		133.1,359.5 164.8,375.1 228.6,375.1 260.3,359.5 260.3,326.2 260.3,325.5 	"/>
	<polygon id="Layer5fill" class="st2" points="228.6,306.7 228.6,306.7 164.8,306.7 164.8,306.7 133.1,291.1 133.1,291.8 
		133.1,325.5 133.1,325.5 164.8,341.1 164.8,341.1 228.6,341.1 228.6,341.1 260.3,325.5 260.3,325.5 260.3,291.8 260.3,291.1 	"/>
</g>
<g id="Lines__x2B__text">
	<g id="Microcircuitlines">
		<g>
			<text transform="matrix(1 0 0 1 191.604 194.5336)" class="st3 st4 st5">L1</text>
		</g>
		<g>
			<text transform="matrix(1 0 0 1 189.1806 245.6801)" class="st3 st4 st5">L23</text>
		</g>
		<g>
			<text transform="matrix(1 0 0 1 191.604 294.2406)" class="st3 st4 st5">L4</text>
		</g>
		<g>
			<text transform="matrix(1 0 0 1 191.604 327.9047)" class="st3 st4 st5">L5</text>
		</g>
		<g>
			<text transform="matrix(1 0 0 1 191.604 361.4379)" class="st3 st4 st5">L6</text>
		</g>
		<g>
			<polygon class="st6" points="260.4,157.6 228.6,141.9 164.8,141.9 133,157.6 133.1,157.8 133.1,359.5 164.8,375.1 228.6,375.1 
				260.3,359.5 260.3,157.8 			"/>
			<polygon class="st6" points="133.1,191.8 133.1,256.3 164.8,272 228.6,272 260.3,256.3 260.3,191.8 228.4,207.2 165,207.2 			"/>
			<polygon class="st6" points="228.6,141.9 164.8,141.9 133,157.6 164.8,173.2 228.6,173.2 260.4,157.6 			"/>
			<polyline class="st6" points="133,191.8 164.8,207.4 228.6,207.4 260.4,191.8 			"/>
			<line class="st6" x1="164.8" y1="173.4" x2="164.8" y2="207.4"/>
			<line class="st6" x1="228.6" y1="173.4" x2="228.6" y2="207.4"/>
			<line class="st6" x1="260.3" y1="157.8" x2="260.3" y2="191.8"/>
			<line class="st6" x1="133.1" y1="157.8" x2="133.1" y2="191.8"/>
			<path class="st6" d="M164.8,272.4"/>
			<path class="st6" d="M164.8,238.4"/>
			<path class="st6" d="M228.6,272.4"/>
			<path class="st6" d="M228.6,238.4"/>
			<line class="st6" x1="260.3" y1="191.8" x2="260.3" y2="256.7"/>
			<line class="st6" x1="228.6" y1="207" x2="228.6" y2="272.8"/>
			<line class="st6" x1="133.1" y1="191.8" x2="133.1" y2="256.7"/>
			<line class="st6" x1="164.8" y1="207" x2="164.8" y2="272.4"/>
			<polyline class="st6" points="133,291.1 164.8,306.7 228.6,306.7 260.4,291.1 			"/>
			<line class="st6" x1="164.8" y1="272.7" x2="164.8" y2="306.7"/>
			<line class="st6" x1="228.6" y1="272.7" x2="228.6" y2="306.7"/>
			<line class="st6" x1="260.3" y1="257.5" x2="260.3" y2="291.1"/>
			<line class="st6" x1="228.6" y1="272.7" x2="228.6" y2="275.4"/>
			<line class="st6" x1="133.1" y1="257.5" x2="133.1" y2="291.1"/>
			<line class="st6" x1="164.8" y1="272.7" x2="164.8" y2="275.4"/>
			<polyline class="st6" points="133,325.5 164.8,341.1 228.6,341.1 260.4,325.5 			"/>
			<line class="st6" x1="164.8" y1="307.1" x2="164.8" y2="341.1"/>
			<line class="st6" x1="228.6" y1="307.1" x2="228.6" y2="341.1"/>
			<line class="st6" x1="260.3" y1="291.8" x2="260.3" y2="325.5"/>
			<line class="st6" x1="228.6" y1="307.1" x2="228.6" y2="309.8"/>
			<line class="st6" x1="133.1" y1="291.8" x2="133.1" y2="325.5"/>
			<line class="st6" x1="164.8" y1="307.1" x2="164.8" y2="309.8"/>
			<polyline class="st6" points="133,359.8 164.8,375.5 228.6,375.5 260.4,359.8 			"/>
			<line class="st6" x1="164.8" y1="341.5" x2="164.8" y2="375.5"/>
			<line class="st6" x1="228.6" y1="341.5" x2="228.6" y2="375.5"/>
			<line class="st6" x1="260.3" y1="326.2" x2="260.3" y2="359.8"/>
			<line class="st6" x1="228.6" y1="341.5" x2="228.6" y2="344.2"/>
			<line class="st6" x1="133.1" y1="326.2" x2="133.1" y2="359.8"/>
			<line class="st6" x1="164.8" y1="341.5" x2="164.8" y2="344.2"/>
		</g>
	</g>
</g>
</svg>
