<?xml version="1.0" encoding="utf-8"?>
<!-- Generator: Adobe Illustrator 23.0.4, SVG Export Plug-In . SVG Version: 6.00 Build 0)  -->
<svg version="1.1" id="Layer_1" xmlns="http://www.w3.org/2000/svg" xmlns:xlink="http://www.w3.org/1999/xlink" x="0px" y="0px"
	 viewBox="0 0 382.3 566.9" style="enable-background:new 0 0 382.3 566.9;" xml:space="preserve">
<style type="text/css">
	.st0{opacity:0.2;fill:#0B0780;}
	.st1{fill:#303354;stroke:#FFFFFF;stroke-miterlimit:10;}
	.st2{fill:none;}
	.st3{enable-background:new    ;}
	.st4{fill:#FFFFFF;}
	.st5{fill:none;stroke:#FFFFFF;stroke-miterlimit:10;}
</style>
<g id="shadow">
	<polygon id="Shadow" class="st0" points="221.3,369.1 157.6,369.1 125.7,384.8 157.6,400.4 221.3,400.4 253.2,384.8 	"/>
</g>
<g id="Plain_background">
	<polygon id="Synpaticback" class="st1" points="229.9,141.9 166.1,141.9 134.3,157.6 134.4,157.8 134.4,191.8 134.4,191.8 
		134.4,256.7 134.4,256.8 134.4,257.5 134.4,291.1 134.4,291.1 134.4,291.8 134.4,325.5 134.4,325.5 134.4,326.2 134.4,359.5 
		166.1,375.1 229.9,375.1 261.6,359.5 261.6,326.2 261.6,325.5 261.6,325.5 261.6,291.8 261.6,291.1 261.6,291.1 261.6,257.5 
		261.6,256.8 261.6,256.7 261.6,191.8 261.6,191.8 261.6,157.8 261.7,157.6 	"/>
</g>
<g id="Fill">
	<polygon id="l1postfill" class="st2" points="229.9,207.4 261.6,191.8 261.6,191.8 261.6,157.8 261.7,157.6 229.9,173.2 	"/>
	<polygon id="l1prefill" class="st2" points="166.1,173.2 134.3,157.6 166.1,141.9 134.3,157.6 134.4,157.8 134.4,191.8 
		134.4,191.8 166.1,207.4 	"/>
	<polygon id="l23postfill" class="st2" points="261.6,191.8 229.9,207.4 229.9,272.3 261.6,256.8 261.6,256.7 	"/>
	<polygon id="l23prefill" class="st2" points="166.1,207.4 134.4,191.8 134.4,256.7 134.4,256.8 166.1,272.3 	"/>
	<polygon id="l5postfill" class="st2" points="229.9,341.1 261.6,325.5 261.6,325.5 261.6,291.8 261.6,291.1 229.9,306.7 	"/>
	<polygon id="l6postfill" class="st2" points="229.9,375.1 261.6,359.5 261.6,326.2 261.6,325.5 229.9,341.1 	"/>
	<polygon id="l4postfill" class="st2" points="229.9,306.7 261.6,291.1 261.6,291.1 261.6,257.5 261.6,256.8 229.9,272.3 	"/>
	<polygon id="l4prefill" class="st2" points="166.1,272.3 134.4,256.8 134.4,257.5 134.4,291.1 134.4,291.1 166.1,306.7 	"/>
	<polygon id="l6prefill" class="st2" points="134.4,325.5 134.4,326.2 134.4,359.5 166.1,375.1 166.1,341.1 	"/>
	<polygon id="l5prefill" class="st2" points="166.1,306.7 134.4,291.1 134.4,291.8 134.4,325.5 134.4,325.5 166.1,341.1 	"/>
</g>
<g id="Lines__x2B__text">
	<g id="Synapticlines">
		<g>
			<g class="st3">
				<path class="st4" d="M194.4,187v6.1h3.4c0.3,0,0.5,0.1,0.6,0.2c0.1,0.1,0.2,0.3,0.2,0.5c0,0.2-0.1,0.4-0.2,0.5s-0.4,0.2-0.6,0.2
					h-4.1c-0.4,0-0.6-0.1-0.8-0.2c-0.2-0.2-0.2-0.4-0.2-0.8V187c0-0.3,0.1-0.6,0.2-0.8c0.2-0.2,0.4-0.3,0.6-0.3
					c0.3,0,0.5,0.1,0.6,0.3C194.3,186.4,194.4,186.7,194.4,187z"/>
				<path class="st4" d="M202.2,193.8v-5.2c-1,0.7-1.6,1.1-2,1.1c-0.2,0-0.3-0.1-0.4-0.2s-0.2-0.3-0.2-0.4c0-0.2,0.1-0.3,0.2-0.4
					c0.1-0.1,0.3-0.2,0.6-0.4c0.5-0.2,0.8-0.4,1.1-0.7c0.3-0.2,0.5-0.5,0.7-0.8c0.2-0.3,0.4-0.5,0.4-0.5c0.1-0.1,0.2-0.1,0.4-0.1
					c0.2,0,0.4,0.1,0.5,0.2c0.1,0.2,0.2,0.4,0.2,0.6v6.5c0,0.8-0.3,1.1-0.8,1.1c-0.2,0-0.4-0.1-0.6-0.2S202.2,194.1,202.2,193.8z"/>
			</g>
		</g>
		<g>
			<g class="st3">
				<path class="st4" d="M190.1,238.2v6.1h3.4c0.3,0,0.5,0.1,0.6,0.2c0.1,0.1,0.2,0.3,0.2,0.5c0,0.2-0.1,0.4-0.2,0.5
					s-0.4,0.2-0.6,0.2h-4.1c-0.4,0-0.6-0.1-0.8-0.2c-0.2-0.2-0.2-0.4-0.2-0.8v-6.5c0-0.3,0.1-0.6,0.2-0.8c0.2-0.2,0.4-0.3,0.6-0.3
					c0.3,0,0.5,0.1,0.6,0.3C190.1,237.6,190.1,237.8,190.1,238.2z"/>
				<path class="st4" d="M197.2,244.3h3c0.3,0,0.5,0.1,0.7,0.2s0.2,0.3,0.2,0.5c0,0.2-0.1,0.3-0.2,0.5c-0.1,0.1-0.3,0.2-0.6,0.2
					h-4.2c-0.3,0-0.5-0.1-0.7-0.2s-0.2-0.3-0.2-0.6c0-0.1,0.1-0.3,0.2-0.5c0.1-0.2,0.2-0.4,0.3-0.5c0.5-0.5,1-1,1.4-1.4
					c0.4-0.4,0.7-0.6,0.9-0.7c0.3-0.2,0.6-0.4,0.8-0.7c0.2-0.2,0.4-0.5,0.5-0.7c0.1-0.2,0.2-0.5,0.2-0.7c0-0.2-0.1-0.5-0.2-0.7
					s-0.3-0.3-0.5-0.4c-0.2-0.1-0.4-0.2-0.7-0.2c-0.5,0-0.9,0.2-1.2,0.7c0,0.1-0.1,0.2-0.2,0.5c-0.1,0.3-0.2,0.5-0.3,0.6
					c-0.1,0.1-0.3,0.2-0.5,0.2c-0.2,0-0.3-0.1-0.5-0.2s-0.2-0.3-0.2-0.5c0-0.3,0.1-0.5,0.2-0.8c0.1-0.3,0.3-0.5,0.5-0.8
					s0.5-0.4,0.9-0.6c0.4-0.1,0.8-0.2,1.3-0.2c0.6,0,1.1,0.1,1.5,0.3c0.3,0.1,0.5,0.3,0.7,0.5c0.2,0.2,0.4,0.5,0.5,0.7
					s0.2,0.6,0.2,0.9c0,0.5-0.1,0.9-0.4,1.3s-0.5,0.7-0.7,0.9c-0.2,0.2-0.7,0.6-1.2,1c-0.6,0.5-1,0.8-1.2,1.1
					C197.4,244.1,197.3,244.2,197.2,244.3z"/>
				<path class="st4" d="M204.8,240.6c0.4,0,0.7-0.1,0.9-0.3c0.3-0.2,0.4-0.5,0.4-0.9c0-0.3-0.1-0.5-0.3-0.8
					c-0.2-0.2-0.5-0.3-0.8-0.3c-0.2,0-0.4,0-0.6,0.1c-0.2,0.1-0.3,0.2-0.4,0.3s-0.2,0.2-0.2,0.4c-0.1,0.2-0.1,0.3-0.2,0.5
					c0,0.1-0.1,0.1-0.2,0.2c-0.1,0-0.2,0.1-0.3,0.1c-0.2,0-0.3-0.1-0.4-0.2c-0.1-0.1-0.2-0.3-0.2-0.5c0-0.2,0.1-0.4,0.2-0.6
					s0.3-0.4,0.5-0.6c0.2-0.2,0.5-0.4,0.9-0.5c0.3-0.1,0.7-0.2,1.1-0.2c0.4,0,0.7,0,1,0.2c0.3,0.1,0.6,0.2,0.8,0.4
					c0.2,0.2,0.4,0.4,0.5,0.7c0.1,0.3,0.2,0.5,0.2,0.8c0,0.4-0.1,0.7-0.2,1s-0.4,0.5-0.7,0.8c0.3,0.2,0.5,0.3,0.8,0.5
					c0.2,0.2,0.4,0.4,0.5,0.7c0.1,0.2,0.2,0.5,0.2,0.8c0,0.3-0.1,0.7-0.2,1c-0.1,0.3-0.3,0.6-0.6,0.9c-0.3,0.3-0.6,0.5-1,0.6
					c-0.4,0.1-0.8,0.2-1.2,0.2c-0.5,0-0.9-0.1-1.2-0.2c-0.4-0.2-0.7-0.4-0.9-0.6c-0.2-0.2-0.4-0.5-0.5-0.8c-0.1-0.3-0.2-0.5-0.2-0.7
					c0-0.2,0.1-0.4,0.2-0.5c0.1-0.1,0.3-0.2,0.5-0.2c0.1,0,0.2,0,0.3,0.1c0.1,0.1,0.2,0.1,0.2,0.2c0.2,0.5,0.4,0.9,0.6,1.2
					c0.2,0.3,0.5,0.4,1,0.4c0.2,0,0.5-0.1,0.7-0.2c0.2-0.1,0.4-0.3,0.5-0.5s0.2-0.5,0.2-0.8c0-0.4-0.1-0.8-0.4-1
					c-0.2-0.3-0.6-0.4-1-0.4c-0.1,0-0.2,0-0.4,0c-0.2,0-0.3,0-0.3,0c-0.2,0-0.4-0.1-0.5-0.2c-0.1-0.1-0.2-0.2-0.2-0.4
					c0-0.2,0.1-0.3,0.2-0.4c0.1-0.1,0.3-0.2,0.6-0.2H204.8z"/>
			</g>
		</g>
		<g>
			<g class="st3">
				<path class="st4" d="M193.4,286.7v6.1h3.4c0.3,0,0.5,0.1,0.6,0.2c0.1,0.1,0.2,0.3,0.2,0.5c0,0.2-0.1,0.4-0.2,0.5
					s-0.4,0.2-0.6,0.2h-4.1c-0.4,0-0.6-0.1-0.8-0.2c-0.2-0.2-0.2-0.4-0.2-0.8v-6.5c0-0.3,0.1-0.6,0.2-0.8c0.2-0.2,0.4-0.3,0.6-0.3
					c0.3,0,0.5,0.1,0.6,0.3C193.4,286.1,193.4,286.4,193.4,286.7z"/>
				<path class="st4" d="M202,293.5v-1.1h-2.9c-0.4,0-0.6-0.1-0.8-0.2s-0.3-0.4-0.3-0.7c0-0.1,0-0.1,0-0.2c0-0.1,0.1-0.2,0.1-0.2
					c0.1-0.1,0.1-0.2,0.2-0.2c0.1-0.1,0.1-0.2,0.2-0.3l3-4.1c0.2-0.3,0.4-0.5,0.5-0.6c0.1-0.1,0.3-0.2,0.5-0.2c0.6,0,0.9,0.3,0.9,1
					v4.4h0.2c0.3,0,0.5,0,0.7,0.1c0.2,0.1,0.3,0.3,0.3,0.5c0,0.2-0.1,0.4-0.2,0.5c-0.1,0.1-0.4,0.2-0.7,0.2h-0.3v1.1
					c0,0.3-0.1,0.5-0.2,0.7c-0.1,0.1-0.3,0.2-0.5,0.2c-0.2,0-0.4-0.1-0.5-0.2S202,293.8,202,293.5z M199.6,291.2h2.5v-3.3
					L199.6,291.2z"/>
			</g>
		</g>
		<g>
			<g class="st3">
				<path class="st4" d="M193.6,320.4v6.1h3.4c0.3,0,0.5,0.1,0.6,0.2c0.1,0.1,0.2,0.3,0.2,0.5c0,0.2-0.1,0.4-0.2,0.5
					s-0.4,0.2-0.6,0.2h-4.1c-0.4,0-0.6-0.1-0.8-0.2c-0.2-0.2-0.2-0.4-0.2-0.8v-6.5c0-0.3,0.1-0.6,0.2-0.8c0.2-0.2,0.4-0.3,0.6-0.3
					c0.3,0,0.5,0.1,0.6,0.3C193.5,319.8,193.6,320.1,193.6,320.4z"/>
				<path class="st4" d="M203.5,320.9h-2.7l-0.3,1.9c0.5-0.3,1-0.4,1.5-0.4c0.4,0,0.7,0.1,1,0.2c0.3,0.1,0.6,0.3,0.8,0.6
					c0.2,0.2,0.4,0.5,0.6,0.9c0.1,0.3,0.2,0.7,0.2,1.1c0,0.6-0.1,1.1-0.4,1.5c-0.2,0.5-0.6,0.8-1.1,1.1c-0.5,0.3-1,0.4-1.6,0.4
					c-0.7,0-1.2-0.1-1.7-0.4s-0.7-0.5-0.9-0.9s-0.3-0.6-0.3-0.9c0-0.1,0.1-0.3,0.2-0.4c0.1-0.1,0.3-0.2,0.5-0.2
					c0.3,0,0.6,0.2,0.7,0.6c0.2,0.3,0.4,0.6,0.6,0.8c0.3,0.2,0.5,0.3,0.9,0.3c0.3,0,0.6-0.1,0.8-0.2c0.2-0.2,0.4-0.4,0.5-0.6
					s0.2-0.6,0.2-0.9c0-0.4-0.1-0.7-0.2-0.9c-0.1-0.3-0.3-0.5-0.5-0.6s-0.5-0.2-0.7-0.2c-0.3,0-0.6,0-0.7,0.1s-0.3,0.2-0.6,0.4
					s-0.5,0.3-0.7,0.3c-0.2,0-0.4-0.1-0.5-0.2c-0.1-0.1-0.2-0.3-0.2-0.5c0,0,0-0.1,0.1-0.4l0.5-2.7c0.1-0.3,0.2-0.6,0.3-0.7
					c0.1-0.1,0.4-0.2,0.7-0.2h3c0.6,0,0.9,0.2,0.9,0.7c0,0.2-0.1,0.4-0.2,0.5S203.8,320.9,203.5,320.9z"/>
			</g>
		</g>
		<g>
			<g class="st3">
				<path class="st4" d="M193.6,353.9v6.1h3.4c0.3,0,0.5,0.1,0.6,0.2c0.1,0.1,0.2,0.3,0.2,0.5c0,0.2-0.1,0.4-0.2,0.5
					s-0.4,0.2-0.6,0.2h-4.1c-0.4,0-0.6-0.1-0.8-0.2c-0.2-0.2-0.2-0.4-0.2-0.8v-6.5c0-0.3,0.1-0.6,0.2-0.8c0.2-0.2,0.4-0.3,0.6-0.3
					c0.3,0,0.5,0.1,0.6,0.3C193.5,353.3,193.6,353.6,193.6,353.9z"/>
				<path class="st4" d="M200.2,356.9c0.3-0.3,0.5-0.5,0.8-0.7s0.6-0.2,1-0.2c0.4,0,0.7,0.1,1,0.2c0.3,0.1,0.6,0.3,0.8,0.6
					c0.2,0.2,0.4,0.5,0.5,0.9c0.1,0.3,0.2,0.7,0.2,1.1c0,0.5-0.1,1-0.4,1.5s-0.6,0.8-1,1c-0.4,0.2-0.9,0.4-1.5,0.4
					c-0.6,0-1.2-0.2-1.7-0.5c-0.5-0.3-0.8-0.8-1.1-1.4c-0.2-0.6-0.4-1.4-0.4-2.2c0-0.7,0.1-1.4,0.2-1.9c0.1-0.6,0.4-1,0.6-1.4
					c0.3-0.4,0.6-0.7,1-0.8s0.8-0.3,1.4-0.3c0.5,0,0.9,0.1,1.3,0.3c0.4,0.2,0.7,0.4,0.8,0.7c0.2,0.3,0.3,0.6,0.3,0.8
					c0,0.2-0.1,0.3-0.2,0.4c-0.1,0.1-0.3,0.2-0.5,0.2c-0.2,0-0.3-0.1-0.4-0.2c-0.1-0.1-0.2-0.2-0.3-0.4c-0.1-0.2-0.2-0.4-0.4-0.6
					c-0.2-0.1-0.4-0.2-0.7-0.2c-0.2,0-0.4,0.1-0.6,0.2s-0.4,0.3-0.5,0.5C200.4,355.1,200.2,355.9,200.2,356.9z M201.7,360.5
					c0.4,0,0.7-0.2,1-0.5s0.4-0.7,0.4-1.2c0-0.3-0.1-0.6-0.2-0.9c-0.1-0.2-0.3-0.4-0.5-0.6s-0.4-0.2-0.7-0.2c-0.2,0-0.5,0.1-0.7,0.2
					c-0.2,0.1-0.4,0.3-0.5,0.5s-0.2,0.5-0.2,0.8c0,0.5,0.1,0.9,0.4,1.3C201,360.3,201.3,360.5,201.7,360.5z"/>
			</g>
		</g>
		<g>
			<polygon class="st5" points="261.8,157.6 229.9,141.9 166.1,141.9 134.3,157.6 134.4,157.8 134.4,359.5 166.1,375.1 229.9,375.1 
				261.6,359.5 261.6,157.8 			"/>
			<polygon class="st5" points="134.4,191.8 134.4,256.3 166.1,272 229.9,272 261.6,256.3 261.6,191.8 229.7,207.2 166.3,207.2 			
				"/>
			<polygon class="st5" points="229.9,141.9 166.1,141.9 134.3,157.6 166.1,173.2 229.9,173.2 261.8,157.6 			"/>
			<polyline class="st5" points="134.3,191.8 166.1,207.4 229.9,207.4 261.8,191.8 			"/>
			<line class="st5" x1="166.1" y1="173.4" x2="166.1" y2="207.4"/>
			<line class="st5" x1="229.9" y1="173.4" x2="229.9" y2="207.4"/>
			<line class="st5" x1="261.6" y1="157.8" x2="261.6" y2="191.8"/>
			<line class="st5" x1="134.4" y1="157.8" x2="134.4" y2="191.8"/>
			<path class="st5" d="M166.1,272.4"/>
			<path class="st5" d="M166.1,238.4"/>
			<path class="st5" d="M229.9,272.4"/>
			<path class="st5" d="M229.9,238.4"/>
			<line class="st5" x1="261.6" y1="191.8" x2="261.6" y2="256.7"/>
			<line class="st5" x1="229.9" y1="207" x2="229.9" y2="272.8"/>
			<line class="st5" x1="134.4" y1="191.8" x2="134.4" y2="256.7"/>
			<line class="st5" x1="166.1" y1="207" x2="166.1" y2="272.4"/>
			<polyline class="st5" points="134.3,291.1 166.1,306.7 229.9,306.7 261.8,291.1 			"/>
			<line class="st5" x1="166.1" y1="272.7" x2="166.1" y2="306.7"/>
			<line class="st5" x1="229.9" y1="272.7" x2="229.9" y2="306.7"/>
			<line class="st5" x1="261.6" y1="257.5" x2="261.6" y2="291.1"/>
			<line class="st5" x1="229.9" y1="272.7" x2="229.9" y2="275.4"/>
			<line class="st5" x1="134.4" y1="257.5" x2="134.4" y2="291.1"/>
			<line class="st5" x1="166.1" y1="272.7" x2="166.1" y2="275.4"/>
			<polyline class="st5" points="134.3,325.5 166.1,341.1 229.9,341.1 261.8,325.5 			"/>
			<line class="st5" x1="166.1" y1="307.1" x2="166.1" y2="341.1"/>
			<line class="st5" x1="229.9" y1="307.1" x2="229.9" y2="341.1"/>
			<line class="st5" x1="261.6" y1="291.8" x2="261.6" y2="325.5"/>
			<line class="st5" x1="229.9" y1="307.1" x2="229.9" y2="309.8"/>
			<line class="st5" x1="134.4" y1="291.8" x2="134.4" y2="325.5"/>
			<line class="st5" x1="166.1" y1="307.1" x2="166.1" y2="309.8"/>
			<polyline class="st5" points="134.3,359.8 166.1,375.5 229.9,375.5 261.8,359.8 			"/>
			<line class="st5" x1="166.1" y1="341.5" x2="166.1" y2="375.5"/>
			<line class="st5" x1="229.9" y1="341.5" x2="229.9" y2="375.5"/>
			<line class="st5" x1="261.6" y1="326.2" x2="261.6" y2="359.8"/>
			<line class="st5" x1="229.9" y1="341.5" x2="229.9" y2="344.2"/>
			<line class="st5" x1="134.4" y1="326.2" x2="134.4" y2="359.8"/>
			<line class="st5" x1="166.1" y1="341.5" x2="166.1" y2="344.2"/>
		</g>
	</g>
</g>
</svg>
