<svg viewBox="0 0 256 256" xmlns="http://www.w3.org/2000/svg">
  <circle cx="128" cy="128" fill="#efb90a" r="128" />
  <path d="m43 200.4957a122.4118 122.4118 0 0 1 21.115.4546q1.2993.1418 2.5951.3111c-.7728-.1-.1889-.024.2519.04q.7056.1022 1.41.2126 2.5822.4049 5.1452.9207 5.2425 1.0553 10.3749 2.57a5.3121 5.3121 0 0 0 6.6457-5.0624q1.58-32.7465 2.52-65.5194.9369-32.7711 1.2274-65.5564.1637-18.4483.1223-36.8977a5.25 5.25 0 1 0 -10.5 0c-.1232 32.4094-.6741 64.8152-1.447 97.2152q-.3322 13.9088-.7105 27.816c-.1213 4.5006 5.8592 6.99 8.9623 3.7123.683-.7215 1.3834-1.4251 2.1121-2.1006a23.9706 23.9706 0 0 0 2.4976-2.1349c.0045.0215-.7928.587-.3066.2421.206-.1461.4062-.3.6115-.4478q.5359-.3846 1.0846-.7512 1.3217-.8817 2.7128-1.6522 1.22-.6761 2.4852-1.2642c.1857-.0863 1.4643-.6313.7344-.3357-.7012.2839.0612-.0193.2352-.0879q.4343-.1712.8722-.3328a45.1274 45.1274 0 0 1 5.6221-1.6557q1.4175-.322 2.8518-.5628a6.07 6.07 0 0 0 1.5561-.2395c-.0253.0136-1.0223.1215-.41.0589.3317-.034.6625-.0787.9942-.1137 2.3647-.25 4.7286-.4086 7.0833-.757 4.7888-.7084 9.25-3.0022 11.7459-7.3013 2.4591-4.2349 2.5452-9.219 2.6163-13.9719q.1143-7.6556.1386-15.3121c.0422-10.2721.002-20.5444-.0012-30.8166-.0041-11.3924.0384-22.7854.3016-34.1754h-10.5c-.4952 26.93-.2062 53.8664.0958 80.7972q.1326 11.8258.2541 23.6518c.04 4.1712 4.3786 6.2858 7.9 4.5332l11.1578-5.5538c3.4054-1.6951 7.1446-3.1511 10.0468-5.6732 3.6287-3.1532 4.0667-7.682 4.5905-12.1524q.68-5.8017 1.1609-11.6242c1.255-15.0733 1.5275-30.1974 1.7493-45.3141.1255-8.556.2531-17.1122.545-25.6645h-10.5c-.0142 26.6139-2.5063 53.2154-1.1645 79.8286.3428 6.8.9381 13.5859 1.8246 20.3368a18.3521 18.3521 0 0 0 1.4016 5.935 8.434 8.434 0 0 0 5.22 4.2754 13.9682 13.9682 0 0 0 1.8866.371 9.6834 9.6834 0 0 0 1.8326.4845c-.14.06-1.1151-.6058-.3744-.1207a9.0064 9.0064 0 0 0 .8212.5048c-.0683.034-.9789-.8724-.2994-.2283.2765.2621.5573.5126.817.7924a4.9892 4.9892 0 0 0 .5374.6231l-.42-.5316q.1951.2735.3762.5563a14.9053 14.9053 0 0 1 .8325 1.4858c.0983.2005.1772.437.29.6257-.6905-1.153-.1567-.35-.0212.0376a20.0305 20.0305 0 0 1 .5833 2.0009c.0914.387.4676 1.327.3249 1.6829.0273-.0683-.1414-1.3608-.0336-.1811.04.4427.088.8844.1233 1.3276.13 1.63.1868 3.2648.2934 4.8963a32.6431 32.6431 0 0 0 1.8519 9.8965c.9946 2.5292 1.9454 5.0726 3.039 7.5619 2.3407 5.3282 6.3172 10.5936 12.4039 11.6932 8.3 1.4993 16.744-.2245 24.8706-1.9318a5.2863 5.2863 0 0 0 3.6668-6.4581 5.3758 5.3758 0 0 0 -6.4581-3.6668c-1.5978.3357-3.1959.67-4.7995.9771q-1.2046.2305-2.4139.4368-.6041.102-1.21.1959c-.22.0341-1.9207.253-.7846.1182a50.249 50.249 0 0 1 -9.6995.2421c-1.5214-.1125.73.2057-.381-.0384-.2108-.0463-.4216-.081-.6318-.1324-.2543-.0623-.5-.152-.7523-.2184-.7243-.1907-.248-.4537.2641.1344a6.46 6.46 0 0 0 -1.29-.7375c-.711-.4263.2981.1935.3528.2894-.141-.2474-.562-.4906-.7714-.6975q-.2673-.264-.5177-.5436c-.1138-.127-.6614-.9155-.1732-.1715.4868.7419-.3427-.5054-.4907-.7346a26.3273 26.3273 0 0 1 -1.7041-3.14c-.1419-.3033-.8646-2.11-.2841-.5951-.203-.53-.43-1.0513-.638-1.5794-.4357-1.1068-.8548-2.22-1.2887-3.3276a24.5121 24.5121 0 0 1 -1.1944-3.718c-.0938-.4292-.1624-.8615-.2428-1.2931-.0461-.2473-.2464-.9839.0068.0874a16.6024 16.6024 0 0 1 -.2307-2.6493c-.3838-5.92-.5118-12.0047-3.8263-17.1752a15.4045 15.4045 0 0 0 -6.18-5.7673 17.0175 17.0175 0 0 0 -4.3442-1.2928c-.2493-.0465-.4991-.1188-.749-.1612-.9349-.1587.47.23.7147.4647.6719.6439.4422.5807.2317.1934.6468 1.19.1352.1245.0515-.3038-.0586-.2993-.0994-.6-.1452-.9019.1512.9953-.01-.0861-.0415-.3339q-.1424-1.1066-.2744-2.2144-.3193-2.6817-.5783-5.37-.4632-4.8066-.7451-9.6283c-.7558-12.8015-.5877-25.6312-.1738-38.4416.4714-14.589 1.2-29.17 1.2079-43.77a5.25 5.25 0 0 0 -10.5 0c-.5 14.651-.495 29.3124-.8917 43.9657-.1968 7.27-.5 14.5381-1.0043 21.7937q-.3995 5.7426-.9735 11.4712-.2715 2.6885-.5857 5.3722-.0867.74-.1767 1.4794l-.0606.4946q-.1287 1.0359.0115-.09a4.1893 4.1893 0 0 1 -.2431 1.2047q-.0985.3958-.2286.7825.4389-.93.0545-.1346a7.0367 7.0367 0 0 1 -.4083.6737q.6657-.8341.0937-.194-.2668.2689-.5575.5119l.4586-.3545q-.3137.2236-.64.4277c-.4381.2762-.8924.5257-1.35.7671-1.8108.955-3.6647 1.8346-5.4973 2.7467l-12.05 5.9982 7.9 4.5332c-.2638-27.37-.72-54.74-.5983-82.1116q.05-11.1694.2484-22.3374a5.25 5.25 0 0 0 -10.5 0c-.46 19.9308-.2513 39.8684-.2861 59.8024q-.013 7.5363-.0848 15.0722-.04 3.8244-.1041 7.6486c-.0179.98-.05 1.9585-.1413 2.9342-.018.1928-.0432.3849-.0609.5776-.0685.75.1919-.98.0247-.2487-.1281.56-.215 1.1252-.3689 1.68-.0561.202-.41 1.547-.2214.7967.1548-.6158.0589-.1179-.0321.0572-.1143.22-.2228.4416-.3473.6561a3.3153 3.3153 0 0 1 -.3956.6275c.0052-.0013.868-.9436.13-.1818-.1306.1349-.2554.2737-.39.4052-.6432.63-.0362.34.09 0-.1033.2791-.9651.5976-1.2243.7438-.7965.4494.9893-.3251-.2416.0972a17.7687 17.7687 0 0 1 -2.8788.6972 3.6315 3.6315 0 0 0 -.5606.0871c.9592-.3319.6862-.0827.2629-.0435-.4439.0411-.8868.0927-1.3307.1333-1.0078.0923-2.0171.1684-3.0239.2716a69.9619 69.9619 0 0 0 -7.0423 1.0481 46.2358 46.2358 0 0 0 -24.2353 13.4258l8.9622 3.7113c.874-32.4167 1.6044-64.8381 1.9536-97.2651q.1494-13.8825.2033-27.7658h-10.5q.0708 32.7845-.5 65.5659-.5733 32.78-1.7926 65.5434-.6861 18.4364-1.5769 36.8642l6.6457-5.0625a126.903 126.903 0 0 0 -43.6831-4.8844c-2.7352.1755-5.3826 2.289-5.25 5.25.1207 2.6937 2.3149 5.4384 5.25 5.25z" fill="#fff" /></svg>
