<?xml version="1.0" encoding="utf-8"?>
<!-- Generator: Adobe Illustrator 23.0.4, SVG Export Plug-In . SVG Version: 6.00 Build 0)  -->
<svg version="1.1" xmlns="http://www.w3.org/2000/svg" xmlns:xlink="http://www.w3.org/1999/xlink" x="0px" y="0px"
	 viewBox="0 0 382.3 566.9" style="enable-background:new 0 0 382.3 566.9;" xml:space="preserve">
<style type="text/css">
	.st0{opacity:0.2;}
	.st1{fill:url(#SVGID_1_);}
	.st2{fill:url(#SVGID_2_);}
	.st3{fill:#7EA6DE;}
	.st4{fill:#120085;}
	.st5{fill:#1A2385;}
	.st6{fill:none;stroke:#FFFFFF;stroke-miterlimit:10;}
	.st7{fill:#FFFFFF;}
	.st8{font-family:ArialRoundedMTBold;}
	.st9{font-size:9px;}
	.st10{fill:#7CA4DC;}
	.st11{font-size:23px;}
</style>
<g id="Brainregionshadow">
	<g class="st0">
		
			<image style="overflow:visible;" width="280" height="87" xlink:href="18EEEC76D2964A95.png"  transform="matrix(1 0 0 1 37.9 346)">
		</image>
	</g>
</g>
<g id="Plain_background">
	<g id="Brainregionsback">
		<linearGradient id="SVGID_1_" gradientUnits="userSpaceOnUse" x1="193.1674" y1="265.7934" x2="170.1239" y2="152.496">
			<stop  offset="0" style="stop-color:#457DDB"/>
			<stop  offset="0.4797" style="stop-color:#60AFF1"/>
			<stop  offset="1" style="stop-color:#7CA4DC"/>
		</linearGradient>
		<path class="st1" d="M283.5,366.7L105,376.2c-5.2,0-18.5-9.5-18.8-18.9v-185c0-5.2,4.2-8.4,9.4-8.4h183c12.1-0.6,22.1,7,22.1,12.2
			l-7.7,181.2C292.9,362.5,288.7,366.7,283.5,366.7z"/>
		<linearGradient id="SVGID_2_" gradientUnits="userSpaceOnUse" x1="278.6883" y1="190.8471" x2="-95.2159" y2="575.4726">
			<stop  offset="0" style="stop-color:#E4E9F5"/>
			<stop  offset="0.9992" style="stop-color:#7EA6DE"/>
		</linearGradient>
		<path class="st2" d="M293,376.2H105c-5.2,0-9.4-4.2-9.4-9.4v-188c0-5.2,4.2-9.4,9.4-9.4h188c5.2,0,9.4,4.2,9.4,9.4v188
			C302.4,372,298.2,376.2,293,376.2z"/>
		<path class="st3" d="M214,210.1v0.1c0,0.1,0,0.2,0,0.4c0,1.4-0.1,2.9-0.3,4.3c-0.1,1.3-0.2,2.5-0.3,3.8c0,0,0,0.2-0.1,0.5
			c-1.2,11.5-3.8,21.9-9.6,19.8c-0.2,0-0.5-0.1-0.7-0.3c-0.5-0.2-1-0.5-1.5-0.8c-0.8-0.4-1.5-0.8-2-1.1c-0.5-0.3-0.9-0.5-0.9-0.5
			c-2-1.3-3.8-2.7-5.3-4.1c-1.5-1.5-2.7-3-3.7-4.6c-1.8-3-2.5-6.3-2.5-10.1c0-0.2,0-0.5,0-0.8c0-0.3,0-0.7,0.1-1.1
			c0-0.2,0-0.4,0-0.6c0-0.4,0.1-0.8,0.1-1.1c0-0.1,0-0.3,0-0.4c0-0.4,0.1-0.6,0.1-0.6c1.1-7.7,4.2-20,6.4-28.1
			c1.9-7.1,11.2-9,15.6-3.1c0.5,0.7,1,1.4,1.4,2.1c0,0,0,0,0,0.1C211.2,185,213.2,197.5,214,210.1z"/>
		<path class="st3" d="M159.8,231l-0.1,0.5c-0.7,2.9-4.8,19-9,31.4c-3.1,9.3-6.2,29.4-7.9,45.4c-0.1,1.4-0.2,2.7-0.4,4
			c-0.5,5.7-0.8,10.7-0.8,14.2c0,2.8-1.1,4.6-3,5.8h-0.1c0,0,0,0,0,0c-3.4,2.1-9,2-14,1.2c-1.4-0.2-2.8-0.6-4-1.2
			c-4.7-2.1-8.3-6.4-9-11.6c-3-20.7,6.4-43.9,14.1-55.5C134.8,251.5,159.8,231,159.8,231z"/>
		<path class="st3" d="M178.9,355.2c-49,6.1-59.7-23.7-59.7-23.7l1.5,0.7c1.3,0.6,2.6,1,4,1.2c5,0.8,10.6,0.9,14-1.2c0,0,0,0,0,0
			l21.1,3.3c0.3,0.5,5.1,14,16,18.5C176,354.2,178.8,355.2,178.9,355.2z"/>
		<path class="st3" d="M193.3,232.1c-1.1-0.5-2.1-0.9-3.1-1.1c-3.3-0.8-5.9,0.2-7.4,3.9c-0.2,0.4-0.2,0.8-0.1,1.3
			c1.1,5.1,8.3,41.3-0.1,53.9c-4.5,6.8-11.4,16-16.5,24.5v0c-0.5,1-1.1,1.9-1.6,2.8l-2.3,0c-3-0.1-5.9-0.5-8.8-1.2c0,0-0.1,0-0.1,0
			c-0.7-0.2-1.5-0.4-2.2-0.6l-4.3-1.5l-4.3-1.7c0,0,0,0,0,0c0.1-1,0.2-2.1,0.3-3.2c0.5-4.6,1.1-9.6,1.8-14.6
			c0.2-1.4,0.4-2.8,0.6-4.2c1.2-8,2.6-15.7,4-21.6c0.1-0.6,0.3-1.2,0.5-1.8c0.4-1.5,0.7-2.8,1.1-4c4.1-12.4,8.2-28.5,9-31.4l0.1-0.5
			c0,0,9.5-24,27.7-18.2c0,0,0,0.2-0.1,0.6c0,0.5-0.1,1.3-0.2,2.1c-0.1,0.4-0.1,0.8-0.1,1.1c0,0.3,0,0.6,0,0.8
			c0,3.8,0.8,7.1,2.5,10.1C190.6,229.1,191.8,230.6,193.3,232.1z"/>
		<path class="st4" d="M273.1,264.6c-9.1-36.4-34.1-72.1-58-79.2c-0.5-0.7-0.9-1.4-1.4-2.1c-4.4-5.9-13.7-4-15.6,3.1
			c-2.2,8.1-5.3,20.5-6.4,28.1c-18.2-5.7-27.7,18.2-27.7,18.2l-0.1,0.5c0,0,0,0,0,0c-2.4,2-25.3,21-33.9,33.9
			c-7.8,11.6-17.1,34.8-14.1,55.5c0.7,4.8,3.7,8.7,7.8,11l-0.3-0.1c0,0,10.6,29.5,59.7,23.4h0c3.4,1.2,7.6,2.2,12.7,3
			c25.8,4.3,31.3-3.6,31.8-12.1c4.6,1.4,12,3.1,18.3,2.4c0,0.2,27.2,14.3,27.2,0.7C273.1,337.4,282.2,301,273.1,264.6z M192.3,232.6
			c-0.1,0-0.3,0-0.4,0C192,232.6,192.1,232.6,192.3,232.6z M193.3,232.6c-0.2,0-0.3,0-0.5,0C193,232.6,193.2,232.6,193.3,232.6z
			 M191.5,216.9c0,0.1,0,0.2,0,0.4C191.5,217.2,191.5,217,191.5,216.9z M191.3,232.7c-0.1,0-0.3,0.1-0.4,0.1
			C191,232.7,191.2,232.7,191.3,232.7z M190.4,232.9c-0.2,0.1-0.3,0.2-0.4,0.2C190.1,233.1,190.2,233,190.4,232.9z M189.5,233.3
			c-0.1,0.1-0.2,0.2-0.4,0.3C189.3,233.5,189.4,233.4,189.5,233.3z M188.8,233.9c-0.1,0.1-0.2,0.3-0.3,0.4
			C188.6,234.2,188.7,234.1,188.8,233.9z M188.1,234.7c-0.1,0.1-0.2,0.3-0.3,0.5C187.9,235.1,188,234.9,188.1,234.7z M187.5,235.7
			C187.5,235.7,187.5,235.7,187.5,235.7c-0.5,0.9-0.6,2-0.4,3c0,0.2,0.1,0.3,0.1,0.5c0-0.2-0.1-0.4-0.1-0.5
			C186.8,237.7,187,236.6,187.5,235.7z M168.6,319.2h-0.5c-5.7,0-11.3-1.1-16.6-3.2l-4.7-1.9v0l4.2,1.7l4.3,1.5
			c0.7,0.2,1.5,0.4,2.2,0.6c0,0,0.1,0,0.1,0c2.9,0.7,5.8,1.1,8.8,1.2L168.6,319.2z M165.9,341.3c0.6,1.2,1.4,2.6,2.4,4
			c0.3,0.5,0.6,0.9,0.9,1.3c0.7,1,1.5,2,2.5,3c0.3,0.3,0.6,0.7,1,1C169.4,347.6,167.2,344,165.9,341.3z M173.4,351.5
			c0.4,0.4,0.8,0.7,1.2,1C174.2,352.2,173.8,351.9,173.4,351.5z M174.7,352.7c0.3,0.3,0.7,0.5,1,0.8
			C175.3,353.2,175,352.9,174.7,352.7z M178.4,355.1c0.5,0.3,1.1,0.5,1.7,0.8c0,0,0,0,0,0c0,0,0.1,0.1,0.3,0.1
			c-0.1-0.1-0.3-0.1-0.3-0.1C179.5,355.7,178.9,355.4,178.4,355.1z M177,354.4c0.2,0.1,0.3,0.2,0.5,0.3
			C177.3,354.5,177.2,354.5,177,354.4z M183,357C183,357,183,357,183,357C183,357,183,357,183,357C183,357,183,357,183,357z
			 M187.5,290.7c-0.2,0.4-0.5,0.8-0.7,1.2C187,291.5,187.3,291.1,187.5,290.7z M190.8,272.9c0-0.5,0-0.9,0-1.4
			C190.8,272,190.8,272.5,190.8,272.9z M187.6,290.5c0.2-0.4,0.4-0.7,0.5-1.1C188,289.8,187.8,290.1,187.6,290.5z M188.4,288.7
			c0.1-0.2,0.2-0.5,0.3-0.7C188.6,288.2,188.5,288.4,188.4,288.7z M189,287c0.1-0.2,0.1-0.4,0.2-0.6
			C189.1,286.6,189.1,286.8,189,287z M189.4,285.5c0.1-0.2,0.1-0.4,0.2-0.7C189.5,285,189.5,285.2,189.4,285.5z M189.8,283.9
			c0.1-0.3,0.1-0.6,0.2-0.9C189.9,283.4,189.8,283.7,189.8,283.9z M190.1,281.9c0-0.2,0.1-0.4,0.1-0.6
			C190.2,281.5,190.2,281.7,190.1,281.9z M190.4,280.1c0-0.2,0.1-0.5,0.1-0.7C190.4,279.7,190.4,279.9,190.4,280.1z M190.7,276.1
			c0-0.2,0-0.3,0-0.5C190.7,275.8,190.7,275.9,190.7,276.1z M190.8,274.7c0-0.4,0-0.7,0-1.1C190.8,274,190.8,274.4,190.8,274.7z
			 M187.2,239.4c0.1,0.5,0.2,1.1,0.3,1.7C187.4,240.5,187.3,239.9,187.2,239.4z M187.6,241.3c0.1,0.6,0.2,1.3,0.4,2
			C187.8,242.6,187.7,241.9,187.6,241.3z M188,243.8c0,0.2,0.1,0.4,0.1,0.5C188.1,244.1,188,243.9,188,243.8z M188.3,245.2
			c0,0.3,0.1,0.6,0.2,0.9C188.4,245.8,188.3,245.5,188.3,245.2z M188.5,246.7c0,0.2,0.1,0.5,0.1,0.8
			C188.6,247.2,188.5,246.9,188.5,246.7z M188.8,248.3c0,0.1,0,0.3,0.1,0.4C188.8,248.5,188.8,248.4,188.8,248.3z M189,249.9
			c0,0.1,0,0.3,0.1,0.4C189.1,250.2,189,250.1,189,249.9z M189.3,251.7c0,0.3,0.1,0.6,0.1,0.9C189.3,252.3,189.3,252,189.3,251.7z
			 M189.5,253.5c0,0.3,0.1,0.6,0.1,0.8C189.6,254.1,189.5,253.8,189.5,253.5z M189.7,255.4c0,0.3,0.1,0.6,0.1,0.9
			C189.8,256,189.8,255.7,189.7,255.4z M190,257.3c0,0.3,0.1,0.5,0.1,0.8C190,257.9,190,257.6,190,257.3z M190.5,263.4
			c0,0.2,0,0.4,0,0.7C190.5,263.8,190.5,263.6,190.5,263.4z M190.6,265.4c0,0.2,0,0.3,0,0.5C190.6,265.8,190.6,265.6,190.6,265.4z
			 M190.7,267.5c0,0.2,0,0.4,0,0.6C190.7,267.9,190.7,267.7,190.7,267.5z M190.8,269.5c0,0.4,0,0.7,0,1.1
			C190.8,270.3,190.8,269.9,190.8,269.5z M204.6,239.1c0.1,0.1,0.3,0.2,0.4,0.2C204.9,239.2,204.7,239.1,204.6,239.1z"/>
	</g>
</g>
<g id="Fill">
	<path id="S1Trfill" class="st5" d="M183.1,357.1c-49,6.1-59.7-23.4-59.7-23.4l1.4,0.4c1.3,0.6,2.6,1,4,1.2c5,0.8,10.6,0.9,14-1.2
		c0,0,0,0,0,0l21.1,3.3c0.3,0.5,5.1,14,16,18.5C180.2,356,183,357.1,183.1,357.1z"/>
	<g id="S1FLfill">
		<path class="st5" d="M218.2,212v0.1c0,0.1,0,0.2,0,0.4c0,1.4-0.1,2.9-0.3,4.3c-0.1,1.3-0.2,2.5-0.3,3.8c0,0,0,0.2-0.1,0.5
			c-1.2,11.5-3.8,21.9-9.6,19.8c-0.2,0-0.5-0.1-0.7-0.3c-0.5-0.2-1-0.5-1.5-0.8c-0.8-0.4-1.5-0.8-2-1.1c-0.5-0.3-0.9-0.5-0.9-0.5
			c-2-1.3-3.8-2.7-5.3-4.1c-1.5-1.5-2.7-3-3.7-4.6c-1.8-3-2.5-6.3-2.5-10.1c0-0.2,0-0.5,0-0.8c0-0.3,0-0.7,0.1-1.1
			c0-0.2,0-0.4,0-0.6c0-0.4,0.1-0.8,0.1-1.1c0-0.1,0-0.3,0-0.4c0-0.4,0.1-0.6,0.1-0.6c1.1-7.7,4.2-20,6.4-28.1
			c1.9-7.1,11.2-9,15.6-3.1c0.5,0.7,1,1.4,1.4,2.1c0,0,0,0,0,0.1C215.4,186.8,217.4,199.3,218.2,212z"/>
		<path class="st5" d="M164,337.4l-21.1-3.3c1.8-1.1,3-3,3-5.8c0-3.5,0.3-8.5,0.8-14.2l4.8,1.9c5.3,2.1,10.9,3.2,16.6,3.2h0.5
			C164.5,326.7,162,333.3,164,337.4z"/>
	</g>
	<path id="S1Shfill" class="st5" d="M197.5,233.9c-1.1-0.5-2.1-0.9-3.1-1.1c-3-0.7-5.4,0-6.9,2.9c-0.5,0.9-0.6,1.9-0.4,3
		c1.4,7.1,7.9,41.1-0.3,53.3c-4.5,6.8-11.4,16-16.5,24.5v0c-0.5,1-1.1,1.9-1.6,2.8l-2.3,0c-3-0.1-5.9-0.5-8.8-1.2c0,0-0.1,0-0.1,0
		c-0.7-0.2-1.5-0.4-2.2-0.6l-4.3-1.5l-4.3-1.7c0,0,0,0,0,0c0.1-1,0.2-2.1,0.3-3.2c0.5-4.6,1.1-9.6,1.8-14.6c0.2-1.4,0.4-2.8,0.6-4.2
		c1.2-8,2.6-15.7,4-21.6c0.1-0.6,0.3-1.2,0.5-1.8c0.4-1.5,0.7-2.8,1.1-4c4.1-12.4,8.2-28.5,9-31.4l0.1-0.5c0,0,9.5-24,27.7-18.2
		c0,0,0,0.2-0.1,0.6c0,0.5-0.1,1.3-0.2,2.1c-0.1,0.4-0.1,0.8-0.1,1.1c0,0.3,0,0.6,0,0.8c0,3.8,0.8,7.1,2.5,10.1
		C194.8,231,196,232.5,197.5,233.9z"/>
	<path id="S1HLfill" class="st5" d="M164.1,233.1l-0.1,0.5c-0.7,2.9-4.8,19-9,31.4c-3.1,9.3-6.2,29.4-7.9,45.4
		c-0.1,1.4-0.2,2.7-0.4,4c-0.5,5.7-0.8,10.7-0.8,14.2c0,2.8-1.1,4.6-3,5.8h-0.1c0,0,0,0,0,0c-3.4,2.1-9,2-14,1.2
		c-1.4-0.2-2.8-0.6-4-1.2c-4.7-2.1-8.3-6.4-9-11.6c-3-20.7,6.4-43.9,14.1-55.5C139.1,253.6,164.1,233.1,164.1,233.1z"/>
</g>
<g id="Lines__x2B__text">
	<g id="Brainregionslinestext">
		<path class="st6" d="M232.2,310.1c-4.5,13.6-4.5,27.3-4.5,36.4c0,0.5,0,1,0,1.5c-0.5,8.5-6,16.5-31.8,12.1
			c-5.1-0.9-9.3-1.9-12.7-3h0c0,0,0,0-0.1,0c0,0,0,0-0.1,0c-0.3-0.1-0.5-0.1-0.7-0.3c-0.8-0.3-2-0.8-2.1-0.8c0,0,0,0,0,0
			c-1.3-0.6-2.6-1.2-3.7-2c-1.2-0.9-2.3-1.8-3.3-2.7c-0.5-0.5-1-1-1.4-1.5c-0.9-1-1.7-2-2.5-3c-0.3-0.4-0.6-0.9-0.9-1.3
			c-2.7-4.1-4-7.7-4.2-8c-2-4,0.5-10.7,4.6-18.2c0.5-0.9,1-1.8,1.6-2.8v0c5.2-8.5,12-17.6,16.5-24.5c8.1-12.2,1.7-46.2,0.3-53.2
			c-0.2-1-0.1-2.1,0.4-3c1.5-2.9,3.9-3.6,6.9-2.9c1,0.2,2,0.6,3.1,1.1c1.5,1.4,3.2,2.8,5.3,4.1c0,0,0.4,0.2,0.9,0.5
			c0.6,0.4,1.3,0.8,2,1.1c0.5,0.3,1,0.6,1.5,0.8c5.3,4.4,11,10,16,15C236.8,269.2,236.8,296.5,232.2,310.1z"/>
		<path class="st6" d="M218.2,212v0.1c0,0.1,0,0.2,0,0.4c0,1.4-0.1,2.9-0.3,4.3c-0.1,1.3-0.2,2.5-0.3,3.8c0,0,0,0.2-0.1,0.5
			c-1.2,11.5-3.8,21.9-9.6,19.8c-0.2,0-0.5-0.1-0.7-0.3c-0.5-0.2-1-0.5-1.5-0.8c-0.8-0.4-1.5-0.8-2-1.1c-0.5-0.3-0.9-0.5-0.9-0.5
			c-2-1.3-3.8-2.7-5.3-4.1c-1.5-1.5-2.7-3-3.7-4.6c-1.8-3-2.5-6.3-2.5-10.1c0-0.2,0-0.5,0-0.8c0-0.3,0-0.7,0.1-1.1
			c0-0.2,0-0.4,0-0.6c0-0.4,0.1-0.8,0.1-1.1c0-0.1,0-0.3,0-0.4c0-0.4,0.1-0.6,0.1-0.6c1.1-7.7,4.2-20,6.4-28.1
			c1.9-7.1,11.2-9,15.6-3.1c0.5,0.7,1,1.4,1.4,2.1c0,0,0,0,0,0.1C215.4,186.8,217.4,199.3,218.2,212z"/>
		<path class="st6" d="M183.1,357.1c-49,6.1-59.7-23.4-59.7-23.4l1.4,0.4c1.3,0.6,2.6,1,4,1.2c5,0.8,10.6,0.9,14-1.2c0,0,0,0,0,0
			l21.1,3.3c0.3,0.5,5.1,14,16,18.5C180.2,356,183,357.1,183.1,357.1z"/>
		<path class="st6" d="M164,337.4l-21.1-3.3c1.8-1.1,3-3,3-5.8c0-3.5,0.3-8.5,0.8-14.2l4.8,1.9c5.3,2.1,10.9,3.2,16.6,3.2h0.5
			C164.5,326.7,162,333.3,164,337.4z"/>
		<path class="st6" d="M197.5,233.9c-1.1-0.5-2.1-0.9-3.1-1.1c-3-0.7-5.4,0-6.9,2.9c-0.5,0.9-0.6,1.9-0.4,3
			c1.4,7.1,7.9,41.1-0.3,53.3c-4.5,6.8-11.4,16-16.5,24.5v0c-0.5,1-1.1,1.9-1.6,2.8l-2.3,0c-3-0.1-5.9-0.5-8.8-1.2c0,0-0.1,0-0.1,0
			c-0.7-0.2-1.5-0.4-2.2-0.6l-4.3-1.5l-4.3-1.7c0,0,0,0,0,0c0.1-1,0.2-2.1,0.3-3.2c0.5-4.6,1.1-9.6,1.8-14.6
			c0.2-1.4,0.4-2.8,0.6-4.2c1.2-8,2.6-15.7,4-21.6c0.1-0.6,0.3-1.2,0.5-1.8c0.4-1.5,0.7-2.8,1.1-4c4.1-12.4,8.2-28.5,9-31.4l0.1-0.5
			c0,0,9.5-24,27.7-18.2c0,0,0,0.2-0.1,0.6c0,0.5-0.1,1.3-0.2,2.1c-0.1,0.4-0.1,0.8-0.1,1.1c0,0.3,0,0.6,0,0.8
			c0,3.8,0.8,7.1,2.5,10.1C194.8,231,196,232.5,197.5,233.9z"/>
		<path class="st6" d="M273.1,351c0,13.6-27.2-0.5-27.2-0.7c4.5-27,9-49.6,4.5-85.7c-0.3-2.3-0.7-4.5-1.1-6.5
			c-5.6-24.1-23.8-34.3-31.6-37.6c0,0-0.1,0-0.1,0c0.1-1.3,0.2-2.5,0.3-3.8c0.1-1.4,0.2-2.9,0.3-4.3c0-0.1,0-0.2,0-0.4V212
			c-0.8-12.6-2.8-25.1-3-26.5c0,0,0-0.1,0-0.1c23.9,7.2,48.9,42.9,58,79.2C282.2,301,273.1,337.4,273.1,351z"/>
		<path class="st6" d="M246,350.3c-6.4,0.7-13.7-1-18.3-2.4c0-0.5,0-1,0-1.5c0-9.1,0-22.7,4.5-36.4c4.5-13.6,4.5-40.9-9.1-54.6
			c-5-5-10.6-10.6-16-15c0.2,0.1,0.5,0.2,0.7,0.3c5.8,2.1,8.4-8.3,9.6-19.8c0-0.3,0.1-0.5,0.1-0.5s0,0,0.1,0
			c7.8,3.3,26,13.5,31.6,37.6c0.5,2,0.9,4.2,1.1,6.5C254.9,300.7,250.5,323.4,246,350.3z"/>
		<text transform="matrix(1 0 0 1 142.9082 348.4078)" class="st7 st8 st9">S1Tr</text>
		<path class="st6" d="M164.1,233.1l-0.1,0.5c-0.7,2.9-4.8,19-9,31.4c-3.1,9.3-6.2,29.4-7.9,45.4c-0.1,1.4-0.2,2.7-0.4,4
			c-0.5,5.7-0.8,10.7-0.8,14.2c0,2.8-1.1,4.6-3,5.8h-0.1c0,0,0,0,0,0c-3.4,2.1-9,2-14,1.2c-1.4-0.2-2.8-0.6-4-1.2
			c-4.7-2.1-8.3-6.4-9-11.6c-3-20.7,6.4-43.9,14.1-55.5C139.1,253.6,164.1,233.1,164.1,233.1z"/>
		<g>
			<text transform="matrix(1 0 0 1 160.1738 278.3853)" class="st7 st8 st9">S1Sh</text>
		</g>
		<g>
			<text transform="matrix(1 0 0 1 193.7412 219.0191)" class="st7 st8 st9">S1FL</text>
		</g>
		<text transform="matrix(1 0 0 1 120.9726 304.8941)" class="st7 st8 st9">S1HL</text>
		<text transform="matrix(1 0 0 1 104.2167 197.9803)" class="st10 st8 st11">S1</text>
	</g>
</g>
</svg>
