<svg viewBox="0 0 63.63 31.87" xmlns="http://www.w3.org/2000/svg"><g fill="#ffffff"><path d="m56.56 10.37-1.79-.88a.09.09 0 0 1 0-.17l1.79-.87h5.74l1.79.87a.09.09 0 0 1 0 .17l-1.79.88z" transform="translate(-7.61 -8.44)"/><path d="m56 11.23v17.5a.1.1 0 0 1 -.14.09l-1.78-.88a.1.1 0 0 1 -.06-.09v-17.5a.1.1 0 0 1 .14-.08l1.79.87a.11.11 0 0 1 .05.09z" transform="translate(-7.61 -8.44)"/><rect height="17.83" rx=".09" width="4.96" x="49.33" y="2.92"/><g transform="translate(-7.61 -8.44)"><path d="m64.81 27.94-1.81.88a.1.1 0 0 1 -.14-.09v-17.5a.11.11 0 0 1 0-.09l1.79-.88a.1.1 0 0 1 .14.09v17.5a.11.11 0 0 1 .02.09z"/><path d="m48.64 35.76v-2.69h.92a2.68 2.68 0 0 1 .48 0 1 1 0 0 1 .39.19 1.16 1.16 0 0 1 .32.46 1.83 1.83 0 0 1 .11.64 1.71 1.71 0 0 1 -.08.54 1 1 0 0 1 -.18.39.82.82 0 0 1 -.24.25 1 1 0 0 1 -.32.13 1.9 1.9 0 0 1 -.44 0zm.35-.32h.57a1.2 1.2 0 0 0 .42 0 .57.57 0 0 0 .24-.14.75.75 0 0 0 .2-.34 1.53 1.53 0 0 0 .07-.51 1.26 1.26 0 0 0 -.14-.65.75.75 0 0 0 -.33-.31 1.67 1.67 0 0 0 -.46 0h-.56z"/><path d="m52.64 35.13h.34a.8.8 0 0 1 -.86.63.93.93 0 0 1 -.68-.26 1.23 1.23 0 0 1 0-1.5.83.83 0 0 1 .65-.27.85.85 0 0 1 .64.26 1.09 1.09 0 0 1 .25.75v.09h-1.45a.78.78 0 0 0 .19.49.53.53 0 0 0 .4.17.52.52 0 0 0 .31-.09.66.66 0 0 0 .21-.27zm-1.09-.53h1.09a.67.67 0 0 0 -.13-.37.48.48 0 0 0 -.4-.19.54.54 0 0 0 -.39.15.62.62 0 0 0 -.17.41z"/><path d="m53.39 35.76v-1.95h.3v.28a.7.7 0 0 1 .62-.32.87.87 0 0 1 .32.06.48.48 0 0 1 .22.17.64.64 0 0 1 .1.24 1.29 1.29 0 0 1 0 .32v1.2h-.33v-1.19a.8.8 0 0 0 0-.3.33.33 0 0 0 -.13-.16.46.46 0 0 0 -.23-.06.57.57 0 0 0 -.37.14.67.67 0 0 0 -.15.51v1.06z"/><path d="m55.35 35.18h.32a.48.48 0 0 0 .15.3.57.57 0 0 0 .36.1.5.5 0 0 0 .33-.09.26.26 0 0 0 .11-.22.2.2 0 0 0 -.09-.17 1.65 1.65 0 0 0 -.34-.12 3.62 3.62 0 0 1 -.5-.15.52.52 0 0 1 -.22-.19.48.48 0 0 1 -.07-.26.48.48 0 0 1 .06-.24.49.49 0 0 1 .16-.19.69.69 0 0 1 .21-.09.92.92 0 0 1 .29 0 1.25 1.25 0 0 1 .4.06.62.62 0 0 1 .25.18.68.68 0 0 1 .12.3h-.32a.41.41 0 0 0 -.13-.24.51.51 0 0 0 -.3-.08.46.46 0 0 0 -.32.08.19.19 0 0 0 -.1.17.19.19 0 0 0 0 .12.32.32 0 0 0 .13.08 2.78 2.78 0 0 0 .29.09 4.46 4.46 0 0 1 .49.15.51.51 0 0 1 .21.17.45.45 0 0 1 .08.29.59.59 0 0 1 -.09.31.69.69 0 0 1 -.28.22.91.91 0 0 1 -.41.08.87.87 0 0 1 -.58-.16.7.7 0 0 1 -.21-.5z"/><path d="m58.69 35.13h.34a.8.8 0 0 1 -.86.63.93.93 0 0 1 -.68-.26 1.23 1.23 0 0 1 0-1.5.92.92 0 0 1 1.29 0 1 1 0 0 1 .25.75v.09h-1.45a.78.78 0 0 0 .19.49.53.53 0 0 0 .4.17.52.52 0 0 0 .31-.09.66.66 0 0 0 .21-.28zm-1.09-.53h1.09a.67.67 0 0 0 -.13-.37.48.48 0 0 0 -.4-.19.54.54 0 0 0 -.39.15.62.62 0 0 0 -.17.41z"/><path d="m61.75 35.76v-.25a.61.61 0 0 1 -.55.29.75.75 0 0 1 -.43-.13.79.79 0 0 1 -.3-.35 1.29 1.29 0 0 1 -.11-.53 1.47 1.47 0 0 1 .1-.53.74.74 0 0 1 .73-.49.64.64 0 0 1 .31.07.61.61 0 0 1 .22.2v-1h.33v2.69zm-1-1a.89.89 0 0 0 .16.56.49.49 0 0 0 .37.18.46.46 0 0 0 .37-.18.79.79 0 0 0 .15-.54.92.92 0 0 0 -.15-.58.47.47 0 0 0 -.38-.19.46.46 0 0 0 -.37.18.88.88 0 0 0 -.2.6z"/><path d="m62.57 33.45v-.38h.33v.38zm0 2.31v-1.95h.33v1.95z"/><path d="m63.34 35.92h.32a.28.28 0 0 0 .12.21.54.54 0 0 0 .33.1.64.64 0 0 0 .36-.1.44.44 0 0 0 .16-.25 1.91 1.91 0 0 0 0-.43.7.7 0 0 1 -.54.26.73.73 0 0 1 -.62-.29 1.1 1.1 0 0 1 -.22-.7 1.25 1.25 0 0 1 .1-.51.75.75 0 0 1 .29-.36.77.77 0 0 1 .45-.13.69.69 0 0 1 .57.28v-.24h.34v1.68a1.66 1.66 0 0 1 -.09.65.7.7 0 0 1 -.29.3 1.09 1.09 0 0 1 -.5.11.89.89 0 0 1 -.56-.16.54.54 0 0 1 -.22-.42zm.28-1.17a.85.85 0 0 0 .15.56.49.49 0 0 0 .76 0 .84.84 0 0 0 .15-.55.83.83 0 0 0 -.15-.54.51.51 0 0 0 -.39-.18.47.47 0 0 0 -.37.18.82.82 0 0 0 -.15.53z"/><path d="m65.49 33.45v-.38h.33v.38zm0 2.31v-1.95h.33v1.95z"/><path d="m67 35.46v.29h-.25a.56.56 0 0 1 -.28-.05.31.31 0 0 1 -.13-.15 1.09 1.09 0 0 1 0-.39v-1.09h-.25v-.26h.25v-.48l.32-.2v.68h.34v.26h-.33v1.14a.62.62 0 0 0 0 .18.09.09 0 0 0 .06.06.16.16 0 0 0 .11 0z"/><path d="m68.64 35.52a1.16 1.16 0 0 1 -.36.22 1 1 0 0 1 -.36.06.72.72 0 0 1 -.49-.15.51.51 0 0 1 -.17-.4.6.6 0 0 1 .06-.27.49.49 0 0 1 .17-.18.66.66 0 0 1 .24-.11 1.29 1.29 0 0 1 .29 0 2.48 2.48 0 0 0 .59-.12v-.08a.39.39 0 0 0 -.09-.29.59.59 0 0 0 -.38-.11.61.61 0 0 0 -.34.08.51.51 0 0 0 -.17.29h-.32a.82.82 0 0 1 .15-.34.57.57 0 0 1 .29-.19 1.2 1.2 0 0 1 .44-.07 1.09 1.09 0 0 1 .4.06.53.53 0 0 1 .23.14.55.55 0 0 1 .11.23 2.28 2.28 0 0 1 0 .3v.44a5.72 5.72 0 0 0 0 .58 1 1 0 0 0 .09.24h-.32a.84.84 0 0 1 -.06-.33zm0-.74a2.66 2.66 0 0 1 -.54.13l-.29.06a.35.35 0 0 0 -.13.11.29.29 0 0 0 0 .16.28.28 0 0 0 .1.22.4.4 0 0 0 .29.08.63.63 0 0 0 .34-.08.49.49 0 0 0 .22-.23.87.87 0 0 0 0-.33z"/><path d="m69.45 35.76v-2.69h.33v2.69z"/><path d="m48.17 40.26v-1.94h.3v.29a.83.83 0 0 1 .21-.27.31.31 0 0 1 .21-.07.65.65 0 0 1 .34.11l-.11.3a.55.55 0 0 0 -.24-.07.29.29 0 0 0 -.2.07.29.29 0 0 0 -.12.18 1.16 1.16 0 0 0 -.06.38v1z"/><path d="m50.76 39.64h.34a.78.78 0 0 1 -.3.46.89.89 0 0 1 -.56.17.86.86 0 0 1 -.67-.27 1 1 0 0 1 -.25-.73 1.08 1.08 0 0 1 .25-.77.87.87 0 0 1 .66-.27.8.8 0 0 1 .63.27 1 1 0 0 1 .25.75v.08h-1.45a.71.71 0 0 0 .18.49.52.52 0 0 0 .41.17.54.54 0 0 0 .31-.09.69.69 0 0 0 .2-.26zm-1.08-.54h1.08a.65.65 0 0 0 -.12-.37.53.53 0 0 0 -.41-.19.49.49 0 0 0 -.38.16.55.55 0 0 0 -.17.4z"/><path d="m52.78 39.55h.33a.93.93 0 0 1 -.27.53.85.85 0 0 1 -.54.19.81.81 0 0 1 -.64-.27 1 1 0 0 1 -.25-.74 1.4 1.4 0 0 1 .11-.56.73.73 0 0 1 .32-.35.9.9 0 0 1 .46-.12.81.81 0 0 1 .52.16.78.78 0 0 1 .26.46h-.32a.55.55 0 0 0 -.17-.3.43.43 0 0 0 -.28-.1.5.5 0 0 0 -.4.18.83.83 0 0 0 -.16.57.88.88 0 0 0 .15.57.48.48 0 0 0 .39.17.52.52 0 0 0 .33-.11.58.58 0 0 0 .16-.28z"/><path d="m53.27 39.29a1 1 0 0 1 .3-.8.88.88 0 0 1 .61-.22.9.9 0 0 1 .66.26 1 1 0 0 1 .25.73 1.35 1.35 0 0 1 -.11.59.83.83 0 0 1 -.33.34.94.94 0 0 1 -.47.12.87.87 0 0 1 -.66-.27 1 1 0 0 1 -.25-.75zm.34 0a.83.83 0 0 0 .16.56.56.56 0 0 0 .82 0 .86.86 0 0 0 .16-.57.8.8 0 0 0 -.16-.55.56.56 0 0 0 -.82 0 .81.81 0 0 0 -.16.56z"/><path d="m55.48 40.26v-1.94h.29v.27a.72.72 0 0 1 .62-.32.88.88 0 0 1 .33.06.56.56 0 0 1 .22.17.64.64 0 0 1 .1.24 2.27 2.27 0 0 1 0 .33v1.19h-.33v-1.18a.74.74 0 0 0 0-.3.31.31 0 0 0 -.14-.16.41.41 0 0 0 -.23-.06.52.52 0 0 0 -.36.13.67.67 0 0 0 -.15.51v1.06z"/><path d="m57.43 39.68h.33a.48.48 0 0 0 .15.3.54.54 0 0 0 .35.1.53.53 0 0 0 .34-.09.28.28 0 0 0 .11-.22.19.19 0 0 0 -.1-.17 1.19 1.19 0 0 0 -.33-.11 3.53 3.53 0 0 1 -.51-.16.55.55 0 0 1 -.21-.19.46.46 0 0 1 -.07-.26.53.53 0 0 1 .06-.24.55.55 0 0 1 .16-.18.69.69 0 0 1 .21-.1.86.86 0 0 1 .28 0 1 1 0 0 1 .41.07.48.48 0 0 1 .25.18.7.7 0 0 1 .12.3h-.33a.31.31 0 0 0 -.12-.23.45.45 0 0 0 -.3-.09.57.57 0 0 0 -.33.08.22.22 0 0 0 -.09.17.16.16 0 0 0 0 .12.41.41 0 0 0 .19.04l.29.08a3.37 3.37 0 0 1 .49.15.48.48 0 0 1 .3.46.52.52 0 0 1 -.08.31.59.59 0 0 1 -.28.23 1 1 0 0 1 -.41.08.92.92 0 0 1 -.57-.16.73.73 0 0 1 -.31-.47z"/><path d="m60.16 40 .05.29h-.25a.55.55 0 0 1 -.28-.06.33.33 0 0 1 -.14-.15 1.09 1.09 0 0 1 0-.39v-1.12h-.24v-.25h.24v-.49l.33-.19v.68h.33v.25h-.33v1.14a.39.39 0 0 0 0 .18.18.18 0 0 0 0 .07l.13.04z"/><path d="m60.48 40.26v-1.94h.3v.29a.63.63 0 0 1 .21-.27.31.31 0 0 1 .21-.07.68.68 0 0 1 .34.11l-.12.3a.55.55 0 0 0 -.24-.07.26.26 0 0 0 -.19.07.35.35 0 0 0 -.13.18 1.52 1.52 0 0 0 0 .38v1z"/><path d="m63 40.26v-.26a.71.71 0 0 1 -.62.33.88.88 0 0 1 -.32-.07.48.48 0 0 1 -.22-.17.53.53 0 0 1 -.1-.24 1.28 1.28 0 0 1 0-.31v-1.2h.33v1.07a1.44 1.44 0 0 0 0 .35.33.33 0 0 0 .13.21.39.39 0 0 0 .25.07.55.55 0 0 0 .28-.07.46.46 0 0 0 .18-.21 1 1 0 0 0 0-.38v-1h.33v1.94z"/><path d="m65.09 39.55h.32a.82.82 0 0 1 -.27.53.81.81 0 0 1 -.54.19.82.82 0 0 1 -.6-.27 1 1 0 0 1 -.24-.74 1.4 1.4 0 0 1 .1-.56.78.78 0 0 1 .32-.35.94.94 0 0 1 .47-.12.76.76 0 0 1 .51.16.69.69 0 0 1 .26.46h-.32a.54.54 0 0 0 -.16-.3.45.45 0 0 0 -.28-.1.52.52 0 0 0 -.41.18 1.16 1.16 0 0 0 0 1.14.53.53 0 0 0 .71.06.58.58 0 0 0 .13-.28z"/><path d="m66.42 40v.29h-.25a.49.49 0 0 1 -.27-.06.29.29 0 0 1 -.14-.15 1.09 1.09 0 0 1 0-.39v-1.12h-.25v-.25h.25v-.49l.32-.19v.68h.34v.25h-.34v1.14a.62.62 0 0 0 0 .18.13.13 0 0 0 .06.07h.11z"/><path d="m66.74 38v-.37h.33v.37zm0 2.31v-1.99h.33v1.94z"/><path d="m67.45 39.29a1 1 0 0 1 .3-.8.88.88 0 0 1 .61-.22.9.9 0 0 1 .66.26 1 1 0 0 1 .25.73 1.22 1.22 0 0 1 -.11.59.77.77 0 0 1 -.33.34.94.94 0 0 1 -.47.12.87.87 0 0 1 -.66-.31 1 1 0 0 1 -.25-.71zm.34 0a.83.83 0 0 0 .16.56.54.54 0 0 0 .41.18.52.52 0 0 0 .41-.18.86.86 0 0 0 .16-.57.8.8 0 0 0 -.16-.55.56.56 0 0 0 -.82 0 .81.81 0 0 0 -.16.56z"/><path d="m69.66 40.26v-1.94h.34v.27a.7.7 0 0 1 .62-.32.87.87 0 0 1 .32.06.56.56 0 0 1 .22.17.64.64 0 0 1 .1.24 2.27 2.27 0 0 1 0 .33v1.19h-.33v-1.18a.74.74 0 0 0 0-.3.29.29 0 0 0 -.13-.16.46.46 0 0 0 -.23-.06.54.54 0 0 0 -.37.13.67.67 0 0 0 -.15.51v1.06z"/><path d="m46.58 21.28-5.09-2.15.79 1.87h-4.91a.29.29 0 0 0 0 .58h4.91l-.79 1.86z"/></g><rect height="3.64" rx=".56" width="15.05" y="2.51"/><rect height="3.64" rx=".56" width="15.05" x="3.25" y="7.19"/><rect height="3.64" rx=".56" width="15.05" x="6.51" y="11.87"/><rect height="3.64" rx=".56" width="15.05" x="9.76" y="16.54"/><path d="m13.38 35.73v-2.73h.93a2 2 0 0 1 .48 0 .89.89 0 0 1 .39.19 1.09 1.09 0 0 1 .32.46 2.11 2.11 0 0 1 0 1.18 1.42 1.42 0 0 1 -.18.39 1 1 0 0 1 -.25.25.93.93 0 0 1 -.32.13 1.81 1.81 0 0 1 -.43 0zm.36-.32h.57a1.5 1.5 0 0 0 .42 0 .57.57 0 0 0 .24-.14.93.93 0 0 0 .2-.34 1.87 1.87 0 0 0 .07-.52 1.24 1.24 0 0 0 -.14-.64.72.72 0 0 0 -.34-.31 1.62 1.62 0 0 0 -.46 0h-.56z" transform="translate(-7.61 -8.44)"/><path d="m17.38 35.1h.34a.81.81 0 0 1 -.3.47.88.88 0 0 1 -.55.16.91.91 0 0 1 -.68-.26 1 1 0 0 1 -.25-.74 1.06 1.06 0 0 1 .25-.76.93.93 0 0 1 1.3 0 1.09 1.09 0 0 1 .24.75v.09h-1.45a.73.73 0 0 0 .18.49.57.57 0 0 0 .41.17.48.48 0 0 0 .31-.1.63.63 0 0 0 .2-.27zm-1.08-.53h1.09a.67.67 0 0 0 -.13-.37.49.49 0 0 0 -.41-.19.52.52 0 0 0 -.38.15.62.62 0 0 0 -.17.41z" transform="translate(-7.61 -8.44)"/><path d="m18.14 35.73v-1.95h.29v.28a.69.69 0 0 1 .62-.32.88.88 0 0 1 .33.06.54.54 0 0 1 .22.17.58.58 0 0 1 .1.24 2.1 2.1 0 0 1 0 .32v1.2h-.33v-1.19a.8.8 0 0 0 0-.3.31.31 0 0 0 -.14-.16.41.41 0 0 0 -.23-.08.52.52 0 0 0 -.36.14.65.65 0 0 0 -.15.5v1.07z" transform="translate(-7.61 -8.44)"/><path d="m20.09 35.15.33-.06a.43.43 0 0 0 .15.3.52.52 0 0 0 .35.11.53.53 0 0 0 .34-.09.29.29 0 0 0 .11-.22.21.21 0 0 0 -.1-.18 1.62 1.62 0 0 0 -.34-.11 2.67 2.67 0 0 1 -.5-.16.46.46 0 0 1 -.21-.18.48.48 0 0 1 -.07-.26.48.48 0 0 1 .06-.24.49.49 0 0 1 .16-.19.51.51 0 0 1 .21-.09.86.86 0 0 1 .28 0 1.27 1.27 0 0 1 .41.06.62.62 0 0 1 .25.18.67.67 0 0 1 .11.3h-.32a.32.32 0 0 0 -.13-.24.48.48 0 0 0 -.29-.08.58.58 0 0 0 -.33.07.23.23 0 0 0 -.09.18.15.15 0 0 0 0 .11.23.23 0 0 0 .12.09l.29.09a3.37 3.37 0 0 1 .49.15.54.54 0 0 1 .22.17.55.55 0 0 1 0 .6.58.58 0 0 1 -.28.22 1 1 0 0 1 -.41.08.86.86 0 0 1 -.57-.16.71.71 0 0 1 -.24-.45z" transform="translate(-7.61 -8.44)"/><path d="m23.43 35.1h.34a.81.81 0 0 1 -.3.47.88.88 0 0 1 -.55.16.91.91 0 0 1 -.68-.26 1 1 0 0 1 -.25-.74 1.06 1.06 0 0 1 .25-.76.93.93 0 0 1 1.3 0 1.09 1.09 0 0 1 .24.75v.09h-1.45a.73.73 0 0 0 .18.49.57.57 0 0 0 .41.17.48.48 0 0 0 .31-.1.63.63 0 0 0 .2-.27zm-1.08-.53h1.09a.67.67 0 0 0 -.13-.37.49.49 0 0 0 -.41-.2.52.52 0 0 0 -.38.15.62.62 0 0 0 -.17.42z" transform="translate(-7.61 -8.44)"/><path d="m26.49 35.73v-.25a.6.6 0 0 1 -.54.29.73.73 0 0 1 -.43-.13.77.77 0 0 1 -.3-.36 1.24 1.24 0 0 1 -.11-.52 1.29 1.29 0 0 1 .1-.53.77.77 0 0 1 .29-.37.8.8 0 0 1 .43-.12.66.66 0 0 1 .32.07.67.67 0 0 1 .22.19v-1h.33v2.69zm-1-1a.8.8 0 0 0 .16.55.46.46 0 0 0 .37.19.47.47 0 0 0 .37-.18.83.83 0 0 0 .15-.54.86.86 0 0 0 -.16-.58.46.46 0 0 0 -.38-.17.45.45 0 0 0 -.36.18.88.88 0 0 0 -.19.58z" transform="translate(-7.61 -8.44)"/><path d="m28.59 35.49a1.59 1.59 0 0 1 -.36.22 1 1 0 0 1 -.36.06.67.67 0 0 1 -.49-.16.49.49 0 0 1 -.18-.4.59.59 0 0 1 .07-.26.52.52 0 0 1 .17-.19.88.88 0 0 1 .24-.11h.29a3.12 3.12 0 0 0 .59-.12v-.08a.39.39 0 0 0 -.09-.29.59.59 0 0 0 -.38-.11.61.61 0 0 0 -.34.08.51.51 0 0 0 -.17.29h-.32a.82.82 0 0 1 .15-.34.57.57 0 0 1 .29-.19 1.2 1.2 0 0 1 .44-.07 1.09 1.09 0 0 1 .4.06.43.43 0 0 1 .23.14.55.55 0 0 1 .11.23 2.2 2.2 0 0 1 0 .3v.44a5.72 5.72 0 0 0 0 .58 1.17 1.17 0 0 0 .09.24h-.35a.84.84 0 0 1 -.03-.32zm0-.74a2.2 2.2 0 0 1 -.54.12 1.52 1.52 0 0 0 -.29.07.35.35 0 0 0 -.13.11.26.26 0 0 0 0 .15.26.26 0 0 0 .1.22.4.4 0 0 0 .29.09.74.74 0 0 0 .34-.08.54.54 0 0 0 .22-.23.87.87 0 0 0 0-.33z" transform="translate(-7.61 -8.44)"/><path d="m30.12 35.43.05.29h-.25a.7.7 0 0 1 -.28 0 .4.4 0 0 1 -.14-.15 1.52 1.52 0 0 1 0-.39v-1.18h-.24v-.26h.24v-.44l.33-.2v.68h.33v.22h-.33v1.13a.66.66 0 0 0 0 .19l.06.06s.06 0 .11 0z" transform="translate(-7.61 -8.44)"/><path d="m31.72 35.49a1.59 1.59 0 0 1 -.36.22 1 1 0 0 1 -.36.06.67.67 0 0 1 -.49-.16.49.49 0 0 1 -.18-.4.59.59 0 0 1 .07-.21.52.52 0 0 1 .17-.19.88.88 0 0 1 .24-.11h.29a3.12 3.12 0 0 0 .59-.12v-.08a.39.39 0 0 0 -.09-.29.59.59 0 0 0 -.38-.11.61.61 0 0 0 -.34.08.51.51 0 0 0 -.17.29h-.32a.82.82 0 0 1 .15-.34.57.57 0 0 1 .29-.19 1.16 1.16 0 0 1 .44-.07 1.09 1.09 0 0 1 .4.06.43.43 0 0 1 .23.14.55.55 0 0 1 .11.23 2.2 2.2 0 0 1 0 .3v.44a5.72 5.72 0 0 0 0 .58 1.17 1.17 0 0 0 .09.24h-.35a.84.84 0 0 1 -.03-.37zm0-.74a2.2 2.2 0 0 1 -.54.12 1.52 1.52 0 0 0 -.29.07.35.35 0 0 0 -.13.11.26.26 0 0 0 0 .15.26.26 0 0 0 .1.22.4.4 0 0 0 .29.09.74.74 0 0 0 .34-.08.54.54 0 0 0 .22-.23.87.87 0 0 0 .05-.33z" transform="translate(-7.61 -8.44)"/></g></svg>