<svg viewBox="0 0 61.39 24.78" xmlns="http://www.w3.org/2000/svg"><g fill="#ffffff"><g transform="translate(-8.4 -11.6)"><path d="m26.47 22.1a2.6 2.6 0 0 1 -1.47-.38 5.63 5.63 0 0 0 -1.42-1.67 10.41 10.41 0 0 0 -3.85-1.91 4.79 4.79 0 0 0 -2.49-.05 2.42 2.42 0 0 1 -.66-.07 1 1 0 0 0 .08-.14 1 1 0 0 0 -.27-1.23 1.12 1.12 0 0 0 -.79-.15c.29-.2.16-.43.14-.57s-.27-.29-.81-.22a1.3 1.3 0 0 0 -.93.91c0 .23-.45 1.3-.45 1.3-.17.07-.34.16-.51.25a5.69 5.69 0 0 0 -2.04 1.53 3.56 3.56 0 0 1 -.29.45c-.08.08-.8.77-.77 1.06s.22.3.24.37a.3.3 0 0 0 .31.13s0 .3.5.44a3.12 3.12 0 0 0 1.16 0h.47s.21.06.46.13a3.31 3.31 0 0 1 1 .86l.07.11a.31.31 0 0 1 0 .1.92.92 0 0 1 -.16.48.84.84 0 0 1 -.22.24 1.34 1.34 0 0 1 -.45.24c-.07 0-.5 0-.64 0s-.44.16-.41.43c0 0 .06.05.1 0s.08.19.42-.07c0 0-.06.31.23.23s.32-.22.32-.22a.25.25 0 0 0 .22.05.44.44 0 0 0 .19-.13s0 .13.16.14a.29.29 0 0 0 .35-.28c0-.2.53-.52.53-.52.21.13.43.31.3.52a.05.05 0 0 0 0 0 2.66 2.66 0 0 0 -.44.33 1.1 1.1 0 0 1 -.72.37s-.17-.31-.31-.29a1.2 1.2 0 0 0 -.5.5h.07s-.11.07 0 .13-.09.2.1.25a.36.36 0 0 0 .48-.2.14.14 0 0 0 .18.13l.37-.07s0 .26.25.16a.1.1 0 0 0 0-.13.68.68 0 0 0 .37-.09c.06-.05.3-.23.49-.4.2.07.44-.2.64-.25a8.28 8.28 0 0 1 .94-.41l1.15-.16c.06.12.45.09.84.08s1.59-.19 2-.24a3.34 3.34 0 0 1 1.16.11 3.64 3.64 0 0 0 1.7-.29l.22.15v.48l-.38.38a2.26 2.26 0 0 0 -.63.21c-.13.12-.37.34-.32.46s.23.1.36.06.25-.26.25-.26-.17.3-.05.37a.46.46 0 0 0 .41-.06s0-.21.06-.24l.12-.12a.81.81 0 0 0 -.08.35c0 .1.3.13.38.07s.06-.21.06-.21l.1-.15a.76.76 0 0 0 .21 0s.22.11.36.22a.18.18 0 0 0 .28-.09.43.43 0 0 0 -.2-.35.85.85 0 0 1 -.24-.17s0-.64 0-.87 0-.6-.09-.7l-.21-.16.17-.07a1.4 1.4 0 0 0 .43-.55 8.49 8.49 0 0 1 2.09-.13c.86.12 2.49 1.25 2.36 2.17s-1.52 1.62-1.52 1.62c-2.42 1.17-3.79.8-5.52.78a2 2 0 0 0 -2.07 1.19c1.75-2.31 3.59.43 7.82-1.78s-.1-4.5-1.76-4.49z"/><path d="m8.4 35.63v-2.69h1.94v.32h-1.59v.82h1.49v.32h-1.49v.91h1.65v.32z"/><path d="m10.63 35.63.71-1-.65-.94h.41l.3.46.13.22a2.17 2.17 0 0 0 .15-.22l.33-.46h.39l-.67.92.72 1h-.4l-.4-.61-.11-.16-.51.77z"/><path d="m12.73 36.37v-2.69h.27v.26a.75.75 0 0 1 .24-.23.66.66 0 0 1 .32-.07.72.72 0 0 1 .44.13.7.7 0 0 1 .29.36 1.25 1.25 0 0 1 .1.51 1.33 1.33 0 0 1 -.11.54.81.81 0 0 1 -.31.37.85.85 0 0 1 -.43.12.6.6 0 0 1 -.3-.07.68.68 0 0 1 -.21-.17v.94zm.3-1.7a.84.84 0 0 0 .15.55.46.46 0 0 0 .37.18.47.47 0 0 0 .37-.18.87.87 0 0 0 .16-.58.89.89 0 0 0 -.15-.56.47.47 0 0 0 -.37-.18.45.45 0 0 0 -.37.2.86.86 0 0 0 -.19.57z"/><path d="m16.15 35h.34a.81.81 0 0 1 -.3.47.91.91 0 0 1 -.56.16.85.85 0 0 1 -.67-.26 1 1 0 0 1 -.25-.74 1.07 1.07 0 0 1 .25-.76.86.86 0 0 1 .65-.27.81.81 0 0 1 .64.27 1 1 0 0 1 .25.74v.09h-1.45a.73.73 0 0 0 .18.49.52.52 0 0 0 .41.17.49.49 0 0 0 .3-.09.66.66 0 0 0 .21-.27zm-1.08-.53h1.08a.62.62 0 0 0 -.15-.37.5.5 0 0 0 -.41-.19.52.52 0 0 0 -.38.15.57.57 0 0 0 -.14.41z"/><path d="m16.9 35.63v-2h.3v.37a.63.63 0 0 1 .21-.27.31.31 0 0 1 .21-.07.68.68 0 0 1 .34.11l-.12.3a.44.44 0 0 0 -.24-.07.26.26 0 0 0 -.19.07.35.35 0 0 0 -.13.18 1.46 1.46 0 0 0 -.05.38v1z"/><path d="m18.15 33.32v-.38h.33v.38zm0 2.31v-2h.33v2z"/><path d="m19 35.63v-2h.29v.37a.59.59 0 0 1 .24-.23.7.7 0 0 1 .35-.09.66.66 0 0 1 .36.09.48.48 0 0 1 .19.25.71.71 0 0 1 .6-.34.59.59 0 0 1 .45.16.7.7 0 0 1 .15.49v1.34h-.33v-1.27a.88.88 0 0 0 0-.28.26.26 0 0 0 -.11-.14.35.35 0 0 0 -.2 0 .45.45 0 0 0 -.34.13.61.61 0 0 0 -.14.44v1.13h-.33v-1.32a.49.49 0 0 0 -.08-.32.28.28 0 0 0 -.26-.11.48.48 0 0 0 -.26.07.39.39 0 0 0 -.17.21 1.14 1.14 0 0 0 -.05.41v1z"/><path d="m23.44 35h.35a.8.8 0 0 1 -.86.63.89.89 0 0 1 -.68-.26 1.23 1.23 0 0 1 0-1.5.91.91 0 0 1 1.29 0 1 1 0 0 1 .25.74.34.34 0 0 1 0 .09h-1.45a.84.84 0 0 0 .18.49.53.53 0 0 0 .41.17.52.52 0 0 0 .31-.09.64.64 0 0 0 .2-.27zm-1.08-.53h1.09a.7.7 0 0 0 -.13-.37.49.49 0 0 0 -.41-.19.54.54 0 0 0 -.38.15.62.62 0 0 0 -.17.41z"/><path d="m24.2 35.63v-2h.3v.37a.7.7 0 0 1 .62-.32.87.87 0 0 1 .32.06.48.48 0 0 1 .22.17.64.64 0 0 1 .1.24 2.1 2.1 0 0 1 0 .32v1.2h-.33v-1.22a.83.83 0 0 0 0-.31.33.33 0 0 0 -.13-.16.59.59 0 0 0 -.23 0 .54.54 0 0 0 -.37.13.67.67 0 0 0 -.15.51v1.06z"/><path d="m27 35.33v.3a1.06 1.06 0 0 1 -.24 0 .54.54 0 0 1 -.28 0 .29.29 0 0 1 -.14-.15 1.09 1.09 0 0 1 0-.39v-1.15h-.24v-.26h.24v-.48l.33-.2v.68h.33v.26h-.33v1.14a.77.77 0 0 0 0 .18.09.09 0 0 0 .06.06.18.18 0 0 0 .11 0z"/><path d="m27.2 35.05h.32a.44.44 0 0 0 .16.3.52.52 0 0 0 .35.1.5.5 0 0 0 .33-.09.25.25 0 0 0 .11-.22.2.2 0 0 0 -.09-.17 1.65 1.65 0 0 0 -.38-.17 3.62 3.62 0 0 1 -.5-.15.52.52 0 0 1 -.22-.19.56.56 0 0 1 -.07-.26.48.48 0 0 1 .06-.24.74.74 0 0 1 .16-.19l.21-.09a.92.92 0 0 1 .29 0 1 1 0 0 1 .4.07.56.56 0 0 1 .26.17.8.8 0 0 1 .11.31h-.32a.41.41 0 0 0 -.13-.24.64.64 0 0 0 -.62 0 .2.2 0 0 0 -.1.17.19.19 0 0 0 0 .12.32.32 0 0 0 .13.08 2.78 2.78 0 0 0 .29.09 4.46 4.46 0 0 1 .49.15.46.46 0 0 1 .21.18.42.42 0 0 1 .08.28.59.59 0 0 1 -.09.31.69.69 0 0 1 -.28.22.91.91 0 0 1 -.41.08 1 1 0 0 1 -.58-.15.75.75 0 0 1 -.17-.47z"/><path d="m46.41 34.77h.34a.68.68 0 0 0 .11.33.75.75 0 0 0 .27.21 1.07 1.07 0 0 0 .41.08 1 1 0 0 0 .36-.06.51.51 0 0 0 .23-.17.4.4 0 0 0 .08-.23.35.35 0 0 0 -.08-.22.46.46 0 0 0 -.24-.16 4.22 4.22 0 0 0 -.48-.13 2.44 2.44 0 0 1 -.51-.17.72.72 0 0 1 -.29-.25.64.64 0 0 1 -.1-.33.66.66 0 0 1 .12-.38.71.71 0 0 1 .37-.29 1.3 1.3 0 0 1 .49-.09 1.44 1.44 0 0 1 .51.09.77.77 0 0 1 .35.29.83.83 0 0 1 .13.42h-.34a.56.56 0 0 0 -.19-.39.69.69 0 0 0 -.47-.13.7.7 0 0 0 -.46.12.35.35 0 0 0 -.15.28.3.3 0 0 0 .1.24 1.4 1.4 0 0 0 .54.19 5.69 5.69 0 0 1 .59.17.92.92 0 0 1 .35.28.7.7 0 0 1 .11.38.72.72 0 0 1 -.12.4.77.77 0 0 1 -.36.3 1.19 1.19 0 0 1 -.51.11 1.51 1.51 0 0 1 -.61-.11.83.83 0 0 1 -.39-.32 1 1 0 0 1 -.16-.46z"/><path d="m49 36.37v-2.69h.3v.26a1 1 0 0 1 .24-.23.67.67 0 0 1 .33-.07.77.77 0 0 1 .73.49 1.44 1.44 0 0 1 .09.51 1.33 1.33 0 0 1 -.1.54.89.89 0 0 1 -.32.37.8.8 0 0 1 -.43.12.59.59 0 0 1 -.29-.07.62.62 0 0 1 -.22-.17v.94zm.3-1.7a.84.84 0 0 0 .15.55.49.49 0 0 0 .37.18.48.48 0 0 0 .38-.18.93.93 0 0 0 .16-.58.83.83 0 0 0 -.16-.56.45.45 0 0 0 -.36-.18.47.47 0 0 0 -.38.2.92.92 0 0 0 -.17.57z"/><path d="m52.35 35.39a1.25 1.25 0 0 1 -.35.22 1.1 1.1 0 0 1 -.37.06.74.74 0 0 1 -.49-.15.54.54 0 0 1 -.17-.4.6.6 0 0 1 .06-.27.59.59 0 0 1 .17-.18.66.66 0 0 1 .24-.11 1.41 1.41 0 0 1 .3-.05 2.38 2.38 0 0 0 .58-.12v-.08a.39.39 0 0 0 -.09-.29.56.56 0 0 0 -.37-.11.65.65 0 0 0 -.35.08.5.5 0 0 0 -.16.29h-.32a.81.81 0 0 1 .14-.34.67.67 0 0 1 .29-.19 1.23 1.23 0 0 1 .44-.07 1.18 1.18 0 0 1 .41.06.57.57 0 0 1 .23.15.5.5 0 0 1 .1.22 1.9 1.9 0 0 1 0 .3v.44a3.91 3.91 0 0 0 0 .59.7.7 0 0 0 .08.23h-.34a.61.61 0 0 1 -.03-.28zm0-.74a2.66 2.66 0 0 1 -.54.13l-.28.06a.28.28 0 0 0 -.13.11.3.3 0 0 0 0 .16.27.27 0 0 0 .1.22.42.42 0 0 0 .29.09.64.64 0 0 0 .34-.09.49.49 0 0 0 .22-.23.71.71 0 0 0 0-.33z"/><path d="m53.16 35.63v-2h.3v.37a.83.83 0 0 1 .21-.27.35.35 0 0 1 .21-.07.65.65 0 0 1 .34.11l-.11.3a.44.44 0 0 0 -.24-.07.29.29 0 0 0 -.2.07.29.29 0 0 0 -.12.18 1.12 1.12 0 0 0 -.06.38v1z"/><path d="m54.29 35.05h.32a.48.48 0 0 0 .15.3.57.57 0 0 0 .36.1.5.5 0 0 0 .33-.09.25.25 0 0 0 .11-.22.2.2 0 0 0 -.09-.17 1.65 1.65 0 0 0 -.34-.12 3.62 3.62 0 0 1 -.5-.15.52.52 0 0 1 -.22-.19.46.46 0 0 1 -.07-.26.48.48 0 0 1 .06-.25.58.58 0 0 1 .16-.19l.21-.09a.92.92 0 0 1 .29 0 1 1 0 0 1 .4.07.53.53 0 0 1 .25.17.67.67 0 0 1 .12.31h-.32a.41.41 0 0 0 -.13-.24.64.64 0 0 0 -.62 0 .2.2 0 0 0 -.1.17.19.19 0 0 0 0 .12.32.32 0 0 0 .13.08 2.78 2.78 0 0 0 .29.09 4.46 4.46 0 0 1 .49.15.46.46 0 0 1 .21.18.42.42 0 0 1 .08.28.59.59 0 0 1 -.09.31.69.69 0 0 1 -.28.22.91.91 0 0 1 -.41.08.94.94 0 0 1 -.58-.15.75.75 0 0 1 -.21-.51z"/><path d="m57.63 35h.37a.8.8 0 0 1 -.86.63.89.89 0 0 1 -.68-.26 1.23 1.23 0 0 1 0-1.5.85.85 0 0 1 .65-.27.82.82 0 0 1 .64.27 1 1 0 0 1 .25.74v.09h-1.48a.78.78 0 0 0 .19.49.5.5 0 0 0 .4.17.52.52 0 0 0 .31-.09.66.66 0 0 0 .21-.27zm-1.09-.53h1.09a.8.8 0 0 0 -.12-.37.52.52 0 0 0 -.41-.19.54.54 0 0 0 -.39.15.62.62 0 0 0 -.17.41z"/><path d="m60.69 35.63v-.25a.61.61 0 0 1 -.55.29.75.75 0 0 1 -.43-.13.79.79 0 0 1 -.3-.35 1.29 1.29 0 0 1 -.11-.53 1.47 1.47 0 0 1 .1-.53.77.77 0 0 1 .73-.49.64.64 0 0 1 .31.07.61.61 0 0 1 .22.2v-1h.34v2.69zm-1-1a.89.89 0 0 0 .16.56.49.49 0 0 0 .37.18.48.48 0 0 0 .37-.17.83.83 0 0 0 .15-.54.93.93 0 0 0 -.15-.59.47.47 0 0 0 -.38-.19.46.46 0 0 0 -.37.18.88.88 0 0 0 -.2.6z"/><path d="m62.78 35.39a1.25 1.25 0 0 1 -.35.22 1.15 1.15 0 0 1 -.37.06.74.74 0 0 1 -.49-.15.54.54 0 0 1 -.17-.4.6.6 0 0 1 .06-.27.59.59 0 0 1 .17-.18.66.66 0 0 1 .24-.11 1.41 1.41 0 0 1 .29-.05 2.37 2.37 0 0 0 .59-.12v-.08a.39.39 0 0 0 -.09-.29.56.56 0 0 0 -.37-.11.65.65 0 0 0 -.35.08.5.5 0 0 0 -.16.29h-.32a.7.7 0 0 1 .14-.34.61.61 0 0 1 .29-.19 1.23 1.23 0 0 1 .44-.07 1.18 1.18 0 0 1 .41.06.57.57 0 0 1 .23.15.5.5 0 0 1 .1.22 1.9 1.9 0 0 1 0 .3v.44a3.91 3.91 0 0 0 0 .59.7.7 0 0 0 .08.23h-.34a.61.61 0 0 1 -.03-.28zm0-.74a2.66 2.66 0 0 1 -.54.13l-.28.06a.28.28 0 0 0 -.13.11.3.3 0 0 0 0 .16.27.27 0 0 0 .1.22.42.42 0 0 0 .29.09.64.64 0 0 0 .34-.09.49.49 0 0 0 .22-.23.71.71 0 0 0 0-.33z"/><path d="m64.32 35.33.05.3a1.19 1.19 0 0 1 -.25 0 .54.54 0 0 1 -.28 0 .33.33 0 0 1 -.14-.15 1.09 1.09 0 0 1 0-.39v-1.15h-.24v-.26h.24v-.48l.3-.2v.68h.33v.26h-.33v1.14a.77.77 0 0 0 0 .18.09.09 0 0 0 .06.06.18.18 0 0 0 .11 0z"/><path d="m65.91 35.39a1.25 1.25 0 0 1 -.35.22 1.15 1.15 0 0 1 -.37.06.74.74 0 0 1 -.49-.15.54.54 0 0 1 -.17-.4.6.6 0 0 1 .06-.27.59.59 0 0 1 .17-.18.66.66 0 0 1 .24-.11 1.41 1.41 0 0 1 .29-.05 2.37 2.37 0 0 0 .59-.12v-.08a.39.39 0 0 0 -.09-.29.56.56 0 0 0 -.37-.11.65.65 0 0 0 -.35.08.5.5 0 0 0 -.16.29h-.32a.7.7 0 0 1 .14-.34.61.61 0 0 1 .29-.19 1.23 1.23 0 0 1 .44-.07 1.18 1.18 0 0 1 .41.06.57.57 0 0 1 .23.15.5.5 0 0 1 .1.22 1.9 1.9 0 0 1 0 .3v.44a3.91 3.91 0 0 0 0 .59.7.7 0 0 0 .08.23h-.28a.61.61 0 0 1 -.09-.28zm0-.74a2.66 2.66 0 0 1 -.54.13l-.28.06a.28.28 0 0 0 -.13.11.3.3 0 0 0 -.05.16.27.27 0 0 0 .1.22.42.42 0 0 0 .29.09.64.64 0 0 0 .34-.09.49.49 0 0 0 .22-.23.87.87 0 0 0 0-.33z"/><path d="m43.05 21.28-5.05-2.15.75 1.87h-4.9a.29.29 0 0 0 0 .58h4.9l-.75 1.85z"/><path d="m69.79 18.69a.21.21 0 0 1 -.06.15l-9.4 9.4a.19.19 0 0 1 -.16.06.3.3 0 0 1 -.21-.09l-1.86-1.87h1.5a1.24 1.24 0 0 0 1.27-1.22v-8.72l3.21-3.21a.23.23 0 0 1 .15 0 .28.28 0 0 1 .2.09l5.25 5.25a.37.37 0 0 1 .11.16z"/><path d="m56.28 27.32a.25.25 0 0 1 -.2.3l-7.15 2a.27.27 0 0 1 -.33-.15l-3.6-12.75a.18.18 0 0 1 0-.16.28.28 0 0 1 .18-.13l5.74-1.64v10.33a1.25 1.25 0 0 0 1.27 1.22h3.81z"/></g><path d="m47.33 13.76v.01l-.02-.01z"/><path d="m59.88 11.82v13.3a.25.25 0 0 1 -.28.23h-7.43a.26.26 0 0 1 -.28-.23v-13.3a.26.26 0 0 1 .28-.22h7.43a.25.25 0 0 1 .28.22z" transform="translate(-8.4 -11.6)"/><path d="m47.33 13.76v.01l-.02-.01z"/></g></svg>