<svg viewBox="0 0 22.96 27.73" xmlns="http://www.w3.org/2000/svg"><g fill="#ffffff" transform="translate(-30.3 -7.97)"><path d="m32.56 35.66v-2.66h1a2.15 2.15 0 0 1 .44 0 .81.81 0 0 1 .33.12.71.71 0 0 1 .22.26.87.87 0 0 1 .08.37.85.85 0 0 1 -.22.58 1.05 1.05 0 0 1 -.79.23h-.69v1.1zm.35-1.41h.7a.78.78 0 0 0 .49-.13.49.49 0 0 0 .14-.36.55.55 0 0 0 -.08-.29.46.46 0 0 0 -.23-.16h-.33-.69z"/><path d="m35 35.66v-1.95h.3v.29a1 1 0 0 1 .21-.28.37.37 0 0 1 .21-.06.63.63 0 0 1 .34.1l-.11.31a.44.44 0 0 0 -.24-.07.34.34 0 0 0 -.2.06.36.36 0 0 0 -.12.18 1.23 1.23 0 0 0 -.06.39v1z"/><path d="m37.6 35h.34a.81.81 0 0 1 -.3.47 1 1 0 0 1 -1.23-.1 1 1 0 0 1 -.25-.74 1.06 1.06 0 0 1 .25-.76.87.87 0 0 1 .66-.27.79.79 0 0 1 .63.26 1 1 0 0 1 .25.75v.09h-1.45a.73.73 0 0 0 .18.49.55.55 0 0 0 .41.17.48.48 0 0 0 .31-.1.63.63 0 0 0 .2-.26zm-1.08-.53h1.08a.6.6 0 0 0 -.12-.37.5.5 0 0 0 -.41-.19.52.52 0 0 0 -.38.15.57.57 0 0 0 -.17.44z"/><path d="m39.62 35.66v-.25a.63.63 0 0 1 -.55.29.75.75 0 0 1 -.43-.13.77.77 0 0 1 -.3-.36 1.24 1.24 0 0 1 -.11-.52 1.47 1.47 0 0 1 .1-.53.74.74 0 0 1 .73-.49.64.64 0 0 1 .31.07.59.59 0 0 1 .22.19v-.93h.33v2.69zm-1-1a.86.86 0 0 0 .16.55.47.47 0 0 0 .37.19.46.46 0 0 0 .37-.18.83.83 0 0 0 .15-.54.92.92 0 0 0 -.15-.58.47.47 0 0 0 -.75 0 .88.88 0 0 0 -.2.59z"/><path d="m40.44 33.35v-.35h.33v.38zm0 2.31v-1.95h.33v1.95z"/><path d="m42.54 34.94.33.05a.9.9 0 0 1 -.27.52.79.79 0 0 1 -.54.19.84.84 0 0 1 -.64-.26 1 1 0 0 1 -.25-.75 1.35 1.35 0 0 1 .11-.55.71.71 0 0 1 .32-.36 1 1 0 0 1 .46-.11.81.81 0 0 1 .52.16.75.75 0 0 1 .26.45h-.32a.49.49 0 0 0 -.17-.29.39.39 0 0 0 -.28-.1.5.5 0 0 0 -.4.18.8.8 0 0 0 -.16.56.88.88 0 0 0 .15.57.49.49 0 0 0 .4.18.47.47 0 0 0 .32-.12.56.56 0 0 0 .16-.32z"/><path d="m43.87 35.36.05.29h-.25a.7.7 0 0 1 -.28 0 .4.4 0 0 1 -.14-.15 1.17 1.17 0 0 1 0-.39v-1.11h-.25v-.26h.24v-.48l.33-.2v.68h.33v.26h-.33v1.1a.66.66 0 0 0 0 .19v.06a.22.22 0 0 0 .12 0z"/><path d="m44.2 33.35v-.35h.32v.38zm0 2.31v-1.95h.32v1.95z"/><path d="m44.9 34.68a1 1 0 0 1 .3-.8 1 1 0 0 1 .62-.21.85.85 0 0 1 .65.26 1 1 0 0 1 .26.73 1.23 1.23 0 0 1 -.12.59.78.78 0 0 1 -.32.33 1 1 0 0 1 -.47.12.87.87 0 0 1 -.66-.26 1.06 1.06 0 0 1 -.26-.76zm.34 0a.81.81 0 0 0 .17.56.5.5 0 0 0 .41.19.52.52 0 0 0 .41-.19.88.88 0 0 0 .16-.57.78.78 0 0 0 -.17-.54.48.48 0 0 0 -.4-.19.52.52 0 0 0 -.41.18.83.83 0 0 0 -.17.56z"/><path d="m47.11 35.66v-1.95h.3v.29a.68.68 0 0 1 .62-.32.79.79 0 0 1 .32.06.44.44 0 0 1 .22.17.59.59 0 0 1 .11.24 2.1 2.1 0 0 1 0 .32v1.2h-.33v-1.2a1.08 1.08 0 0 0 0-.3.31.31 0 0 0 -.14-.16.41.41 0 0 0 -.21-.01.52.52 0 0 0 -.36.14.63.63 0 0 0 -.16.5v1.07z"/><path d="m49.07 35.08.33-.08a.38.38 0 0 0 .15.3.52.52 0 0 0 .35.11.55.55 0 0 0 .34-.09.31.31 0 0 0 .11-.22.22.22 0 0 0 -.1-.18 1.88 1.88 0 0 0 -.34-.11 2.44 2.44 0 0 1 -.5-.16.42.42 0 0 1 -.21-.18.5.5 0 0 1 -.08-.26.48.48 0 0 1 .06-.24.52.52 0 0 1 .17-.19.51.51 0 0 1 .21-.09.82.82 0 0 1 .28 0 1.2 1.2 0 0 1 .4.06.66.66 0 0 1 .26.18.82.82 0 0 1 .11.3h-.32a.36.36 0 0 0 -.13-.24.51.51 0 0 0 -.3-.08.52.52 0 0 0 -.32.07.24.24 0 0 0 -.1.18.21.21 0 0 0 0 .11.25.25 0 0 0 .13.09l.29.09a3.84 3.84 0 0 1 .49.15.62.62 0 0 1 .22.17.51.51 0 0 1 .08.28.63.63 0 0 1 -.1.32.69.69 0 0 1 -.28.22 1.07 1.07 0 0 1 -.41.08.91.91 0 0 1 -.58-.16.74.74 0 0 1 -.21-.43z"/><path d="m53.26 12.76-2.11-.89.28.65h-9.07c-.22 0-.44 0-.67 0a7.43 7.43 0 0 0 -6.93 4.75v-7.47l.65.28-.89-2.08-.89 2.11.65-.28v9.43.7a7.46 7.46 0 0 0 4.72 6.9h-6.87l.28-.65-2.11.89 2.11.89-.28-.65h9 .56a7.45 7.45 0 0 0 7-4.87v6.6l-.69-.25.89 2.11.89-2.11-.65.28v-9.4a.2.2 0 0 0 0-.11 7.46 7.46 0 0 0 -4.74-6.59h7l-.28.65zm-10.73 11h-1.08v-1.13h1.08zm2-5.75a1.87 1.87 0 0 1 -.24.93 4.64 4.64 0 0 1 -.93 1 4.79 4.79 0 0 0 -.61.61 1.63 1.63 0 0 0 -.21.44 4.49 4.49 0 0 0 -.08.83h-.91c0-.13 0-.22 0-.29a2.75 2.75 0 0 1 .16-1 2.31 2.31 0 0 1 .38-.62 6.29 6.29 0 0 1 .68-.66 3 3 0 0 0 .64-.7 1.09 1.09 0 0 0 .15-.56 1.3 1.3 0 0 0 -.43-1 1.48 1.48 0 0 0 -1.13-.36 1.4 1.4 0 0 0 -1 .37 2 2 0 0 0 -.53 1.18l-1-.11a2.33 2.33 0 0 1 2.53-2.22 2.58 2.58 0 0 1 1.81.61 2 2 0 0 1 .68 1.54z"/></g></svg>