<svg viewBox="0 0 57.52 24.96" xmlns="http://www.w3.org/2000/svg"><g fill="#ffffff"><rect height="3.64" rx=".56" width="15.05" x="32.71" y=".2"/><rect height="3.64" rx=".56" width="15.05" x="35.96" y="4.87"/><rect height="3.64" rx=".56" width="15.05" x="39.22" y="9.55"/><rect height="3.64" rx=".56" width="15.05" x="42.47" y="14.22"/><g transform="translate(-11.97 -11.41)"><path d="m48.45 35.63v-2.69h.92a2.68 2.68 0 0 1 .48 0 1 1 0 0 1 .4.19 1.14 1.14 0 0 1 .31.46 1.62 1.62 0 0 1 .11.64 1.73 1.73 0 0 1 -.07.54 1.42 1.42 0 0 1 -.18.39 1 1 0 0 1 -.25.25.93.93 0 0 1 -.32.13 1.81 1.81 0 0 1 -.43.05zm.35-.32h.58a1.24 1.24 0 0 0 .42-.05.57.57 0 0 0 .24-.14.74.74 0 0 0 .19-.34 1.53 1.53 0 0 0 .07-.51 1.27 1.27 0 0 0 -.13-.65.83.83 0 0 0 -.34-.31 1.67 1.67 0 0 0 -.46-.05h-.57z"/><path d="m52.45 35h.34a.81.81 0 0 1 -.3.47.89.89 0 0 1 -.56.16.85.85 0 0 1 -.67-.26 1 1 0 0 1 -.25-.74 1.07 1.07 0 0 1 .25-.76.87.87 0 0 1 .66-.27.8.8 0 0 1 .63.27 1 1 0 0 1 .25.74v.09h-1.45a.73.73 0 0 0 .18.49.52.52 0 0 0 .41.17.54.54 0 0 0 .31-.09.72.72 0 0 0 .2-.27zm-1.08-.53h1.08a.62.62 0 0 0 -.12-.37.5.5 0 0 0 -.41-.19.52.52 0 0 0 -.38.15.57.57 0 0 0 -.17.41z"/><path d="m53.2 35.63v-2h.3v.37a.7.7 0 0 1 .62-.32.79.79 0 0 1 .32.06.44.44 0 0 1 .22.17.66.66 0 0 1 .11.24 2.1 2.1 0 0 1 0 .32v1.2h-.33v-1.22a1.11 1.11 0 0 0 0-.31.36.36 0 0 0 -.14-.16.52.52 0 0 0 -.23 0 .52.52 0 0 0 -.36.13.67.67 0 0 0 -.16.51v1.06z"/><path d="m55.16 35.05h.33a.44.44 0 0 0 .15.3.52.52 0 0 0 .35.1.55.55 0 0 0 .34-.09.28.28 0 0 0 .11-.22.21.21 0 0 0 -.1-.17 1.65 1.65 0 0 0 -.34-.17 3.62 3.62 0 0 1 -.5-.15.49.49 0 0 1 -.21-.19.47.47 0 0 1 -.08-.26.48.48 0 0 1 .06-.24.61.61 0 0 1 .17-.19l.21-.09a.82.82 0 0 1 .28 0 1 1 0 0 1 .4.07.56.56 0 0 1 .26.17.8.8 0 0 1 .11.31h-.32a.36.36 0 0 0 -.13-.24.64.64 0 0 0 -.62 0 .22.22 0 0 0 -.1.17.28.28 0 0 0 0 .12.32.32 0 0 0 .13.08 2.78 2.78 0 0 0 .29.09 3.84 3.84 0 0 1 .49.15.55.55 0 0 1 .22.18.49.49 0 0 1 .08.28.6.6 0 0 1 -.1.31.63.63 0 0 1 -.28.22.91.91 0 0 1 -.41.08 1 1 0 0 1 -.58-.15.8.8 0 0 1 -.21-.47z"/><path d="m58.5 35h.34a.81.81 0 0 1 -.3.47.89.89 0 0 1 -.56.16.85.85 0 0 1 -.67-.26 1 1 0 0 1 -.25-.74 1.07 1.07 0 0 1 .25-.76.87.87 0 0 1 .66-.27.8.8 0 0 1 .63.27 1 1 0 0 1 .25.74v.09h-1.45a.73.73 0 0 0 .18.49.52.52 0 0 0 .41.17.54.54 0 0 0 .31-.09.72.72 0 0 0 .2-.27zm-1.08-.53h1.08a.62.62 0 0 0 -.12-.37.5.5 0 0 0 -.41-.19.52.52 0 0 0 -.38.15.62.62 0 0 0 -.17.41z"/><path d="m61.56 35.63v-.25a.58.58 0 0 1 -.54.29.73.73 0 0 1 -.43-.13.79.79 0 0 1 -.3-.35 1.14 1.14 0 0 1 -.11-.53 1.29 1.29 0 0 1 .1-.53.7.7 0 0 1 .29-.36.73.73 0 0 1 .43-.13.62.62 0 0 1 .31.07.64.64 0 0 1 .23.2v-1h.33v2.69zm-1-1a.89.89 0 0 0 .15.56.49.49 0 0 0 .38.18.48.48 0 0 0 .36-.17.83.83 0 0 0 .16-.54.92.92 0 0 0 -.16-.59.46.46 0 0 0 -.38-.19.47.47 0 0 0 -.37.18 1 1 0 0 0 -.18.6z"/><path d="m63.65 35.39a1.25 1.25 0 0 1 -.35.22 1 1 0 0 1 -.36.06.75.75 0 0 1 -.5-.15.54.54 0 0 1 -.17-.4.5.5 0 0 1 .07-.27.49.49 0 0 1 .17-.18.66.66 0 0 1 .24-.11 1.29 1.29 0 0 1 .29-.05 2.6 2.6 0 0 0 .59-.12v-.08a.35.35 0 0 0 -.1-.29.54.54 0 0 0 -.37-.11.58.58 0 0 0 -.34.08.51.51 0 0 0 -.17.29h-.32a1 1 0 0 1 .14-.34.65.65 0 0 1 .3-.19 1.16 1.16 0 0 1 .44-.07 1.12 1.12 0 0 1 .4.06.51.51 0 0 1 .23.15.5.5 0 0 1 .1.22 1.9 1.9 0 0 1 0 .3v.44.59a1 1 0 0 0 .08.23h-.34a.84.84 0 0 1 -.03-.28zm0-.74a2.66 2.66 0 0 1 -.54.13l-.29.06a.28.28 0 0 0 -.13.11.29.29 0 0 0 0 .38.45.45 0 0 0 .3.09.67.67 0 0 0 .34-.09.47.47 0 0 0 .21-.23.69.69 0 0 0 .06-.33z"/><path d="m65.19 35.33v.3a1.14 1.14 0 0 1 -.25 0 .56.56 0 0 1 -.28 0 .4.4 0 0 1 -.14-.15 1.4 1.4 0 0 1 0-.39v-1.15h-.24v-.26h.24v-.48l.33-.2v.68h.33v.26h-.33v1.14a.62.62 0 0 0 0 .18.1.1 0 0 0 .05.06.21.21 0 0 0 .12 0z"/><path d="m66.78 35.39a1.25 1.25 0 0 1 -.35.22 1 1 0 0 1 -.36.06.75.75 0 0 1 -.5-.15.54.54 0 0 1 -.17-.4.5.5 0 0 1 .07-.27.49.49 0 0 1 .17-.18.66.66 0 0 1 .24-.11 1.29 1.29 0 0 1 .29-.05 2.6 2.6 0 0 0 .59-.12v-.08a.35.35 0 0 0 -.1-.29.54.54 0 0 0 -.37-.11.58.58 0 0 0 -.29.09.51.51 0 0 0 -.17.29h-.32a1 1 0 0 1 .14-.34.65.65 0 0 1 .3-.19 1.16 1.16 0 0 1 .44-.07 1.12 1.12 0 0 1 .4.06.51.51 0 0 1 .23.15.5.5 0 0 1 .1.22 1.9 1.9 0 0 1 0 .3v.44.59a1 1 0 0 0 .08.23h-.34a.84.84 0 0 1 -.08-.29zm0-.74a2.66 2.66 0 0 1 -.54.13l-.29.06a.28.28 0 0 0 -.13.11.29.29 0 0 0 0 .38.45.45 0 0 0 .3.09.6.6 0 0 0 .33-.09.45.45 0 0 0 .22-.23.69.69 0 0 0 .06-.33z"/><path d="m46.68 21.28-5.09-2.15.79 1.87h-4.9a.29.29 0 0 0 0 .58h4.9l-.79 1.86z"/><path d="m13.44 34.77h.34a.68.68 0 0 0 .11.33.61.61 0 0 0 .27.21 1.07 1.07 0 0 0 .41.08 1 1 0 0 0 .36-.06.51.51 0 0 0 .23-.17.4.4 0 0 0 .08-.23.35.35 0 0 0 -.08-.22.56.56 0 0 0 -.24-.16 4.22 4.22 0 0 0 -.48-.13 2.84 2.84 0 0 1 -.52-.17.76.76 0 0 1 -.28-.25.56.56 0 0 1 -.1-.33.66.66 0 0 1 .12-.38.71.71 0 0 1 .34-.29 1.26 1.26 0 0 1 .49-.09 1.47 1.47 0 0 1 .51.09.78.78 0 0 1 .48.71h-.34a.56.56 0 0 0 -.19-.39.69.69 0 0 0 -.47-.13.76.76 0 0 0 -.47.12.37.37 0 0 0 -.14.28.3.3 0 0 0 .1.24 1.4 1.4 0 0 0 .54.19 5.69 5.69 0 0 1 .59.17.92.92 0 0 1 .35.28.7.7 0 0 1 .11.38.72.72 0 0 1 -.12.4.82.82 0 0 1 -.36.3 1.19 1.19 0 0 1 -.51.11 1.6 1.6 0 0 1 -.62-.11.85.85 0 0 1 -.38-.32.88.88 0 0 1 -.13-.46z"/><path d="m16 36.37v-2.69h.3v.26a.75.75 0 0 1 .24-.23.67.67 0 0 1 .33-.07.76.76 0 0 1 .44.13.74.74 0 0 1 .28.36 1.25 1.25 0 0 1 .1.51 1.19 1.19 0 0 1 -.11.54.81.81 0 0 1 -.31.37.82.82 0 0 1 -.43.12.54.54 0 0 1 -.29-.07.62.62 0 0 1 -.22-.17v.94zm.3-1.7a.84.84 0 0 0 .15.55.47.47 0 0 0 .37.18.49.49 0 0 0 .38-.18.94.94 0 0 0 .15-.58.89.89 0 0 0 -.15-.56.45.45 0 0 0 -.36-.18.47.47 0 0 0 -.38.2.92.92 0 0 0 -.14.57z"/><path d="m19.38 35.39a1.25 1.25 0 0 1 -.35.22 1.15 1.15 0 0 1 -.37.06.72.72 0 0 1 -.49-.15.51.51 0 0 1 -.17-.4.6.6 0 0 1 .06-.27.59.59 0 0 1 .17-.18.66.66 0 0 1 .24-.11 1.41 1.41 0 0 1 .29-.05 2.37 2.37 0 0 0 .59-.12v-.08a.39.39 0 0 0 -.09-.29.57.57 0 0 0 -.38-.11.61.61 0 0 0 -.34.08.5.5 0 0 0 -.16.29h-.33a.82.82 0 0 1 .15-.34.61.61 0 0 1 .29-.19 1.2 1.2 0 0 1 .44-.07 1.18 1.18 0 0 1 .41.06.57.57 0 0 1 .23.15.5.5 0 0 1 .1.22 1.9 1.9 0 0 1 0 .3v.44a3.91 3.91 0 0 0 0 .59.7.7 0 0 0 .08.23h-.34a.61.61 0 0 1 -.03-.28zm0-.74a2.66 2.66 0 0 1 -.54.13l-.28.06a.28.28 0 0 0 -.13.11.24.24 0 0 0 0 .16.27.27 0 0 0 .1.22.42.42 0 0 0 .29.09.64.64 0 0 0 .34-.09.49.49 0 0 0 .22-.23.87.87 0 0 0 .05-.33z"/><path d="m20.19 35.63v-2h.3v.37a.83.83 0 0 1 .21-.27.31.31 0 0 1 .21-.07.68.68 0 0 1 .34.11l-.11.3a.45.45 0 0 0 -.25-.07.28.28 0 0 0 -.19.07.29.29 0 0 0 -.12.18 1.12 1.12 0 0 0 -.06.38v1z"/><path d="m21.31 35.05h.33a.48.48 0 0 0 .15.3.54.54 0 0 0 .35.1.51.51 0 0 0 .34-.09.28.28 0 0 0 .11-.22.19.19 0 0 0 -.1-.17 1.3 1.3 0 0 0 -.33-.12 4.46 4.46 0 0 1 -.51-.15.55.55 0 0 1 -.21-.19.46.46 0 0 1 -.07-.26.48.48 0 0 1 .06-.24.58.58 0 0 1 .16-.19l.21-.09a.88.88 0 0 1 .29 0 1 1 0 0 1 .4.07.53.53 0 0 1 .25.17.67.67 0 0 1 .12.31h-.33a.35.35 0 0 0 -.12-.24.51.51 0 0 0 -.3-.08.57.57 0 0 0 -.33.08.21.21 0 0 0 -.09.17.19.19 0 0 0 0 .12.36.36 0 0 0 .12.08l.3.09a3.56 3.56 0 0 1 .48.15.44.44 0 0 1 .22.18.49.49 0 0 1 .08.28.52.52 0 0 1 -.1.31.6.6 0 0 1 -.27.22.91.91 0 0 1 -.41.08.94.94 0 0 1 -.58-.15.81.81 0 0 1 -.22-.52z"/><path d="m24.65 35h.35a.8.8 0 0 1 -.86.63.89.89 0 0 1 -.68-.26 1.23 1.23 0 0 1 0-1.5.91.91 0 0 1 1.29 0 1 1 0 0 1 .25.74.34.34 0 0 1 0 .09h-1.45a.84.84 0 0 0 .18.49.53.53 0 0 0 .41.17.52.52 0 0 0 .31-.09.64.64 0 0 0 .2-.27zm-1.08-.53h1.09a.7.7 0 0 0 -.13-.37.49.49 0 0 0 -.41-.19.54.54 0 0 0 -.38.15.62.62 0 0 0 -.17.41z"/><path d="m27.71 35.63v-.25a.58.58 0 0 1 -.54.29.75.75 0 0 1 -.43-.13.79.79 0 0 1 -.3-.35 1.29 1.29 0 0 1 -.11-.53 1.47 1.47 0 0 1 .1-.53.7.7 0 0 1 .29-.36.76.76 0 0 1 .44-.13.64.64 0 0 1 .31.07.61.61 0 0 1 .22.2v-1h.31v2.69zm-1-1a.83.83 0 0 0 .16.56.47.47 0 0 0 .37.18.48.48 0 0 0 .37-.17.83.83 0 0 0 .15-.54.93.93 0 0 0 -.15-.59.47.47 0 0 0 -.38-.19.46.46 0 0 0 -.37.18.88.88 0 0 0 -.19.6z"/><path d="m29.81 35.39a1.25 1.25 0 0 1 -.35.22 1.15 1.15 0 0 1 -.37.06.72.72 0 0 1 -.49-.15.51.51 0 0 1 -.17-.4.6.6 0 0 1 .06-.27.59.59 0 0 1 .17-.18.66.66 0 0 1 .24-.11 1.29 1.29 0 0 1 .29-.05 2.37 2.37 0 0 0 .59-.12v-.08a.39.39 0 0 0 -.09-.29.57.57 0 0 0 -.38-.11.61.61 0 0 0 -.31.09.5.5 0 0 0 -.16.29h-.33a.82.82 0 0 1 .15-.34.61.61 0 0 1 .29-.19 1.2 1.2 0 0 1 .44-.07 1.18 1.18 0 0 1 .41.06.57.57 0 0 1 .23.15.64.64 0 0 1 .1.22 2.28 2.28 0 0 1 0 .3v.44a3.45 3.45 0 0 0 0 .59.7.7 0 0 0 .08.23h-.35a.84.84 0 0 1 -.05-.29zm0-.74a2.66 2.66 0 0 1 -.54.13l-.29.06a.45.45 0 0 0 -.13.11.29.29 0 0 0 0 .16.27.27 0 0 0 .1.22.42.42 0 0 0 .29.09.64.64 0 0 0 .34-.09.49.49 0 0 0 .22-.23.87.87 0 0 0 .05-.33z"/><path d="m31.35 35.33v.3a1.1 1.1 0 0 1 -.25 0 .5.5 0 0 1 -.27 0 .29.29 0 0 1 -.14-.15 1.09 1.09 0 0 1 0-.39v-1.15h-.25v-.26h.25v-.48l.31-.2v.68h.34v.26h-.34v1.14a.62.62 0 0 0 0 .18.09.09 0 0 0 .06.06.16.16 0 0 0 .11 0z"/><path d="m32.94 35.39a1.25 1.25 0 0 1 -.35.22 1.15 1.15 0 0 1 -.37.06.72.72 0 0 1 -.49-.15.51.51 0 0 1 -.17-.4.6.6 0 0 1 .06-.27.59.59 0 0 1 .17-.18.66.66 0 0 1 .24-.11 1.29 1.29 0 0 1 .29-.05 2.37 2.37 0 0 0 .59-.12v-.08a.39.39 0 0 0 -.09-.29.59.59 0 0 0 -.38-.11.61.61 0 0 0 -.34.08.5.5 0 0 0 -.16.29h-.33a.82.82 0 0 1 .15-.34.61.61 0 0 1 .29-.19 1.2 1.2 0 0 1 .44-.07 1.18 1.18 0 0 1 .41.06.57.57 0 0 1 .23.15.64.64 0 0 1 .1.22 2.28 2.28 0 0 1 0 .3v.44a3.45 3.45 0 0 0 0 .59.7.7 0 0 0 .08.23h-.31a.84.84 0 0 1 -.06-.28zm0-.74a2.66 2.66 0 0 1 -.54.13l-.29.06a.35.35 0 0 0 -.11.16.29.29 0 0 0 0 .16.27.27 0 0 0 .1.22.4.4 0 0 0 .29.09.64.64 0 0 0 .34-.09.49.49 0 0 0 .22-.23.87.87 0 0 0 0-.33z"/><path d="m36.82 18.51a.21.21 0 0 1 -.06.15l-9.4 9.4a.19.19 0 0 1 -.16.06.29.29 0 0 1 -.2-.12l-1.87-1.87h1.51a1.24 1.24 0 0 0 1.27-1.22v-8.69l3.2-3.22a.19.19 0 0 1 .14-.06.3.3 0 0 1 .21.1l5.25 5.25a.35.35 0 0 1 .11.22z"/><path d="m23.31 27.14a.26.26 0 0 1 -.2.3l-7.15 2a.28.28 0 0 1 -.34-.15l-3.62-12.75a.18.18 0 0 1 0-.16.33.33 0 0 1 .18-.14l5.74-1.63v10.33a1.24 1.24 0 0 0 1.27 1.22h3.81z"/></g><path d="m10.78 13.76v.01l-.01-.01z"/><path d="m26.91 11.64v13.3a.25.25 0 0 1 -.28.23h-7.43a.26.26 0 0 1 -.28-.23v-13.3a.27.27 0 0 1 .28-.23h7.43a.26.26 0 0 1 .28.23z" transform="translate(-11.97 -11.41)"/><path d="m10.78 13.76v.01l-.01-.01z"/></g></svg>