<svg viewBox="0 0 62.67 33" xmlns="http://www.w3.org/2000/svg"><g fill="#ffffff" transform="translate(-9.49 -7.97)"><path d="m50.87 35.68-1-2.69h.39l.7 1.95.14.44c0-.14.09-.29.14-.44l.69-1.94h.36l-1 2.69z"/><path d="m53.56 35.44a1.25 1.25 0 0 1 -.35.22 1.15 1.15 0 0 1 -.37.06.72.72 0 0 1 -.49-.15.52.52 0 0 1 -.17-.41.58.58 0 0 1 .06-.26.77.77 0 0 1 .17-.19.87.87 0 0 1 .24-.1 1.29 1.29 0 0 1 .29 0 3 3 0 0 0 .59-.12v-.08a.39.39 0 0 0 -.09-.29.57.57 0 0 0 -.38-.11.61.61 0 0 0 -.34.08.5.5 0 0 0 -.16.29h-.33a.82.82 0 0 1 .15-.34.61.61 0 0 1 .29-.19 1.2 1.2 0 0 1 .44-.07 1.18 1.18 0 0 1 .41.06.56.56 0 0 1 .23.14.7.7 0 0 1 .1.23 2.2 2.2 0 0 1 0 .3v.44a3.23 3.23 0 0 0 0 .58.68.68 0 0 0 .08.24h-.35a.84.84 0 0 1 -.02-.33zm0-.74a2.66 2.66 0 0 1 -.54.13l-.29.06a.45.45 0 0 0 -.13.11.29.29 0 0 0 0 .16.28.28 0 0 0 .1.22.48.48 0 0 0 .29.08.63.63 0 0 0 .34-.08.54.54 0 0 0 .22-.23.87.87 0 0 0 .05-.33z"/><path d="m54.37 35.68v-2.68h.33v2.69z"/><path d="m55.21 33.37v-.37h.33v.38zm0 2.31v-2h.33v2z"/><path d="m57.31 35.68v-.25a.61.61 0 0 1 -.55.29.75.75 0 0 1 -.43-.13.79.79 0 0 1 -.3-.35 1.29 1.29 0 0 1 -.11-.53 1.47 1.47 0 0 1 .1-.53.74.74 0 0 1 .73-.49.64.64 0 0 1 .31.07.61.61 0 0 1 .22.2v-.96h.33v2.69zm-1.05-1a.89.89 0 0 0 .16.56.49.49 0 0 0 .37.18.46.46 0 0 0 .37-.18.79.79 0 0 0 .15-.54.92.92 0 0 0 -.15-.58.47.47 0 0 0 -.38-.19.46.46 0 0 0 -.37.18.88.88 0 0 0 -.15.6z"/><path d="m59.4 35.44a1.25 1.25 0 0 1 -.35.22 1.15 1.15 0 0 1 -.37.06.74.74 0 0 1 -.49-.15.55.55 0 0 1 -.17-.41.58.58 0 0 1 .06-.26.77.77 0 0 1 .17-.19.87.87 0 0 1 .24-.1 1.41 1.41 0 0 1 .29 0 3 3 0 0 0 .59-.12v-.08a.39.39 0 0 0 -.09-.29.56.56 0 0 0 -.37-.11.65.65 0 0 0 -.35.08.5.5 0 0 0 -.16.29h-.32a.7.7 0 0 1 .14-.34.61.61 0 0 1 .29-.19 1.23 1.23 0 0 1 .44-.07 1.18 1.18 0 0 1 .41.06.56.56 0 0 1 .23.14.54.54 0 0 1 .1.23 1.8 1.8 0 0 1 0 .3v.44a3.68 3.68 0 0 0 0 .58.68.68 0 0 0 .08.24h-.34a.61.61 0 0 1 -.03-.33zm0-.74a2.66 2.66 0 0 1 -.54.13l-.28.06a.28.28 0 0 0 -.13.11.3.3 0 0 0 -.05.16.28.28 0 0 0 .1.22.48.48 0 0 0 .29.08.63.63 0 0 0 .34-.08.54.54 0 0 0 .22-.23.87.87 0 0 0 0-.33z"/><path d="m60.94 35.38.05.29h-.25a.67.67 0 0 1 -.28-.05.33.33 0 0 1 -.14-.15 1.09 1.09 0 0 1 0-.39v-1.08h-.32v-.26h.24v-.48l.33-.2v.68h.33v.26h-.33v1.14a.77.77 0 0 0 0 .18.12.12 0 0 0 .06.06.18.18 0 0 0 .11 0z"/><path d="m61.26 33.37v-.37h.33v.38zm0 2.31v-2h.33v2z"/><path d="m62 34.7a1 1 0 0 1 .3-.8.92.92 0 0 1 .61-.21.9.9 0 0 1 .66.26 1 1 0 0 1 .25.73 1.24 1.24 0 0 1 -.11.59.75.75 0 0 1 -.33.33.94.94 0 0 1 -.47.12.86.86 0 0 1 -.66-.26 1 1 0 0 1 -.25-.76zm.34 0a.81.81 0 0 0 .16.56.52.52 0 0 0 .41.19.5.5 0 0 0 .41-.19.83.83 0 0 0 .16-.57.77.77 0 0 0 -.16-.54.5.5 0 0 0 -.41-.19.52.52 0 0 0 -.41.19.8.8 0 0 0 -.19.55z"/><path d="m64.18 35.68v-2h.3v.32a.68.68 0 0 1 .62-.32.87.87 0 0 1 .32.06.48.48 0 0 1 .22.17.64.64 0 0 1 .1.24 1.29 1.29 0 0 1 0 .32v1.2h-.33v-1.18a.8.8 0 0 0 0-.3.33.33 0 0 0 -.13-.16.44.44 0 0 0 -.28-.03.57.57 0 0 0 -.37.14.66.66 0 0 0 -.15.5v1.07z"/><path d="m46.09 39.94a1.29 1.29 0 0 1 -.36.22 1 1 0 0 1 -.36.06.72.72 0 0 1 -.49-.15.52.52 0 0 1 -.18-.4.56.56 0 0 1 .07-.26.52.52 0 0 1 .17-.19.66.66 0 0 1 .24-.11h.29a3.29 3.29 0 0 0 .59-.11v-.09a.36.36 0 0 0 -.09-.28.54.54 0 0 0 -.38-.12.53.53 0 0 0 -.34.09.48.48 0 0 0 -.17.28h-.32a.72.72 0 0 1 .15-.33.58.58 0 0 1 .29-.2 1.16 1.16 0 0 1 .44-.07 1.12 1.12 0 0 1 .4.06.5.5 0 0 1 .34.37 2.37 2.37 0 0 1 0 .31v.44.58a.65.65 0 0 0 .09.23h-.35a.84.84 0 0 1 -.03-.33zm0-.74a2.12 2.12 0 0 1 -.54.13l-.29.06a.47.47 0 0 0 -.13.11.29.29 0 0 0 0 .16.27.27 0 0 0 .1.22.4.4 0 0 0 .29.09.67.67 0 0 0 .34-.09.43.43 0 0 0 .21-.23.67.67 0 0 0 .06-.32z"/><path d="m46.84 40.34h.32a.36.36 0 0 0 .11.22.59.59 0 0 0 .34.09.58.58 0 0 0 .35-.09.43.43 0 0 0 .17-.26 1.86 1.86 0 0 0 0-.42.69.69 0 0 1 -.54.25.73.73 0 0 1 -.62-.29 1.08 1.08 0 0 1 -.22-.69 1.27 1.27 0 0 1 .1-.52.74.74 0 0 1 .29-.36.77.77 0 0 1 .45-.13.69.69 0 0 1 .57.28v-.23h.3v1.68a1.6 1.6 0 0 1 -.09.64.65.65 0 0 1 -.29.3 1.09 1.09 0 0 1 -.5.11.89.89 0 0 1 -.56-.16.54.54 0 0 1 -.18-.42zm.28-1.17a.85.85 0 0 0 .15.56.49.49 0 0 0 .76 0 1 1 0 0 0 0-1.08.49.49 0 0 0 -.39-.19.47.47 0 0 0 -.37.18.82.82 0 0 0 -.15.53z"/><path d="m50.26 39.94a1.25 1.25 0 0 1 -.35.22 1.15 1.15 0 0 1 -.37.06.72.72 0 0 1 -.49-.15.54.54 0 0 1 -.17-.4.55.55 0 0 1 .06-.26.63.63 0 0 1 .17-.19.66.66 0 0 1 .24-.11h.29a3.12 3.12 0 0 0 .59-.11v-.09a.36.36 0 0 0 -.09-.28.52.52 0 0 0 -.38-.12.55.55 0 0 0 -.34.09.47.47 0 0 0 -.16.28h-.33a.72.72 0 0 1 .15-.33.63.63 0 0 1 .29-.2 1.23 1.23 0 0 1 .44-.07 1.18 1.18 0 0 1 .41.06.57.57 0 0 1 .23.15.5.5 0 0 1 .1.22 2 2 0 0 1 0 .31v.44a3.75 3.75 0 0 0 0 .58.63.63 0 0 0 .08.23h-.34a.61.61 0 0 1 -.03-.33zm0-.74a2.12 2.12 0 0 1 -.54.13l-.28.06a.36.36 0 0 0 -.13.11.3.3 0 0 0 -.05.16.27.27 0 0 0 .1.22.42.42 0 0 0 .29.09.64.64 0 0 0 .34-.09.49.49 0 0 0 .22-.23.85.85 0 0 0 0-.32z"/><path d="m51.08 37.87v-.38h.33v.38zm0 2.31v-1.94h.33v1.94z"/><path d="m51.91 40.18v-1.94h.3v.27a.7.7 0 0 1 .62-.32.87.87 0 0 1 .32.06.56.56 0 0 1 .22.17.64.64 0 0 1 .1.24 1.33 1.33 0 0 1 0 .32v1.2h-.33v-1.18a.74.74 0 0 0 0-.3.29.29 0 0 0 -.13-.16.44.44 0 0 0 -.23-.06.56.56 0 0 0 -.37.13.67.67 0 0 0 -.15.51v1.06z"/><path d="m53.87 39.6.32-.05a.48.48 0 0 0 .15.3.57.57 0 0 0 .36.1.5.5 0 0 0 .33-.09.25.25 0 0 0 .11-.22.2.2 0 0 0 -.09-.17 1.3 1.3 0 0 0 -.34-.11 3.29 3.29 0 0 1 -.5-.16.52.52 0 0 1 -.21-.2.46.46 0 0 1 -.07-.26.5.5 0 0 1 .06-.24.55.55 0 0 1 .16-.18.69.69 0 0 1 .21-.1.92.92 0 0 1 .29 0 1 1 0 0 1 .4.07.48.48 0 0 1 .25.18.59.59 0 0 1 .12.3h-.32a.35.35 0 0 0 -.13-.23.45.45 0 0 0 -.3-.09.51.51 0 0 0 -.32.08.21.21 0 0 0 -.1.17.17.17 0 0 0 0 .12.48.48 0 0 0 .13.09l.29.08a4.46 4.46 0 0 1 .49.15.46.46 0 0 1 .21.18.42.42 0 0 1 .08.28.59.59 0 0 1 -.09.31.71.71 0 0 1 -.28.23 1.07 1.07 0 0 1 -.41.07.94.94 0 0 1 -.58-.15.72.72 0 0 1 -.22-.46z"/><path d="m56.59 39.89v.29h-.25a.55.55 0 0 1 -.28-.06.4.4 0 0 1 -.06-.12 1.4 1.4 0 0 1 0-.39v-1.12h-.24v-.25h.24v-.49l.33-.19v.68h.33v.25h-.33v1.14a.62.62 0 0 0 0 .18.13.13 0 0 0 .06.07h.11z"/><path d="m58 40.18v-2.69h.33v2.69z"/><path d="m58.79 37.87v-.38h.33v.38zm0 2.31v-1.94h.33v1.94z"/><path d="m60.35 39.89v.29h-.25a.51.51 0 0 1 -.27-.06.29.29 0 0 1 -.14-.15 1.09 1.09 0 0 1 0-.39v-1.09h-.25v-.25h.25v-.49l.32-.19v.68h.34v.25h-.35v1.14a.62.62 0 0 0 0 .18.13.13 0 0 0 .06.07h.11z"/><path d="m62 39.55.34.05a.78.78 0 0 1 -.3.46 1 1 0 0 1 -1.23-.1 1 1 0 0 1 -.25-.74 1.07 1.07 0 0 1 .25-.76.87.87 0 0 1 .66-.27.84.84 0 0 1 .64.27 1 1 0 0 1 .24.74v.09h-1.45a.71.71 0 0 0 .18.49.53.53 0 0 0 .41.17.54.54 0 0 0 .31-.09.67.67 0 0 0 .2-.31zm-1.08-.55h1.08a.65.65 0 0 0 -.12-.37.55.55 0 0 0 -.79 0 .64.64 0 0 0 -.17.37z"/><path d="m62.75 40.18v-1.94h.3v.29a.63.63 0 0 1 .21-.27.31.31 0 0 1 .21-.07.68.68 0 0 1 .34.11l-.11.3a.59.59 0 0 0 -.25-.07.28.28 0 0 0 -.19.07.29.29 0 0 0 -.12.18 1.12 1.12 0 0 0 -.06.38v1z"/><path d="m65.28 39.94a1.29 1.29 0 0 1 -.36.22 1 1 0 0 1 -.36.06.72.72 0 0 1 -.49-.15.52.52 0 0 1 -.18-.4.56.56 0 0 1 .07-.26.52.52 0 0 1 .17-.19.66.66 0 0 1 .24-.11h.29a3.29 3.29 0 0 0 .59-.11v-.09a.36.36 0 0 0 -.09-.28.54.54 0 0 0 -.38-.12.53.53 0 0 0 -.34.09.48.48 0 0 0 -.17.28h-.32a.72.72 0 0 1 .15-.33.58.58 0 0 1 .29-.2 1.16 1.16 0 0 1 .44-.07 1.12 1.12 0 0 1 .4.06.51.51 0 0 1 .23.15.41.41 0 0 1 .1.22 1.2 1.2 0 0 1 0 .31v.44.58a.65.65 0 0 0 .09.23h-.35a.84.84 0 0 1 -.02-.33zm0-.74a2.12 2.12 0 0 1 -.54.13l-.29.06a.47.47 0 0 0 -.13.11.29.29 0 0 0 0 .16.27.27 0 0 0 .1.22.4.4 0 0 0 .29.09.67.67 0 0 0 .34-.09.43.43 0 0 0 .21-.23.67.67 0 0 0 .06-.32z"/><path d="m66.81 39.89v.29h-.25a.55.55 0 0 1 -.28-.06.4.4 0 0 1 -.14-.15 1.4 1.4 0 0 1 0-.39v-1.09h-.24v-.25h.24v-.49l.33-.19v.68h.33v.25h-.33v1.14a.62.62 0 0 0 0 .18.13.13 0 0 0 .06.07h.11z"/><path d="m68.41 40.18v-.28a.71.71 0 0 1 -.62.32.87.87 0 0 1 -.32-.06.48.48 0 0 1 -.22-.17.58.58 0 0 1 -.1-.24 1.28 1.28 0 0 1 0-.31v-1.2h.33v1.07a1.44 1.44 0 0 0 0 .35.33.33 0 0 0 .13.21.41.41 0 0 0 .25.07.55.55 0 0 0 .28-.07.45.45 0 0 0 .18-.21 1 1 0 0 0 .06-.38v-1h.33v1.94z"/><path d="m69.22 40.18v-1.94h.3v.29a.63.63 0 0 1 .21-.27.31.31 0 0 1 .21-.07.68.68 0 0 1 .34.11l-.12.3a.55.55 0 0 0 -.24-.07.26.26 0 0 0 -.19.07.35.35 0 0 0 -.13.18 1.46 1.46 0 0 0 0 .38v1z"/><path d="m71.8 39.55.34.05a.82.82 0 0 1 -.29.46.91.91 0 0 1 -.56.16.88.88 0 0 1 -.68-.26 1 1 0 0 1 -.25-.74 1.12 1.12 0 0 1 .25-.76.87.87 0 0 1 .66-.27.84.84 0 0 1 .64.27 1 1 0 0 1 .25.74.34.34 0 0 1 0 .09h-1.46a.82.82 0 0 0 .18.49.53.53 0 0 0 .41.17.52.52 0 0 0 .31-.09.6.6 0 0 0 .2-.31zm-1.08-.55h1.09a.74.74 0 0 0 -.13-.37.52.52 0 0 0 -.41-.19.54.54 0 0 0 -.38.15.64.64 0 0 0 -.17.41z"/><path d="m70.4 12.77-2.11-.89.28.64h-9.07c-.22 0-.45 0-.68 0a7.43 7.43 0 0 0 -6.92 4.75v-7.47l.65.28-.89-2.08-.89 2.11.65-.28v9.43.7a7.45 7.45 0 0 0 4.75 6.93h-6.89l.27-.65-2.11.89 2.11.89-.27-.65h9 .55a7.45 7.45 0 0 0 7-4.87v6.6l-.66-.28.83 2.11.9-2.11-.65.28v-9.4a.2.2 0 0 0 0-.11 7.43 7.43 0 0 0 -4.72-6.59h7l-.28.65zm-6.07 7.23a5.41 5.41 0 1 1 -5.41-5.41 5.41 5.41 0 0 1 5.41 5.41zm-8.67 0a3.27 3.27 0 1 0 3.26-3.27 3.26 3.26 0 0 0 -3.26 3.27z"/><path d="m11.46 35.8v-2.68h1 .41a1 1 0 0 1 .33.13.71.71 0 0 1 .22.26.86.86 0 0 1 .08.36.83.83 0 0 1 -.22.58 1.05 1.05 0 0 1 -.79.24h-.69v1.11zm.35-1.41h.7a.78.78 0 0 0 .49-.12.49.49 0 0 0 .14-.36.52.52 0 0 0 -.08-.29.41.41 0 0 0 -.23-.16 1.21 1.21 0 0 0 -.33 0h-.69z"/><path d="m13.91 35.8v-1.94h.3v.29a1 1 0 0 1 .21-.27.44.44 0 0 1 .21-.07.65.65 0 0 1 .34.11l-.11.31a.44.44 0 0 0 -.24-.07.34.34 0 0 0 -.2.06.29.29 0 0 0 -.12.18 1.23 1.23 0 0 0 -.06.39v1z"/><path d="m16.5 35.18h.34a.78.78 0 0 1 -.3.46 1 1 0 0 1 -1.23-.09 1 1 0 0 1 -.25-.74 1.06 1.06 0 0 1 .25-.76.84.84 0 0 1 .66-.28.8.8 0 0 1 .63.27 1 1 0 0 1 .25.75v.09h-1.45a.75.75 0 0 0 .18.49.55.55 0 0 0 .41.17.48.48 0 0 0 .31-.1.63.63 0 0 0 .2-.26zm-1.08-.54h1.08a.59.59 0 0 0 -.12-.36.5.5 0 0 0 -.41-.19.52.52 0 0 0 -.38.15.55.55 0 0 0 -.17.4z"/><path d="m18.52 35.8v-.24a.63.63 0 0 1 -.55.29.75.75 0 0 1 -.43-.13.88.88 0 0 1 -.3-.36 1.25 1.25 0 0 1 -.1-.53 1.51 1.51 0 0 1 .09-.53.8.8 0 0 1 .29-.36.84.84 0 0 1 .44-.13.62.62 0 0 1 .31.08.71.71 0 0 1 .23.19v-1h.32v2.72zm-1.05-1a.87.87 0 0 0 .16.56.47.47 0 0 0 .37.19.46.46 0 0 0 .37-.18.83.83 0 0 0 .15-.54 1 1 0 0 0 -.15-.59.48.48 0 0 0 -.38-.18.46.46 0 0 0 -.37.18.87.87 0 0 0 -.15.59z"/><path d="m19.34 33.5v-.38h.33v.38zm0 2.3v-1.94h.33v1.94z"/><path d="m21.45 35.09h.32a.9.9 0 0 1 -.27.53.85.85 0 0 1 -.54.19.84.84 0 0 1 -.64-.26 1.09 1.09 0 0 1 -.25-.75 1.31 1.31 0 0 1 .11-.55.71.71 0 0 1 .32-.36.9.9 0 0 1 .46-.12.85.85 0 0 1 .52.16.78.78 0 0 1 .26.46h-.32a.62.62 0 0 0 -.16-.3.48.48 0 0 0 -.29-.09.5.5 0 0 0 -.4.17 1.13 1.13 0 0 0 0 1.14.49.49 0 0 0 .4.18.45.45 0 0 0 .32-.12.61.61 0 0 0 .16-.28z"/><path d="m22.77 35.51.05.29h-.25a.55.55 0 0 1 -.28-.06.4.4 0 0 1 -.14-.15 1.4 1.4 0 0 1 0-.39v-1.09h-.24v-.25h.24v-.48l.33-.2v.68h.33v.25h-.33v1.14a.53.53 0 0 0 0 .18.18.18 0 0 0 .05.07h.12z"/><path d="m23.1 33.5v-.38h.33v.38zm0 2.3v-1.94h.33v1.94z"/><path d="m23.81 34.83a1 1 0 0 1 .3-.8.91.91 0 0 1 .61-.22.85.85 0 0 1 .65.27 1 1 0 0 1 .26.72 1.35 1.35 0 0 1 -.11.59.83.83 0 0 1 -.33.34 1 1 0 0 1 -.47.12.88.88 0 0 1 -.66-.26 1.06 1.06 0 0 1 -.25-.76zm.33 0a.81.81 0 0 0 .17.56.53.53 0 0 0 .41.19.55.55 0 0 0 .41-.19.9.9 0 0 0 .16-.57.88.88 0 0 0 -.16-.55.54.54 0 0 0 -.41-.18.52.52 0 0 0 -.41.18.83.83 0 0 0 -.17.56z"/><path d="m26 35.8v-1.94h.3v.27a.7.7 0 0 1 .62-.32.79.79 0 0 1 .32.07.59.59 0 0 1 .23.16.82.82 0 0 1 .1.25 2 2 0 0 1 0 .32v1.19h-.33v-1.18a1.08 1.08 0 0 0 0-.3.31.31 0 0 0 -.14-.16.41.41 0 0 0 -.23-.06.52.52 0 0 0 -.36.13.67.67 0 0 0 -.16.51v1.06z"/><path d="m28 35.22h.33a.44.44 0 0 0 .15.3.52.52 0 0 0 .35.11.49.49 0 0 0 .34-.1.28.28 0 0 0 .11-.21.21.21 0 0 0 -.1-.18 1.3 1.3 0 0 0 -.34-.11 2.44 2.44 0 0 1 -.5-.16.53.53 0 0 1 -.21-.18.5.5 0 0 1 -.07-.27.52.52 0 0 1 0-.24.58.58 0 0 1 .17-.18.69.69 0 0 1 .21-.1 1.1 1.1 0 0 1 .68 0 .51.51 0 0 1 .26.18.7.7 0 0 1 .11.3h-.32a.34.34 0 0 0 -.13-.23.43.43 0 0 0 -.29-.08.56.56 0 0 0 -.33.07.24.24 0 0 0 -.1.18.21.21 0 0 0 0 .11.25.25 0 0 0 .13.09l.29.08a4.67 4.67 0 0 1 .49.16.52.52 0 0 1 .22.17.51.51 0 0 1 .08.28.57.57 0 0 1 -.1.31.58.58 0 0 1 -.28.23 1.07 1.07 0 0 1 -.41.08.91.91 0 0 1 -.58-.16.74.74 0 0 1 -.16-.45z"/><path d="m32.45 12.76-2.11-.89.28.65h-9.07c-.22 0-.44 0-.67 0a7.43 7.43 0 0 0 -6.88 4.72v-7.44l.65.28-.94-2.08-.89 2.11.65-.28v9.43.7a7.46 7.46 0 0 0 4.75 6.93h-6.9l.28-.65-2.11.89 2.11.87-.28-.65h9 .56a7.45 7.45 0 0 0 7-4.87v6.6l-.65-.28.89 2.11.88-2.09-.65.28v-9.4a.2.2 0 0 0 0-.11 7.46 7.46 0 0 0 -4.77-6.59h7l-.28.65zm-10.73 11h-1.08v-1.13h1.08zm2-5.76a1.91 1.91 0 0 1 -.24.94 4.64 4.64 0 0 1 -.93 1 4.91 4.91 0 0 0 -.61.6 1.55 1.55 0 0 0 -.21.45 4.49 4.49 0 0 0 -.08.83h-.95c0-.13 0-.23 0-.29a2.75 2.75 0 0 1 .16-1 2.31 2.31 0 0 1 .38-.62 6.29 6.29 0 0 1 .68-.66 3 3 0 0 0 .64-.7 1.09 1.09 0 0 0 .14-.55 1.28 1.28 0 0 0 -.43-1 1.48 1.48 0 0 0 -1.06-.42 1.4 1.4 0 0 0 -1 .38 2 2 0 0 0 -.53 1.18l-1-.11a2.34 2.34 0 0 1 2.51-2.24 2.58 2.58 0 0 1 1.81.62 2 2 0 0 1 .68 1.59z"/><path d="m45.81 19.83-5.09-2.15.79 1.86h-4.9a.29.29 0 0 0 0 .58h4.9l-.79 1.88z"/></g></svg>