<svg enable-background="new 0 0 167 74" viewBox="0 0 167 74" xmlns="http://www.w3.org/2000/svg"><g fill="#ffc807"><path d="m67.73 25.26c-.07-.13-.07-.28-.07-.43.01-.15-.01-.33-.08-.47-.07-.15-.17-.28-.31-.38v-.01c-.03-.2-.09-.38-.15-.56s-.13-.35-.18-.53c-.05-.17-.09-.35-.1-.53 0-.04-.01-.08-.01-.12.12.06.26.09.39.08.12 0 .23-.03.34-.08s.19-.13.26-.2.13-.15.2-.21c.06-.06.13-.11.21-.15s.16-.06.25-.07.18-.01.27.01c.18.03.36.09.53.17.17.09.33.2.48.32.31.23.62.49.99.62-.36-.16-.64-.43-.94-.68-.15-.13-.3-.25-.47-.36-.14-.08-.28-.15-.44-.19.08-.16.16-.32.26-.47.11-.16.23-.31.39-.41s.35-.16.55-.14c.19.02.39.09.53.23-.14-.15-.33-.24-.53-.28s-.42 0-.6.1c-.19.1-.34.25-.47.41s-.23.34-.34.51c-.08-.01-.15-.02-.23-.01-.11.01-.21.03-.31.07s-.2.1-.28.17-.15.14-.22.2-.14.11-.21.14-.15.04-.23.04c-.16-.01-.31-.08-.4-.19 0 0 0-.01-.01-.01-.01-.01-.01-.01-.02-.01 0-.02 0-.03 0-.05-.02-.19-.07-.4-.15-.58-.16-.38-.42-.69-.71-.95-.18-.16-.37-.3-.56-.44-.13-.09-.19-.26-.13-.42v-.01c.02-.06.05-.12.07-.18h.02c.12 0 .25 0 .38-.04.13-.03.25-.09.36-.17.2-.15.34-.34.49-.49s.31-.27.51-.31c.2-.05.42-.04.63-.01.21.04.42.1.63.18.21.07.42.16.64.21.22.06.44.09.67.08-.22 0-.44-.05-.65-.13-.21-.07-.41-.17-.61-.26s-.42-.18-.64-.23c-.13-.03-.26-.05-.4-.06 0 0 .01-.01.01-.01.06-.08.1-.17.12-.26.05-.19.01-.38-.04-.54-.06-.17-.15-.31-.23-.46-.04-.06-.08-.13-.11-.19.01-.01.02-.02.03-.03.08-.14.22-.25.38-.29.16-.05.35-.02.54-.03.39-.02.75-.24.94-.57-.21.31-.58.49-.94.47-.18-.01-.37-.06-.57-.02-.19.04-.36.14-.49.29-.01-.02-.03-.04-.04-.06-.09-.14-.21-.27-.21-.42-.01-.15.08-.3.17-.44l.59-.81-.63.78c-.1.13-.2.28-.21.47 0 .09.03.18.07.26s.09.15.13.22c.09.14.17.29.24.43.08.15.15.3.2.45s.06.31.02.45-.14.26-.26.29c0 0 0 0-.01 0-.03.01-.04.03-.06.05-.22.05-.43.17-.59.32-.17.16-.32.32-.49.43-.16.11-.33.12-.54.1-.04 0-.07-.01-.11-.01-.09-.19-.19-.38-.28-.57-.05-.11-.06-.23-.03-.34.02-.07.04-.13.05-.2.03-.18.04-.37.02-.55-.02-.15-.05-.3-.1-.44 0-.17.01-.33.06-.48.04-.1.09-.18.17-.26s.19-.16.27-.25c.16-.19.28-.41.37-.64.05-.11.08-.23.13-.33.05-.11.12-.21.22-.27-.11.05-.19.15-.25.26-.06.1-.11.22-.17.32-.11.21-.25.41-.41.56-.08.08-.17.14-.28.22-.1.08-.2.19-.26.31-.02.03-.03.07-.04.1-.09-.18-.18-.36-.27-.53-.15-.28-.26-.55-.16-.78.05-.12.15-.25.24-.41s.15-.33.19-.5c.05-.22.07-.44.07-.67.02-.05.05-.09.1-.13.08-.07.18-.13.29-.17.22-.08.49-.11.71-.26.22-.16.31-.4.47-.59.08-.09.18-.16.3-.19.11-.03.25-.02.34.07-.08-.1-.23-.12-.35-.09s-.24.09-.33.19c-.18.18-.29.42-.49.54s-.45.13-.7.2c-.13.04-.25.09-.35.18 0-.03-.01-.07-.01-.1-.05-.34-.15-.67-.29-.97-.14-.31-.3-.59-.48-.87.19.64.43 1.25.49 1.88.03.31.01.63-.08.92-.04.15-.1.28-.18.41-.07.13-.19.25-.27.43-.02.04-.04.09-.05.13-.02-.05-.04-.09-.06-.14-.03-.1-.06-.21-.06-.32-.01-.11 0-.23 0-.36s-.01-.26-.05-.39-.1-.25-.18-.35c-.15-.21-.35-.37-.56-.51-.21-.13-.42-.25-.63-.38-.2-.13-.39-.28-.53-.47-.29-.38-.45-.85-.6-1.31.12.47.25.95.53 1.36.14.21.33.38.53.52s.41.27.6.41.37.3.49.49c.06.09.11.2.13.3.03.1.03.21.02.33s-.02.24-.02.37.02.27.05.39c.06.22.17.43.33.61.05.16.11.3.18.43.16.29.3.57.39.87.09.29.14.59.08.87 0 .02-.01.03-.01.05-.04.2-.2.35-.4.36-.27.02-.56-.04-.82-.14-.01 0-.02-.01-.03-.01-.04-.17-.1-.34-.17-.5-.11-.26-.29-.53-.56-.69-.27-.17-.56-.2-.82-.25-.13-.02-.26-.05-.38-.09.01-.11.05-.22.11-.33.07-.12.16-.24.25-.37s.18-.27.23-.43.06-.33.04-.49c-.04-.32-.18-.61-.32-.87-.14-.27-.3-.53-.38-.83.05.3.19.58.31.86s.23.56.24.85c.01.14-.02.28-.07.41-.06.13-.14.24-.23.36-.09.11-.2.23-.29.36-.07.1-.14.23-.17.36-.25-.11-.46-.31-.55-.57-.09-.24-.11-.52-.21-.77-.19-.51-.57-.95-1.04-1.21.45.29.79.74.95 1.24.08.25.08.52.16.79.04.14.11.27.2.38s.21.21.33.28c.06.04.13.07.19.1.03.03.06.04.1.04.16.07.32.12.48.16.26.06.52.12.7.25.19.13.31.34.4.57.05.12.08.26.11.39.02.09-.01.19-.08.25-.15.13-.34.24-.53.29-.01 0-.01 0-.02.01-.12-.04-.23-.06-.35-.06-.15 0-.29.02-.43.06-.13.04-.26.1-.37.17-.2.12-.39.25-.57.37-.01-.03-.03-.05-.05-.07-.34-.28-.66-.57-.93-.9-.03-.14-.04-.28-.02-.42.01-.07.04-.14.08-.21.04-.06.1-.13.16-.19.06-.07.1-.15.12-.24s.02-.18 0-.26c-.03-.17-.11-.33-.18-.47.06.16.12.32.13.48.01.08 0 .16-.03.24-.03.07-.07.14-.13.2s-.12.11-.18.18-.11.16-.13.25c-.02.06-.02.12-.03.18-.09-.13-.16-.26-.23-.4-.1-.21-.16-.43-.21-.67-.03-.12-.06-.24-.11-.36-.03-.06-.06-.12-.09-.17-.04-.05-.07-.11-.11-.16-.15-.2-.34-.36-.54-.51-.36-.3-.79-.55-1.06-.95.12.21.29.39.47.55s.37.31.55.47.35.32.48.52c.04.05.06.1.09.15.02.05.05.1.07.16.04.11.06.22.08.34.04.23.09.49.18.72.09.24.21.46.35.67.27.4.6.76.95 1.08-.12.06-.24.1-.37.12-.23.04-.46-.02-.68-.14-.22-.11-.42-.26-.64-.39s-.47-.23-.72-.25c-.26-.02-.51.01-.75.07.25-.04.5-.06.75-.02s.47.15.68.29c.18.12.35.26.55.39-.07.04-.13.08-.18.13-.08.08-.15.18-.2.28s-.09.21-.11.31c-.03.1-.06.2-.11.27-.06.07-.14.13-.24.16s-.2.04-.3.06c-.1.01-.21.03-.31.05-.1.03-.2.08-.27.16.08-.08.18-.12.28-.14s.21-.02.31-.03c.11-.01.21-.01.32-.03s.22-.08.29-.17c.08-.09.12-.2.15-.3s.07-.19.13-.28c.1-.17.25-.31.42-.34h.01c.01 0 .02-.01.03-.01.19.09.41.15.63.13.28-.02.53-.13.75-.26.23-.13.44-.27.65-.37.11-.05.22-.09.32-.12.11-.03.21-.04.32-.03.05 0 .09.01.14.02.13.03.23.12.31.23.29.44.57.89.65 1.5.02.19-.09.38-.27.45-.03-.01-.06 0-.1.01-.07.04-.17.03-.27-.02s-.2-.12-.3-.21-.21-.19-.36-.25c-.14-.06-.31-.07-.45-.03-.29.07-.5.26-.71.42-.11.08-.22.15-.34.21-.12.05-.25.08-.39.07.13.03.27.01.4-.03s.25-.11.37-.18.23-.14.34-.2c.12-.06.24-.11.36-.13s.24 0 .34.05.19.14.28.24c.08.09.18.18.29.26-.1.04-.2.09-.3.15-.2.13-.38.3-.51.49-.14.19-.23.41-.28.64-.01.06-.02.12-.03.18-.01 0-.01-.01-.01-.01-.26-.1-.54-.14-.81-.12-.14.01-.27.04-.4.08-.06.02-.13.04-.18.09-.02.03-.04.07-.02.1.01.03.04.06.08.05-.03.01-.06-.02-.07-.05s.01-.06.03-.08c.05-.04.11-.05.18-.06.13-.03.26-.04.39-.03.26.01.51.08.72.2 0 0 .01 0 .01.01.02.01.04.01.07 0-.01.1-.02.2-.04.3-.04.21-.11.43-.26.59-.04.04-.08.08-.12.11s-.1.05-.15.08-.1.06-.14.1c-.02.02-.04.04-.05.07s0 .06.01.08c-.01-.02-.02-.05-.01-.08s.03-.05.05-.06c.04-.04.09-.06.14-.08s.11-.04.16-.07.1-.06.14-.1c.17-.16.27-.38.32-.6.06-.22.09-.45.15-.65.06-.21.16-.4.3-.56.08-.1.17-.19.27-.26.12.08.23.17.33.27.12.12.22.26.24.42.03.16-.02.32-.09.48s-.15.33-.19.52c-.03.19 0 .38.05.55.05.18.13.34.2.5s.14.33.19.5c.04.17.05.36 0 .53.06-.17.06-.36.03-.54-.04-.18-.1-.35-.16-.52s-.13-.33-.17-.51c-.04-.17-.06-.35-.02-.51.04-.17.12-.32.2-.49.08-.16.15-.35.12-.56-.02-.2-.14-.38-.26-.52-.09-.1-.19-.18-.29-.26.19-.11.41-.17.64-.24.21-.06.45-.13.66-.26.04-.02.07-.04.1-.07.07-.05.15-.08.24-.08.12 0 .25 0 .37-.03.28-.06.51-.25.73-.43.07-.06.14-.11.2-.17.13-.11.31-.11.45-.02.02.02.04.03.07.05 0 .02.01.04.01.07.08.18.07.42-.02.61s-.29.34-.5.51c-.1.08-.2.18-.28.3-.04.06-.07.13-.09.19-.02.07-.03.13-.04.2-.01.13-.03.25-.08.37-.04.12-.11.23-.19.33.1-.09.18-.19.24-.31s.1-.25.13-.37c.03-.13.07-.23.15-.32s.17-.16.28-.23.22-.13.33-.21.23-.18.31-.31c.09-.14.15-.31.17-.48.19.19.36.4.47.63.16.31.17.67.22 1.05.02.19.07.39.14.57.06.18.14.36.21.53s.13.34.17.52c.02.08.02.17-.01.22s-.09.08-.17.08-.17-.02-.26-.04-.19-.03-.28-.04c-.19-.02-.38-.03-.57-.01s-.38.06-.56.15c-.17.08-.33.21-.43.38-.11.16-.17.35-.18.54 0 .1.01.19.04.28s.08.17.15.24c-.06-.07-.11-.15-.13-.24s-.03-.18-.03-.28c.02-.18.09-.36.19-.51.21-.31.59-.44.95-.45.18-.01.37.01.55.04.09.01.18.03.27.06.09.02.19.05.29.05.05 0 .11 0 .17-.03.06-.02.11-.07.14-.12.02-.03.03-.05.04-.08.07.06.14.13.19.21.07.12.11.26.12.41.01.08.01.15.03.23s.05.15.1.22c.09.13.22.22.34.31-.17-.1-.28-.21-.35-.34z"/><path d="m56.75 30.06c-.17-.12-.35-.22-.48-.37-.07-.08-.11-.17-.14-.27-.02-.05-.04-.1-.06-.14-.03-.05-.06-.09-.12-.12-.05-.03-.11-.02-.16-.02s-.1 0-.14-.02c-.09-.04-.16-.12-.22-.2-.13-.16-.26-.33-.43-.45-.09-.06-.19-.11-.3-.12-.11-.02-.22 0-.32.01-.05 0-.1 0-.14-.01s-.09-.03-.13-.06c-.08-.05-.17-.12-.29-.15-.11-.03-.22-.01-.32-.02-.05 0-.09-.01-.13-.03s-.07-.05-.1-.08c-.03-.04-.07-.08-.11-.11-.04-.04-.11-.07-.17-.08s-.11 0-.16-.01c-.05 0-.08-.01-.12-.03-.07-.04-.13-.13-.21-.2-.07-.08-.15-.15-.24-.21-.34-.26-.74-.43-1.16-.49-.21-.03-.43-.01-.6-.07-.04-.01-.08-.03-.11-.05s-.05-.05-.08-.09c-.01-.01-.01-.02-.02-.03 0-.02 0-.05 0-.08s-.01-.06-.03-.09-.04-.06-.06-.07c-.04-.04-.07-.06-.09-.08-.03-.03-.04-.1-.05-.18-.01-.04-.01-.09-.03-.15 0-.02-.01-.03-.02-.05.02-.02.03-.04.04-.06.03-.06.04-.13.04-.19v-.01h.03c.05 0 .1 0 .17-.04.02-.01.05-.03.05-.04l.02-.02c.01-.01.03-.02.04-.03.02-.02.04-.02.04-.02s.01 0 .05.04c.02.02.03.04.06.06s.06.04.1.04c.07.01.12 0 .17 0l.12-.03c.04-.01.06-.01.07-.01h.01s.01.01.01.03c.01.02.01.04.03.07s.03.06.06.08c.05.05.11.06.16.07s.1.01.15.01.09-.01.13-.01c.04-.01.09-.01.13-.02.17-.03.36-.08.5-.21.04-.03.06-.07.09-.09.03-.03.05-.04.07-.05.05-.02.13-.01.22.01.08.01.18.03.29 0 .05-.02.09-.05.13-.07.03-.02.06-.04.1-.05.07-.03.15-.04.23-.05l.25-.04.25-.04c.08-.01.17-.02.25-.05.04-.01.09-.03.13-.05s.08-.05.11-.08c.06-.06.11-.11.19-.13.07-.02.15-.01.23.01s.16.04.25.04c.04 0 .09 0 .14-.01s.09-.03.12-.06c.07-.05.13-.11.2-.15.14-.08.31-.07.48-.11.17-.03.33-.09.49-.13.16-.05.32-.09.49-.1s.34-.01.5.02c-.17-.03-.33-.05-.5-.04s-.34.04-.5.09c-.16.04-.32.09-.49.12-.08.01-.16.02-.25.03-.08.01-.17.03-.25.07s-.14.1-.21.14-.14.06-.22.06c-.08-.01-.16-.03-.24-.05s-.17-.04-.27-.02c-.05.01-.09.03-.13.06s-.07.06-.1.08c-.06.06-.12.09-.2.1-.08.02-.16.03-.24.04l-.25.03-.25.03c-.08.01-.17.02-.26.05-.04.02-.09.04-.13.07-.04.02-.07.04-.09.05-.06.02-.13.01-.21-.01-.08-.01-.17-.04-.28-.01-.05.01-.11.05-.14.08-.04.03-.06.06-.09.09-.11.09-.26.14-.42.16-.04.01-.08.01-.12.01s-.08.01-.12.01c-.07 0-.15-.01-.17-.04-.01-.01-.01-.02-.03-.07-.01-.02-.02-.06-.04-.09s-.06-.06-.09-.07c-.08-.03-.13-.01-.18-.01l-.12.03c-.04.01-.07.01-.08 0-.01 0-.01 0-.02-.01-.01 0-.02-.02-.03-.03s-.03-.03-.06-.05c-.02-.02-.06-.04-.1-.05s-.08-.01-.12 0c-.03.01-.06.02-.09.04-.02.01-.04.03-.06.05-.01.01-.02.02-.03.02s-.04.01-.08.01c-.03 0-.07 0-.11-.01-.02 0-.03-.01-.05-.01-.29-.25-.46-.84-.5-1.39l.07-.44c.05-.06.1-.09.18-.12.04-.01.08-.02.13-.03l.07-.02c.02 0 .04-.01.06-.01.17-.03.37-.01.58-.04.11-.02.21-.06.3-.1s.17-.09.25-.11.18-.03.28-.05.2-.03.31-.08c.05-.02.1-.06.14-.1s.07-.08.1-.13c.06-.08.1-.16.17-.2.06-.04.16-.06.25-.09.1-.03.2-.08.28-.14.17-.12.29-.27.45-.35.04-.02.08-.04.12-.05s.09-.02.14-.03.11-.03.16-.08.06-.11.08-.16c.02-.09.07-.15.14-.21.07-.05.16-.09.25-.11.18-.05.38-.07.57-.17.09-.05.17-.13.22-.22.04-.09.07-.18.15-.23.07-.05.17-.07.26-.1.1-.03.19-.08.25-.18.03-.05.04-.11.02-.16-.01-.05-.04-.1-.06-.14s-.04-.08-.04-.13c0-.04.02-.08.06-.11.03-.03.07-.07.1-.11s.05-.09.07-.13c.03-.1.04-.2.04-.29.01-.19-.01-.4.09-.57.05-.08.12-.15.2-.2s.17-.09.26-.13c-.09.04-.18.08-.26.13s-.16.12-.21.2-.08.18-.09.28-.01.2-.02.29c-.01.1-.02.19-.05.28-.02.04-.04.09-.07.12-.03.04-.06.07-.1.1-.03.03-.07.08-.07.14s.02.11.04.15.04.09.05.13 0 .08-.02.12c-.05.07-.13.12-.22.14-.09.03-.19.04-.28.1-.05.03-.08.07-.11.12s-.04.09-.07.13c-.04.08-.11.14-.19.18s-.17.07-.27.09c-.09.02-.19.03-.29.06s-.19.06-.28.12c-.04.03-.08.07-.12.11-.03.04-.06.1-.07.15s-.03.08-.05.1-.06.03-.1.04-.09.01-.14.03c-.05.01-.1.03-.15.06-.19.1-.32.25-.47.35-.08.05-.15.09-.24.11s-.19.04-.3.1c-.1.06-.16.16-.22.24s-.11.13-.18.17c-.15.07-.35.06-.55.11-.11.03-.2.07-.29.11s-.16.07-.25.08c-.17.03-.37 0-.58.03-.03 0-.05.01-.08.01l-.07.01c-.05.01-.1.02-.15.03-.02.01-.04.01-.06.02l.08-.49.04-.27.01-.07c0-.02.01-.05.01-.07.02-.03.03-.07.02-.11s0-.11.03-.17.08-.12.13-.16c.05-.03.13-.05.22-.09.05-.02.1-.04.15-.09.05-.04.08-.09.1-.14.04-.09.07-.18.1-.23s.09-.08.17-.11.16-.05.26-.09l.06-.03c.02-.01.03-.02.05-.03.01-.01.02-.02.03-.03.04-.04.08-.09.1-.14s.03-.09.05-.12c.01-.03.03-.05.06-.07.05-.04.14-.06.23-.09.04-.02.09-.04.14-.07s.08-.07.11-.11c.06-.08.1-.16.15-.23s.1-.12.16-.14c.03-.01.08-.02.13-.04s.11-.06.13-.13c.02-.06.01-.12 0-.17s-.03-.09-.04-.13c-.02-.07-.01-.14.03-.21.08-.14.24-.25.31-.44.03-.09.04-.18.06-.26s.06-.14.13-.19.15-.09.22-.16.11-.16.14-.25.04-.18.05-.27l.04-.26.07-.53c.01-.04.01-.09.01-.14s-.01-.09-.03-.13c-.03-.09-.08-.16-.12-.24-.07-.16-.07-.34-.01-.51.05-.17.13-.33.22-.48-.09.15-.18.31-.24.48s-.07.36 0 .53c.03.08.08.16.11.24s.03.17.02.25l-.08.53c-.03.17-.05.35-.1.52-.03.08-.07.15-.13.21s-.14.09-.22.14c-.04.03-.08.06-.11.1s-.05.09-.06.13c-.03.09-.03.18-.06.25s-.08.14-.14.2c-.06.07-.12.13-.17.21-.03.04-.05.09-.06.14s-.01.11.01.16c.01.05.03.09.03.13.01.04.01.07 0 .09s-.02.03-.06.05c-.03.01-.08.02-.13.03-.05.02-.1.04-.14.08-.04.03-.07.07-.1.11-.06.08-.1.15-.15.21s-.1.09-.19.12c-.05.02-.11.03-.17.06 0-.04 0-.08-.01-.12-.02-.09-.07-.16-.12-.21-.05-.06-.1-.11-.14-.15s-.07-.09-.09-.14-.02-.09-.01-.13c.01-.02.02-.04.04-.07.01-.02.02-.04.03-.06.01-.03.01-.05.01-.08 0-.06-.03-.11-.06-.14s-.06-.06-.09-.08c-.06-.04-.11-.08-.14-.12-.06-.08-.07-.21-.07-.34 0-.07-.01-.14-.02-.21s-.05-.15-.1-.21c-.09-.11-.19-.2-.15-.29.01-.03.02-.05.04-.09.01-.04.02-.09.01-.13-.03-.09-.09-.13-.12-.18-.03-.04-.02-.09 0-.14.03-.05.07-.09.13-.13.05-.04.11-.08.16-.13.05-.06.08-.13.1-.2s.03-.13.05-.19.07-.1.11-.15c.02-.03.04-.06.06-.09.01-.04.02-.07.02-.11 0-.07 0-.14.01-.2.02-.13.07-.25.14-.36.15-.22.38-.37.6-.52-.23.14-.46.28-.63.5-.08.11-.14.24-.16.37-.01.07-.01.14-.01.2s-.03.12-.07.16c-.04.05-.1.1-.13.17s-.04.13-.06.2c-.02.06-.04.12-.08.16s-.1.08-.15.11c-.06.04-.12.09-.16.15-.02.03-.04.07-.04.12 0 .04.01.09.03.13.04.07.09.11.1.16 0 .02 0 .04-.01.06-.01.03-.03.05-.04.09-.02.04-.02.09-.01.13s.03.08.05.11c.04.06.09.12.12.17.07.09.08.21.08.35 0 .07 0 .14.01.21s.03.15.08.22.11.11.16.15c.02.02.05.04.06.06s.02.03.02.04 0 .02-.02.04c-.01.02-.04.05-.06.1-.04.09-.03.19 0 .27s.07.15.12.2c.05.06.09.1.13.15.07.1.09.18.06.28s-.1.21-.18.31c-.01.01-.02.03-.02.05-.07.02-.14.04-.23.07s-.2.08-.27.18c-.07.09-.09.19-.12.25-.04.07-.07.09-.14.12s-.17.04-.27.1c-.06.04-.1.08-.14.13 0-.01 0-.03 0-.04v-.13c.01-.01.02-.03.03-.05.02-.07.03-.14.04-.21.01 0 .01-.01.02-.02.04-.05.04-.11 0-.16 0-.01 0-.02.01-.03 0-.01.01-.02.02-.03.02-.03.05-.06.07-.11.03-.05.04-.13.01-.19-.02-.06-.06-.1-.09-.13s-.05-.05-.07-.07c-.01-.02-.02-.05-.03-.09 0-.18 0-.35.01-.53 0-.06 0-.11.01-.17.01-.02.03-.05.04-.08.02-.04.03-.09.04-.14.01-.09 0-.18-.01-.25-.01-.05-.02-.1-.03-.15.01-.1.02-.19.03-.29l.01-.08c.01-.03.03-.07.04-.11.01-.05.02-.1 0-.16-.01-.02-.01-.04-.02-.05 0-.01 0-.01 0-.02-.01-.05-.03-.11-.05-.15s-.03-.07-.04-.11c-.01-.03 0-.07.01-.11s.03-.07.05-.1c.01-.02.02-.02.04-.05.02-.02.03-.05.04-.08.02-.06.02-.12 0-.17-.01-.03-.02-.05-.03-.08-.01-.02-.02-.03-.03-.05-.01-.03-.02-.06-.01-.09s.03-.07.05-.11.04-.1.05-.15c0-.05 0-.1-.01-.15-.01-.09-.02-.18-.03-.27-.03-.35-.02-.71.05-1.06.01-.09.03-.17.05-.26.01-.04.02-.09.03-.13s.03-.08.04-.13c.02-.09.02-.2-.01-.29-.02-.08-.02-.16-.02-.25.04-.36.07-.72.08-1.08 0-.09-.01-.19-.03-.28-.01-.04-.03-.09-.04-.13-.01-.02-.02-.04-.02-.06-.01-.02-.01-.04-.01-.06-.01-.08 0-.17.01-.26l.03-.27.05-.54c.01-.18.02-.36 0-.55-.04-.36-.2-.7-.21-1.06 0-.09.01-.18.03-.26.02-.09.03-.18.02-.27s-.04-.18-.06-.27-.05-.17-.07-.26-.03-.18-.03-.27.01-.18.01-.27l.02-.54-.03.54c0 .09-.01.18-.01.27s.01.18.02.27c.02.09.04.18.07.26.02.09.05.17.06.26s0 .18-.02.26c-.03.09-.04.18-.04.27.01.37.15.71.19 1.06.03.36-.03.71-.07 1.07l-.03.27c-.01.09-.02.18-.01.28 0 .02.01.05.01.07.01.02.02.05.02.07.02.04.03.08.04.13.02.08.03.17.03.26-.01.36-.05.72-.1 1.08-.01.09-.01.19.02.29.03.08.02.16 0 .24-.01.04-.02.08-.04.13-.01.04-.02.09-.04.13-.02.09-.04.18-.06.27-.07.36-.09.73-.06 1.09.01.09.02.18.03.27.01.04.01.08 0 .12 0 .04-.01.07-.03.11s-.05.08-.06.14v.01c-.02-.04-.04-.08-.05-.12-.03-.07-.05-.13-.07-.2-.08-.28-.09-.58-.03-.86.03-.14.07-.28.13-.42.03-.07.06-.16.05-.26-.01-.09-.06-.17-.09-.24-.04-.07-.07-.13-.09-.19-.01-.06-.01-.11.02-.18.03-.06.06-.14.08-.22s.03-.16.04-.24c.01-.16 0-.31-.02-.46l-.04-.45-.08-.9c-.02-.15-.02-.3-.06-.46-.02-.08-.06-.16-.1-.22-.04-.07-.07-.12-.08-.19s0-.14.01-.21c.01-.08.02-.15.02-.23 0-.15-.01-.31-.05-.46s-.08-.3-.17-.43c-.04-.07-.1-.13-.17-.17s-.14-.07-.19-.12c-.23-.17-.32-.51-.2-.77.01-.03.03-.06.05-.09s.04-.06.06-.1.03-.08.03-.12-.02-.08-.04-.12c-.04-.07-.1-.12-.12-.18s.01-.13.04-.2c.02-.03.03-.07.03-.12 0-.04-.01-.09-.03-.12s-.05-.06-.07-.09-.04-.06-.06-.09c-.06-.13-.05-.3.03-.42 0-.01 0-.02-.01-.02-.28-.16-.4-.57-.25-.87 0 0 0 0 0-.01s-.01-.01-.01-.01c-.12.02-.23-.03-.31-.1-.09-.07-.16-.16-.23-.26l-.4-.56.39.57c.07.09.14.19.23.26.08.07.19.12.31.12-.14.31-.03.7.25.9-.08.13-.09.3-.04.44.01.04.04.07.06.1s.05.06.07.09.03.06.03.09-.02.07-.03.1c-.02.03-.03.07-.04.11s-.01.09 0 .13c.03.08.09.14.12.2.04.06.05.13.01.19-.02.03-.04.06-.06.09s-.04.07-.06.1c-.09.13-.1.3-.06.45s.12.3.25.39c.06.05.13.08.19.12s.11.09.15.15c.08.12.12.27.15.41s.04.29.04.44c0 .07-.01.15-.02.22s-.02.15-.02.24c.01.09.05.17.09.23s.07.12.08.19c.03.14.04.29.05.44l.07.91.03.45c.01.15.02.3.01.44-.01.07-.02.14-.04.21s-.05.13-.08.2c-.02.04-.03.08-.04.12-.01.05 0 .1.01.14.02.09.07.16.1.22.04.06.07.13.07.18.01.06-.01.12-.04.18-.06.14-.12.29-.15.44-.06.31-.06.63.02.94.02.08.05.15.07.23.03.07.06.14.09.21.02.07.04.13.03.19 0 .06-.02.13-.04.21s-.04.16-.03.25c0 .05.02.1.04.14s.05.08.07.11c.04.06.05.08.03.14-.01.05-.05.12-.08.21-.05.18 0 .35.02.49v.04c-.01.08-.01.16-.02.23-.01.03-.03.06-.05.09-.04.06-.09.12-.13.2-.02.04-.04.09-.04.14v.08c-.05-.01-.09-.02-.13-.03-.07-.01-.13-.03-.17-.07-.04-.03-.06-.08-.06-.14s.01-.13.02-.21.03-.16.01-.25c0-.05-.02-.09-.04-.14-.02-.04-.05-.08-.09-.11-.06-.06-.13-.1-.17-.15-.05-.05-.06-.09-.06-.15s.03-.13.05-.21c.02-.07.04-.16.02-.26-.01-.05-.04-.09-.07-.12s-.07-.06-.1-.08c-.06-.04-.11-.08-.12-.14s0-.13.01-.21.02-.17-.02-.25-.09-.14-.14-.2c-.1-.12-.21-.24-.37-.29-.08-.03-.17-.02-.24-.01-.07 0-.14-.02-.19-.07-.1-.1-.15-.26-.27-.37-.03-.03-.06-.05-.08-.07-.02-.03-.01-.06 0-.09.03-.07.08-.13.09-.21s-.02-.16-.06-.23c0-.04-.05-.1-.1-.16s-.09-.12-.12-.19-.04-.15-.01-.22c-.04.07-.03.15 0 .22s.07.14.12.2.1.12.13.18c.04.07.06.14.05.21s-.07.13-.1.2c-.02.04-.02.09 0 .13s.06.06.09.09c.11.1.15.25.26.37.06.06.15.09.23.09s.15 0 .22.02c.13.05.24.16.33.28.05.06.09.12.12.18.02.06.02.13.01.2s-.03.15-.01.25c.01.05.03.09.06.13.03.03.06.06.09.08.06.05.11.09.12.14s0 .12-.02.19-.05.15-.06.24c0 .05 0 .09.02.14s.04.09.07.12c.06.07.13.11.17.16.05.05.07.09.07.15.01.06-.01.13-.02.21-.01.07-.03.15-.03.24s.04.2.12.27.17.09.25.11.15.03.21.06c.01 0 .01.01.02.01.01.02.02.05.03.07.03.07.05.13.07.2.01.05.02.1.03.15 0 .08 0 .16-.01.25v.36c-.01.03-.01.06-.02.08-.01.03 0 .07.02.09v.14.14c0 .05.01.1.03.16.01.03.02.04.02.05 0 .05 0 .09.01.15v.01c0 .01.01.02.01.03 0 .02 0 .03-.01.05l-.01.07-.05.27-.07.4h-.01c-.09.01-.19-.03-.28-.08-.1-.06-.19-.13-.3-.2-.05-.03-.11-.07-.18-.09h-.01c-.03-.03-.06-.06-.07-.1-.01-.03-.02-.07-.01-.1.01-.04.03-.08.05-.12.03-.04.06-.09.09-.14l.09-.14.07-.16c.03-.05.06-.09.09-.15.03-.05.06-.12.07-.19.01-.08-.02-.15-.04-.2-.02-.06-.04-.1-.05-.14 0-.04 0-.06.04-.1l.06-.06c.02-.02.05-.05.06-.1.01-.04.01-.1-.02-.14-.02-.04-.05-.06-.07-.08-.09-.07-.18-.15-.27-.22s-.19-.13-.29-.19-.22-.1-.33-.13-.21-.07-.27-.16c-.06-.08-.08-.2-.16-.3-.07-.1-.16-.17-.26-.24-.1-.06-.2-.11-.3-.16s-.2-.1-.3-.16c-.09-.06-.18-.14-.24-.24.05.1.14.19.23.25.09.07.19.12.29.18.2.11.41.22.53.4.06.09.08.2.15.31.03.05.08.1.14.13.05.03.11.05.16.07.11.04.21.08.3.13.1.06.19.12.27.19.09.07.17.15.25.22.02.02.03.03.04.05.01.01 0 .02 0 .03-.01.02-.05.06-.09.1-.02.02-.05.05-.07.09s-.02.08-.02.12c.01.08.03.13.05.18s.03.09.02.13-.03.08-.05.12l-.39.56c-.03.05-.07.11-.08.19-.01.05-.01.11 0 .17-.02 0-.04-.01-.05-.01-.05-.02-.1-.04-.15-.07-.1-.06-.19-.13-.28-.21-.05-.04-.08-.08-.08-.1 0-.01 0-.02.01-.06s0-.1-.02-.14c-.05-.08-.11-.11-.16-.14s-.08-.06-.11-.1c-.06-.09-.07-.22-.16-.33-.08-.11-.21-.18-.34-.21-.12-.03-.25-.04-.36-.06-.12-.02-.24-.04-.33-.1-.05-.03-.09-.07-.13-.11-.03-.04-.06-.1-.09-.16s-.07-.11-.12-.15-.11-.07-.17-.09c-.11-.05-.23-.08-.33-.15-.09-.07-.16-.18-.23-.28s-.14-.2-.26-.26c.11.06.18.16.25.26.06.1.13.21.22.29.1.08.22.12.33.17s.21.12.25.23c.03.05.05.11.08.17.04.05.09.1.14.13.11.07.24.1.36.12s.24.04.35.08c.11.03.21.09.27.18.06.08.07.21.14.33.02.03.04.06.07.09s.05.05.08.06c.05.03.1.07.11.1.01.01.01.02 0 .04 0 .01-.01.03-.01.05s-.01.05 0 .07c.01.05.03.09.05.12s.05.05.07.07c.09.08.18.17.29.24.06.04.12.07.18.09.07.02.13.04.19.05.02 0 .03.01.05.01.06.06.12.1.19.13h.01c.02.01.05.01.07 0 .09.06.17.13.27.2.06.03.12.07.18.09s.12.03.18.04l-.01.06c-.02.03-.03.07-.02.11l-.02.09-.06.17c0 .01 0 .01-.01.02-.01-.01-.02-.02-.03-.03-.1-.1-.2-.18-.28-.27-.02-.02-.04-.05-.05-.07-.01-.01-.01-.02-.02-.03s-.01-.02-.02-.04c-.04-.09-.12-.15-.2-.18-.02-.01-.04-.01-.07-.02-.02 0-.05 0-.06 0h-.1c-.07 0-.13 0-.2-.01-.26-.01-.51-.05-.75-.14-.12-.05-.25-.1-.38-.13-.14-.04-.28-.04-.42-.02-.14.01-.27.03-.39.04-.13.01-.25 0-.38-.04-.25-.07-.49-.21-.76-.24-.14-.02-.27.01-.4.02s-.26 0-.39-.03-.25-.08-.38-.13c-.12-.05-.26-.09-.34-.2.04.05.09.09.15.12s.12.06.18.08c.12.05.24.11.37.14.13.04.27.05.4.04s.26-.03.39-.01c.26.04.48.18.74.26.13.04.27.06.41.05.14 0 .27-.02.4-.03s.25 0 .37.04c.12.03.24.09.36.14.25.11.53.16.8.18.07.01.13.01.2.01h.1.04c.01 0 .02 0 .03.01.04.01.07.05.09.08l.02.05c.01.02.02.04.03.05.02.03.04.06.06.09.09.12.19.2.28.3.04.04.07.08.1.13-.21.59-.64 1.46-1.22 1.73-.06-.02-.12-.04-.17-.09-.04-.03-.08-.08-.1-.12-.03-.04-.04-.1-.06-.17-.01-.04-.03-.07-.05-.11s-.06-.07-.1-.09c-.07-.04-.14-.05-.2-.07s-.1-.04-.12-.07c-.01-.02-.02-.04-.02-.08-.01-.03-.01-.07-.03-.11-.04-.08-.11-.12-.18-.15s-.13-.04-.19-.06-.12-.04-.16-.08c-.01-.01-.02-.02-.03-.03s-.01-.02-.02-.04-.01-.06-.02-.09c-.01-.04-.04-.08-.08-.09-.03-.02-.07-.02-.1-.03-.06-.02-.12-.05-.18-.08-.11-.07-.21-.16-.28-.27.06.12.15.22.26.3.05.04.11.07.18.1.03.01.06.02.09.04.03.01.04.03.04.06.01.03 0 .06.02.1.01.02.01.04.02.05.01.02.02.03.04.05.05.05.12.08.18.11s.12.05.18.07c.05.03.1.06.11.11.02.04.01.11.04.19.02.04.05.08.09.1s.07.04.1.05c.07.03.13.04.17.07s.05.06.07.12c.01.05.02.13.06.2.03.07.08.14.13.19.04.04.08.07.12.09-.04.05-.05.09-.07.12-.02.04-.03.04-.06.05s-.08 0-.14 0c-.04 0-.07 0-.11.02-.04.01-.07.03-.11.07-.04.03-.05.1-.05.14 0 .02.01.04.01.04-.01 0-.03.01-.05.01l-.16.03c-.21.03-.41.08-.61.07-.1 0-.19-.03-.29-.06-.05-.01-.11-.03-.17-.03s-.12.01-.18.02c-.11.03-.21.07-.3.11s-.19.06-.29.07c-.2.02-.41.01-.62 0l-.32-.02c-.01 0-.02 0-.03 0-.02-.03-.04-.05-.07-.06-.12-.03-.25-.05-.38-.05-.03-.02-.05-.04-.07-.06-.07-.07-.14-.15-.22-.23-.04-.04-.08-.07-.13-.1s-.11-.05-.16-.06c-.11-.02-.22-.02-.32-.04-.1-.01-.19-.05-.26-.13-.07-.07-.11-.17-.19-.25-.07-.08-.17-.14-.26-.19-.1-.05-.2-.08-.3-.11l-.61-.18-.61-.18c-.1-.03-.2-.07-.29-.12s-.18-.12-.24-.2c.06.09.14.16.23.21s.19.09.29.13l.6.19.6.19c.2.06.4.14.53.29.07.08.11.17.18.26.04.04.08.08.13.11s.11.04.16.05c.11.02.21.02.31.04s.18.07.25.14.14.15.21.23c-.06 0-.12.01-.18.02-.11.02-.23.06-.33.11-.11.05-.2.1-.3.15s-.19.09-.29.12c-.1.02-.19.03-.29.01s-.21-.05-.32-.06c-.11-.02-.24-.02-.35.03-.06.02-.1.05-.15.07-.04.02-.09.02-.13.02-.1-.01-.19-.06-.29-.1-.05-.02-.11-.04-.16-.05-.06-.01-.12-.01-.17-.01-.11.01-.22.04-.33.07-.1.03-.21.06-.31.08-.11.02-.21.03-.32.03-.22 0-.43-.05-.63-.13.2.09.41.15.63.16.11.01.22 0 .33-.01s.22-.04.32-.07.21-.05.31-.06.2.02.3.07c.1.04.19.1.32.12.06.01.13 0 .19-.02s.11-.05.15-.07c.09-.03.19-.03.29-.01s.21.05.32.08c.06.01.11.02.18.02.06 0 .12-.01.18-.02.12-.02.22-.07.33-.11.1-.05.2-.09.29-.13.1-.04.19-.06.29-.08.2-.03.41-.02.6.04h.01c.05.01.11-.01.13-.06h.02l.32.02c.21.01.42.04.64.02.11-.01.22-.04.32-.07.1-.04.2-.08.29-.1.1-.02.18-.02.28.01.09.03.21.06.32.07.23.01.44-.03.65-.05l.16-.02c.03 0 .06-.01.1-.03.02-.01.04-.02.06-.04s.04-.05.04-.08c.01-.06 0-.1 0-.11 0-.01.04-.02.07-.02.04 0 .1.01.18.01.04 0 .08-.02.12-.05.03-.03.06-.06.08-.09.03-.06.05-.1.07-.12.01-.01.02-.02.04-.03.03.01.07.01.1.01h.01c.04 0 .07-.02.09-.05h.14c.11 0 .23-.02.34-.04.05-.01.09-.02.13-.04-.03.09-.05.17-.08.23-.05.11-.19.19-.34.23l-.04.01c-.01 0-.03.01-.04.02-.03.01-.05.03-.08.05-.05.04-.08.09-.1.14-.03.06-.02.07-.04.1-.02.02-.04.05-.06.06-.05.03-.13.05-.22.08-.04.01-.08.03-.13.05-.06-.02-.12.01-.14.07-.01.02-.01.03-.02.05-.06.06-.1.12-.15.18s-.1.12-.16.15c-.12.06-.3.04-.48.06-.09.01-.19.04-.27.09s-.15.1-.22.16c-.13.11-.26.21-.42.23-.08.02-.17.02-.26.06-.05.02-.09.05-.12.08s-.06.07-.09.11c-.05.07-.09.14-.15.2s-.12.11-.19.15c-.14.09-.3.14-.47.16-.08.01-.18.03-.25.1-.04.04-.05.09-.06.14 0 .05 0 .09-.01.13s-.02.07-.05.09-.07.03-.11.04c-.09.02-.17.05-.25.09-.16.07-.3.17-.47.18-.17.03-.33-.09-.5-.07-.04 0-.09.02-.12.06-.03.03-.05.07-.08.1-.06.06-.15.07-.24.08.08-.01.18-.01.24-.08.03-.03.05-.07.08-.1s.07-.05.11-.05c.17-.01.32.11.5.09s.33-.11.49-.17c.08-.03.16-.06.24-.08.04-.01.09-.02.13-.04.04-.03.07-.08.08-.13.01-.09 0-.18.05-.23s.13-.07.22-.08c.17-.01.35-.07.5-.16.08-.05.15-.1.21-.16s.12-.14.17-.2c.05-.07.1-.13.17-.15.07-.03.15-.03.24-.05.09-.01.18-.04.26-.09s.15-.1.22-.15.13-.1.2-.14.14-.06.22-.07.16 0 .25 0 .19-.01.28-.05c.07-.03.13-.08.17-.13-.01.08-.01.16 0 .25.01.11.03.22.08.33.02.05.04.09.04.1s0 .02-.02.04c-.03.02-.07.05-.12.09-.02.02-.05.05-.07.08s-.03.07-.04.11c-.02.15.05.26.11.35.03.04.05.08.07.12s.02.07.03.11c0 .08-.02.18-.03.28-.01.05-.01.11-.01.17s.02.12.03.17c.03.1.08.19.08.27.01.08-.02.15-.06.24l-.04.32-.12.27c-.02.04-.05.1-.05.17s.03.13.05.17c.03.05.05.09.07.13s.02.07.01.09c0 .01-.01.02-.03.04s-.04.05-.05.08c-.01.04-.01.08 0 .11s.03.06.04.08c.03.05.06.08.09.12.02.04.03.07.03.1-.01.03-.04.06-.07.1l-.1.12-.19.23-.1.12c-.03.04-.07.09-.08.15-.01.03 0 .07 0 .09.01.03.02.05.02.07.01.04 0 .08-.02.11-.05.08-.13.14-.2.21-.04.03-.07.07-.11.12-.03.04-.05.1-.05.16s.04.11.06.15.03.08.03.13c-.01.09-.07.17-.11.27s-.03.21-.01.31c.04.2.14.38.15.58 0 .05 0 .1-.02.14-.01.05-.04.09-.06.14s-.03.1-.04.15c0 .05.01.1.02.15.02.1.05.2.03.29-.01.05-.02.1-.05.14s-.07.07-.12.07c.05 0 .1-.03.13-.07s.05-.09.06-.14c.02-.1-.01-.2-.03-.3s-.02-.2.03-.29c.02-.05.04-.09.06-.14s.02-.1.02-.15c0-.21-.1-.39-.13-.59-.02-.1-.02-.19.02-.28.03-.09.1-.17.12-.28.01-.06 0-.12-.03-.16-.02-.05-.04-.09-.05-.13-.01-.08.06-.16.14-.22.07-.07.16-.12.22-.22.03-.05.05-.11.04-.17 0-.03-.01-.06-.02-.08s-.01-.04 0-.05c.02-.07.1-.14.16-.22l.2-.23.1-.11c.03-.04.07-.07.1-.14.01-.03.01-.07 0-.1s-.02-.06-.04-.08c-.03-.05-.06-.09-.09-.12-.02-.04-.03-.07-.02-.09 0-.01.01-.02.03-.04s.04-.04.05-.08c.01-.03.02-.07.01-.11 0-.03-.02-.06-.03-.09-.02-.05-.05-.09-.07-.14-.02-.04-.03-.08-.03-.11s.02-.07.04-.11l.13-.27.13-.27c.02-.04.05-.09.06-.15.02-.05.03-.12.02-.18-.01-.12-.06-.22-.08-.3-.01-.04-.02-.08-.02-.13 0-.04 0-.09.01-.13.01-.09.04-.2.04-.31 0-.06-.01-.12-.04-.18-.02-.06-.05-.1-.08-.14s-.05-.08-.06-.12-.02-.07-.01-.1.01-.04.04-.06.07-.05.12-.09c.02-.02.05-.05.07-.09s.03-.09.03-.13c-.01-.08-.04-.14-.06-.18-.03-.07-.05-.16-.05-.25-.01-.18.02-.37.08-.53.03-.01.06-.03.1-.04.08-.02.17-.04.27-.09.05-.03.09-.07.13-.11.02-.02.03-.05.04-.07.01-.03.02-.04.02-.06.01-.03.03-.05.05-.07.01-.01.02-.01.03-.02.01 0 .01 0 .02-.01l.03-.01c.09-.02.18-.05.27-.1s.17-.13.22-.22.07-.18.1-.25c.01-.03.03-.06.04-.08.02-.02.02-.02.04-.02.04 0 .07-.03.08-.05.12.1.21.24.25.39.01.05.03.11.07.17s.11.11.17.13c.12.05.23.05.31.08.04.01.08.03.1.05.01.01.02.01.03.02-.01.03-.02.06-.02.1-.01.05-.01.11.02.18.02.03.04.06.06.08s.05.03.07.04.04.02.05.03.02.01.03.02c0 0 .01.01.01.01 0 .01-.02.02-.03.03-.02.02-.05.05-.06.08s-.02.07-.01.1c0 .03.01.06.02.08.04.09.1.15.12.22.02.06.01.08-.05.14-.03.03-.07.07-.09.14-.01.03-.01.07 0 .1s.03.06.05.08c.07.08.15.11.19.17.04.05.07.12.08.19s-.02.13-.06.21c-.02.04-.04.09-.03.15s.04.11.07.14c.07.07.13.11.15.17s-.01.13-.04.22c-.01.04-.03.09-.02.14 0 .05.02.1.05.14.05.08.13.13.18.19s.08.12.07.19-.04.15-.07.23-.05.18-.02.27.1.15.15.22c.03.03.05.07.06.1.01.04.02.07.02.11 0 .08-.03.15-.07.23-.07.15-.19.28-.24.45-.03.08-.02.18.02.26.02.04.03.08.03.11 0 .04-.02.08-.04.11-.08.14-.2.27-.26.43-.03.08-.04.17-.03.25s.05.17.12.21c-.07-.05-.11-.13-.12-.21s0-.17.04-.25c.06-.16.18-.28.27-.42.02-.04.04-.08.04-.12 0-.05-.02-.09-.03-.13-.03-.08-.03-.16-.01-.24.05-.16.16-.29.25-.44.04-.07.08-.16.08-.25 0-.05-.01-.09-.02-.14-.02-.04-.04-.08-.07-.12-.05-.07-.11-.13-.13-.2s0-.15.03-.22c.03-.08.07-.15.08-.25.01-.05 0-.1-.01-.15-.02-.05-.05-.09-.08-.12-.06-.07-.13-.12-.16-.18-.02-.03-.03-.06-.03-.09s.01-.07.02-.11.03-.08.04-.12.02-.1.01-.15c-.01-.06-.05-.1-.08-.13s-.06-.06-.09-.09c-.05-.06-.05-.1-.02-.17.02-.04.04-.07.05-.12.02-.05.02-.1.02-.15 0-.1-.04-.19-.1-.27-.03-.04-.07-.07-.1-.1s-.06-.05-.08-.07-.02-.04-.02-.05.02-.04.05-.07.07-.06.1-.12c.02-.06.02-.13 0-.18-.03-.1-.09-.17-.12-.23-.01-.03-.01-.05-.01-.06.01-.01 0-.01.02-.02.01-.01.03-.02.06-.05s.05-.08.04-.12c0-.04-.02-.08-.04-.1s-.04-.04-.07-.06c-.02-.01-.04-.02-.06-.03-.04-.02-.05-.03-.05-.04 0 0 0-.01 0-.02.01.01.02.02.03.03.05.04.11.06.17.08.02.01.05.01.07.02-.02.07-.03.15-.01.23.01.05.03.11.05.15.03.05.07.09.09.12.03.03.04.04.04.06v.08c-.01.07-.05.15-.05.27 0 .06.03.13.07.18s.08.07.11.09.04.04.04.06c.01.02.01.05.01.08-.01.07-.03.15-.05.24-.01.05-.01.1 0 .15.01.06.03.11.06.15.06.09.13.15.18.2.06.06.11.11.12.17.02.05-.01.13-.02.24 0 .06.02.11.05.16s.06.08.09.11c.07.06.14.11.19.16s.08.12.1.19c.04.15.04.32.06.49l.04.5.02.25c.01.08.01.16-.01.23-.01.04-.03.07-.05.11s-.04.08-.05.14c0 .11.07.18.08.25.01.03 0 .07-.01.11s-.03.09 0 .15c.03.05.07.07.1.1.03.02.05.05.06.09.03.07.02.16 0 .23-.02.08-.06.15-.1.23s-.07.16-.08.25c-.01.04-.01.1.03.13s.07.05.06.09c0 .04-.03.08-.04.12s-.01.09 0 .13c.01.09.06.16.11.23.11.13.27.2.43.27-.15-.07-.31-.15-.42-.28-.05-.06-.09-.14-.1-.22-.01-.04 0-.08 0-.12.01-.04.03-.07.04-.12 0-.02-.01-.05-.02-.07-.02-.02-.03-.03-.05-.04-.03-.02-.03-.07-.02-.11.01-.08.05-.16.08-.23.04-.07.08-.15.11-.23s.04-.18.01-.27c-.01-.04-.04-.09-.08-.12-.03-.03-.07-.05-.08-.08s0-.06.01-.1c.01-.02.01-.04.02-.07 0-.02 0-.05 0-.07-.02-.09-.08-.16-.07-.23 0-.06.07-.13.1-.22s.03-.18.03-.27l-.01-.25-.03-.51-.01-.25c-.01-.09-.01-.17-.04-.26-.02-.09-.06-.18-.13-.25-.06-.07-.13-.12-.19-.18-.06-.05-.09-.11-.09-.17 0-.03.01-.07.02-.11s.02-.1 0-.16c-.02-.11-.1-.19-.16-.25s-.12-.12-.15-.17c-.03-.06-.04-.11-.02-.18.01-.07.04-.15.06-.25.01-.05.01-.11-.01-.17s-.06-.11-.1-.15c-.04-.03-.07-.06-.08-.07-.01-.02-.02-.03-.02-.05 0-.05.03-.13.05-.22.01-.05.02-.11.01-.17-.01-.03-.02-.07-.04-.09-.02-.03-.03-.05-.05-.06-.03-.04-.05-.05-.06-.08s-.02-.05-.03-.08c-.01-.06 0-.12.03-.17h.02c.11 0 .2 0 .3.02.39.05.78.2 1.1.43.08.06.16.12.23.19s.13.15.24.22c.05.03.12.05.18.05h.15c.08.01.14.08.21.15.04.04.08.08.14.1.06.03.12.03.17.04.11.01.21-.01.3.01s.17.08.26.13c.05.03.1.05.15.07.06.01.11.01.17.01.11-.01.2-.03.3-.02.09.01.19.05.27.11.17.11.3.27.43.43.07.08.14.16.24.21.11.05.22 0 .3.04.09.04.13.14.16.23.03.1.08.19.15.27.14.16.33.26.5.37s.35.24.42.43c-.09-.17-.26-.3-.43-.41zm-7.11-3.9c-.05-.21-.18-.4-.35-.54.01-.01.02-.02.02-.04.08-.01.16-.02.24-.02.09 0 .19 0 .25.01.01 0 .01 0 .02.01.02.01.03.02.04.02.01.01.02.04.03.07.01.06-.02.12-.06.13-.02.01-.04.02-.05.05-.03.05-.01.11.04.14.01.01.02.01.03.04.01.02.02.06.02.1.01.04.01.09.02.14.01.04.03.08.06.12-.08-.02-.16-.03-.22-.06-.05-.03-.06-.06-.09-.17z"/><path d="m45.69 49.76c.22.15.43.31.66.45s.48.25.76.3c.03.01.06.01.09.01-.04.05-.07.1-.09.15-.07.17-.09.31-.16.4-.07.1-.19.17-.32.21-.26.08-.56.05-.85.14-.07.02-.15.05-.2.13-.04.08-.05.16-.07.23-.05.14-.13.28-.23.39.11-.1.2-.23.27-.37.03-.07.05-.15.09-.21.04-.05.1-.07.17-.09.28-.06.56.01.87-.06.15-.03.31-.1.43-.23.06-.07.11-.15.14-.23s.06-.15.09-.2c.03-.06.06-.09.11-.12.04-.03.1-.05.16-.07.11-.03.4-.17.49-.22.02-.01.05-.02.07-.03.04-.01.08-.01.12-.02.11-.01.21.01.31.06.2.1.37.29.56.49.1.1.2.2.33.29.08.05.15.08.24.11-.01.03-.01.08-.03.12-.06.16-.13.33-.17.5-.02.09-.07.17-.15.21-.13.06-.25.13-.38.21-.1.06-.27.15-.38.19-.41.04-.69.06-1.09.21-.2.08-.4.19-.56.34-.05.05-.06.05-.11.11-.04.04-.07.05-.08.05-.13.02-.24.09-.33.15-.09.07-.17.14-.25.19s-.16.09-.25.09c-.09.01-.19 0-.29-.02-.1-.01-.21-.03-.32-.01-.11.01-.22.05-.3.12-.17.13-.29.32-.49.4.2-.06.35-.25.52-.35.09-.05.18-.08.28-.08s.19.02.29.05c.1.02.2.05.32.05.11.01.24-.03.33-.08.1-.05.19-.12.27-.17.02-.01.04-.02.06-.03-.01.03-.03.05-.04.08-.1.2-.17.4-.26.6-.08.2-.18.39-.28.58-.21.37-.46.72-.74 1.04.3-.3.57-.63.81-.99.12-.18.23-.37.32-.57.1-.19.19-.39.29-.57s.23-.34.38-.47c.15-.12.32-.21.51-.26.26-.08.54-.11.82-.12-.02.03-.04.05-.05.08-.05.09-.09.18-.13.27-.03.1-.05.19-.07.27-.03.17-.06.31-.13.44s-.16.25-.26.37c-.1.11-.22.22-.34.32-.03.02-.33.28-.38.32l-.37.33-.18.16-.1.08c-.04.03-.07.06-.09.1-.06.07-.26.42-.27.45-.07.16-.14.31-.2.47-.12.32-.21.65-.29.98-.04.17-.07.34-.09.51-.01.09-.02.17-.02.26s0 .17.02.26c-.02-.08-.01-.17 0-.25s.02-.17.04-.25c.03-.17.08-.33.12-.49.09-.33.21-.64.33-.95.04-.1.09-.21.14-.31v.07l.01.19c0 .06 0 .14.03.21.03.08.08.13.12.17.05.04.09.08.11.13.05.1.05.24-.01.35.08-.09.11-.24.07-.38-.02-.07-.06-.12-.1-.17s-.07-.1-.07-.14c-.01-.05 0-.11 0-.17l.02-.19.03-.26c.01-.11.04-.21.09-.31.01-.02.02-.05.04-.06.02-.03.05-.05.08-.08.01-.01.03-.02.05-.03l.05-.04.2-.15.31-.23c.04-.03.1-.01.11.05.03.18.08.55.08.75 0 .19-.02.37-.05.55-.03.19-.06.39-.03.6.01.1.05.21.1.3s.1.16.15.24.09.15.11.23.02.17.01.26c-.03.18-.1.36-.14.55-.02.09-.03.19-.02.29s.04.19.09.27c-.05-.08-.07-.17-.07-.27 0-.09.01-.19.04-.28.05-.18.14-.35.18-.54.02-.1.03-.2.01-.3-.02-.11-.06-.2-.11-.28s-.1-.16-.13-.24c-.04-.08-.06-.16-.06-.24-.01-.17.03-.35.07-.54s.07-.38.09-.58c.03-.37.04-.55-.01-.92 0 0 0-.02-.01-.05-.01-.09.03-.18.1-.23.12-.09.25-.18.36-.29.13-.12.25-.26.34-.42.05-.08.09-.17.12-.26s.05-.18.08-.26c.02-.08.04-.15.07-.22.03-.06.06-.12.1-.18.08-.11.18-.21.3-.29.13-.09.27-.17.42-.24.11-.05.24-.05.35.01.1.05.3.22.39.29.28.21.41.28.54.45.09.13.15.28.15.45v.03c-.01.17-.03.34-.08.49-.02.03-.05.07-.08.09-.09.08-.22.12-.36.13s-.28 0-.42-.02c-.07-.01-.16-.02-.24.01-.08.02-.17.08-.21.16-.05.07-.07.14-.11.19-.04.04-.1.07-.17.07-.07.01-.14-.01-.22 0-.04 0-.08.01-.12.03s-.07.05-.1.08c-.08.13-.23.18-.37.21s-.29.04-.43.05c.15 0 .29 0 .44-.02.07-.01.15-.03.22-.06.04-.01.07-.03.1-.06.03-.02.06-.06.09-.08.05-.05.11-.07.17-.07.07 0 .14.02.22.02s.17-.02.24-.09c.07-.06.1-.14.14-.2s.08-.08.14-.09.13 0 .2.01c.14.03.29.05.45.05.09 0 .18-.01.27-.04 0 .01-.01.02-.01.03-.04.09-.08.22-.06.37.01.07.04.15.06.2.03.05.06.1.09.14.06.08.11.14.15.19.02.03.03.05.04.07s.01.03.01.05c0 .04-.01.1-.03.17s-.06.15-.09.24-.05.21-.05.31c0 .11.01.21.03.3.04.19.11.35.17.51s.1.31.13.46c.02.16.03.32.02.48s-.05.32-.1.47c-.02.05-.04.1-.07.15-.02.02-.03.04-.04.07-.04.06-.09.12-.14.17s-.12.1-.18.14c-.07.04-.14.08-.22.14-.04.03-.07.07-.1.12s-.04.1-.05.15c-.01.09-.03.17-.04.26-.02.17-.04.35-.03.52.06-.16.11-.33.15-.5.02-.08.04-.17.06-.25s.05-.12.1-.16c.06-.04.13-.07.2-.11s.15-.09.22-.15c.02-.02.05-.04.07-.07.06.21.12.41.23.6.07.12.15.23.21.34s.12.24.1.38c.04-.13 0-.28-.05-.41s-.11-.25-.16-.37c-.09-.25-.12-.51-.15-.78.02-.04.05-.09.07-.13.07-.17.12-.35.14-.53.03-.18.03-.37.01-.55-.02-.17-.05-.34-.1-.49.07.06.14.12.22.17.15.1.32.18.47.25.16.07.31.13.46.21.07.04.14.07.2.12.11.07.15.22.1.34-.01.02-.02.04-.03.06-.02.04-.04.07-.06.12-.02.04-.03.1-.04.15-.01.1.02.19.04.27l.13.49c.04.16.12.33.25.43-.11-.12-.17-.28-.19-.44l-.07-.5c-.01-.08-.02-.16-.01-.23.01-.03.02-.06.03-.09.02-.03.04-.06.06-.1.02-.03.04-.06.06-.1.02.06.03.13.06.2.03.1.09.19.15.27s.13.14.21.19c.15.11.32.17.5.2-.14-.11-.27-.22-.38-.34s-.2-.26-.24-.4c-.02-.07-.03-.16-.06-.26-.02-.1-.06-.21-.13-.3-.13-.18-.3-.27-.45-.36-.32-.17-.64-.28-.91-.45-.18-.12-.36-.26-.48-.44-.04-.05-.06-.12-.05-.19 0-.07.02-.13.04-.19.03-.07.06-.14.1-.23.01-.03.02-.07.04-.1.04.04.08.07.12.1.11.06.22.07.32.09.1.01.21.01.31.01.2 0 .4 0 .59.05.1.02.19.06.28.1.09.05.17.11.24.19-.06-.09-.14-.16-.23-.22s-.18-.1-.28-.14c-.2-.07-.4-.09-.6-.11-.1-.01-.2-.02-.29-.05-.09-.02-.19-.05-.26-.1s-.11-.11-.15-.21c-.02-.04-.03-.08-.06-.12 0-.01 0-.02-.01-.03-.02-.06-.05-.11-.08-.15-.06-.09-.11-.15-.15-.21s-.06-.11-.06-.12c0-.02.01-.07.04-.13s.07-.13.11-.22.08-.18.1-.27c.04-.13.07-.27.09-.4.02-.12.05-.24.1-.35.16-.35.35-.7.52-.86.04-.04.09-.08.14-.13.02.03.05.06.07.08.12.13.24.26.38.38.07.06.14.11.21.16s.15.1.21.14.12.08.16.12.05.07.07.13.03.15.05.25v.01c.01.1.04.18.07.24.03.08.06.13.07.18.01.04 0 .09-.04.15-.03.06-.08.11-.14.16-.11.11-.23.22-.31.37s-.11.33-.06.48c-.02-.16.04-.32.13-.43.09-.12.22-.19.34-.28.06-.05.13-.09.19-.16.03-.03.06-.07.08-.12.01-.02.02-.04.02-.07.07.05.14.1.2.14.06.05.11.09.16.14s.09.11.14.18c.01.02.03.05.04.07 0 .01 0 .03.01.04.02.13.01.27-.01.41-.02.13-.07.26-.12.39s-.11.27-.15.42-.06.33 0 .49.15.28.21.4c.12.23.15.52.08.81.17-.24.2-.61.06-.89-.03-.06-.06-.11-.09-.17.03.02.05.03.08.05.07.04.14.07.19.12s.1.11.14.18l.27.41c.09.14.17.28.18.45 0-.17-.07-.33-.15-.48l-.23-.44c-.04-.07-.08-.15-.14-.22s-.14-.11-.2-.15c-.03-.02-.05-.03-.07-.05-.13-.11-.2-.29-.15-.47.04-.13.09-.26.15-.4.05-.14.11-.28.13-.44.01-.03.01-.07.01-.1.02.05.22.39.25.44.2.29.45.55.72.76.05.04.1.07.16.1.07.04.12.1.17.16.11.17.22.34.3.52.05.12.09.25.14.37s.12.24.22.33c-.09-.1-.14-.22-.18-.34-.04-.13-.07-.26-.11-.39-.06-.18-.14-.35-.22-.51.08.02.17.04.25.04s.16 0 .23.01c.06.01.12.05.18.11.06.05.12.11.19.17.13.11.26.21.4.3-.1-.14-.21-.27-.32-.4-.06-.06-.11-.12-.17-.19-.06-.06-.14-.13-.23-.16s-.18-.03-.26-.03c-.07-.01-.15-.02-.22-.05-.14-.05-.27-.13-.39-.24-.21-.18-.4-.39-.56-.63.08.01.15.02.23.01.1 0 .21-.03.31-.07s.19-.11.26-.2c.03-.05.06-.1.08-.13.02-.04.04-.06.07-.08.06-.04.16-.05.25-.07.18-.03.36-.04.54-.03-.18-.04-.36-.06-.55-.06-.09 0-.19-.01-.29.04-.05.02-.1.07-.14.11-.03.04-.06.08-.09.11-.11.11-.28.15-.44.13-.11-.01-.22-.05-.33-.09-.09-.04-.16-.11-.2-.21-.07-.16-.13-.32-.23-.48-.05-.08-.1-.16-.16-.23s-.13-.14-.2-.2c-.14-.11-.27-.2-.34-.3-.03-.05-.04-.08-.06-.15-.01-.07-.02-.16-.04-.27-.01-.05-.03-.11-.06-.17s-.06-.11-.1-.15c-.05-.06-.1-.1-.16-.14.13-.06.22-.16.3-.26s.11-.12.21-.08c.05.02.1.05.16.08s.14.05.21.02c.08-.03.12-.08.16-.12s.07-.05.13-.03c.05.01.11.04.18.04.06 0 .12-.01.18-.03.11-.04.21-.11.31-.18-.2.11-.44.22-.65.08-.03-.01-.07-.02-.11-.01s-.07.02-.1.04c-.05.04-.1.08-.13.08-.08.02-.16-.07-.28-.13-.06-.03-.14-.06-.23-.04s-.14.08-.19.12c-.08.08-.17.15-.26.17-.1.03-.2.01-.29-.05-.02-.02-.04-.04-.06-.05-.11-.1-.22-.22-.32-.34-.03-.03-.05-.07-.08-.11.07-.09.12-.19.15-.31.05-.2-.04-.52-.11-.73-.04-.12 0-.26.1-.33.04-.03.07-.05.11-.07.09-.06.2-.06.28 0 .03.02.06.04.08.06.05.04.09.09.17.15.04.03.09.05.14.07.05.01.11.01.16-.01.1-.03.17-.11.22-.16.05-.06.09-.12.13-.16.08-.08.15-.09.25.01.05.04.11.1.2.13s.17.01.24-.01.13-.05.19-.07c.06-.01.12-.02.19-.01.13.02.26.07.39.11s.28.07.41.02c-.14.03-.27-.01-.4-.07-.13-.05-.25-.12-.39-.15-.07-.02-.15-.02-.22-.01s-.14.04-.2.05-.12.02-.16 0c-.05-.02-.09-.06-.14-.12-.05-.05-.12-.12-.22-.13s-.2.03-.26.09c-.07.05-.11.11-.16.16s-.09.08-.12.08-.05 0-.09-.03c-.03-.03-.08-.09-.13-.15-.03-.03-.06-.06-.1-.09.16-.07.32-.13.49-.17.06-.02.11-.03.18-.04.07-.02.14-.04.22-.08.08-.05.15-.13.19-.22s.05-.18.05-.26c0-.15-.02-.28-.01-.39s.05-.22.11-.33c.12-.21.29-.39.48-.56s.39-.33.57-.52.34-.41.4-.67c-.08.26-.26.45-.45.62s-.4.3-.61.46c-.2.16-.41.32-.57.56-.08.12-.14.25-.17.41s-.02.3-.03.41c-.01.06-.02.1-.04.13s-.04.05-.07.06c-.06.03-.19.03-.32.06-.26.04-.51.11-.76.21-.18.07-.35.15-.51.25-.13.08-.29.05-.4-.07-.02-.02-.04-.05-.06-.07-.08-.1-.18-.26-.25-.41-.24-.63-.15-.95-.27-1.28-.05-.13-.1-.26-.15-.39-.12-.28-.22-.55-.25-.83-.03-.32.05-.64.14-.98.09-.35.18-.7.15-1.07-.02-.25-.1-.49-.17-.72-.03-.09-.06-.19-.09-.28-.3-1.09-.04-2.27.18-3.31l.1-.49c.02 0 .05-.01.07-.03.44-.32.89-.63 1.41-.68.52-.06 1.08.07 1.65-.06.28-.06.55-.19.74-.42.19-.22.29-.49.37-.75s.15-.53.29-.76c.13-.24.32-.45.59-.53-.27.07-.48.28-.62.51-.15.24-.23.5-.33.76-.1.25-.2.51-.38.7s-.43.3-.68.34c-.35.06-.7.02-1.06-.01.2-.39.36-.79.48-1.2.06-.22.12-.44.16-.67.01-.12.02-.23-.01-.35-.02-.11-.08-.22-.17-.3.08.08.12.19.13.3s-.01.22-.03.33c-.06.21-.14.43-.23.63-.18.41-.39.81-.64 1.18 0 0-.01.01-.01.02-.01.01-.01.03-.01.05-.08 0-.16 0-.24 0-.29.02-.58.1-.84.23-.24.11-.45.25-.67.39-.07-.27-.27-.49-.51-.6-.13-.06-.27-.08-.41-.07-.13.01-.25.04-.36.04-.22.01-.42-.12-.55-.32s-.22-.43-.29-.66c.04.24.1.48.22.7.06.11.14.21.24.3.1.08.24.13.37.14s.26-.01.37 0c.11 0 .21.03.3.08.16.09.27.25.31.42l-.99.09-.52.04c-.17.01-.33 0-.47-.06-.14-.07-.27-.18-.4-.3s-.27-.23-.43-.32c-.31-.17-.67-.25-1.02-.23.35 0 .69.11.98.3.14.09.27.21.39.34s.24.26.41.36.37.12.55.12l.53-.01 1.01-.01-.09.41c-.23 1.08-.5 2.3-.18 3.46.03.1.06.2.09.3.07.22.14.43.16.65.03.32-.06.63-.14.97-.09.35-.18.71-.15 1.08.03.33.15.63.27.92.05.12.1.25.14.37.08.23-.04.51-.24.79-.28.34-.53.85-.71 1.14-.05.07-.13.11-.21.08-.04-.01-.08-.03-.12-.05-.09-.05-.19-.13-.29-.22-.19-.17-.39-.38-.68-.51-.04-.01-.07-.03-.11-.04l-.11-.02c-.08-.01-.15-.01-.23 0-.1.01-.19.04-.28.07-.03 0-.11.04-.12.05-.12.05-.24.09-.35.12-.12.03-.24.03-.36.02-.24-.02-.48-.11-.71-.23s-.45-.26-.68-.4l-1.35-.83z"/><path d="m72.77 35.65c-.29.03-.59.12-.83.31-.25.19-.38.51-.64.64-.13.07-.27.08-.42.08-.14 0-.29-.02-.44-.04-.58-.07-1.17-.17-1.77-.16-.3.01-.6.05-.89.13-.26.08-.52.19-.76.36-.07-.33-.17-.66-.17-.99-.01-.38.09-.75.23-1.1s.32-.68.5-1.01c-.19.32-.39.64-.54.99s-.26.72-.27 1.11c-.01.38.09.74.15 1.09 0 .02 0 .04.01.06.03.18.05.36.03.54s-.07.35-.17.5c-.19.29-.51.46-.82.61-.16.07-.33.14-.49.21-.17.07-.33.15-.49.25-.32.19-.62.42-.88.71-.14.15-.26.32-.36.5-.05-.13-.09-.26-.14-.38-.1-.26-.19-.51-.23-.76-.05-.25-.07-.52-.07-.79 0-.43.04-.87.06-1.33 0-.1.04-.2.09-.28.04-.07.07-.15.09-.23.04-.16.05-.31.06-.46.03-.29.15-.56.32-.79s.4-.41.66-.5c.13-.05.27-.07.4-.12.13-.04.27-.11.36-.23-.09.11-.23.17-.36.2-.13.04-.27.05-.41.1-.27.09-.52.26-.71.49s-.33.52-.38.83c-.02.15-.04.3-.08.43-.01.03-.02.06-.03.09 0-.25-.02-.5-.07-.75-.05-.29-.15-.56-.26-.82-.2-.52-.45-1-.46-1.57-.07.27-.06.57 0 .86.05.28.14.55.22.82.04.13.08.26.12.39.03.13.07.26.08.39.04.26.05.53.05.8-.01.54-.1 1.1-.11 1.68v.21c-.39-.23-.81-.39-1.22-.54-.52-.19-1.04-.37-1.49-.68-.11-.08-.21-.17-.29-.28s-.13-.23-.17-.37-.07-.28-.11-.43c-.04-.14-.08-.28-.13-.42-.19-.56-.46-1.08-.8-1.55.31.48.55 1.02.72 1.58.04.14.08.28.11.42s.06.29.09.43c.03.15.09.3.17.43.09.13.19.24.31.33.18.13.36.25.55.35-.35.01-.69.07-1.03.08-.22 0-.44-.02-.64-.1-.2-.07-.38-.22-.57-.36-.18-.14-.38-.27-.58-.37-.21-.1-.42-.18-.64-.24-.43-.12-.88-.18-1.32-.24.44.07.88.15 1.31.28.21.07.42.15.62.26s.38.23.56.38c.18.14.36.3.58.39s.45.12.68.13c.45.01.9-.08 1.33-.03.01 0 .03 0 .04-.01.2.09.4.17.59.26.43.18.86.38 1.23.64.06.04.1.12.11.2.01.04.01.09.02.13.05.3.15.57.24.84s.19.52.25.77.1.5.06.74c-.02.23-.15.48-.19.81-.04.32 0 .64.07.92.07.29.16.55.23.81s.13.51.13.75v.09l.03.08c0 .06-.02.11-.04.17-.03.11-.09.23-.15.36-.04.09-.09.2-.12.31-.02.08-.06.15-.12.21-.03.03-.06.06-.09.09-.07.06-.23.09-.39.1-.14.01-.27-.02-.39-.09-.03-.02-.06-.04-.09-.05-.1-.06-.2-.11-.31-.15l-.61-.51-.35-.3c-.12-.1-.24-.2-.34-.3-.11-.11-.21-.22-.28-.35-.08-.13-.12-.28-.16-.44-.04-.15-.07-.31-.12-.47-.02-.08-.05-.15-.09-.22s-.09-.13-.14-.19c.05.06.09.13.13.2.03.07.06.15.07.23.04.15.06.31.09.47s.07.32.14.47.17.28.28.4.22.23.33.33l.34.32.2.19c-.12-.02-.23-.04-.35-.04-.21-.01-.42.02-.61.09-.2.07-.37.18-.55.21s-.37-.03-.54-.14-.31-.25-.46-.4c.13.16.27.32.43.44.13.11.3.19.47.2-.36.36-.84.6-1.34.65-.27.03-.54-.01-.82.03-.14.02-.27.06-.4.13-.12.07-.23.17-.3.3.07-.13.18-.22.3-.28s.26-.09.39-.1c.27-.02.54.03.82.01.56-.03 1.1-.27 1.52-.68.02-.02.35-.17.5-.21.18-.05.37-.05.56-.03.38.05.73.21 1.05.43.09.06.17.12.26.19.25.2.29.58.09.84-.05.06-.14.18-.15.18-.18.13-.33.29-.47.45-.14.17-.25.34-.37.51s-.24.34-.37.48c-.14.14-.29.27-.46.35-.09.04-.18.07-.27.07s-.19-.01-.29-.03l-.58-.12.57.17c.1.03.2.05.3.06s.21-.01.31-.05c.2-.07.37-.19.53-.33s.3-.3.43-.46c.18-.22.35-.43.54-.6.03.05.05.11.06.19 0 .09-.02.18-.06.26-.08.17-.22.32-.32.51-.1.18-.17.38-.21.58-.02.1-.03.21-.04.31 0 .05-.01.11.01.16.01.02.02.05.04.07.01.02.04.02.06.02-.02.01-.04 0-.05-.02-.02-.02-.03-.04-.03-.07-.01-.05 0-.1 0-.15.01-.1.03-.2.05-.3.05-.2.13-.38.24-.55.1-.17.25-.3.35-.49.05-.09.09-.21.1-.33 0-.06 0-.12-.02-.18-.02-.07 0-.15.06-.19.02-.01.05-.03.07-.04s.05-.03.07-.04c.03-.02.07-.03.11-.03.22-.03.48-.1.58 0 .03.03.22.5.31.95.07 2.24.08 4.48.09 6.72v.47c0 .16 0 .3-.02.43-.02.09-.05.17-.1.25-.02.02-.04.04-.05.07-.01.01-.01.02-.02.02-.09.1-.2.18-.33.25-.51.29-1.13.35-1.75.39-.61.05-1.27.07-1.86.34-.3.13-.54.33-.8.5-.26.16-.54.31-.86.28.15.04.32.03.47-.01s.3-.11.44-.18c.28-.15.53-.33.81-.44.2-.08.42-.14.64-.17-.02.02-.04.05-.06.07-.09.11-.15.24-.21.37-.1.26-.15.53-.24.78-.08.25-.23.49-.45.64-.11.08-.23.16-.31.27-.07.11-.11.27-.03.39-.07-.12-.03-.27.05-.38s.2-.18.31-.25c.12-.07.23-.16.31-.28.08-.11.15-.24.2-.37.1-.26.16-.52.27-.76.1-.23.26-.44.47-.53.28-.03.57-.04.86-.05.2-.01.4-.02.59-.03 0 .01-.01.02-.01.03-.03.11-.02.21-.01.32.02.2.08.39.1.58.05.38-.02.79-.2 1.14.2-.34.3-.74.27-1.15-.01-.2-.06-.39-.06-.59-.01-.13.01-.26.07-.36.06-.01.12-.01.19-.02.32-.05.64-.14.93-.29.1-.05.19-.11.28-.18.08.18.21.34.36.47.21.18.46.29.72.35v.03c.09.26.27.39.39.53.13.14.17.28.09.45-.04.08-.09.17-.14.27-.04.1-.06.21-.06.31 0 .21.09.41.24.55-.13-.15-.18-.36-.16-.54.01-.09.04-.18.09-.26s.11-.15.17-.25c.06-.09.11-.21.09-.34-.01-.13-.07-.24-.13-.32-.09-.14-.19-.26-.24-.37.42.03.84-.03 1.24-.08.03 0 .07-.01.1-.01.01.01.03.01.04.01l.75-.04c.2.01.4.05.6.13.47.18.82.62.91 1.13-.05-.51-.39-.99-.87-1.2-.07-.03-.14-.06-.21-.08l1.53-.08c.22-.01.45-.02.67.01s.44.09.61.23c.35.28.43.79.8 1.07-.37-.28-.42-.79-.78-1.1-.18-.15-.4-.23-.63-.26s-.46-.03-.68-.03l-2.17.06c-.23-.01-.46 0-.69.02-.51.04-1.02.09-1.49-.04-.23-.06-.44-.18-.61-.34-.16-.14-.26-.32-.3-.52.07-.11.12-.23.15-.34.04-.17.04-.34.04-.5l.01-.47c.04-1.99.09-3.99.09-5.99.02-.12.05-.38.06-.49v-.07c.17-.52.5-.81.74-1.05.1-.1.25-.11.36-.02.08.07.14.15.19.25s.08.23.13.35c.04.13.09.26.17.39.08.12.18.22.3.3.23.15.48.22.72.26.25.04.49.06.72.11.23.06.45.17.66.3.21.14.4.3.59.46-.18-.18-.36-.35-.57-.5-.2-.15-.42-.29-.66-.36-.24-.08-.48-.11-.72-.17-.21-.05-.41-.12-.58-.24.05-.01.1-.01.15-.03.12-.04.24-.09.34-.15.21-.12.41-.27.63-.34.22-.08.46-.08.69-.05s.46.09.69.16c-.23-.08-.45-.16-.69-.2-.23-.05-.48-.05-.72.01-.24.07-.45.2-.66.31s-.43.18-.63.11c-.03-.03-.05-.07-.07-.11-.05-.1-.09-.21-.12-.34-.03-.12-.06-.26-.11-.39-.05-.14-.14-.28-.25-.38s-.22-.18-.33-.24l-.2-.11c-.03-.06-.04-.11-.02-.15.01-.02.02-.03.02-.05.01-.03.03-.05.05-.07.38-.43.76-.85 1.23-1.12.24-.15.51-.23.79-.27s.57-.03.86-.01.59.05.88.06c.3.01.6-.02.89-.11.07-.03.14-.06.21-.09.07-.04.13-.08.2-.11.13-.09.24-.19.36-.29s.23-.19.36-.26.28-.11.42-.1c-.15-.03-.3.01-.43.07-.14.06-.26.15-.38.24s-.24.18-.37.26l-.2.1c-.07.02-.14.05-.21.07-.28.07-.57.08-.86.05-.29-.02-.58-.07-.87-.11s-.59-.07-.9-.05c-.14.01-.28.03-.42.07.07-.12.12-.25.17-.39.05-.16.07-.33.12-.48.02-.08.05-.15.09-.21s.1-.11.16-.15.14-.06.21-.09l.22-.08.44-.16.88-.33-.89.28-.44.14-.22.08c-.07.02-.15.05-.22.09s-.14.09-.2.16c-.05.07-.09.15-.12.23-.06.16-.08.33-.14.48-.04.11-.09.22-.15.32s-.16.18-.27.23c-.04.02-.08.04-.12.06-.28.14-.54.33-.78.54-.07.06-.15.08-.24.06-.2-.05-.46-.1-.51-.13-.22-.14-.29-.45-.37-.74-.03-.09-.05-.19-.06-.28l-.01-.05v-.12c.01-.32-.06-.62-.14-.9s-.17-.54-.23-.79c-.06-.26-.1-.51-.07-.74.02-.23.15-.49.19-.82.03-.22.02-.43-.02-.63-.04-.22 0-.44.1-.63.07-.14.16-.26.26-.38.22-.27.5-.5.79-.69.15-.09.3-.18.46-.25.16-.08.32-.15.49-.23.16-.08.33-.17.48-.28s.29-.25.4-.43c.1-.17.16-.38.17-.58.01-.18-.01-.36-.05-.53.46-.36 1.04-.51 1.61-.54.58-.03 1.17.05 1.75.11.15.01.29.03.44.03s.3-.02.44-.1.24-.2.33-.33c.05-.06.09-.13.14-.18.02-.03.05-.06.08-.08.03-.03.05-.05.08-.07.23-.19.52-.29.81-.32.29-.04.59-.03.88-.01-.24-.05-.53-.06-.83-.03z"/></g><path d="m125.59 27.33c-.07-.13-.07-.28-.07-.43.01-.15-.01-.33-.08-.47-.07-.15-.17-.28-.31-.38v-.01c-.03-.2-.09-.38-.15-.56s-.13-.35-.18-.53c-.05-.17-.09-.35-.1-.53 0-.04-.01-.08-.01-.12.12.06.26.09.39.08.12 0 .23-.03.34-.08s.19-.13.26-.2.13-.15.2-.21c.06-.06.13-.11.21-.15s.16-.06.25-.07.18-.01.27.01c.18.03.36.09.53.17.17.09.33.2.48.32.31.23.62.49.99.62-.36-.16-.64-.43-.94-.68-.15-.13-.3-.25-.47-.36-.14-.08-.28-.15-.44-.19.08-.16.16-.32.26-.47.11-.16.23-.31.39-.41s.35-.16.55-.14c.19.02.39.09.53.23-.14-.15-.33-.24-.53-.28s-.42 0-.6.1c-.19.1-.34.25-.47.41s-.23.34-.34.51c-.08-.01-.15-.02-.23-.01-.11.01-.21.03-.31.07s-.2.1-.28.17-.15.14-.22.2-.14.11-.21.14-.15.04-.23.04c-.16-.01-.31-.08-.4-.19 0 0 0-.01-.01-.01-.01-.01-.01-.01-.02-.01 0-.02 0-.03 0-.05-.02-.19-.07-.4-.15-.58-.16-.38-.42-.69-.71-.95-.18-.16-.37-.3-.56-.44-.13-.09-.19-.26-.13-.42v-.01c.02-.06.05-.12.07-.18h.02c.12 0 .25 0 .38-.04.13-.03.25-.09.36-.17.2-.15.34-.34.49-.49s.31-.27.51-.31c.2-.05.42-.04.63-.01.21.04.42.1.63.18.21.07.42.16.64.21.22.06.44.09.67.08-.22 0-.44-.05-.65-.13-.21-.07-.41-.17-.61-.26s-.42-.18-.64-.23c-.13-.03-.26-.05-.4-.06 0 0 .01-.01.01-.01.06-.08.1-.17.12-.26.05-.19.01-.38-.04-.54-.06-.17-.15-.31-.23-.46-.04-.06-.08-.13-.11-.19.01-.01.02-.02.03-.03.08-.14.22-.25.38-.29.16-.05.35-.02.54-.03.39-.02.75-.24.94-.57-.21.31-.58.49-.94.47-.18-.01-.37-.06-.57-.02-.19.04-.36.14-.49.29-.01-.02-.03-.04-.04-.06-.09-.14-.21-.27-.21-.42-.01-.15.08-.3.17-.44l.59-.81-.63.78c-.1.13-.2.28-.21.47 0 .09.03.18.07.26s.09.15.13.22c.09.14.17.29.24.43.08.15.15.3.2.45s.06.31.02.45-.14.26-.26.29c0 0 0 0-.01 0-.03.01-.04.03-.06.05-.22.05-.43.17-.59.32-.17.16-.32.32-.49.43-.16.11-.33.12-.54.1-.04 0-.07-.01-.11-.01-.09-.19-.19-.38-.28-.57-.05-.11-.06-.23-.03-.34.02-.07.04-.13.05-.2.03-.18.04-.37.02-.55-.02-.15-.05-.3-.1-.44 0-.17.01-.33.06-.48.04-.1.09-.18.17-.26s.19-.16.27-.25c.16-.19.28-.41.37-.64.05-.11.08-.23.13-.33.05-.11.12-.21.22-.27-.11.05-.19.15-.25.26-.06.1-.11.22-.17.32-.11.21-.25.41-.41.56-.08.08-.17.14-.28.22-.1.08-.2.19-.26.31-.02.03-.03.07-.04.1-.09-.18-.18-.36-.27-.53-.15-.28-.26-.55-.16-.78.05-.12.15-.25.24-.41s.15-.33.19-.5c.05-.22.07-.44.07-.67.02-.05.05-.09.1-.13.08-.07.18-.13.29-.17.22-.08.49-.11.71-.26.22-.16.31-.4.47-.59.08-.09.18-.16.3-.19.11-.03.25-.02.34.07-.08-.1-.23-.12-.35-.09s-.24.09-.33.19c-.18.18-.29.42-.49.54s-.45.13-.7.2c-.13.04-.25.09-.35.18 0-.03-.01-.07-.01-.1-.05-.34-.15-.67-.29-.97-.14-.31-.3-.59-.48-.87.19.64.43 1.25.49 1.88.03.31.01.63-.08.92-.04.15-.1.28-.18.41-.07.13-.19.25-.27.43-.02.04-.04.09-.05.13-.02-.05-.04-.09-.06-.14-.03-.1-.06-.21-.06-.32-.01-.11 0-.23 0-.36s-.01-.26-.05-.39-.1-.25-.18-.35c-.15-.21-.35-.37-.56-.51-.21-.13-.42-.25-.63-.38-.2-.13-.39-.28-.53-.47-.29-.38-.45-.85-.6-1.31.12.47.25.95.53 1.36.14.21.33.38.53.52s.41.27.6.41.37.3.49.49c.06.09.11.2.13.3.03.1.03.21.02.33s-.02.24-.02.37.02.27.05.39c.06.22.17.43.33.61.05.16.11.3.18.43.16.29.3.57.39.87.09.29.14.59.08.87 0 .02-.01.03-.01.05-.04.2-.2.35-.4.36-.27.02-.56-.04-.82-.14-.01 0-.02-.01-.03-.01-.04-.17-.1-.34-.17-.5-.11-.26-.29-.53-.56-.69-.27-.17-.56-.2-.82-.25-.13-.02-.26-.05-.38-.09.01-.11.05-.22.11-.33.07-.12.16-.24.25-.37s.18-.27.23-.43.06-.33.04-.49c-.04-.32-.18-.61-.32-.87-.14-.27-.3-.53-.38-.83.05.3.19.58.31.86s.23.56.24.85c.01.14-.02.28-.07.41-.06.13-.14.24-.23.36-.09.11-.2.23-.29.36-.07.1-.14.23-.17.36-.25-.11-.46-.31-.55-.57-.09-.24-.11-.52-.21-.77-.19-.51-.57-.95-1.04-1.21.45.29.79.74.95 1.24.08.25.08.52.16.79.04.14.11.27.2.38s.21.21.33.28c.06.04.13.07.19.1.03.03.06.04.1.04.16.07.32.12.48.16.26.06.52.12.7.25.19.13.31.34.4.57.05.12.08.26.11.39.02.09-.01.19-.08.25-.15.13-.34.24-.53.29-.01 0-.01 0-.02.01-.12-.04-.23-.06-.35-.06-.15 0-.29.02-.43.06-.13.04-.26.1-.37.17-.2.12-.39.25-.57.37-.01-.03-.03-.05-.05-.07-.34-.28-.66-.57-.93-.9-.03-.14-.04-.28-.02-.42.01-.07.04-.14.08-.21.04-.06.1-.13.16-.19.06-.07.1-.15.12-.24s.02-.18 0-.26c-.03-.17-.11-.33-.18-.47.06.16.12.32.13.48.01.08 0 .16-.03.24-.03.07-.07.14-.13.2s-.12.11-.18.18-.11.16-.13.25c-.02.06-.02.12-.03.18-.09-.13-.16-.26-.23-.4-.1-.21-.16-.43-.21-.67-.03-.12-.06-.24-.11-.36-.03-.06-.06-.12-.09-.17-.04-.05-.07-.11-.11-.16-.15-.2-.34-.36-.54-.51-.39-.29-.81-.54-1.08-.94.12.21.29.39.47.55s.37.31.55.47.35.32.48.52c.04.05.06.1.09.15.02.05.05.1.07.16.04.11.06.22.08.34.04.23.09.49.18.72.09.24.21.46.35.67.27.4.6.76.95 1.08-.12.06-.24.1-.37.12-.23.04-.46-.02-.68-.14-.22-.11-.42-.26-.64-.39s-.47-.23-.72-.25c-.26-.02-.51.01-.75.07.25-.04.5-.06.75-.02s.47.15.68.29c.18.12.35.26.55.39-.07.04-.13.08-.18.13-.08.08-.15.18-.2.28s-.09.21-.11.31c-.03.1-.06.2-.11.27-.06.07-.14.13-.24.16s-.2.04-.3.06c-.1.01-.21.03-.31.05-.1.03-.2.08-.27.16.08-.08.18-.12.28-.14s.21-.02.31-.03c.11-.01.21-.01.32-.03s.22-.08.29-.17c.08-.09.12-.2.15-.3s.07-.19.13-.28c.1-.17.25-.31.42-.34h.01c.01 0 .02-.01.03-.01.19.09.41.15.63.13.28-.02.53-.13.75-.26.23-.13.44-.27.65-.37.11-.05.22-.09.32-.12.11-.03.21-.04.32-.03.05 0 .09.01.14.02.13.03.23.12.31.23.29.44.57.89.65 1.5.02.19-.09.38-.27.45-.03-.01-.06 0-.1.01-.07.04-.17.03-.27-.02s-.2-.12-.3-.21-.21-.19-.36-.25c-.14-.06-.31-.07-.45-.03-.29.07-.5.26-.71.42-.11.08-.22.15-.34.21-.12.05-.25.08-.39.07.13.03.27.01.4-.03s.25-.11.37-.18.23-.14.34-.2c.12-.06.24-.11.36-.13s.24 0 .34.05.19.14.28.24c.08.09.18.18.29.26-.1.04-.2.09-.3.15-.2.13-.38.3-.51.49-.14.19-.23.41-.28.64-.01.06-.02.12-.03.18-.01 0-.01-.01-.01-.01-.26-.1-.54-.14-.81-.12-.14.01-.27.04-.4.08-.06.02-.13.04-.18.09-.02.03-.04.07-.02.1.01.03.04.06.08.05-.03.01-.06-.02-.07-.05s.01-.06.03-.08c.05-.04.11-.05.18-.06.13-.03.26-.04.39-.03.26.01.51.08.72.2 0 0 .01 0 .01.01.02.01.04.01.07 0-.01.1-.02.2-.04.3-.04.21-.11.43-.26.59-.04.04-.08.08-.12.11s-.1.05-.15.08-.1.06-.14.1c-.02.02-.04.04-.05.07s0 .06.01.08c-.01-.02-.02-.05-.01-.08s.03-.05.05-.06c.04-.04.09-.06.14-.08s.11-.04.16-.07.1-.06.14-.1c.17-.16.27-.38.32-.6.06-.22.09-.45.15-.65.06-.21.16-.4.3-.56.08-.1.17-.19.27-.26.12.08.23.17.33.27.12.12.22.26.24.42.03.16-.02.32-.09.48s-.15.33-.19.52c-.03.19 0 .38.05.55.05.18.13.34.2.5s.14.33.19.5c.04.17.05.36 0 .53.06-.17.06-.36.03-.54-.04-.18-.1-.35-.16-.52s-.13-.33-.17-.51c-.04-.17-.06-.35-.02-.51.04-.17.12-.32.2-.49.08-.16.15-.35.12-.56-.02-.2-.14-.38-.26-.52-.09-.1-.19-.18-.29-.26.19-.11.41-.17.64-.24.21-.06.45-.13.66-.26.04-.02.07-.04.1-.07.07-.05.15-.08.24-.08.12 0 .25 0 .37-.03.28-.06.51-.25.73-.43.07-.06.14-.11.2-.17.13-.11.31-.11.45-.02.02.02.04.03.07.05 0 .02.01.04.01.07.08.18.07.42-.02.61s-.29.34-.5.51c-.1.08-.2.18-.28.3-.04.06-.07.13-.09.19-.02.07-.03.13-.04.2-.01.13-.03.25-.08.37-.04.12-.11.23-.19.33.1-.09.18-.19.24-.31s.1-.25.13-.37c.03-.13.07-.23.15-.32s.17-.16.28-.23.22-.13.33-.21.23-.18.31-.31c.09-.14.15-.31.17-.48.19.19.36.4.47.63.16.31.17.67.22 1.05.02.19.07.39.14.57.06.18.14.36.21.53s.13.34.17.52c.02.08.02.17-.01.22s-.09.08-.17.08-.17-.02-.26-.04-.19-.03-.28-.04c-.19-.02-.38-.03-.57-.01s-.38.06-.56.15c-.17.08-.33.21-.43.38-.11.16-.17.35-.18.54 0 .1.01.19.04.28s.08.17.15.24c-.06-.07-.11-.15-.13-.24s-.03-.18-.03-.28c.02-.18.09-.36.19-.51.21-.31.59-.44.95-.45.18-.01.37.01.55.04.09.01.18.03.27.06.09.02.19.05.29.05.05 0 .11 0 .17-.03.06-.02.11-.07.14-.12.02-.03.03-.05.04-.08.07.06.14.13.19.21.07.12.11.26.12.41.01.08.01.15.03.23s.05.15.1.22c.09.13.22.22.34.31-.14-.11-.26-.22-.33-.35z" fill="#83b9f6"/><path d="m101.05 49.1c.22.15.43.31.66.45s.48.25.76.3c.03.01.06.01.09.01-.04.05-.07.1-.09.15-.07.17-.09.31-.16.4-.07.1-.19.17-.32.21-.26.08-.56.05-.85.14-.07.02-.15.05-.2.13-.04.08-.05.16-.07.23-.05.14-.13.28-.23.39.11-.1.2-.23.27-.37.03-.07.05-.15.09-.21.04-.05.1-.07.17-.09.28-.06.56.01.87-.06.15-.03.31-.1.43-.23.06-.07.11-.15.14-.23s.06-.15.09-.2c.03-.06.06-.09.11-.12.04-.03.1-.05.16-.07.11-.03.4-.17.49-.22.02-.01.05-.02.07-.03.04-.01.08-.01.12-.02.11-.01.21.01.31.06.2.1.37.29.56.49.1.1.2.2.33.29.08.05.15.08.24.11-.01.03-.01.08-.03.12-.06.16-.13.33-.17.5-.02.09-.07.17-.15.21-.13.06-.25.13-.38.21-.1.06-.27.15-.38.19-.41.04-.69.06-1.09.21-.2.08-.4.19-.56.34-.05.05-.06.05-.11.11-.04.04-.07.05-.08.05-.13.02-.24.09-.33.15-.09.07-.17.14-.25.19s-.16.09-.25.09c-.09.01-.19 0-.29-.02-.1-.01-.21-.03-.32-.01-.11.01-.22.05-.3.12-.17.13-.29.32-.49.4.2-.06.35-.25.52-.35.09-.05.18-.08.28-.08s.19.02.29.05c.1.02.2.05.32.05.11.01.24-.03.33-.08.1-.05.19-.12.27-.17l.06-.03c-.01.03-.03.05-.04.08-.1.2-.17.4-.26.6-.08.2-.18.39-.28.58-.21.37-.46.72-.74 1.04.3-.3.57-.63.81-.99.12-.18.23-.37.32-.57.1-.19.19-.39.29-.57s.23-.34.38-.47c.15-.12.32-.21.51-.26.26-.08.54-.11.82-.12-.02.03-.04.05-.05.08-.05.09-.09.18-.13.27-.03.1-.05.19-.07.27-.03.17-.06.31-.13.44s-.16.25-.26.37c-.1.11-.22.22-.34.32-.03.02-.33.28-.38.32l-.37.33-.18.16-.1.08c-.04.03-.07.06-.09.1-.06.07-.26.42-.27.45-.07.16-.14.31-.2.47-.12.32-.21.65-.29.98-.04.17-.07.34-.09.51-.01.09-.02.17-.02.26s0 .17.02.26c-.02-.08-.01-.17 0-.25s.02-.17.04-.25c.03-.17.08-.33.12-.49.09-.33.21-.64.33-.95.04-.1.09-.21.14-.31v.07l.01.19c0 .06 0 .14.03.21.03.08.08.13.12.17.05.04.09.08.11.13.05.1.05.24-.01.35.08-.09.11-.24.07-.38-.02-.07-.06-.12-.1-.17s-.07-.1-.07-.14c-.01-.05 0-.11 0-.17l.02-.19.03-.26c.01-.11.04-.21.09-.31.01-.02.02-.05.04-.06.02-.03.05-.05.08-.08.01-.01.03-.02.05-.03l.05-.04.2-.15.31-.23c.04-.03.1-.01.11.05.03.18.08.55.08.75 0 .19-.02.37-.05.55-.03.19-.06.39-.03.6.01.1.05.21.1.3s.1.16.15.24.09.15.11.23.02.17.01.26c-.03.18-.1.36-.14.55-.02.09-.03.19-.02.29s.04.19.09.27c-.05-.08-.07-.17-.07-.27 0-.09.01-.19.04-.28.05-.18.14-.35.18-.54.02-.1.03-.2.01-.3-.02-.11-.06-.2-.11-.28s-.1-.16-.13-.24c-.04-.08-.06-.16-.06-.24-.01-.17.03-.35.07-.54s.07-.38.09-.58c.03-.37.04-.55-.01-.92 0 0 0-.02-.01-.05-.01-.09.03-.18.1-.23.12-.09.25-.18.36-.29.13-.12.25-.26.34-.42.05-.08.09-.17.12-.26s.05-.18.08-.26c.02-.08.04-.15.07-.22.03-.06.06-.12.1-.18.08-.11.18-.21.3-.29.13-.09.27-.17.42-.24.11-.05.24-.05.35.01.1.05.3.22.39.29.28.21.41.28.54.45.09.13.15.28.15.45v.03c-.01.17-.03.34-.08.49-.02.03-.05.07-.08.09-.09.08-.22.12-.36.13s-.28 0-.42-.02c-.07-.01-.16-.02-.24.01-.08.02-.17.08-.21.16-.05.07-.07.14-.11.19-.04.04-.1.07-.17.07-.07.01-.14-.01-.22 0-.04 0-.08.01-.12.03s-.07.05-.1.08c-.08.13-.23.18-.37.21s-.29.04-.43.05c.15 0 .29 0 .44-.02.07-.01.15-.03.22-.06.04-.01.07-.03.1-.06.03-.02.06-.06.09-.08.05-.05.11-.07.17-.07.07 0 .14.02.22.02s.17-.02.24-.09c.07-.06.1-.14.14-.2s.08-.08.14-.09.13 0 .2.01c.14.03.29.05.45.05.09 0 .18-.01.27-.04 0 .01-.01.02-.01.03-.04.09-.08.22-.06.37.01.07.04.15.06.2.03.05.06.1.09.14.06.08.11.14.15.19.02.03.03.05.04.07s.01.03.01.05c0 .04-.01.1-.03.17s-.06.15-.09.24-.05.21-.05.31c0 .11.01.21.03.3.04.19.11.35.17.51s.1.31.13.46c.02.16.03.32.02.48s-.05.32-.1.47c-.02.05-.04.1-.07.15-.02.02-.03.04-.04.07-.04.06-.09.12-.14.17s-.12.1-.18.14c-.07.04-.14.08-.22.14-.04.03-.07.07-.1.12s-.04.1-.05.15c-.01.09-.03.17-.04.26-.02.17-.04.35-.03.52.06-.16.11-.33.15-.5.02-.08.04-.17.06-.25s.05-.12.1-.16c.06-.04.13-.07.2-.11s.15-.09.22-.15c.02-.02.05-.04.07-.07.06.21.12.41.23.6.07.12.15.23.21.34s.12.24.1.38c.04-.13 0-.28-.05-.41s-.11-.25-.16-.37c-.09-.25-.12-.51-.15-.78.02-.04.05-.09.07-.13.07-.17.12-.35.14-.53.03-.18.03-.37.01-.55-.02-.17-.05-.34-.1-.49.07.06.14.12.22.17.15.1.32.18.47.25.16.07.31.13.46.21.07.04.14.07.2.12.11.07.15.22.1.34-.01.02-.02.04-.03.06-.02.04-.04.07-.06.12-.02.04-.03.1-.04.15-.01.1.02.19.04.27l.13.49c.04.16.12.33.25.43-.11-.12-.17-.28-.19-.44l-.07-.5c-.01-.08-.02-.16-.01-.23.01-.03.02-.06.03-.09.02-.03.04-.06.06-.1.02-.03.04-.06.06-.1.02.06.03.13.06.2.03.1.09.19.15.27s.13.14.21.19c.15.11.32.17.5.2-.14-.11-.27-.22-.38-.34s-.2-.26-.24-.4c-.02-.07-.03-.16-.06-.26-.02-.1-.06-.21-.13-.3-.13-.18-.3-.27-.45-.36-.32-.17-.64-.28-.91-.45-.18-.12-.36-.26-.48-.44-.04-.05-.06-.12-.05-.19 0-.07.02-.13.04-.19.03-.07.06-.14.1-.23.01-.03.02-.07.04-.1.04.04.08.07.12.1.11.06.22.07.32.09.1.01.21.01.31.01.2 0 .4 0 .59.05.1.02.19.06.28.1.09.05.17.11.24.19-.06-.09-.14-.16-.23-.22s-.18-.1-.28-.14c-.2-.07-.4-.09-.6-.11-.1-.01-.2-.02-.29-.05-.09-.02-.19-.05-.26-.1s-.11-.11-.15-.21c-.02-.04-.03-.08-.06-.12 0-.01 0-.02-.01-.03-.02-.06-.05-.11-.08-.15-.06-.09-.11-.15-.15-.21s-.06-.11-.06-.12c0-.02.01-.07.04-.13s.07-.13.11-.22.08-.18.1-.27c.04-.13.07-.27.09-.4.02-.12.05-.24.1-.35.16-.35.35-.7.52-.86.04-.04.09-.08.14-.13.02.03.05.06.07.08.12.13.24.26.38.38.07.06.14.11.21.16s.15.1.21.14.12.08.16.12.05.07.07.13.03.15.05.25v.01c.01.1.04.18.07.24.03.08.06.13.07.18.01.04 0 .09-.04.15-.03.06-.08.11-.14.16-.11.11-.23.22-.31.37s-.11.33-.06.48c-.02-.16.04-.32.13-.43.09-.12.22-.19.34-.28.06-.05.13-.09.19-.16.03-.03.06-.07.08-.12.01-.02.02-.04.02-.07.07.05.14.1.2.14.06.05.11.09.16.14s.09.11.14.18c.01.02.03.05.04.07 0 .01 0 .03.01.04.02.13.01.27-.01.41-.02.13-.07.26-.12.39s-.11.27-.15.42-.06.33 0 .49.15.28.21.4c.12.23.15.52.08.81.17-.24.2-.61.06-.89-.03-.06-.06-.11-.09-.17.03.02.05.03.08.05.07.04.14.07.19.12s.1.11.14.18l.27.41c.09.14.17.28.18.45 0-.17-.07-.33-.15-.48l-.23-.44c-.04-.07-.08-.15-.14-.22s-.14-.11-.2-.15c-.03-.02-.05-.03-.07-.05-.13-.11-.2-.29-.15-.47.04-.13.09-.26.15-.4.05-.14.11-.28.13-.44.01-.03.01-.07.01-.1.02.05.22.39.25.44.2.29.45.55.72.76.05.04.1.07.16.1.07.04.12.1.17.16.11.17.22.34.3.52.05.12.09.25.14.37s.12.24.22.33c-.09-.1-.14-.22-.18-.34-.04-.13-.07-.26-.11-.39-.06-.18-.14-.35-.22-.51.08.02.17.04.25.04s.16 0 .23.01c.06.01.12.05.18.11.06.05.12.11.19.17.13.11.26.21.4.3-.1-.14-.21-.27-.32-.4-.06-.06-.11-.12-.17-.19-.06-.06-.14-.13-.23-.16s-.18-.03-.26-.03c-.07-.01-.15-.02-.22-.05-.14-.05-.27-.13-.39-.24-.21-.18-.4-.39-.56-.63.08.01.15.02.23.01.1 0 .21-.03.31-.07s.19-.11.26-.2c.03-.05.06-.1.08-.13.02-.04.04-.06.07-.08.06-.04.16-.05.25-.07.18-.03.36-.04.54-.03-.18-.04-.36-.06-.55-.06-.09 0-.19-.01-.29.04-.05.02-.1.07-.14.11-.03.04-.06.08-.09.11-.11.11-.28.15-.44.13-.11-.01-.22-.05-.33-.09-.09-.04-.16-.11-.2-.21-.07-.16-.13-.32-.23-.48-.05-.08-.1-.16-.16-.23s-.13-.14-.2-.2c-.14-.11-.27-.2-.34-.3-.03-.05-.04-.08-.06-.15-.01-.07-.02-.16-.04-.27-.01-.05-.03-.11-.06-.17s-.06-.11-.1-.15c-.05-.06-.1-.1-.16-.14.13-.06.22-.16.3-.26s.11-.12.21-.08c.05.02.1.05.16.08s.14.05.21.02c.08-.03.12-.08.16-.12s.07-.05.13-.03c.05.01.11.04.18.04.06 0 .12-.01.18-.03.11-.04.21-.11.31-.18-.2.11-.44.22-.65.08-.03-.01-.07-.02-.11-.01s-.07.02-.1.04c-.05.04-.1.08-.13.08-.08.02-.16-.07-.28-.13-.06-.03-.14-.06-.23-.04s-.14.08-.19.12c-.08.08-.17.15-.26.17-.1.03-.2.01-.29-.05-.02-.02-.04-.04-.06-.05-.11-.1-.22-.22-.32-.34-.03-.03-.05-.07-.08-.11.07-.09.12-.19.15-.31.05-.2-.04-.52-.11-.73-.04-.12 0-.26.1-.33.04-.03.07-.05.11-.07.09-.06.2-.06.28 0 .03.02.06.04.08.06.05.04.09.09.17.15.04.03.09.05.14.07.05.01.11.01.16-.01.1-.03.17-.11.22-.16.05-.06.09-.12.13-.16.08-.08.15-.09.25.01.05.04.11.1.2.13s.17.01.24-.01.13-.05.19-.07c.06-.01.12-.02.19-.01.13.02.26.07.39.11s.28.07.41.02c-.14.03-.27-.01-.4-.07-.13-.05-.25-.12-.39-.15-.07-.02-.15-.02-.22-.01s-.14.04-.2.05-.12.02-.17 0-.09-.06-.14-.12c-.05-.05-.12-.12-.22-.13s-.2.03-.26.09c-.07.05-.11.11-.16.16s-.09.08-.12.08-.05 0-.09-.03c-.03-.03-.08-.09-.13-.15-.03-.03-.06-.06-.1-.09.16-.07.32-.13.49-.17.06-.02.11-.03.18-.04.07-.02.14-.04.22-.08.08-.05.15-.13.19-.22s.05-.18.05-.26c0-.15-.02-.28-.01-.39s.05-.22.11-.33c.12-.21.29-.39.48-.56s.39-.33.57-.52.34-.41.4-.67c-.08.26-.26.45-.45.62s-.4.3-.61.46c-.2.16-.41.32-.57.56-.08.12-.14.25-.17.41s-.02.3-.03.41c-.01.06-.02.1-.04.13s-.04.05-.07.06c-.06.03-.19.03-.32.06-.26.04-.51.11-.76.21-.18.07-.35.15-.51.25-.13.08-.29.05-.4-.07-.02-.02-.04-.05-.06-.07-.08-.1-.18-.26-.25-.41-.24-.63-.15-.95-.27-1.28-.05-.13-.1-.26-.15-.39-.12-.28-.22-.55-.25-.83-.03-.32.05-.64.14-.98.09-.35.18-.7.15-1.07-.02-.25-.1-.49-.17-.72-.03-.09-.06-.19-.09-.28-.3-1.09-.04-2.27.18-3.31l.1-.49c.02 0 .05-.01.07-.03.44-.32.89-.63 1.41-.68.52-.06 1.08.07 1.65-.06.28-.06.55-.19.74-.42.19-.22.29-.49.37-.75s.15-.53.29-.76c.13-.24.32-.45.59-.53-.27.07-.48.28-.62.51-.15.24-.23.5-.33.76-.1.25-.2.51-.38.7s-.43.3-.68.34c-.35.06-.7.02-1.06-.01.2-.39.36-.79.48-1.2.06-.22.12-.44.16-.67.01-.12.02-.23-.01-.35-.02-.11-.08-.22-.17-.3.08.08.12.19.13.3s-.01.22-.03.33c-.06.21-.14.43-.23.63-.18.41-.39.81-.64 1.18 0 0-.01.01-.01.02-.01.01-.01.03-.01.05-.08 0-.16 0-.24 0-.29.02-.58.1-.84.23-.24.11-.45.25-.67.39-.07-.27-.27-.49-.51-.6-.13-.06-.27-.08-.41-.07-.13.01-.25.04-.36.04-.22.01-.42-.12-.55-.32s-.22-.43-.29-.66c.04.24.1.48.22.7.06.11.14.21.24.3.1.08.24.13.37.14s.26-.01.37 0c.11 0 .21.03.3.08.16.09.27.25.31.42l-.99.09-.52.04c-.17.01-.33 0-.47-.06-.14-.07-.27-.18-.4-.3s-.27-.23-.43-.32c-.31-.17-.67-.25-1.02-.23.35 0 .69.11.98.3.14.09.27.21.39.34s.24.26.41.36.37.12.55.12l.53-.01 1.01-.01-.09.41c-.23 1.08-.5 2.3-.18 3.46.03.1.06.2.09.3.07.22.14.43.16.65.03.32-.06.63-.14.97-.09.35-.18.71-.15 1.08.03.33.15.63.27.92.05.12.1.25.14.37.08.23-.04.51-.24.79-.28.34-.53.85-.71 1.14-.05.07-.13.11-.21.08-.04-.01-.08-.03-.12-.05-.09-.05-.19-.13-.29-.22-.19-.17-.39-.38-.68-.51-.04-.01-.07-.03-.11-.04l-.11-.02c-.08-.01-.15-.01-.23 0-.1.01-.19.04-.28.07-.03 0-.11.04-.12.05-.12.05-.24.09-.35.12-.12.03-.24.03-.36.02-.24-.02-.48-.11-.71-.23s-.45-.26-.68-.4l-1.35-.83z" fill="#83b9f6"/><path d="m128.82 34.99c-.29.03-.59.12-.83.31-.25.19-.38.51-.64.64-.13.07-.27.08-.42.08-.14 0-.29-.02-.44-.04-.58-.07-1.17-.17-1.77-.16-.3.01-.6.05-.89.13-.26.08-.52.19-.76.36-.07-.33-.17-.66-.17-.99-.01-.38.09-.75.23-1.1s.32-.68.5-1.01c-.19.32-.39.64-.54.99s-.26.72-.27 1.11c-.01.38.09.74.15 1.09 0 .02 0 .04.01.06.03.18.05.36.03.54s-.07.35-.17.5c-.19.29-.51.46-.82.61-.16.07-.33.14-.49.21-.17.07-.33.15-.49.25-.32.19-.62.42-.88.71-.14.15-.26.32-.36.5-.05-.13-.09-.26-.14-.38-.1-.26-.19-.51-.23-.76-.05-.25-.07-.52-.07-.79 0-.43.04-.87.06-1.33 0-.1.04-.2.09-.28.04-.07.07-.15.09-.23.04-.16.05-.31.06-.46.03-.29.15-.56.32-.79s.4-.41.66-.5c.13-.05.27-.07.4-.12.13-.04.27-.11.36-.23-.09.11-.23.17-.36.2-.13.04-.27.05-.41.1-.27.09-.52.26-.71.49s-.33.52-.38.83c-.02.15-.04.3-.08.43-.01.03-.02.06-.03.09 0-.25-.02-.5-.07-.75-.05-.29-.15-.56-.26-.82-.2-.52-.45-1-.46-1.57-.07.27-.06.57 0 .86.05.28.14.55.22.82.04.13.08.26.12.39.03.13.07.26.08.39.04.26.05.53.05.8-.01.54-.1 1.1-.11 1.68v.21c-.39-.23-.81-.39-1.22-.54-.52-.19-1.04-.37-1.49-.68-.11-.08-.21-.17-.29-.28s-.13-.23-.17-.37-.07-.28-.11-.43c-.04-.14-.08-.28-.13-.42-.19-.56-.46-1.08-.8-1.55.31.48.55 1.02.72 1.58.04.14.08.28.11.42s.06.29.09.43c.03.15.09.3.17.43.09.13.19.24.31.33.18.13.36.25.55.35-.35.01-.69.07-1.03.08-.22 0-.44-.02-.64-.1-.2-.07-.38-.22-.57-.36-.18-.14-.38-.27-.58-.37-.21-.1-.42-.18-.64-.24-.43-.12-.88-.18-1.32-.24.44.07.88.15 1.31.28.21.07.42.15.62.26s.38.23.56.38c.18.14.36.3.58.39s.45.12.68.13c.45.01.9-.08 1.33-.03.01 0 .03 0 .04-.01.2.09.4.17.59.26.43.18.86.38 1.23.64.06.04.1.12.11.2.01.04.01.09.02.13.05.3.15.57.24.84s.19.52.25.77.1.5.06.74c-.02.23-.15.48-.19.81-.04.32 0 .64.07.92.07.29.16.55.23.81s.13.51.13.75v.09l-.01.09c0 .06-.02.11-.04.17-.03.11-.09.23-.15.36-.04.09-.09.2-.12.31-.02.08-.06.15-.12.21-.03.03-.06.06-.09.09-.07.06-.23.09-.39.1-.14.01-.27-.02-.39-.09-.03-.02-.06-.04-.09-.05-.1-.06-.2-.11-.31-.15l-.61-.51-.35-.3c-.12-.1-.24-.2-.34-.3-.11-.11-.21-.22-.28-.35-.08-.13-.12-.28-.16-.44-.04-.15-.07-.31-.12-.47-.02-.08-.05-.15-.09-.22s-.09-.13-.14-.19c.05.06.09.13.13.2.03.07.06.15.07.23.04.15.06.31.09.47s.07.32.14.47.17.28.28.4.22.23.33.33l.34.32.2.19c-.12-.02-.23-.04-.35-.04-.21-.01-.42.02-.61.09-.2.07-.37.18-.55.21s-.37-.03-.54-.14-.31-.25-.46-.4c.13.16.27.32.43.44.13.11.3.19.47.2-.36.36-.84.6-1.34.65-.27.03-.54-.01-.82.03-.14.02-.27.06-.4.13-.12.07-.23.17-.3.3.07-.13.18-.22.3-.28s.26-.09.39-.1c.27-.02.54.03.82.01.56-.03 1.1-.27 1.52-.68.02-.02.35-.17.5-.21.18-.05.37-.05.56-.03.38.05.73.21 1.05.43.09.06.17.12.26.19.25.2.29.58.09.84-.05.06-.14.18-.15.18-.18.13-.33.29-.47.45-.14.17-.25.34-.37.51s-.24.34-.37.48c-.14.14-.29.27-.46.35-.09.04-.18.07-.27.07s-.19-.01-.29-.03l-.58-.12.57.17c.1.03.2.05.3.06s.21-.01.31-.05c.2-.07.37-.19.53-.33s.3-.3.43-.46c.18-.22.35-.43.54-.6.03.05.05.11.06.19 0 .09-.02.18-.06.26-.08.17-.22.32-.32.51-.1.18-.17.38-.21.58-.02.1-.03.21-.04.31 0 .05-.01.11.01.16.01.02.02.05.04.07.01.02.04.02.06.02-.02.01-.04 0-.05-.02-.02-.02-.03-.04-.03-.07-.01-.05 0-.1 0-.15.01-.1.03-.2.05-.3.05-.2.13-.38.24-.55.1-.17.25-.3.35-.49.05-.09.09-.21.1-.33 0-.06 0-.12-.02-.18-.02-.07 0-.15.06-.19.02-.01.05-.03.07-.04s.05-.03.07-.04c.03-.02.07-.03.11-.03.22-.03.48-.1.58 0 .03.03.22.5.31.95.07 2.24.08 4.48.09 6.72v.47c0 .16 0 .3-.02.43-.02.09-.05.17-.1.25-.02.02-.04.04-.05.07-.01.01-.01.02-.02.02-.09.1-.2.18-.33.25-.51.29-1.13.35-1.75.39-.61.05-1.27.07-1.86.34-.3.13-.54.33-.8.5-.26.16-.54.31-.86.28.15.04.32.03.47-.01s.3-.11.44-.18c.28-.15.53-.33.81-.44.2-.08.42-.14.64-.17-.02.02-.04.05-.06.07-.09.11-.15.24-.21.37-.1.26-.15.53-.24.78-.08.25-.23.49-.45.64-.11.08-.23.16-.31.27-.07.11-.11.27-.03.39-.07-.12-.03-.27.05-.38s.2-.18.31-.25c.12-.07.23-.16.31-.28.08-.11.15-.24.2-.37.1-.26.16-.52.27-.76.1-.23.26-.44.47-.53.28-.03.57-.04.86-.05.2-.01.4-.02.59-.03 0 .01-.01.02-.01.03-.03.11-.02.21-.01.32.02.2.08.39.1.58.05.38-.02.79-.2 1.14.2-.34.3-.74.27-1.15-.01-.2-.06-.39-.06-.59-.01-.13.01-.26.07-.36.06-.01.12-.01.19-.02.32-.05.64-.14.93-.29.1-.05.19-.11.28-.18.08.18.21.34.36.47.21.18.46.29.72.35v.03c.09.26.27.39.39.53.13.14.17.28.09.45-.04.08-.09.17-.14.27-.04.1-.06.21-.06.31 0 .21.09.41.24.55-.13-.15-.18-.36-.16-.54.01-.09.04-.18.09-.26s.11-.15.17-.25c.06-.09.11-.21.09-.34-.01-.13-.07-.24-.13-.32-.09-.14-.19-.26-.24-.37.42.03.84-.03 1.24-.08.03 0 .07-.01.1-.01.01.01.03.01.04.01l.75-.04c.2.01.4.05.6.13.47.18.82.62.91 1.13-.05-.51-.39-.99-.87-1.2-.07-.03-.14-.06-.21-.08l1.53-.08c.22-.01.45-.02.67.01s.44.09.61.23c.35.28.43.79.8 1.07-.37-.28-.42-.79-.78-1.1-.18-.15-.4-.23-.63-.26s-.46-.03-.68-.03l-2.17.06c-.23-.01-.46 0-.69.02-.51.04-1.02.09-1.49-.04-.23-.06-.44-.18-.61-.34-.16-.14-.26-.32-.3-.52.07-.11.12-.23.15-.34.04-.17.04-.34.04-.5l.01-.47c.04-1.99.09-3.99.09-5.99.02-.12.05-.38.06-.49v-.07c.17-.52.5-.81.74-1.05.1-.1.25-.11.36-.02.08.07.14.15.19.25s.08.23.13.35c.04.13.09.26.17.39.08.12.18.22.3.3.23.15.48.22.72.26.25.04.49.06.72.11.23.06.45.17.66.3.21.14.4.3.59.46-.18-.18-.36-.35-.57-.5-.2-.15-.42-.29-.66-.36-.24-.08-.48-.11-.72-.17-.21-.05-.41-.12-.58-.24.05-.01.1-.01.15-.03.12-.04.24-.09.34-.15.21-.12.41-.27.63-.34.22-.08.46-.08.69-.05s.46.09.69.16c-.23-.08-.45-.16-.69-.2-.23-.05-.48-.05-.72.01-.24.07-.45.2-.66.31s-.43.18-.63.11c-.03-.03-.05-.07-.07-.11-.05-.1-.09-.21-.12-.34-.03-.12-.06-.26-.11-.39-.05-.14-.14-.28-.25-.38s-.22-.18-.33-.24l-.2-.11c-.03-.06-.04-.11-.02-.15.01-.02.02-.03.02-.05.01-.03.03-.05.05-.07.38-.43.76-.85 1.23-1.12.24-.15.51-.23.79-.27s.57-.03.86-.01.59.05.88.06c.3.01.6-.02.89-.11.07-.03.14-.06.21-.09.07-.04.13-.08.2-.11.13-.09.24-.19.36-.29s.23-.19.36-.26.28-.11.42-.1c-.15-.03-.3.01-.43.07-.14.06-.26.15-.38.24s-.24.18-.37.26l-.2.1c-.07.02-.14.05-.21.07-.28.07-.57.08-.86.05-.29-.02-.58-.07-.87-.11s-.59-.07-.9-.05c-.14.01-.28.03-.42.07.07-.12.12-.25.17-.39.05-.16.07-.33.12-.48.02-.08.05-.15.09-.21s.1-.11.16-.15.14-.06.21-.09l.22-.08.44-.16.87-.33-.89.28-.44.14-.22.07c-.07.02-.15.05-.22.09s-.14.09-.2.16c-.05.07-.09.15-.12.23-.06.16-.08.33-.14.48-.04.11-.09.22-.15.32s-.16.18-.27.23c-.04.02-.08.04-.12.06-.28.14-.54.33-.78.54-.07.06-.15.08-.24.06-.2-.05-.46-.1-.51-.13-.22-.14-.29-.45-.37-.74-.03-.09-.05-.19-.06-.28l-.01-.05v-.12c.01-.32-.06-.62-.14-.9s-.17-.54-.23-.79c-.06-.26-.1-.51-.07-.74.02-.23.15-.49.19-.82.03-.22.02-.43-.02-.63-.04-.22 0-.44.1-.63.07-.14.16-.26.26-.38.22-.27.5-.5.79-.69.15-.09.3-.18.46-.25.16-.08.32-.15.49-.23.16-.08.33-.17.48-.28s.29-.25.4-.43c.1-.17.16-.38.17-.58.01-.18-.01-.36-.05-.53.46-.36 1.04-.51 1.61-.54.58-.03 1.17.05 1.75.11.15.01.29.03.44.03s.3-.02.44-.1.24-.2.33-.33c.05-.06.09-.13.14-.18.02-.03.05-.06.08-.08.03-.03.05-.05.08-.07.23-.19.52-.29.81-.32.29-.04.59-.03.88-.01-.19-.04-.48-.06-.78-.03z" fill="#83b9f6"/><path d="m115.83 10.16c-.29.03-.59.12-.83.31-.25.19-.38.51-.64.64-.13.07-.27.08-.42.08-.14 0-.29-.02-.44-.04-.58-.07-1.17-.17-1.77-.16-.3.01-.6.05-.89.13-.26.08-.52.19-.76.36-.07-.33-.17-.66-.17-.99-.01-.38.09-.75.23-1.1s.32-.68.5-1.01c-.19.32-.39.64-.54.99s-.26.72-.27 1.11c-.01.38.09.74.15 1.09 0 .02 0 .04.01.06.03.18.05.36.03.54s-.07.35-.17.5c-.19.29-.51.46-.82.61-.16.07-.33.14-.49.21-.17.07-.33.15-.49.25-.32.19-.62.42-.88.71-.14.15-.26.32-.36.5-.05-.13-.09-.26-.14-.38-.1-.26-.19-.51-.23-.76-.05-.25-.07-.52-.07-.79 0-.43.04-.87.06-1.33 0-.1.04-.2.09-.28.04-.07.07-.15.09-.23.04-.16.05-.31.06-.46.03-.29.15-.56.32-.79s.4-.41.66-.5c.13-.05.27-.07.4-.12.13-.04.27-.11.36-.23-.09.11-.23.17-.36.2-.13.04-.27.05-.41.1-.27.09-.52.26-.71.49s-.33.52-.38.83c-.02.15-.04.3-.08.43-.01.03-.02.06-.03.09 0-.25-.02-.5-.07-.75-.05-.29-.15-.56-.26-.82-.2-.52-.45-1-.46-1.57-.07.27-.06.57 0 .86.05.28.14.55.22.82.04.13.08.26.12.39.03.13.07.26.08.39.04.26.05.53.05.8-.01.54-.1 1.1-.11 1.68v.21c-.39-.23-.81-.39-1.22-.54-.52-.19-1.04-.37-1.49-.68-.11-.08-.21-.17-.29-.28s-.13-.23-.17-.37-.07-.28-.11-.43c-.04-.14-.08-.28-.13-.42-.19-.56-.46-1.08-.8-1.55.31.48.55 1.02.72 1.58.04.14.08.28.11.42s.06.29.09.43c.03.15.09.3.17.43.09.13.19.24.31.33.18.13.36.25.55.35-.35.01-.69.07-1.03.08-.22 0-.44-.02-.64-.1-.2-.07-.38-.22-.57-.36-.18-.14-.38-.27-.58-.37-.21-.1-.42-.18-.64-.24-.43-.12-.88-.18-1.32-.24.44.07.88.15 1.31.28.21.07.42.15.62.26s.38.23.56.38c.18.14.36.3.58.39s.45.12.68.13c.45.01.9-.08 1.33-.03.01 0 .03 0 .04-.01.2.09.4.17.59.26.43.18.86.38 1.23.64.06.04.1.12.11.2.01.04.01.09.02.13.05.3.15.57.24.84s.19.52.25.77.1.5.06.74c-.02.23-.15.48-.19.81-.04.32 0 .64.07.92.07.29.16.55.23.81s.13.51.13.75v.09l-.01.09c0 .06-.02.11-.04.17-.03.11-.09.23-.15.36-.04.09-.09.2-.12.31-.02.08-.06.15-.12.21-.03.03-.06.06-.09.09-.07.06-.23.09-.39.1-.14.01-.27-.02-.39-.09-.03-.02-.06-.04-.09-.05-.1-.06-.2-.11-.31-.15l-.61-.51-.35-.3c-.12-.1-.24-.2-.34-.3-.11-.11-.21-.22-.28-.35-.08-.13-.12-.28-.16-.44-.04-.15-.07-.31-.12-.47-.02-.08-.05-.15-.09-.22s-.09-.13-.14-.19c.05.06.09.13.13.2.03.07.06.15.07.23.04.15.06.31.09.47s.07.32.14.47.17.28.28.4.22.23.33.33l.34.32.2.19c-.12-.02-.23-.04-.35-.04-.21-.01-.42.02-.61.09-.2.07-.37.18-.55.21s-.37-.03-.54-.14-.31-.25-.46-.4c.13.16.27.32.43.44.13.11.3.19.47.2-.36.36-.84.6-1.34.65-.27.03-.54-.01-.82.03-.14.02-.27.06-.4.13-.12.07-.23.17-.3.3.07-.13.18-.22.3-.28s.26-.09.39-.1c.27-.02.54.03.82.01.56-.03 1.1-.27 1.52-.68.02-.02.35-.17.5-.21.18-.05.37-.05.56-.03.38.05.73.21 1.05.43.09.06.17.12.26.19.25.2.29.58.09.84-.05.06-.14.18-.15.18-.18.13-.33.29-.47.45-.14.17-.25.34-.37.51s-.24.34-.37.48c-.14.14-.29.27-.46.35-.09.04-.18.07-.27.07s-.19-.01-.29-.03l-.58-.12.57.17c.1.03.2.05.3.06s.21-.01.31-.05c.2-.07.37-.19.53-.33s.3-.3.43-.46c.18-.22.35-.43.54-.6.03.05.05.11.06.19 0 .09-.02.18-.06.26-.08.17-.22.32-.32.51-.1.18-.17.38-.21.58-.02.1-.03.21-.04.31 0 .05-.01.11.01.16.01.02.02.05.04.07.01.02.04.02.06.02-.02.01-.04 0-.05-.02-.02-.02-.03-.04-.03-.07-.01-.05 0-.1 0-.15.01-.1.03-.2.05-.3.05-.2.13-.38.24-.55.1-.17.25-.3.35-.49.05-.09.09-.21.1-.33 0-.06 0-.12-.02-.18-.02-.07 0-.15.06-.19.02-.01.05-.03.07-.04s.05-.03.07-.04c.03-.02.07-.03.11-.03.22-.03.48-.1.58 0 .03.03.22.5.31.95.07 2.24.08 4.48.09 6.72v.47c0 .16 0 .3-.02.43-.02.09-.05.17-.1.25-.02.02-.04.04-.05.07-.01.01-.01.02-.02.02-.09.1-.2.18-.33.25-.51.29-1.13.35-1.75.39-.61.05-1.27.07-1.86.34-.3.13-.54.33-.8.5-.26.16-.54.31-.86.28.15.04.32.03.47-.01s.3-.11.44-.18c.28-.15.53-.33.81-.44.2-.08.42-.14.64-.17-.02.02-.04.05-.06.07-.09.11-.15.24-.21.37-.1.26-.15.53-.24.78-.08.25-.23.49-.45.64-.11.08-.23.16-.31.27-.07.11-.11.27-.03.39-.07-.12-.03-.27.05-.38s.2-.18.31-.25c.12-.07.23-.16.31-.28.08-.11.15-.24.2-.37.1-.26.16-.52.27-.76.1-.23.26-.44.47-.53.28-.03.57-.04.86-.05.2-.01.4-.02.59-.03 0 .01-.01.02-.01.03-.03.11-.02.21-.01.32.02.2.08.39.1.58.05.38-.02.79-.2 1.14.2-.34.3-.74.27-1.15-.01-.2-.06-.39-.06-.59-.01-.13.01-.26.07-.36.06-.01.12-.01.19-.02.32-.05.64-.14.93-.29.1-.05.19-.11.28-.18.08.18.21.34.36.47.21.18.46.29.72.35v.03c.09.26.27.39.39.53.13.14.17.28.09.45-.04.08-.09.17-.14.27-.04.1-.06.21-.06.31 0 .21.09.41.24.55-.13-.15-.18-.36-.16-.54.01-.09.04-.18.09-.26s.11-.15.17-.25c.06-.09.11-.21.09-.34-.01-.13-.07-.24-.13-.32-.09-.14-.19-.26-.24-.37.42.03.84-.03 1.24-.08.03 0 .07-.01.1-.01.01.01.03.01.04.01l.75-.04c.2.01.4.05.6.13.47.18.82.62.91 1.13-.05-.51-.39-.99-.87-1.2-.07-.03-.14-.06-.21-.08l1.53-.08c.22-.01.45-.02.67.01s.44.09.61.23c.35.28.43.79.8 1.07-.37-.28-.42-.79-.78-1.1-.18-.15-.4-.23-.63-.26s-.46-.03-.68-.03l-2.17.06c-.23-.01-.46 0-.69.02-.51.04-1.02.09-1.49-.04-.23-.06-.44-.18-.61-.34-.16-.14-.26-.32-.3-.52.07-.11.12-.23.15-.34.04-.17.04-.34.04-.5l.01-.47c.04-1.99.09-3.99.09-5.99.02-.12.05-.38.06-.49v-.07c.17-.52.5-.81.74-1.05.1-.1.25-.11.36-.02.08.07.14.15.19.25s.08.23.13.35c.04.13.09.26.17.39.08.12.18.22.3.3.23.15.48.22.72.26.25.04.49.06.72.11.23.06.45.17.66.3.21.14.4.3.59.46-.18-.18-.36-.35-.57-.5-.2-.15-.42-.29-.66-.36-.24-.08-.48-.11-.72-.17-.21-.05-.41-.12-.58-.24.05-.01.1-.01.15-.03.12-.04.24-.09.34-.15.21-.12.41-.27.63-.34.22-.08.46-.08.69-.05s.46.09.69.16c-.23-.08-.45-.16-.69-.2-.23-.05-.48-.05-.72.01-.24.07-.45.2-.66.31s-.43.18-.63.11c-.03-.03-.05-.07-.07-.11-.05-.1-.09-.21-.12-.34-.03-.12-.06-.26-.11-.39-.05-.14-.14-.28-.25-.38s-.22-.18-.33-.24l-.2-.11c-.03-.06-.04-.11-.02-.15.01-.02.02-.03.02-.05.01-.03.03-.05.05-.07.38-.43.76-.85 1.23-1.12.24-.15.51-.23.79-.27s.57-.03.86-.01.59.05.88.06c.3.01.6-.02.89-.11.07-.03.14-.06.21-.09.07-.04.13-.08.2-.11.13-.09.24-.19.36-.29s.23-.19.36-.26.28-.11.42-.1c-.15-.03-.3.01-.43.07-.14.06-.26.15-.38.24s-.24.18-.37.26l-.2.1c-.07.02-.14.05-.21.07-.28.07-.57.08-.86.05-.29-.02-.58-.07-.87-.11s-.59-.07-.9-.05c-.14.01-.28.03-.42.07.07-.12.12-.25.17-.39.05-.16.07-.33.12-.48.02-.08.05-.15.09-.21s.1-.11.16-.15.14-.06.21-.09l.22-.08.44-.16.88-.33-.89.28-.44.14-.22.07c-.07.02-.15.05-.22.09s-.14.09-.2.16c-.05.07-.09.15-.12.23-.06.16-.08.33-.14.48-.04.11-.09.22-.15.32s-.16.18-.27.23c-.04.02-.08.04-.12.06-.28.14-.54.33-.78.54-.07.06-.15.08-.24.06-.2-.05-.46-.1-.51-.13-.22-.14-.29-.45-.37-.74-.03-.09-.05-.19-.06-.28l-.01-.05v-.12c.01-.32-.06-.62-.14-.9s-.17-.54-.23-.79c-.06-.26-.1-.51-.07-.74.02-.23.15-.49.19-.82.03-.22.02-.43-.02-.63-.04-.22 0-.44.1-.63.07-.14.16-.26.26-.38.22-.27.5-.5.79-.69.15-.09.3-.18.46-.25.16-.08.32-.15.49-.23.16-.08.33-.17.48-.28s.29-.25.4-.43c.1-.17.16-.38.17-.58.01-.18-.01-.36-.05-.53.46-.36 1.04-.51 1.61-.54.58-.03 1.17.05 1.75.11.15.01.29.03.44.03s.3-.02.44-.1.24-.2.33-.33c.05-.06.09-.13.14-.18.02-.03.05-.06.08-.08.03-.03.05-.05.08-.07.23-.19.52-.29.81-.32.29-.04.59-.03.88-.01-.2-.05-.5-.06-.79-.03z" style="opacity:.5;fill:none;stroke:#83b9f6;stroke-width:.25;stroke-miterlimit:10;stroke-dasharray:1"/><path d="m71.49 62.67h-30.13c-2.73 0-4.94-2.21-4.94-4.94v-47.2c0-2.73 2.21-4.94 4.94-4.94h30.13c2.73 0 4.94 2.21 4.94 4.94v47.2c0 2.73-2.21 4.94-4.94 4.94z" fill="none" stroke="#ffc807" stroke-miterlimit="10" stroke-width=".5"/><path d="m129 62.67h-30.12c-2.73 0-4.94-2.21-4.94-4.94v-47.2c0-2.73 2.21-4.94 4.94-4.94h30.12c2.73 0 4.94 2.21 4.94 4.94v47.2c0 2.73-2.21 4.94-4.94 4.94z" fill="none" stroke="#83b9f6" stroke-miterlimit="10" stroke-width=".5"/><text fill="#ffc807" font-family="'TitilliumWeb-Italic'" font-size="4" transform="translate(43.4097 68.8408)">Biological Data</text><text fill="#83b9f6" font-family="'TitilliumWeb-Italic'" font-size="4" transform="translate(96.9685 68.8406)">Reconstruction Data</text><path d="m76.71 31.53h13.25" fill="none" stroke="#ffc807" stroke-miterlimit="10" stroke-width=".5"/><path d="m88.55 33.38.79-1.85-.79-1.85 4.39 1.85z" fill="#ffc807"/></svg>