<svg enable-background="new 0 0 169 74" viewBox="0 0 169 74" xmlns="http://www.w3.org/2000/svg" xmlns:xlink="http://www.w3.org/1999/xlink"><clipPath id="a"><path d="m24.75 4.81h122.61v59.8h-122.61z"/></clipPath><path d="m90.55 34.25c.96-1.17 2.41-1.91 4.03-1.91 2.88 0 5.22 2.34 5.22 5.22v.07" style="fill:none;stroke:#fff;stroke-width:.25;stroke-linecap:round;stroke-linejoin:round;stroke-dasharray:1 1"/><path d="m91.74 34.18-.99-.17-.56-.83-.41 2.35z" fill="#fff"/><path d="m98.92 36.8.87.51.97-.28-1.19 2.06z" fill="#fff"/><path d="m108.41 34.54c.96-1.17 2.41-1.91 4.03-1.91 2.88 0 5.22 2.34 5.22 5.22v.07" style="fill:none;stroke:#fff;stroke-width:.25;stroke-linecap:round;stroke-linejoin:round;stroke-dasharray:1 1"/><path d="m109.61 34.48-.99-.18-.57-.83-.41 2.35z" fill="#fff"/><path d="m116.78 37.09.87.51.97-.28-1.19 2.07z" fill="#fff"/><path d="m58.92 62.61h-34.68c-2.73 0-4.94-2.21-4.94-4.94v-47.2c0-2.73 2.21-4.94 4.94-4.94h34.69c2.73 0 4.94 2.21 4.94 4.94v47.2c-.01 2.73-2.22 4.94-4.95 4.94z" fill="none" stroke="#ffc807" stroke-miterlimit="10" stroke-width=".5"/><path d="m142.03 62.61h-63.67c-2.73 0-4.94-2.21-4.94-4.94v-47.2c0-2.73 2.21-4.94 4.94-4.94h63.67c2.73 0 4.94 2.21 4.94 4.94v47.2c0 2.73-2.21 4.94-4.94 4.94z" fill="none" stroke="#83b9f6" stroke-miterlimit="10" stroke-width=".5"/><g fill="#83b9f6"><path clip-path="url(#a)" d="m100.59 44.19c-.34.54-.61.66-1.34 1.19-.2.14-.66.52-.87.64-.41.23-.61.76-.59 1.26.01.5.2.97.38 1.42.18.46.37.92.63 1.33.61.94 1.64 1.55 2.71 1.6.21.01.42 0 .62-.09.28-.12.48-.38.68-.62.44-.52.93-1 1.29-1.59s.57-1.33.39-2c-.2-.73-.82-1.22-1.35-1.73-.39-.37-.67-.8-.89-1.32-.55.34-1.15.38-1.66-.09z" opacity=".3"/><path clip-path="url(#a)" d="m107.07 37.72c-.19.07-.37.17-.52.33-.07.08-.14.17-.19.26s-.1.18-.15.24c-.1.14-.22.15-.4.12-.09-.01-.19-.04-.3-.05-.06 0-.12 0-.18.01s-.12.04-.18.07c-.12.07-.21.16-.28.27-.07.1-.12.21-.16.31-.08.2-.15.4-.23.54-.04.08-.08.13-.13.17-.04.03-.09.06-.13.06-.09.02-.25-.03-.44-.09s-.39-.11-.61-.14-.45-.03-.69.03-.47.19-.66.36c-.06.06-.12.12-.18.19-.02-.08-.03-.15-.05-.23-.04-.16-.08-.32-.13-.48l-.14-.44c-.09-.28-.15-.54-.17-.77s0-.41.08-.65.2-.5.33-.82c.06-.16.13-.32.18-.51.05-.18.09-.39.1-.59.03-.4-.02-.77-.09-1.1-.07-.34-.16-.64-.23-.93s-.12-.55-.14-.83-.02-.56-.01-.85c.01-.16.03-.32.05-.48.03-.06.05-.13.08-.19.22-.46.5-.89.82-1.28.32-.38.7-.7 1.12-1.02.41-.31.84-.63 1.24-1.02.2-.19.38-.41.54-.66.06-.04.11-.11.12-.19 0-.01 0-.01 0-.02.1-.19.19-.39.25-.6.16-.58.17-1.14.26-1.65.04-.25.1-.5.19-.75.08-.24.18-.48.3-.71.24-.46.55-.88.92-1.27-.95.47-1.66 1.49-1.88 2.62-.05.27-.09.54-.13.8-.04-.13-.08-.25-.13-.37-.12-.29-.22-.54-.24-.82-.03-.28 0-.58.02-.89l.14-1.84c.05-.61.14-1.22.43-1.76-.33.51-.47 1.13-.56 1.74l-.28 1.82c-.05.3-.1.62-.09.95 0 .16.03.34.07.5s.09.31.13.45c.17.5.2 1.02.1 1.52-.15.25-.33.48-.55.68-.36.34-.78.64-1.19.96-.42.32-.85.67-1.21 1.11-.08.1-.16.2-.23.3.09-.53.18-1.08.22-1.64.1-1.29.03-2.59-.21-3.85-.08-.43-.2-.86-.36-1.28.05-.99.11-1.97.32-2.92.11-.48.26-.96.37-1.45s.17-1.01.1-1.51c.03.5-.08 1-.22 1.47-.15.47-.34.93-.49 1.41-.23.71-.37 1.44-.48 2.17-.13-.2-.27-.38-.43-.55-.23-.24-.47-.41-.62-.61-.15-.19-.2-.45-.24-.75-.04-.31-.08-.62-.14-.93-.1-.62-.22-1.23-.39-1.84-.03.63-.02 1.26.02 1.89.01.31.04.62.07.94.01.16.03.33.08.5.04.17.12.36.22.51.2.3.46.49.63.7.18.21.33.44.46.7.25.51.39 1.09.48 1.69.18 1.2.19 2.43.04 3.62-.07.6-.2 1.18-.34 1.79-.13.61-.28 1.23-.35 1.9-.03.33-.05.68-.03 1.02.01.35.07.7.14 1.02.14.63.28 1.2.22 1.65 0 .03-.01.06-.01.09-.09-.24-.18-.52-.34-.79-.09-.15-.2-.29-.34-.41s-.29-.2-.43-.26c-.3-.11-.59-.14-.87-.16-.54-.02-1.06 0-1.53-.21-.47-.2-.89-.59-1.14-1.1.18.54.55 1.02 1.04 1.32.24.16.52.26.79.32.27.07.54.11.8.16.25.05.49.12.69.23.09.06.18.12.24.2s.11.16.15.26c.08.2.13.46.19.75.06.25.13.54.3.83-.05.11-.1.22-.14.34-.06.17-.12.36-.16.57-.03.21-.04.42-.03.61.02.4.11.75.19 1.06l.12.45c.04.14.07.28.1.42s.06.29.08.43l.07.43c.08.58.11 1.17.11 1.77 0 .34-.01.68-.02 1.03.52.48 1.11.44 1.65.1-.09-.22-.18-.45-.25-.71 0-.15 0-.3-.01-.45-.01-.24-.02-.47-.04-.71.02-.05.03-.1.03-.16 0-.37.05-.74.16-1.04.11-.31.29-.52.55-.62s.62-.08.98-.01c.18.03.41.1.69.03.14-.04.27-.13.36-.24s.15-.22.2-.33c.09-.22.13-.42.19-.6.05-.18.13-.33.23-.41.05-.03.11-.06.19-.06s.17.01.27.01.22.01.34-.04c.12-.04.22-.15.28-.24.06-.1.1-.2.14-.29s.08-.17.14-.24c.11-.15.26-.26.43-.34.34-.17.73-.22 1.11-.25-.39.05-.78.06-1.16.2z"/><path clip-path="url(#a)" d="m81.26 44.74c-.21.18-.47.35-.87.64-.2.14-.66.52-.87.64-.41.23-.61.76-.59 1.26.01.5.2.97.38 1.42.18.46.37.92.63 1.33.61.94 1.64 1.55 2.71 1.6.21.01.42 0 .62-.09.28-.12.48-.38.68-.62.44-.52.93-1 1.29-1.59s.57-1.33.39-2c-.2-.73-.82-1.22-1.35-1.73-.29-.27-.52-.58-.7-.92-.78.44-1.55.42-2.32.06z" opacity=".3"/><path clip-path="url(#a)" d="m89.69 23.51c-.21.29-.41.58-.59.88-.38.6-.72 1.22-1.06 1.85-.33.63-.64 1.27-.92 1.94-.07.17-.14.34-.2.52l-.04.14c-.01.05-.03.1-.04.15-.02.09-.04.18-.05.28-.04.22-.07.44-.1.65-.01-.05-.03-.09-.04-.14-.09-.27-.2-.5-.27-.74-.07-.23-.08-.48-.07-.74s.04-.53.05-.79l.06-.8.03-.4c.01-.13.04-.26.06-.39.04-.26.09-.52.14-.79.2-1.05.41-2.09.64-3.13.11-.52.23-1.04.35-1.56.06-.26.13-.52.2-.77.03-.13.07-.26.11-.38.04-.13.08-.25.14-.37-.06.11-.11.24-.15.37s-.08.25-.12.38c-.07.25-.14.51-.21.77-.14.51-.26 1.03-.39 1.55-.25 1.04-.48 2.07-.7 3.12-.05.26-.11.52-.16.78-.02.13-.05.26-.07.4l-.06.4-.12.79c-.04.26-.08.52-.11.8-.03.27-.04.57.02.86s.16.54.22.78c.11.43.12.88.04 1.31-.16.27-.37.52-.61.74-.48.45-1.05.82-1.6 1.28-.47.39-.88.86-1.21 1.39-.06-.25-.12-.49-.18-.71-.07-.29-.12-.55-.14-.83s-.02-.56 0-.85c.04-.58.14-1.18.25-1.79s.22-1.26.27-1.9c.1-1.29.03-2.59-.21-3.85-.08-.43-.2-.86-.36-1.28.05-.99.11-1.97.32-2.92.11-.48.26-.96.37-1.45s.17-1.01.1-1.51c.03.5-.08 1-.22 1.47-.15.47-.34.93-.49 1.41-.23.71-.37 1.44-.48 2.17-.13-.2-.27-.38-.43-.55-.23-.24-.47-.41-.62-.61-.15-.19-.2-.45-.24-.75-.04-.31-.08-.62-.14-.93-.1-.62-.22-1.23-.39-1.84-.03.63-.02 1.26.02 1.89.01.31.04.62.07.94.01.16.03.33.08.5.04.17.12.36.22.51.2.3.46.49.63.7.18.21.33.44.46.7.25.51.39 1.09.48 1.69.18 1.2.19 2.43.04 3.62-.07.6-.2 1.18-.34 1.79-.13.61-.28 1.23-.35 1.9-.03.33-.05.68-.03 1.02.01.35.07.7.14 1.02.14.63.28 1.2.22 1.65-.01.11-.03.22-.07.33s-.09.23-.14.36c-.12.25-.27.54-.4.89-.06.17-.12.36-.16.57-.03.21-.04.42-.03.61.02.4.11.75.19 1.06l.12.45c.04.14.07.28.1.42s.06.29.08.43l.07.43c.08.58.11 1.17.11 1.77 0 .21 0 .42-.01.63-.09-.05-.19-.08-.29-.11-.24-.06-.47-.06-.69-.03s-.42.08-.61.14-.35.11-.44.09c-.05-.01-.09-.03-.13-.06-.04-.04-.09-.1-.13-.17-.08-.15-.14-.34-.23-.54-.04-.1-.09-.2-.16-.31-.07-.1-.16-.2-.28-.27-.06-.03-.12-.05-.18-.07-.06-.01-.12-.01-.18-.01-.11.01-.21.03-.3.05-.18.03-.3.02-.4-.12-.05-.07-.1-.15-.15-.24s-.12-.19-.19-.26c-.15-.16-.33-.26-.52-.33-.38-.14-.77-.14-1.15-.14.38.04.77.09 1.11.25.17.08.32.19.43.34.06.07.1.15.14.24s.08.19.14.29.16.2.28.24c.12.05.24.05.34.04s.19-.02.27-.01c.08 0 .14.03.19.06.1.07.17.22.23.41.06.18.1.39.19.6.04.11.11.22.2.33.09.1.22.19.36.24.29.08.52 0 .69-.03.36-.07.71-.09.98.01.08.03.15.07.21.12-.07.08-.14.15-.22.22.77.35 1.54.37 2.31-.06-.18-.33-.32-.69-.44-1.1 0-.15 0-.3-.01-.45-.02-.65-.07-1.31-.18-1.96l-.01-.04v-.01c.23-.33.32-.67.38-.96s.11-.55.19-.75c.04-.1.09-.19.15-.26s.15-.14.24-.2c.19-.11.43-.18.69-.23s.53-.09.8-.16.54-.17.79-.32c.49-.3.85-.78 1.04-1.32-.26.5-.67.89-1.14 1.1s-.99.19-1.53.21c-.28.01-.57.04-.87.16-.15.06-.3.14-.43.26s-.25.26-.34.41c-.13.22-.22.45-.29.66l-.13-.44c-.09-.28-.15-.54-.17-.77s0-.41.08-.65.2-.5.33-.82c.06-.16.13-.32.18-.51.05-.18.09-.39.1-.59.01-.15.01-.29 0-.43.35-.7.84-1.31 1.42-1.79.51-.43 1.09-.8 1.62-1.31.22-.21.43-.45.61-.73.06-.04.11-.11.13-.19 0-.01 0-.01 0-.02.18-.32.29-.69.34-1.04.06-.37.09-.73.14-1.08.01-.09.03-.17.04-.25.01-.04.02-.07.03-.11l.03-.12c.05-.16.11-.33.17-.49.26-.65.54-1.3.84-1.94.29-.64.6-1.28.92-1.91.16-.31.33-.63.5-.93.09-.15.18-.3.27-.45.1-.14.2-.29.33-.41-.29.17-.51.46-.72.74z"/><path clip-path="url(#a)" d="m137.07 44.35c-.29.41-.58.56-1.23 1.03-.2.14-.66.52-.87.64-.41.23-.61.76-.59 1.26.01.5.2.97.38 1.42.18.46.37.92.63 1.33.61.94 1.64 1.55 2.71 1.6.21.01.42 0 .62-.09.28-.12.48-.38.68-.62.44-.52.93-1 1.29-1.59s.57-1.33.39-2c-.2-.73-.82-1.22-1.35-1.73-.37-.35-.64-.76-.85-1.23-.52.42-1.24.39-1.81-.02z" opacity=".3"/><path clip-path="url(#a)" d="m143.65 37.42c-.19.07-.37.17-.52.33-.07.08-.14.17-.19.26s-.1.18-.15.24c-.1.14-.22.15-.4.12-.09-.01-.19-.04-.3-.05-.06 0-.12 0-.18.01s-.12.04-.18.07c-.12.07-.21.16-.28.27-.07.1-.12.21-.16.31-.08.2-.15.4-.23.54-.04.08-.08.13-.13.18-.04.03-.09.06-.13.06-.09.02-.25-.03-.44-.09s-.39-.11-.61-.14-.45-.03-.69.03-.47.19-.66.36c-.08.07-.15.15-.21.24-.04-.16-.08-.31-.13-.47l-.14-.44c-.09-.28-.15-.54-.17-.77s0-.41.08-.65.2-.5.33-.82c.06-.16.13-.32.18-.51.05-.18.09-.39.1-.59.03-.4-.02-.77-.09-1.1-.07-.34-.16-.64-.23-.93s-.12-.55-.14-.83-.02-.56-.01-.85c.04-.58.14-1.18.25-1.79s.22-1.26.27-1.9c.05-.65.06-1.29.02-1.94.02-.03.03-.06.05-.09.05-.08.11-.15.18-.22l.05-.05.06-.06.13-.12c.17-.16.34-.32.51-.49.17-.18.33-.37.46-.59.14-.22.25-.44.35-.67.05-.11.09-.23.14-.34.04-.11.09-.22.13-.35.08-.25.12-.5.16-.75.07-.49.1-.95.21-1.38.21-.87.68-1.67 1.33-2.34-.82.41-1.47 1.24-1.77 2.19-.13.41-.18.84-.24 1.23-.04-.13-.08-.25-.13-.37-.12-.29-.22-.54-.24-.82-.03-.28 0-.58.02-.89l.14-1.84c.05-.61.14-1.22.43-1.76-.33.51-.47 1.13-.56 1.74l-.28 1.82c-.05.3-.1.62-.09.95 0 .16.03.34.07.5s.09.31.13.45c.18.54.2 1.11.08 1.64-.01.02-.01.03-.02.05-.09.21-.2.4-.31.58-.12.18-.25.34-.41.49-.15.16-.32.31-.48.47l-.13.12-.04.04c-.04-.35-.09-.7-.16-1.05-.12-.63-.3-1.27-.62-1.86-.14-.25-.3-.49-.5-.71 0-.02.01-.03.01-.05.03-.79.07-1.57.23-2.32.08-.38.19-.76.27-1.15s.13-.8.06-1.19c.02.4-.07.78-.19 1.15s-.28.73-.4 1.11c-.22.65-.34 1.33-.45 1.99-.09-.08-.17-.16-.23-.25-.15-.19-.2-.45-.24-.75-.04-.31-.08-.62-.14-.93-.1-.62-.22-1.23-.39-1.84-.03.63-.02 1.26.02 1.89.01.31.04.62.07.94.01.16.03.33.08.5.04.17.12.36.22.51.2.3.46.49.63.7.18.21.33.44.46.7.25.51.39 1.09.48 1.69.18 1.2.19 2.43.04 3.62-.07.6-.2 1.18-.34 1.79-.13.61-.28 1.23-.35 1.9-.03.33-.05.68-.03 1.02.01.35.07.7.14 1.02.14.63.28 1.2.22 1.65-.01.11-.03.22-.07.33s-.09.23-.14.36c-.01.02-.02.05-.04.08-.07-.19-.15-.39-.27-.59-.09-.15-.2-.29-.34-.41s-.29-.2-.43-.26c-.3-.11-.59-.14-.87-.16-.54-.02-1.06 0-1.53-.21-.47-.2-.89-.59-1.14-1.1.18.54.55 1.02 1.04 1.32.24.16.52.26.79.32.27.07.54.11.8.16.25.05.49.12.69.23.09.06.18.12.24.2s.11.16.15.26c.08.2.13.46.19.75.04.2.1.43.21.66-.02.07-.03.13-.04.2-.03.21-.04.42-.03.61.02.4.11.75.19 1.06l.12.45c.04.14.07.28.1.42s.06.29.08.43l.07.43c.08.58.11 1.17.11 1.77 0 .34-.01.69-.02 1.03-.04.06-.07.11-.11.16.57.41 1.29.44 1.8.02-.11-.24-.2-.51-.29-.79 0-.15 0-.3-.01-.45-.01-.33-.03-.67-.06-1 .02-.05.03-.11.03-.16 0-.37.05-.73.16-1.04s.29-.52.55-.62.62-.08.98-.01c.18.03.41.1.69.03.14-.04.27-.13.36-.24s.15-.22.2-.33c.09-.22.13-.42.19-.6.05-.18.13-.33.23-.41.05-.03.11-.06.19-.06s.17.01.27.01.22.01.34-.04c.12-.04.22-.15.28-.24.06-.1.1-.2.14-.29s.08-.17.14-.24c.11-.15.26-.26.43-.34.34-.17.73-.22 1.11-.25-.39.04-.78.05-1.16.18z"/></g><path clip-path="url(#a)" d="m45.18 17.46c-.08.4-.13.79-.2 1.16-.05-.22-.12-.44-.22-.65-.14-.34-.28-.65-.3-.99-.04-.34 0-.7.03-1.06l.2-2.18c.07-.72.19-1.45.56-2.08-.42.61-.58 1.35-.7 2.06l-.34 2.16c-.06.36-.12.73-.1 1.12.01.19.04.39.09.58s.11.36.17.53c.22.6.26 1.24.14 1.84-.19.3-.43.58-.71.82-.46.41-.99.77-1.52 1.15s-1.08.79-1.52 1.31c-.18.2-.34.4-.49.62v-.01c.14-.73.28-1.48.35-2.24.13-1.52.05-3.05-.25-4.54-.11-.51-.24-1.02-.44-1.51.08-1.18.16-2.35.44-3.49.14-.57.34-1.14.48-1.72s.23-1.19.13-1.78c.05.6-.09 1.18-.27 1.74-.19.56-.42 1.11-.62 1.68-.3.88-.47 1.79-.61 2.7-.17-.27-.38-.53-.61-.75-.29-.28-.59-.48-.78-.73-.19-.23-.27-.55-.32-.92-.05-.36-.1-.73-.17-1.1-.12-.73-.26-1.46-.45-2.19-.02.75.01 1.49.06 2.23.02.37.06.74.09 1.11.02.19.04.38.1.59.05.2.15.41.27.58.25.35.57.57.8.82s.44.53.59.84c.32.61.5 1.31.62 2.02.23 1.43.25 2.89.07 4.32-.09.72-.25 1.41-.42 2.13s-.35 1.46-.43 2.24c-.04.39-.06.79-.04 1.2.02.4.09.82.18 1.19.17.75.37 1.42.29 1.99-.02.14-.04.27-.1.42-.05.14-.11.29-.19.44-.15.31-.34.64-.5 1.04-.08.2-.15.42-.19.66s-.05.47-.04.7c.03.45.13.86.24 1.23l.03.11c-.09-.04-.19-.07-.28-.09-.29-.07-.58-.07-.85-.04s-.52.09-.77.15c-.24.07-.45.13-.59.1-.07-.01-.13-.05-.19-.09-.06-.05-.12-.13-.17-.22-.1-.18-.18-.42-.29-.65-.05-.12-.11-.24-.19-.36s-.2-.23-.34-.31c-.07-.03-.15-.06-.22-.08-.08-.01-.15-.02-.22-.01-.14.01-.26.03-.38.05-.23.04-.4.01-.53-.16-.07-.08-.12-.19-.19-.29-.06-.11-.14-.22-.24-.31-.18-.19-.41-.31-.65-.39-.48-.14-.97-.15-1.46-.15.48.04.98.1 1.41.29.22.1.41.23.56.4.07.09.13.18.18.29s.1.22.18.34c.07.11.19.23.34.28s.29.05.42.04.25-.02.35-.02c.05 0 .1.01.14.02s.08.03.12.05c.14.09.24.28.31.5.08.22.13.46.24.71.06.13.13.26.24.38.12.12.27.22.44.26s.33.04.47.02.27-.04.38-.06c.46-.08.92-.12 1.28 0 .35.12.61.39.76.77.15.37.21.82.22 1.26v.05c.01.05.02.1.04.14.03.41.05.82.05 1.23 0 .33-.01.65-.02.98-.04.07-.08.13-.12.2.69.38 1.45.76 2.14.33-.22-.45-.4-.95-.54-1.52v-.01c-.02-.77-.09-1.54-.22-2.31-.03-.19-.07-.38-.11-.58-.05-.19-.09-.38-.14-.57s-.1-.38-.16-.56l-.17-.53c-.11-.34-.19-.65-.22-.94s0-.52.11-.82c.1-.29.27-.61.43-.97.02-.05.04-.1.06-.15.21-.33.31-.67.39-.97.08-.34.15-.65.26-.9.06-.13.13-.23.21-.32.09-.09.2-.17.33-.24.26-.13.57-.21.89-.27.33-.06.67-.1 1.01-.18s.69-.19.99-.37c.62-.35 1.09-.91 1.33-1.55-.32.6-.84 1.07-1.44 1.32-.6.26-1.26.24-1.95.28-.35.02-.71.06-1.08.19-.18.07-.37.17-.53.3-.09.07-.17.15-.24.24-.08-.36-.18-.69-.26-1.01-.09-.35-.16-.67-.18-1-.03-.33-.03-.68 0-1.03.01-.15.03-.3.05-.45.05-.12.11-.24.17-.36.28-.56.64-1.07 1.06-1.53s.9-.84 1.43-1.21c.52-.37 1.07-.74 1.57-1.21.25-.23.49-.49.69-.78.07-.04.12-.11.14-.19 0-.01 0-.02.01-.04.13-.22.24-.46.31-.71.2-.67.22-1.34.33-1.95.06-.3.13-.6.25-.89.1-.29.24-.57.4-.84.31-.54.72-1.04 1.2-1.48-1.2.57-2.08 1.77-2.35 3.11z" fill="#ffc807"/><g clip-path="url(#a)" fill="#ffc807" opacity=".3"><path d="m39.03 40.13c-.44.68-.78.82-1.73 1.46-.25.17-.84.61-1.11.75-.52.27-.77.91-.76 1.49.02.59.25 1.15.49 1.69.23.54.47 1.09.8 1.57.77 1.12 2.09 1.84 3.45 1.9.27.01.54 0 .79-.1.35-.15.61-.45.87-.73.56-.62 1.19-1.19 1.64-1.88.46-.7.73-1.57.49-2.37-.26-.87-1.04-1.45-1.72-2.05-.46-.4-.79-.86-1.06-1.4-.71.43-1.47.05-2.15-.33z"/><path d="m57.76 22.74c-.22.23-.42.47-.63.71-.2.24-.41.43-.67.53-.27.1-.62.14-.99.23-.3.07-.59.18-.85.3.28-.69.54-1.4.68-2.12.09-.47.13-.94.22-1.4s.24-.92.54-1.32c-.34.38-.54.84-.68 1.3s-.22.93-.35 1.38c-.26.9-.72 1.75-1.17 2.61-.39.27-.73.58-1.05.9-.92.93-1.67 1.98-2.23 3.09-.28.56-.5 1.14-.7 1.7-.04-.2-.08-.41-.15-.61-.16-.52-.43-1.02-.72-1.47-.28-.46-.58-.9-.79-1.36-.13-.28-.21-.56-.24-.84.16-.47.48-.9.94-1.24.12-.1.26-.2.38-.31.13-.11.24-.24.33-.38.18-.27.3-.55.41-.82l.67-1.64c.22-.55.4-1.13.32-1.71.04.58-.19 1.14-.45 1.67l-.8 1.6c-.13.27-.26.53-.44.75-.17.23-.42.39-.7.58-.17.11-.33.24-.47.38.11-.29.24-.58.35-.89.36-1.04.14-2.2-.61-3.04.22.49.34.98.36 1.48.01.25 0 .49-.04.74-.03.24-.1.48-.19.72-.17.47-.46.94-.58 1.49-.05.2-.06.41-.05.61 0 .01-.01.02-.01.03v.01c-.02.06 0 .12.04.17.04.28.13.55.24.8.22.51.52.97.8 1.42s.53.9.68 1.38c.15.47.23.97.22 1.46 0 .11-.01.21-.02.31-.05.11-.1.22-.16.33-.13.25-.28.49-.46.72-.17.23-.37.43-.6.64-.21.19-.45.39-.67.61-.02-.09-.06-.17-.1-.26-.08-.15-.2-.29-.32-.4-.25-.23-.55-.39-.84-.53-.57-.28-1.14-.51-1.54-.91-.4-.39-.64-.92-.64-1.45-.08.53.08 1.1.45 1.57.18.24.43.44.68.62.26.18.53.34.78.5s.48.33.64.51c.08.09.14.19.17.29s.05.2.04.31c-.01.22-.1.46-.17.73-.07.24-.14.51-.1.82 0 .04-.01.09-.01.13-.02.32-.02.6-.06.84-.04.25-.12.42-.27.62-.15.19-.36.38-.6.58l-.38.31c-.13.11-.26.22-.39.34s-.25.23-.37.35-.23.24-.35.36c-.45.49-.85 1.01-1.21 1.54-.72 1.06-1.29 2.16-1.85 3.24 0 0 0 .01-.01.01-.15.32.03.67.42.8.32.1.67.02.87-.19.67.52 1.44.94 2.28 1.24.59.22 1.22.37 1.85.46.16.02.3.04.42.07s.2.06.27.12c.14.11.18.34.19.58l.01.38c0 .07.01.14.02.21s.03.14.04.21c.08.27.21.52.39.75.35.45.81.82 1.29 1.15s.97.63 1.41.99c.43.35.81.77.98 1.27-.13-.5-.48-.95-.89-1.33-.41-.39-.89-.72-1.34-1.07-.44-.35-.86-.72-1.14-1.15-.14-.21-.24-.44-.28-.67-.01-.06-.02-.11-.02-.17-.01-.06-.01-.12-.01-.18l.02-.38c0-.13 0-.27-.02-.42-.03-.15-.09-.31-.23-.45-.06-.07-.15-.13-.23-.18-.09-.05-.18-.08-.27-.11-.18-.05-.34-.07-.48-.1-.55-.11-1.07-.27-1.57-.48.16-.1.31-.21.45-.34.12-.11.22-.23.31-.3.09-.08.16-.1.25-.09.04 0 .09.02.14.05s.1.07.16.12c.1.09.21.2.33.31.06.05.14.1.22.15.04.02.09.04.14.06.05.01.11.03.16.02.11.01.22-.02.31-.06s.16-.09.22-.14c.12-.1.22-.2.34-.26.11-.06.24-.07.39-.04s.3.08.47.11.35.04.52.01c.34-.06.63-.19.93-.3s.62-.19.95-.13c-.32-.09-.66-.02-.97.07s-.61.2-.93.24c-.16.02-.31.01-.45-.03-.15-.04-.29-.1-.46-.14-.08-.02-.18-.04-.28-.03-.1 0-.2.03-.29.06-.17.08-.29.19-.4.27-.24.18-.44.15-.63-.05-.1-.09-.19-.2-.3-.32-.06-.06-.12-.11-.19-.17-.08-.05-.18-.11-.3-.13-.06-.02-.12-.02-.18-.01-.06 0-.12.01-.18.03-.11.03-.21.09-.28.14s-.13.11-.19.16-.1.09-.16.14c-.19.15-.4.27-.63.37-.66-.33-1.26-.75-1.75-1.23.43-.88.88-1.75 1.4-2.57.18-.29.38-.57.59-.84.05-.03.09-.07.12-.12.21-.31.45-.6.75-.8.3-.21.63-.31.99-.26.36.04.73.24 1.09.47.09.06.18.12.3.18.11.06.25.13.41.16s.34.02.49-.02.27-.11.37-.18c.21-.14.36-.29.52-.41.16-.13.32-.22.48-.24.04 0 .08 0 .12.01s.08.02.13.04c.09.04.18.09.29.14s.23.11.38.12c.15.02.3-.02.41-.07.12-.05.21-.12.3-.17.09-.06.18-.1.28-.13.2-.07.43-.09.65-.08.46.02.9.16 1.33.31-.41-.18-.84-.35-1.32-.41-.24-.03-.49-.03-.73.04-.12.03-.24.08-.34.13s-.2.1-.29.14c-.19.07-.34.03-.52-.08-.09-.05-.18-.12-.3-.17-.06-.03-.12-.05-.19-.07s-.15-.02-.22-.03c-.15 0-.3.04-.42.09s-.23.12-.32.18c-.19.13-.36.26-.53.35-.08.05-.17.08-.24.09s-.14.01-.2 0c-.13-.03-.28-.15-.46-.29s-.37-.27-.58-.39c-.22-.12-.46-.22-.74-.28-.09-.02-.19-.03-.28-.04l.08-.07c.25-.22.52-.47.75-.78.11-.15.21-.32.28-.51.07-.18.11-.36.13-.53.04-.34.03-.65.04-.92 0-.14.01-.26.04-.38.02-.12.05-.22.1-.33.19-.43.66-.83 1.13-1.29.24-.23.48-.49.68-.77s.36-.56.5-.85c.28-.58.45-1.16.63-1.73.17-.57.35-1.12.59-1.65.48-1.07 1.14-2.09 1.97-3.01.41-.45.88-.88 1.42-1.19.27-.16.57-.28.88-.37s.68-.13 1.05-.28c.19-.07.36-.19.49-.31.14-.12.24-.25.34-.38.19-.25.39-.49.57-.75.37-.5.73-1.01 1.04-1.54-.52.4-.96.87-1.39 1.33z"/><path d="m29.93 40.22c-.6-.32-1.14-.73-1.57-1.25-.42-.53-.73-1.15-.98-1.81s-.45-1.34-.69-2.02-.51-1.35-.81-1.99c-.61-1.3-1.36-2.53-2.22-3.67.8 1.18 1.48 2.44 2.02 3.75.27.66.5 1.33.7 2.01s.37 1.38.59 2.06c.23.69.52 1.38.96 1.99s1.04 1.11 1.68 1.49c.65.38 1.34.65 2.04.86.69.21 1.4.37 2.09.52.8.88 1.75 1.53 2.65 2.15.02.01.03.02.05.03.37.21.85.08 1.06-.29s.08-.85-.29-1.06c-.97-.55-1.91-1.11-2.64-1.83-.36-.36-.67-.76-.87-1.19-.1-.22-.18-.44-.24-.69s-.1-.52-.14-.8-.09-.58-.16-.88c-.08-.3-.18-.6-.31-.88-.26-.56-.59-1.07-.97-1.53s-.79-.87-1.21-1.26c-.1-.09-.2-.19-.3-.28.33-1.22.51-2.47.56-3.73.02-.66.01-1.31-.04-1.96s-.12-1.29-.01-1.9c.06-.3.16-.6.32-.86.16-.27.36-.52.56-.78.19-.27.37-.56.47-.88.09-.33.11-.66.08-.99-.05-.66-.26-1.28-.35-1.92-.04-.32-.06-.64-.01-.96.04-.32.16-.63.36-.88-.21.25-.34.56-.4.88s-.06.65-.02.98c.06.65.25 1.28.28 1.92.01.32-.01.64-.11.93s-.27.56-.47.81-.41.5-.6.78-.32.61-.39.94c-.14.66-.09 1.33-.07 1.98.03.64.02 1.28-.03 1.92-.08 1.12-.28 2.24-.59 3.31-.15-.15-.3-.3-.46-.45-.4-.4-.8-.81-1.2-1.21-.2-.2-.41-.4-.62-.59-.2-.18-.35-.4-.49-.64-.27-.48-.48-1-.66-1.54-.18-.53-.34-1.07-.48-1.62-.28-1.1-.5-2.21-.66-3.33-.08-.56-.14-1.12-.18-1.69-.02-.28-.03-.57-.02-.85s.02-.57.12-.84c-.1.27-.12.55-.14.84-.01.28-.01.57 0 .85.02.57.07 1.13.13 1.7.13 1.13.32 2.25.57 3.36.13.56.27 1.11.44 1.65s.37 1.09.64 1.6c.07.13.14.26.23.38.04.06.09.12.14.18s.1.12.15.17c.19.21.38.42.56.63.37.43.73.86 1.1 1.29s.75.86 1.14 1.28c.38.41.74.83 1.05 1.27s.57.91.75 1.4c.09.24.15.49.19.74s.06.52.08.8.04.58.09.89.13.63.25.94c.1.26.23.51.37.75-.39-.07-.77-.15-1.14-.24-.67-.2-1.33-.43-1.93-.74z"/><path d="m41.42 58.48c.12-.33.23-.68.32-1.04.08-.36.13-.76.12-1.14-.02-.76-.19-1.48-.38-2.15-.19-.68-.36-1.31-.46-1.96-.21-1.3-.18-2.63.06-3.91 0-.01 0-.01 0-.02.05-.35-.19-.68-.54-.73s-.68.19-.73.54c-.22 1.44-.18 2.91.1 4.32.27 1.44.91 2.7.98 3.94.02.31 0 .61-.06.92s-.15.62-.25.94c-.2.64-.46 1.31-.57 2.06-.05.37-.06.76-.01 1.14s.16.73.28 1.07c.24.68.55 1.29.74 1.91.2.62.24 1.27.23 1.95s-.05 1.37-.07 2.06l-.15 4.13-.3 8.26.62-8.25.31-4.12c.05-.69.11-1.37.15-2.07.02-.35.03-.71 0-1.07-.02-.36-.08-.73-.17-1.08-.19-.7-.48-1.34-.67-1.97-.1-.31-.17-.63-.21-.93-.03-.31-.01-.61.04-.92.12-.6.38-1.22.62-1.88z"/><path d="m39.04 45.21c-.02-.35-.32-.63-.67-.61h-.01c-.5.02-.96.21-1.33.44s-.67.5-.95.76-.53.52-.79.74-.51.42-.78.54c-.07.03-.13.06-.2.08s-.14.03-.21.05c-.14.02-.29.03-.44.02-.31-.02-.64-.11-.99-.2-.34-.15-.68-.21-.97-.3-.18-.05-.36-.12-.49-.21-.14-.09-.24-.22-.33-.38s-.16-.35-.25-.55c-.09-.19-.21-.4-.37-.56-.33-.33-.75-.5-1.16-.59-.84-.18-1.67-.01-2.45-.19-.19-.04-.39-.1-.5-.25s-.15-.37-.24-.55c-.17-.38-.42-.71-.73-.98.29.29.52.63.67 1.01.04.09.07.19.09.29.03.1.06.2.12.3s.15.17.25.22.2.08.3.11c.81.23 1.67.12 2.42.33.38.1.73.28.97.55s.31.65.5 1.06c.05.1.11.21.18.3.03.04.06.07.09.1-.14.01-.27.02-.4.04-.78.12-1.49.43-2.15.79s-1.27.78-1.88 1.18l-3.66 2.44 3.83-2.17c.64-.36 1.27-.73 1.92-1.03s1.33-.53 2.01-.58c.34-.03.67-.01 1 .06.32.07.65.19 1 .32s.72.26 1.14.32c.21.03.43.04.66.01l.33-.06c.11-.03.21-.07.32-.1.41-.16.76-.39 1.07-.62.31-.24.6-.48.87-.71.27-.22.54-.42.81-.56.26-.14.51-.2.75-.2h.05c.34-.01.62-.31.6-.66z"/></g><g clip-path="url(#a)"><path d="m48.93 12.69v12.09" fill="none" stroke="#fff" stroke-linecap="round" stroke-linejoin="round" stroke-width=".25"/><g fill="#fff"><path d="m48.12 12.57h1.62v.25h-1.62z"/><path d="m48.12 24.66h1.62v.25h-1.62z"/></g></g><g clip-path="url(#a)"><text fill="#fff" font-family="'TitilliumWeb-Light'" font-size="2.854" transform="translate(36.0127 34.4589)">°</text></g><path clip-path="url(#a)" d="m118.74 44.25c-.32.48-.59.62-1.29 1.13-.2.14-.66.52-.87.64-.41.23-.61.76-.59 1.26.01.5.2.97.38 1.42.18.46.37.92.63 1.33.61.94 1.64 1.55 2.71 1.6.21.01.42 0 .62-.09.28-.12.48-.38.68-.62.44-.52.93-1 1.29-1.59s.57-1.33.39-2c-.2-.73-.82-1.22-1.35-1.73-.37-.36-.65-.76-.86-1.25-.46.46-1.08.15-1.74-.1z" fill="#83b9f6" opacity=".3"/><path clip-path="url(#a)" d="m126.75 23.51c-.21.29-.41.58-.59.88-.38.6-.72 1.22-1.06 1.85-.33.63-.64 1.27-.92 1.94-.07.17-.14.34-.2.52l-.04.14c-.01.05-.03.1-.04.15-.02.09-.04.18-.05.28-.04.22-.07.44-.1.65-.01-.05-.03-.09-.04-.14-.09-.27-.2-.5-.27-.74-.07-.23-.08-.48-.07-.74s.04-.53.05-.79l.06-.8.03-.4c.01-.13.04-.26.06-.39.04-.26.09-.52.14-.79.2-1.05.41-2.09.64-3.13.11-.52.23-1.04.35-1.56.06-.26.13-.52.2-.77.03-.13.07-.26.11-.38.04-.13.08-.25.14-.37-.06.11-.11.24-.15.37s-.08.25-.12.38c-.07.25-.14.51-.21.77-.14.51-.26 1.03-.39 1.55-.25 1.04-.48 2.07-.7 3.12-.05.26-.11.52-.16.78-.02.13-.05.26-.07.4l-.06.4-.12.79c-.04.26-.08.52-.11.8-.03.27-.04.57.02.86s.16.54.22.78c.11.43.12.88.04 1.31-.16.27-.37.52-.61.74-.48.45-1.05.82-1.6 1.28-.47.39-.88.86-1.21 1.39-.06-.25-.12-.49-.18-.71-.07-.29-.12-.55-.14-.83s-.02-.56 0-.85c.04-.58.14-1.18.25-1.79s.22-1.26.27-1.9c.1-1.29.03-2.59-.21-3.85-.08-.43-.2-.86-.36-1.28.05-.99.11-1.97.32-2.92.11-.48.26-.96.37-1.45s.17-1.01.1-1.51c.03.5-.08 1-.22 1.47-.15.47-.34.93-.49 1.41-.23.71-.37 1.44-.48 2.17-.13-.2-.27-.38-.43-.55-.23-.24-.47-.41-.62-.61-.15-.19-.2-.45-.24-.75-.04-.31-.08-.62-.14-.93-.1-.62-.22-1.23-.39-1.84-.03.63-.02 1.26.02 1.89.01.31.04.62.07.94.01.16.03.33.08.5.04.17.12.36.22.51.2.3.46.49.63.7.18.21.33.44.46.7.25.51.39 1.1.48 1.69.18 1.2.19 2.43.04 3.62-.07.6-.2 1.18-.34 1.79-.13.61-.28 1.23-.35 1.9-.03.33-.05.68-.03 1.02.01.35.07.7.14 1.02.14.63.28 1.2.22 1.65-.01.11-.03.22-.07.33s-.09.23-.14.36c-.03.06-.06.13-.09.19-.07-.18-.14-.38-.26-.57-.09-.15-.2-.29-.34-.41s-.29-.2-.43-.26c-.3-.11-.59-.14-.87-.16-.54-.02-1.06 0-1.53-.21-.47-.2-.89-.59-1.14-1.1.18.54.55 1.02 1.04 1.32.24.16.52.26.79.32.27.07.54.11.8.16.25.05.49.12.69.23.09.06.18.12.24.2s.11.16.15.26c.08.2.13.46.19.75.05.21.11.45.22.69 0 .01 0 .02-.01.04-.03.21-.04.42-.03.61.02.4.11.75.19 1.06l.12.45c.04.14.07.28.1.42s.06.29.08.43l.07.43c.08.58.11 1.17.11 1.77 0 .34-.01.69-.02 1.03-.02.02-.03.04-.05.07.66.25 1.29.55 1.73.1-.11-.24-.2-.5-.28-.78 0-.15 0-.3-.01-.45-.01-.32-.03-.64-.06-.96.02-.14.06-.27.1-.39.11-.31.29-.52.55-.62s.62-.08.98-.01c.18.03.41.1.69.03.14-.04.27-.13.36-.24s.15-.22.2-.33c.09-.22.13-.42.19-.6.05-.18.13-.33.23-.41.05-.03.11-.06.19-.06s.17.01.27.01.22.01.34-.04c.12-.04.22-.15.28-.24.06-.1.1-.2.14-.29s.08-.17.14-.24c.11-.15.26-.26.43-.34.34-.17.73-.22 1.11-.25-.38 0-.77 0-1.15.14-.19.07-.37.17-.52.33-.07.08-.14.17-.19.26s-.1.18-.15.24c-.1.14-.22.15-.4.12-.09-.01-.19-.04-.3-.05-.06 0-.12 0-.18.01s-.12.04-.18.07c-.12.07-.21.16-.28.27-.07.1-.12.21-.16.31-.08.2-.15.4-.23.54-.04.08-.08.13-.13.17-.04.03-.09.06-.13.06-.09.02-.25-.03-.44-.09s-.39-.11-.61-.14-.45-.03-.69.03-.47.19-.65.36l-.02-.12c-.04-.16-.07-.33-.11-.49s-.08-.32-.13-.48l-.14-.44c-.09-.28-.15-.54-.17-.77s0-.41.08-.65.2-.5.33-.82c.06-.16.13-.32.18-.51.05-.18.09-.39.1-.59.01-.15.01-.29 0-.43.35-.7.84-1.31 1.42-1.79.51-.43 1.09-.8 1.62-1.31.22-.21.43-.45.61-.73.06-.04.11-.11.13-.19 0-.01 0-.01 0-.02.18-.32.29-.69.34-1.04.06-.37.09-.73.14-1.08.01-.09.03-.17.04-.25.01-.04.02-.07.03-.11l.03-.12c.05-.16.11-.33.17-.49.26-.65.54-1.3.84-1.94.29-.64.6-1.28.92-1.91.16-.31.33-.63.5-.93.09-.15.18-.3.27-.45.1-.14.2-.29.33-.41-.31.23-.52.52-.73.8z" fill="#83b9f6"/><path d="m34.74 33c0-1.35 1.09-2.44 2.44-2.44.51 0 .98.15 1.37.42" style="fill:none;stroke:#fff;stroke-width:.25;stroke-linecap:round;stroke-linejoin:round;stroke-miterlimit:10;stroke-dasharray:1;clip-path:url(#a)"/><g clip-path="url(#a)"><path d="m89.41 18.98v15.52" fill="none" stroke="#fff" stroke-linecap="round" stroke-linejoin="round" stroke-width=".25"/><g fill="#fff"><path d="m88.59 18.86h1.62v.25h-1.62z"/><path d="m88.59 34.38h1.62v.25h-1.62z"/></g></g><g clip-path="url(#a)"><path d="m126.86 18.79v15.52" fill="none" stroke="#fff" stroke-linecap="round" stroke-linejoin="round" stroke-width=".25"/><g fill="#fff"><path d="m126.04 18.67h1.62v.25h-1.62z"/><path d="m126.04 34.19h1.62v.25h-1.62z"/></g></g><g clip-path="url(#a)"><path d="m143.01 16.98v8.78" fill="none" stroke="#fff" stroke-linecap="round" stroke-linejoin="round" stroke-width=".25"/><g fill="#fff"><path d="m142.2 16.85h1.62v.25h-1.62z"/><path d="m142.2 25.63h1.62v.25h-1.62z"/></g></g><g clip-path="url(#a)"><path d="m133.95 32.84c.96-1.17 2.41-1.91 4.03-1.91 2.88 0 5.22 2.34 5.22 5.22v.07" style="fill:none;stroke:#fff;stroke-width:.25;stroke-linecap:round;stroke-linejoin:round;stroke-dasharray:1 1"/><g fill="#fff"><path d="m135.14 32.77-.99-.17-.56-.83-.42 2.34z"/><path d="m142.32 35.39.87.5.97-.27-1.19 2.06z"/></g></g><text fill="#ffc807" font-family="'TitilliumWeb-Italic'" font-size="4" transform="translate(28.5619 68.7777)">Biological Data</text><text fill="#83b9f6" font-family="'TitilliumWeb-Italic'" font-size="4" transform="translate(94.4619 68.7776)">Reconstruction Data</text><path d="m63.86 35.91h6.57" fill="none" stroke="#ffc807" stroke-miterlimit="10" stroke-width=".5"/><path d="m69.03 37.76.79-1.85-.79-1.86 4.39 1.86z" fill="#ffc807"/></svg>