<svg enable-background="new 0 0 167 74" viewBox="0 0 167 74" xmlns="http://www.w3.org/2000/svg"><g fill="#83b9f6"><path d="m84.27 34.18-1.97-1.21c-.33-.2-.65-.41-.99-.58-.33-.17-.68-.3-1.04-.33-.17-.02-.35-.01-.52.03s-.34.11-.52.18c-.01 0-.13.07-.18.07-.13.05-.26.09-.41.11-.11.02-.22.02-.33.01l-.17-.03c-.06-.01-.11-.04-.16-.05-.42-.18-.71-.49-.99-.74-.14-.12-.28-.24-.42-.32-.06-.03-.11-.06-.17-.08-.11-.04-.24.01-.3.12-.29.47-.72 1.36-1.19 1.84-.19.19-.26.25-.46.26-.1.01-.26-.2-.33-.41-.02-.08-.05-.12-.08-.21-.09-.3-.33-.75-.53-.98-.03-.04-.06-.07-.09-.11-.15-.17-.39-.21-.58-.1-.24.14-.49.26-.75.36-.36.14-.73.24-1.1.3-.19.03-.38.04-.47.08-.04.02-.07.05-.1.09-.02.04-.04.11-.05.19-.02.16 0 .37-.05.6-.05.22-.14.42-.25.59-.23.34-.53.59-.83.82-.3.22-.61.42-.89.66-.27.24-.53.53-.65.9.09-.38.32-.71.58-.98s.56-.51.83-.76.53-.51.7-.82c.08-.15.14-.32.16-.48.02-.15-.01-.34-.01-.56 0-.11.01-.24.07-.37s.16-.25.28-.32c.11-.07.23-.1.32-.12.1-.02.18-.04.26-.06.24-.06.48-.15.71-.25-.05-.04-.1-.09-.14-.14-.08-.09-.15-.18-.19-.22-.05-.05-.08-.05-.13-.05-.04 0-.11.05-.17.12-.07.07-.14.15-.23.23s-.23.15-.38.13-.25-.12-.33-.19c-.08-.08-.14-.14-.21-.17s-.15-.03-.24-.01-.19.06-.3.07c-.11.02-.22.01-.32-.01-.21-.05-.39-.14-.57-.22s-.38-.14-.58-.1c.19-.06.4-.02.6.04.19.06.38.13.57.16.09.01.19.01.28-.02.09-.02.18-.07.28-.1s.22-.06.35-.02.21.12.29.18c.16.13.25.13.37.01.06-.06.12-.14.19-.23.07-.08.16-.19.31-.24.08-.02.16-.03.24-.01s.15.06.2.1c.11.08.18.17.24.22.04.03.08.07.12.09.13.09.29.09.41.01.05-.04.11-.07.16-.11.15-.1.21-.31.14-.49-.11-.3-.24-.78-.16-1.06.05-.17.12-.31.22-.45-.04-.05-.08-.11-.12-.16-.15-.18-.3-.35-.46-.5-.03-.03-.06-.05-.09-.08-.13-.08-.28-.12-.42-.07-.13.04-.25.14-.38.25-.06.06-.15.14-.27.18-.12.03-.25-.01-.33-.05-.17-.1-.29-.22-.4-.19-.06.01-.11.06-.19.12-.04.03-.09.05-.15.06s-.11 0-.15-.02c-.3-.2-.65-.04-.94.12.14-.1.29-.2.45-.26.08-.03.17-.05.26-.05s.19.04.26.06c.08.02.12 0 .18-.05s.12-.13.23-.17.23-.01.31.03c.09.04.16.08.23.11.15.05.19.02.31-.12s.25-.28.44-.37c-.08-.06-.15-.12-.23-.21-.05-.06-.11-.14-.15-.22s-.07-.17-.08-.25c-.04-.16-.04-.29-.06-.39s-.04-.16-.08-.23c-.09-.14-.29-.27-.49-.43-.1-.08-.21-.18-.3-.29s-.17-.22-.24-.34c-.14-.24-.23-.48-.33-.71-.06-.14-.17-.25-.3-.3-.16-.07-.32-.12-.48-.14-.23-.03-.47.02-.63.19-.04.04-.08.09-.12.15-.05.06-.12.13-.2.16-.15.06-.29.05-.42.05-.27 0-.54-.03-.8-.09.27.02.53 0 .79-.04.13-.02.27-.04.36-.1.05-.03.07-.06.11-.12.03-.05.06-.12.11-.19.1-.13.23-.23.37-.29s.29-.1.45-.1c.12 0 .23.01.34.02-.23-.34-.5-.65-.81-.91-.18-.15-.37-.27-.57-.34-.1-.04-.21-.06-.32-.07s-.24-.01-.37-.05c-.14-.04-.26-.14-.34-.23s-.17-.18-.25-.27c-.16-.18-.32-.37-.46-.58.21.13.4.28.58.44.09.08.18.16.27.24s.17.14.26.16.21.02.33.02c.12.01.24.02.36.06-.12-.24-.24-.49-.32-.75-.06-.19-.1-.38-.15-.56-.06-.18-.14-.36-.27-.5.14.12.24.3.32.48s.13.37.21.54c.11.27.27.52.43.76.06.1.15.18.24.24.08.05.16.1.23.15.4.3.76.67 1.05 1.1.05.08.33.57.37.64 0-.05.01-.1.02-.14.03-.23.11-.45.19-.64.08-.2.16-.39.22-.58.07-.25-.02-.52-.22-.68-.03-.03-.07-.05-.11-.07-.09-.06-.21-.12-.3-.22s-.15-.21-.21-.31l-.34-.64c-.11-.21-.22-.45-.22-.69.02.25.14.46.26.66l.39.6c.06.1.13.19.21.27.08.07.17.12.28.17.04.02.08.04.12.07-.04-.08-.08-.16-.12-.24-.2-.42-.16-.95.09-1.3-.09.43-.06.84.12 1.18.09.18.22.35.3.58.08.24.06.5 0 .72s-.14.42-.22.62c-.08.19-.15.38-.18.57s-.04.39-.01.59c0 .02.01.04.01.06.02.04.04.07.06.11.06.09.13.18.2.26s.15.14.24.21.19.13.29.21c.01-.04.02-.07.04-.1.03-.07.08-.13.12-.18.09-.1.19-.17.28-.24.19-.13.37-.24.5-.41s.21-.4.19-.63c.06.23.03.49-.09.71-.11.22-.3.38-.45.54-.08.08-.15.16-.2.24s-.07.15-.06.22.05.15.1.26c.04.09.09.2.1.35v.01c.03.15.05.27.07.36.03.09.05.13.1.19s.13.11.23.17c.09.06.2.13.31.2s.21.16.31.24c.2.17.38.36.55.55.03.04.07.08.1.12.07-.06.13-.12.2-.18.25-.24.53-.73.76-1.25.07-.16.12-.34.14-.51.02-.2.06-.39.12-.59.04-.14.09-.27.15-.39.06-.13.12-.24.16-.33s.06-.16.06-.19-.02-.09-.08-.18-.14-.18-.22-.31c-.04-.06-.08-.14-.12-.22 0-.01-.01-.03-.01-.04-.03-.06-.06-.12-.08-.17-.06-.14-.11-.23-.22-.3-.1-.07-.24-.11-.37-.14-.14-.03-.28-.05-.43-.07-.29-.03-.59-.06-.88-.16-.14-.05-.28-.12-.41-.2s-.24-.19-.33-.32c.1.12.22.21.35.28s.27.12.41.15c.28.06.57.06.87.07.15 0 .3 0 .45.02s.31.04.47.13c.07.03.13.08.18.14.02-.05.03-.1.05-.15.05-.13.1-.24.14-.34s.06-.18.06-.28c.01-.1-.02-.19-.08-.27-.18-.26-.43-.47-.7-.64-.4-.25-.87-.41-1.33-.65-.23-.13-.47-.27-.66-.52-.1-.13-.16-.29-.19-.43-.04-.14-.05-.27-.08-.38-.06-.21-.19-.41-.35-.58-.16-.18-.36-.34-.56-.5.25.03.5.13.72.28.11.08.21.17.31.28.09.11.17.25.22.39.04.11.06.21.08.3.03-.05.06-.11.09-.15.03-.05.07-.1.09-.14s.04-.08.05-.13c.02-.09 0-.21-.01-.33l-.1-.73c-.03-.24-.11-.47-.28-.65.18.15.3.39.36.63l.19.71c.03.12.07.25.06.4 0 .07-.03.16-.05.22-.03.07-.06.12-.09.17-.02.03-.03.05-.04.08-.08.18-.01.39.14.5.09.06.19.12.29.17.21.11.44.2.67.3s.47.21.69.36c.11.07.22.15.32.24-.07-.23-.13-.47-.15-.72-.03-.27-.02-.54.02-.81s.1-.52.21-.77c.03-.07.06-.13.1-.19 0 0 0 0 0-.01-.04-.4-.08-.78-.22-1.14-.07-.18-.16-.36-.23-.54-.07-.19-.12-.4-.07-.6-.02.2.06.39.15.55.09.17.21.32.31.5.16.27.25.57.33.87.03-.03.06-.07.1-.09.1-.08.21-.15.32-.21s.21-.11.3-.16c.08-.06.12-.12.15-.23s.05-.24.09-.36c.06-.24.13-.48.23-.72 0 .26-.02.51-.05.76-.01.13-.03.25-.05.38-.01.07-.04.14-.08.21s-.1.13-.15.17c-.11.09-.22.14-.31.2-.1.06-.19.12-.26.2-.08.07-.14.15-.2.24-.01.04-.03.07-.06.1-.04.07-.07.14-.1.21-.08.21-.13.45-.15.68s-.01.47.02.7c.04.23.1.45.18.68s.18.47.25.74c.03.14.05.28.05.44 0 .15-.03.32-.08.46-.04.14-.09.25-.13.36-.04.1-.06.19-.05.25 0 .03.01.05.02.08s.03.06.06.1c.06.08.14.17.22.28.04.06.09.12.13.2s.08.18.09.29c.02.22-.04.4-.09.54-.01.01-.01.02-.02.04.13-.04.27-.05.39-.06.23 0 .45.04.66.07.1.02.2.03.28.02.09-.02.15-.05.21-.14.06-.08.11-.19.2-.28.1-.09.23-.13.34-.13s.22.03.32.03.18-.03.25-.11c.04-.04.08-.08.12-.12.05-.03.1-.06.15-.08.1-.04.21-.07.32-.08.21-.03.43-.03.64-.03-.21.01-.43.03-.63.08-.21.05-.41.12-.53.3-.04.04-.08.09-.14.12s-.12.04-.17.04c-.11.01-.22-.01-.32 0-.1 0-.18.04-.24.1-.06.07-.1.17-.17.28-.06.11-.19.21-.31.23-.13.03-.24.02-.35.01-.21-.02-.42-.04-.62-.03-.2.02-.39.07-.52.18-.05.04-.08.08-.11.14-.07.23-.1.47-.11.72v.04c0 .24.09.46.22.65.18.25.37.35.78.65.13.09.43.34.57.42.16.09.35.1.52.02.22-.1.42-.22.61-.35.17-.13.32-.27.43-.43.06-.08.1-.17.14-.26s.07-.2.1-.32.06-.25.11-.38.11-.26.18-.38c.14-.24.31-.44.5-.61.17-.16.35-.29.53-.42.1-.07.16-.2.14-.33 0-.04-.01-.07-.01-.07-.07-.54-.07-.8-.02-1.33.03-.28.07-.57.13-.84s.12-.53.1-.78c-.01-.12-.04-.24-.09-.35-.05-.12-.12-.23-.19-.35s-.13-.26-.16-.41-.01-.3.02-.44c.06-.28.19-.53.26-.79.04-.13.06-.27.06-.4 0-.14-.04-.27-.11-.39.08.11.13.25.14.39s0 .28-.03.42c-.06.28-.16.53-.2.8-.02.13-.02.26.01.38s.09.23.16.34.15.22.22.35.12.28.14.43c.04.31-.01.6-.05.87s-.06.54-.07.81c-.01.3.06.83.11 1.1.01.08.1.11.16.07l.45-.34.29-.21.07-.05c.03-.02.05-.03.07-.05.04-.03.08-.07.11-.11.02-.02.03-.05.05-.08.07-.14.11-.29.13-.45l.04-.38.03-.28c.01-.09.02-.18.01-.25s-.05-.14-.1-.21-.11-.15-.15-.25c-.06-.19-.02-.41.1-.55-.09.16-.09.36-.02.51.04.07.1.13.16.19s.14.14.18.25.04.21.04.31l.02.28.01.1c.07-.15.14-.29.2-.45.18-.45.35-.92.48-1.39.07-.24.13-.48.18-.72.02-.12.05-.24.06-.37.01-.12.03-.25 0-.37.04.12.03.25.03.37-.01.13-.02.25-.04.37-.03.25-.08.49-.14.74-.11.49-.25.97-.42 1.43-.09.23-.18.46-.29.69-.02.04-.3.55-.39.65-.04.05-.09.1-.14.14l-.14.12-.27.23-.53.48c-.07.06-.51.43-.55.46-.18.15-.35.3-.5.47s-.28.35-.38.54-.14.38-.19.64c-.03.12-.05.26-.1.4s-.11.27-.18.4c-.02.04-.05.07-.08.11.41-.02.82-.06 1.2-.18.27-.08.52-.21.74-.38.22-.18.4-.42.55-.68s.28-.55.42-.83.3-.56.47-.82c.34-.53.74-1.01 1.17-1.44-.41.46-.77.97-1.08 1.51-.15.27-.29.55-.41.84s-.23.59-.38.88c-.02.04-.04.08-.06.12.03-.02.06-.03.09-.05.12-.07.25-.16.4-.24.14-.08.32-.13.49-.12.17 0 .32.04.46.07.15.03.29.07.43.07s.28-.04.4-.12c.25-.15.46-.42.76-.51-.28.12-.46.4-.71.59-.12.1-.28.16-.44.18s-.31 0-.46-.02-.29-.04-.43-.03-.25.06-.37.13-.23.18-.36.27-.29.19-.48.22c-.02 0-.06.01-.12.07-.06.08-.08.08-.16.16-.24.23-.53.39-.82.5-.59.22-1 .25-1.59.31-.16.06-.41.18-.55.27-.18.12-.36.22-.55.31-.12.06-.19.18-.22.31-.05.25-.15.5-.24.73-.02.05-.02.12-.04.17.14.04.24.08.35.15.19.13.34.27.48.42.28.29.53.57.82.71.14.07.29.1.45.09.05 0 .11-.01.17-.02.04-.01.07-.02.11-.04.13-.08.56-.27.71-.32.09-.03.17-.06.24-.1.06-.04.11-.1.15-.18s.08-.19.13-.3.12-.23.21-.33c.18-.19.41-.28.63-.33.45-.09.87.01 1.27-.08.1-.02.19-.05.25-.13.05-.08.08-.2.13-.3.09-.21.23-.39.39-.54-.15.16-.26.36-.33.57-.04.1-.05.22-.11.33-.07.12-.19.16-.29.2-.42.13-.87.08-1.24.21-.19.06-.36.16-.47.3s-.14.34-.24.58c-.03.07-.07.15-.13.22.05 0 .09.01.13.02.4.07.76.23 1.1.43s.65.43.97.65z" opacity=".3"/><path d="m80.29 56.1c-.29.04-.55-.19-.59-.5-.02-.22.08-.43.24-.54l-.04-.4c-.01-.13-.03-.27-.08-.37-.07-.15-.22-.27-.39-.39-.04-.03-.08-.06-.12-.09-.36-.28-.66-.65-.88-1.07l-.02-.04c-.04-.09-.08-.17-.13-.21-.06-.05-.17-.07-.31-.09l-.54-.06c-.05.41-.01.83.13 1.22.02.07.05.15.08.22.08.22.17.44.19.7.02.25-.03.49-.07.71 0 .02-.01.04-.01.05.09.06.17.16.21.28.1.29-.03.62-.31.74-.27.11-.58-.04-.68-.33s.03-.63.31-.74h.01c.01-.03.01-.07.02-.1.04-.2.08-.39.06-.56-.01-.18-.08-.36-.15-.55-.03-.08-.06-.16-.09-.24-.15-.46-.21-.96-.15-1.45l-.04-.01c-.4-.05-.86-.1-1.27-.31-.19-.1-.36-.23-.49-.38-.04.96-.09 1.85-.13 2.69.17.1.28.3.27.52-.02.32-.26.56-.56.54-.29-.02-.52-.28-.5-.6.01-.23.14-.41.32-.49.03-.62.06-1.26.09-1.94-.01.03-.02.06-.03.09-.06.16-.13.33-.22.48-.13.22-.3.38-.47.54-.18.17-.36.34-.44.54-.03.07-.05.15-.07.24-.05.18-.1.37-.24.54-.19.23-.45.3-.68.36-.04.01-.09.02-.13.04.01.08 0 .16-.03.24-.1.3-.4.45-.68.35-.28-.11-.42-.43-.32-.73s.4-.45.68-.35c.03.01.06.03.09.05.09-.03.19-.06.27-.08.19-.05.35-.09.44-.21.07-.08.1-.21.14-.35.03-.1.06-.2.1-.31.13-.31.35-.51.56-.71.01-.01.03-.03.04-.04-.26-.02-.58.11-.97.39-.05.03-.09.07-.14.11-.37.27-.78.57-1.27.6-.16.01-.31-.01-.46-.03-.13-.02-.26-.03-.38-.03-.02 0-.03.01-.05.01-.01.12-.06.24-.14.34-.2.23-.54.24-.75.02s-.22-.58-.02-.81c.2-.22.52-.23.73-.03.06-.02.13-.03.19-.03.16-.01.32.01.46.03.13.02.26.03.37.03.36-.02.69-.26 1.03-.52.05-.04.1-.07.15-.11.61-.44 1.12-.57 1.56-.41.01 0 .02.01.03.02.06-.11.11-.24.16-.37.11-.28.24-.6.51-.79.01-.3.03-.6.04-.91l.18-4.53.04-1.13c.01-.37.01-.73-.05-1.06-.05-.33-.18-.66-.31-1.01s-.28-.72-.35-1.13c-.04-.21-.06-.43-.05-.65s.04-.43.09-.63c.09-.4.22-.76.32-1.11.11-.35.18-.68.19-1 0-.33-.05-.67-.14-1.01-.09-.35-.2-.7-.3-1.08s-.17-.77-.22-1.17c-.08-.66-.12-1.36-.05-2.03.06.21.26.48.36.48.19-.01.27-.05.46-.25-.06.56-.07 1.13-.01 1.7.04.36.09.71.18 1.06.08.35.19.71.28 1.1.09.38.15.79.14 1.23-.02.44-.12.84-.24 1.21s-.25.71-.33 1.05c-.04.17-.07.33-.08.49s0 .32.03.48c.1.66.49 1.33.62 2.16.06.41.05.81.03 1.2l-.04 1.12-.26 4.52v.09c.02.03.04.07.04.11.04.37.34.65.61.79.34.17.73.22 1.12.26l1.05.12c.16.02.37.04.55.19.12.11.19.24.25.36l.02.04c.18.35.44.67.74.9.04.03.08.06.11.09.2.15.42.31.54.58.08.18.1.37.12.53l.04.4c.18.07.32.25.35.47.03.33-.18.61-.47.65z"/><path d="m103 56.1c-.29.04-.55-.19-.59-.5-.02-.22.08-.43.24-.54l-.04-.4c-.01-.13-.03-.27-.07-.37-.07-.15-.23-.27-.39-.39-.04-.03-.08-.06-.12-.09-.36-.28-.66-.65-.88-1.07l-.02-.04c-.04-.08-.08-.17-.13-.21-.07-.06-.2-.07-.31-.09l-.54-.06c-.05.41-.01.83.13 1.22.02.07.05.15.08.22.08.22.17.44.19.7.02.25-.03.49-.07.71 0 .02-.01.04-.01.05.09.06.17.16.21.28.1.29-.03.62-.31.74-.27.11-.58-.04-.68-.33s.03-.63.31-.74c.01-.03.01-.07.02-.1.04-.2.08-.39.06-.56-.01-.18-.08-.36-.15-.55-.03-.08-.06-.16-.09-.24-.16-.46-.21-.96-.15-1.45l-.04-.01c-.4-.05-.86-.1-1.27-.31-.19-.1-.36-.23-.49-.38-.05.98-.09 1.86-.13 2.69.17.1.28.3.27.52-.02.32-.26.56-.56.54-.29-.02-.52-.28-.5-.6.01-.23.14-.41.32-.49.03-.61.06-1.25.09-1.94-.01.03-.02.06-.03.09-.06.16-.13.33-.22.48-.13.22-.3.38-.47.54-.18.17-.36.34-.44.54-.03.07-.05.15-.07.24-.05.18-.1.37-.24.54-.19.23-.45.3-.68.36-.04.01-.09.02-.13.04.01.08 0 .16-.03.24-.1.3-.4.45-.68.35-.27-.11-.42-.43-.32-.73s.4-.45.68-.35c.03.01.06.03.09.05.09-.03.18-.06.27-.08.19-.05.35-.09.44-.21.07-.08.1-.21.14-.35.03-.1.05-.2.1-.31.13-.31.35-.51.56-.71.01-.01.03-.03.04-.04-.26-.02-.58.11-.97.39-.05.03-.09.07-.14.11-.37.27-.78.57-1.27.6-.16.01-.31-.01-.46-.03-.13-.02-.26-.03-.38-.02-.02 0-.03 0-.05.01-.01.12-.06.24-.14.34-.2.23-.54.24-.75.02s-.22-.58-.02-.81c.2-.22.52-.23.73-.03.06-.02.13-.03.19-.03.16-.01.31.01.46.03.13.02.26.03.37.03.36-.02.69-.26 1.04-.52.05-.04.1-.07.15-.11.61-.44 1.12-.57 1.56-.41.01 0 .02.01.03.02.06-.11.11-.24.16-.37.11-.28.24-.6.51-.79.01-.3.03-.6.04-.91l.18-4.53.04-1.13c.01-.37.01-.73-.05-1.06-.05-.33-.17-.66-.31-1.01-.13-.35-.27-.72-.35-1.13-.04-.21-.06-.43-.05-.65s.04-.43.09-.63c.09-.4.22-.76.32-1.11.11-.35.18-.68.19-1 0-.33-.05-.67-.14-1.01-.08-.35-.2-.7-.29-1.08-.1-.38-.17-.77-.22-1.17-.04-.3-.06-.6-.06-.9.18.29.27.3.48.31.04 0 .29-.13.3-.25 0 .25.01.5.04.75.04.36.09.71.18 1.06.08.35.19.71.28 1.1.09.38.15.79.14 1.23-.02.44-.12.84-.24 1.21s-.25.71-.33 1.05c-.04.17-.07.33-.08.49s0 .32.03.48c.1.66.49 1.33.62 2.16.06.41.05.81.03 1.2l-.06 1.1-.26 4.52v.09c.02.03.04.07.04.11.04.37.34.65.61.79.34.17.73.22 1.12.26l1.05.12c.16.02.37.04.55.19.12.11.19.24.25.36l.02.04c.18.35.44.66.74.9.04.03.08.06.11.09.2.15.42.31.55.58.08.18.1.37.12.53l.04.4c.18.07.32.25.35.47.02.33-.19.61-.48.65z"/><path d="m110.16 26.69c-1.09-.29-2.26-.16-3.26.35-.25.13-.51.26-.78.37-.14.05-.28.09-.43.11s-.3.02-.44.01c-.29-.02-.57-.08-.84-.1-.02 0-.6 0-.81.03-.54.08-1.06.28-1.52.57-.12.07-.23.15-.34.24-.11.08-.23.2-.42.26-.1.03-.2.03-.29.02s-.17-.03-.24-.05c-.14-.04-.24-.06-.36-.07-.11 0-.69.2-.7.2-.22.13-.41.3-.58.5 0 0-.01.01-.01.03-.02.08-.01.17.01.26.03.12.04.22.11.46.09.31.16.94.12 1.42-.01.11.03.21.1.29.28.28.51.61.72.92.17.25.35.5.54.72.01.01.03.01.04.02.01 0 .01.01.02.01.16.1.35.15.57.15.21 0 .43-.05.66-.11s.46-.13.69-.18c.23-.06.47-.1.71-.13s.48-.05.72-.06c.24 0 .48-.03.73.05.12.04.23.11.33.19.09.08.18.16.28.22.2.12.44.17.68.14-.23.05-.48.02-.7-.09-.23-.1-.4-.31-.62-.34-.22-.05-.45-.01-.68.02s-.46.07-.69.12-.45.12-.68.19c-.22.07-.44.16-.67.24-.19.06-.38.12-.58.16.06.03.13.06.2.09.17.08.34.16.5.3.16.13.28.36.29.58.02.22-.02.4 0 .58.01.18.04.36.11.54.12.35.33.67.56.95.24.29.5.55.77.8-.28-.23-.57-.47-.82-.75-.25-.27-.49-.58-.64-.95-.08-.18-.13-.38-.15-.58-.03-.2-.01-.4-.04-.57s-.11-.3-.23-.39c-.13-.1-.28-.16-.45-.22s-.34-.11-.52-.21c-.12-.06-.23-.13-.34-.22-.07-.02-.73-.75-.92-.98-.23-.29-.45-.57-.7-.79-.04-.01-.07-.01-.11-.02-.27.11-.66-.02-.88.25-.13.16-.58 1.27-.58 1.45-.01.15-.01.29-.01.44v.01c-.01.12-.22.27-.26.27-.21-.01-.3.04-.52-.33-.2-.33-.57-.54-.88-.78-.17-.13-.4-.06-.48.15-.01.04-.03.08-.04.11-.09.24-.19.51-.35.75-.17.24-.38.43-.6.57s-.45.25-.68.35c-.45.19-.9.36-1.25.67-.09.07-.16.16-.23.25s-.13.21-.22.31c-.08.11-.19.22-.3.29s-.23.13-.35.17c-.24.08-.47.13-.68.22s-.38.25-.5.46-.21.46-.36.68c-.15.21-.33.4-.53.55-.4.3-.85.49-1.3.68.44-.21.88-.43 1.26-.74.19-.16.35-.34.48-.55s.2-.45.32-.69c.06-.12.13-.24.23-.33.09-.1.21-.17.32-.23.23-.12.47-.18.68-.27.11-.04.21-.1.3-.16s.16-.14.23-.24.13-.21.2-.32c.08-.11.16-.22.26-.31.39-.38.86-.57 1.29-.79.14-.07.28-.14.41-.22-.32.04-.64.02-.94-.06-.31-.08-.6-.21-.88-.32s-.56-.2-.84-.2c-.28-.01-.55.12-.86.2s-.62.08-.93.05c-.61-.05-1.2-.19-1.8-.06.59-.17 1.21-.07 1.81-.06.3 0 .6-.02.87-.11.14-.05.28-.11.42-.16.15-.06.31-.1.47-.11.33-.02.64.06.94.15s.58.2.86.25c.32.06.7.11 1.05 0 .27-.09.48-.29.6-.56.04-.09.08-.17.13-.24.01-.01.02-.02.02-.02.08-.24.15-.51.27-.76.07-.15.1-.31.08-.48-.05-.49-.07-1.11-.15-1.31-.1-.26-.51-1.3-.69-1.54-.1-.15-.22-.29-.34-.43-.13-.16-.35-.19-.51-.07-.1.08-.21.15-.32.22-.24.14-.51.25-.79.28s-.55-.02-.81-.08c-.25-.06-.5-.15-.74-.21s-.48-.09-.72-.06c-.24.02-.47.12-.64.31-.09.09-.18.2-.3.27-.11.08-.25.11-.38.12-.26.02-.51-.05-.76-.12.25.05.5.1.75.06.12-.02.24-.06.34-.14.1-.07.17-.18.26-.28.09-.11.2-.2.32-.27s.25-.11.38-.14c.26-.05.53-.04.79 0s.51.11.75.15.48.06.7.02c.41-.08.77-.37 1.12-.69-.21-.24-.73-.81-.76-.87 0 0-.15-.26-.19-.33-.14-.22-.25-.43-.38-.62s-.29-.33-.48-.47-.4-.27-.58-.45c-.07-.07-.14-.14-.2-.21-.18-.19-.39-.34-.64-.39-.03-.01-.07-.01-.1-.02-.23-.04-.46-.05-.7-.05-.24-.01-.48-.01-.73-.05-.24-.04-.48-.12-.7-.26-.21-.14-.38-.33-.57-.49s-.39-.29-.61-.39c-.43-.22-.91-.32-1.39-.31.48-.03.96.06 1.41.26.22.1.44.23.63.38.2.15.37.33.57.45s.42.19.66.22c.23.03.47.03.71.02.24 0 .48-.01.73.02.08.01.15.02.23.04-.24-.3-.47-.6-.77-.82-.18-.14-.4-.24-.6-.37-.1-.07-.2-.15-.28-.25s-.13-.23-.15-.36-.03-.25-.07-.37c-.03-.12-.09-.23-.15-.33-.13-.21-.3-.38-.48-.55.18.16.36.32.51.52.07.1.13.21.17.33s.06.25.09.37.08.23.15.31c.07.09.17.15.27.21.2.11.43.19.63.34.41.28.72.68 1.04 1.04.02.03.39.41.5.5.17.15.37.26.58.39.1.07.21.14.3.22.08.07.15.14.22.22-.02-.08-.04-.15-.05-.23-.05-.25-.08-.5-.11-.75s-.04-.53.02-.81c.03-.14.09-.28.17-.4s.16-.21.22-.3c.03-.04.06-.09.09-.13s.05-.09.07-.14c.04-.1.06-.2.07-.31.04-.45-.11-.92-.31-1.34-.21-.43-.46-.86-.61-1.35-.07-.24-.11-.5-.1-.76s.08-.5.13-.74c.06-.24.11-.48.12-.72s-.03-.49-.09-.72c-.12-.47-.35-.91-.57-1.34.24.42.48.85.62 1.33.07.24.12.49.12.74s-.04.5-.09.75c-.05.24-.1.48-.1.72s.04.47.12.69c.16.45.42.85.65 1.29.12.22.22.45.29.7s.12.51.1.79c-.01.14-.04.27-.08.41-.04.13-.11.26-.19.37-.07.11-.15.2-.2.29s-.08.18-.1.28c-.04.2-.02.43.01.67s.12.47.13.71c.05.92.86 1.87 1.07 2.08l.42.42c.38.4.93.54 1.44.36.06-.02.1-.04.13-.06.22-.16.38-.26.5-.36.29-.23.47-.58.52-.96l.05-.42c.01-.04.01-.08 0-.13v-.02c-.01-.2-.09-.38-.24-.5l-.85-.72-.3-.25c-.1-.09-.21-.18-.3-.31-.09-.12-.16-.29-.17-.45-.02-.15-.01-.29-.01-.42 0-.52-.16-1.04-.43-1.48-.14-.23-.29-.45-.4-.7s-.17-.53-.11-.8c-.04.27.04.54.16.77s.29.43.45.65c.32.43.53.98.57 1.55.01.14.01.27.04.39.02.12.06.2.14.29.07.08.17.15.27.23l.31.23.91.66c.01-.12.03-.24.05-.35.03-.16.07-.32.11-.46.08-.29.13-.55.1-.8-.03-.26-.13-.53-.23-.82s-.21-.6-.22-.96c0-.09.01-.18.02-.27.02-.09.04-.18.08-.26.07-.16.17-.3.26-.42.15-.19.3-.36.4-.55.02-.11.06-.21.1-.31.03-.21.01-.43-.03-.66-.06-.29-.16-.57-.23-.87-.08-.3-.14-.6-.17-.92-.03-.31-.02-.63.06-.94.15-.61.48-1.12.64-1.7s.21-1.19.26-1.8c-.02.61-.04 1.22-.19 1.82-.14.6-.45 1.14-.56 1.72s0 1.18.18 1.75c.09.29.2.57.27.88.02.1.05.21.06.31.07-.07.14-.14.22-.19.1-.07.21-.13.32-.18.22-.1.43-.18.61-.31.09-.07.17-.14.23-.24s.1-.21.12-.32c.05-.23.05-.49.09-.74.02-.13.05-.25.11-.37.05-.12.14-.22.23-.3.18-.17.38-.29.58-.42l.59-.4-.57.43c-.19.14-.39.27-.55.44-.17.16-.26.39-.29.64-.03.24-.02.49-.06.75-.02.13-.06.26-.12.37-.06.12-.15.22-.25.29-.2.16-.42.25-.63.35s-.39.23-.52.41c-.03.04-.05.08-.08.12 0 .12-.02.23-.05.35-.1.34-.32.59-.48.82-.08.12-.15.23-.2.35-.04.12-.06.24-.06.37.01.26.11.52.22.8s.24.57.3.91c.01.09.02.17.02.26s0 .18-.01.26c-.02.17-.05.33-.08.48s-.06.29-.08.43-.04.28-.04.43c-.01.09-.01.17-.01.26 0 .45.13.89.38 1.26.23.34.49.67.72.93.13.15.34.16.49.03s.31-.25.49-.34c.12-.06.26-.12.39-.15.05-.05.1-.1.14-.17.1-.16.16-.36.19-.57.03-.2.02-.43.01-.67s-.02-.48.01-.74c.03-.25.11-.52.25-.74s.33-.39.53-.52.42-.23.63-.3.39-.15.53-.29.25-.34.33-.55c.09-.21.16-.43.26-.65.09-.22.21-.44.39-.61s.41-.25.63-.28c.22-.04.44-.05.65-.08s.43-.09.63-.17c.41-.15.8-.38 1.14-.68-.33.31-.71.56-1.12.74-.21.09-.42.15-.64.2s-.44.07-.65.11c-.21.05-.41.13-.55.28-.15.15-.25.35-.33.56s-.14.44-.23.66c-.08.22-.19.45-.36.64-.04.04-.09.09-.14.13s-.1.07-.15.1c-.11.06-.21.11-.31.15-.2.08-.39.17-.56.3-.17.12-.32.27-.42.45-.1.17-.16.37-.17.59-.02.21 0 .44.02.67s.04.48.02.75c-.02.17-.05.33-.1.5-.02.07.02.15.09.16.1.02.2.05.27.08.13.05.23.07.31.05s.18-.09.3-.18.25-.17.38-.24c.52-.3 1.09-.48 1.66-.54.25-.02.49-.03.74-.01l.39-.37c.16-.15.32-.29.44-.45.06-.08.11-.17.14-.26s.04-.2.05-.31c.02-.22 0-.46.11-.69.05-.11.14-.2.23-.26s.19-.11.29-.15c.2-.08.4-.13.6-.19.4-.1.82-.2 1.16-.47-.33.29-.74.41-1.14.53-.2.06-.4.13-.59.21s-.38.19-.45.38c-.08.18-.06.41-.07.64 0 .12-.01.23-.04.35s-.09.23-.15.33c-.13.2-.29.35-.44.5l-.23.24c.23.04.45.09.67.12.27.04.53.01.79-.07s.51-.21.78-.32c1.04-.53 2.23-.6 3.31-.26z" opacity=".3"/></g><path d="m44.83 15.16c-.28.32-.58.62-.89.9-.15.14-.31.28-.47.42s-.36.29-.59.35-.45.06-.66.08c-.2.01-.4.04-.59.1-.38.1-.74.29-1.08.52-.67.47-1.27 1.04-1.76 1.7-.24.33-.45.67-.63 1.04-.16.31-.32.63-.51.95h.2c.2.01.4.05.58.12s.36.19.48.35c.07.08.11.17.15.23.04.07.08.11.14.14.12.07.3.09.47.12.34.05.68.07 1.03.05-.34.07-.69.11-1.04.11-.18-.01-.35.01-.55-.06-.1-.04-.2-.11-.25-.19-.06-.07-.11-.14-.16-.19-.21-.2-.53-.26-.82-.22-.23.03-.46.1-.69.19-.02.03-.04.05-.06.07-.16.17-.35.32-.53.45-.36.25-.73.45-.95.7-.11.13-.16.23-.2.4s-.06.38-.12.63c-.03.12-.08.25-.15.38s-.16.24-.26.33c-.18.17-.36.29-.54.4.06.02.13.04.19.06.34.13.6.36.83.58.11.11.2.19.31.22s.22.02.36-.04c.13-.05.27-.12.43-.18.08-.03.16-.05.25-.07.09-.01.19-.01.28.02.19.05.31.19.42.26.11.09.23.11.38.07.07-.02.15-.04.22-.06.08-.02.16-.03.24-.04.16-.01.33.02.48.07.31.09.58.24.85.4-.28-.14-.57-.27-.87-.33-.15-.03-.3-.04-.45-.02-.07.01-.15.03-.21.05-.07.02-.14.06-.22.08-.08.03-.17.04-.26.03s-.18-.05-.25-.09c-.15-.09-.26-.19-.38-.2-.12-.03-.25.01-.38.07s-.26.15-.42.22c-.15.07-.35.13-.55.09-.21-.04-.36-.17-.48-.27-.23-.19-.47-.36-.73-.44-.51-.17-1.03.1-1.42.51-.04.04-.09.07-.15.09-.14.13-.28.27-.42.41-.21.22-.42.46-.61.71.11.15.21.31.26.5.16.53-.02 1.12-.33 1.58-.01.01-.02.02-.03.04.25.19.52.36.8.51.16-.07.3-.16.43-.27.09-.07.17-.16.32-.27.07-.05.16-.09.27-.12.1-.02.2-.01.3.01.2.06.31.19.41.29.09.11.17.2.25.27.15.14.27.15.48-.01.1-.07.22-.17.38-.22s.32-.02.45.03c.13.04.25.09.36.12s.23.03.36.02c.25-.03.49-.12.74-.19s.52-.12.77-.04c-.26-.05-.51.02-.75.11s-.48.21-.74.26c-.13.03-.27.04-.42.02-.14-.02-.27-.06-.39-.09s-.22-.03-.31.01-.17.11-.27.2-.23.2-.42.23c-.18.02-.37-.06-.49-.15s-.21-.19-.3-.27-.17-.14-.23-.14-.1 0-.16.06c-.06.05-.14.16-.25.26-.06.06-.12.11-.18.16.3.12.61.22.92.3.11.03.21.05.34.08s.27.06.42.15c.15.08.29.22.36.38s.09.31.09.45c0 .27-.04.49-.01.68.02.19.1.39.2.57.22.37.55.69.9.98.35.3.74.58 1.07.91.34.33.64.72.75 1.18-.15-.45-.49-.79-.84-1.08-.36-.29-.76-.53-1.15-.8s-.77-.57-1.07-.98c-.15-.21-.27-.45-.33-.71-.06-.28-.03-.53-.06-.72-.01-.1-.03-.18-.07-.23-.03-.05-.07-.08-.13-.11-.11-.05-.36-.06-.6-.1-.49-.07-.96-.19-1.43-.36-.48-.17-.94-.4-1.38-.68-.16.17-.32.33-.47.5-.17.19-.44 1.06-.67 1.16-.01.01-.03.02-.04.03-.13.16-.18.81-.34.8-.24-.01-.49-.15-.72-.37-.62-.57-1.19-1.65-1.57-2.23-.04-.06-.08-.13-.12-.2-.16 0-.33.05-.5.14-.18.09-.36.23-.54.38-.37.3-.74.67-1.28.89-.07.02-.13.05-.21.07l-.22.04c-.15.01-.29.01-.43-.01-.19-.03-.36-.07-.53-.13-.05 0-.1-.01-.15-.04-.01-.01-.02-.02-.03-.02-.02 0-.03-.01-.05-.02-.23-.08-.45-.16-.67-.21-.22-.04-.44-.05-.67-.04-.46.04-.91.2-1.34.4-.44.2-.85.45-1.28.69l-2.55 1.45 2.45-1.62c.41-.27.82-.54 1.25-.78s.91-.44 1.43-.52c.06-.01.12-.02.17-.02-.07-.08-.13-.18-.16-.26-.13-.29-.16-.54-.31-.7-.14-.17-.37-.29-.61-.36-.49-.15-1.06-.08-1.61-.24-.13-.04-.29-.1-.38-.24-.08-.14-.09-.27-.14-.4-.09-.25-.24-.48-.43-.68.21.18.38.4.5.65.06.12.09.27.16.36s.19.13.32.15c.52.11 1.06-.01 1.64.1.29.06.58.17.82.4.12.11.21.26.27.39s.11.26.17.36.12.16.2.22c.08.05.19.09.31.12.24.07.54.1.85.28.05.03.09.08.12.13.1.02.2.04.3.05.21.02.4-.02.58-.1.37-.17.7-.51 1.06-.86.18-.17.38-.35.63-.5.14-.09.31-.16.49-.22-.03-.06-.05-.11-.08-.17-.16-.37-.33-.74-.35-1.14-.61-.28-1.23-.58-1.8-1.01-.02 0-.04 0-.06 0h-.02c-.98-.08-1.99-.16-2.95-.52-.48-.17-.94-.43-1.32-.78-.12-.11-.23-.23-.33-.35-.03.01-.05.02-.09.01-.01 0-.01 0-.02 0-.3-.04-.55-.18-.76-.33s-.4-.3-.59-.42c-.2-.12-.39-.19-.62-.2-.22-.02-.46.02-.71.05-.24.03-.5.07-.75.04-.26-.02-.51-.12-.71-.27-.41-.29-.69-.71-1.15-.9.48.15.81.56 1.22.81.2.13.43.2.66.2s.47-.05.71-.1.49-.11.75-.11c.26-.01.55.07.78.19.24.12.44.26.64.38.1.06.19.11.29.14-.07-.12-.14-.24-.2-.36-.23-.45-.41-.9-.61-1.34s-.42-.87-.67-1.29c-.5-.84-1.09-1.62-1.76-2.33.71.68 1.34 1.43 1.89 2.25.27.41.52.83.75 1.27.22.44.43.88.67 1.3.24.41.52.8.88 1.09s.78.5 1.22.64c.71.22 1.45.29 2.21.32-.1-.12-.19-.24-.27-.38-.12-.19-.21-.39-.28-.6s-.11-.41-.15-.6-.08-.37-.13-.53-.11-.32-.2-.47c-.16-.31-.39-.59-.64-.85s-.54-.5-.84-.73c-.08-.06-.15-.12-.23-.18-.01 0-.02 0-.04 0-.12-.02-.21-.11-.24-.21-.14-.11-.27-.22-.4-.33l-.91-.73c-.15-.12-.3-.24-.45-.36l-.11-.09c-.04-.03-.09-.07-.12-.1-.08-.07-.15-.15-.21-.23-.13-.16-.25-.34-.35-.51-.07-.03-.12-.1-.13-.18v-.04c-.05-.09-.09-.18-.14-.27-.17-.35-.32-.71-.46-1.07-.27-.72-.5-1.46-.68-2.21-.09-.38-.17-.75-.22-1.14-.03-.19-.05-.38-.06-.58-.01-.19-.01-.39.04-.57-.05.19-.02.38-.01.57.02.19.05.38.09.57.08.38.18.74.28 1.11.21.73.47 1.46.77 2.16.13.3.26.6.41.88l.01-.32.02-.43c.01-.14.01-.3.06-.46.05-.17.17-.29.27-.39.11-.1.2-.2.27-.31.12-.24.12-.56-.04-.8.19.22.25.55.14.85-.05.15-.15.27-.24.38s-.16.22-.18.34-.01.25.01.4l.04.43.08.87c.01.05-.01.11-.04.15.09.14.19.27.29.4.06.07.12.13.19.19.03.03.06.05.1.08l.12.08c.16.11.32.22.47.34l.93.69c.07.05.14.1.21.15.13-.7.19-1.42.16-2.14-.02-.42-.05-.84-.12-1.26s-.15-.87-.09-1.34c.03-.23.11-.46.22-.66s.25-.37.36-.55c.12-.18.22-.35.27-.55s.05-.4.01-.61c-.06-.42-.24-.82-.34-1.25-.05-.21-.07-.43-.05-.65s.09-.43.22-.61c-.12.18-.18.4-.18.61-.01.22.03.43.09.63.11.41.32.8.41 1.23.05.22.07.45.03.68s-.15.44-.26.63-.23.37-.32.55-.14.37-.15.57c-.03.4.07.81.16 1.23.1.43.16.87.2 1.31.08.85.05 1.7-.08 2.55.06.04.13.09.19.13.33.22.64.46.94.73s.58.58.8.94c.11.18.2.38.28.58.07.2.13.4.18.58s.1.36.16.51c.06.16.14.3.23.43.19.27.44.5.72.71.49.35 1.05.61 1.65.85.07-.08.15-.15.24-.2.18-.09.57-.39.74-.5.71-.48.91-.54 1.26-1.15.03-.39.05-.77.05-1.15 0-.4-.04-.79-.11-1.17-.02-.07-.03-.14-.05-.21-.02-.05-.04-.1-.07-.15-.13-.22-.35-.36-.62-.41s-.56-.02-.85.03c-.15.02-.32.06-.51.01-.09-.02-.18-.07-.25-.13s-.12-.14-.16-.21c-.08-.15-.12-.3-.18-.42-.06-.13-.14-.22-.26-.26s-.27-.01-.43-.01c-.08 0-.17 0-.25-.04-.08-.03-.15-.1-.2-.16-.05-.07-.09-.13-.13-.19s-.09-.11-.14-.16c-.11-.09-.25-.16-.39-.2-.29-.09-.59-.12-.9-.14.3 0 .61.01.91.09.15.04.3.1.43.19.07.05.12.1.17.17.05.06.09.13.13.18.09.11.21.15.36.13.14-.01.3-.06.48-.02.09.02.17.06.24.13.07.06.12.13.16.2.08.14.13.29.2.4.07.12.16.19.27.21s.25-.01.4-.04c.3-.07.62-.13.96-.09.14.01.28.05.41.12-.02-.05-.04-.1-.05-.16-.07-.21-.14-.45-.15-.72 0-.13.01-.28.04-.42.04-.14.09-.25.14-.36.11-.22.23-.39.32-.55.09-.17.15-.3.17-.44.04-.3-.09-.67-.21-1.09-.06-.21-.11-.45-.11-.68-.01-.2 0-.4.02-.59-.02-.04-.02-.07-.02-.12 0 0 0-.01 0-.02.05-.27-.06-.57-.25-.83-.18-.27-.43-.5-.68-.77-.24-.26-.49-.56-.6-.94-.11-.39-.02-.75-.13-1.04-.09-.3-.37-.52-.66-.71s-.61-.36-.88-.6c-.13-.13-.25-.27-.33-.43s-.12-.34-.13-.52c-.03-.36.03-.71.09-1.05-.04.35-.08.7-.04 1.05.02.17.07.34.15.49s.2.28.33.39c.26.22.58.36.89.54.15.09.31.19.45.31s.27.28.34.46c.08.18.09.38.11.55.01.18.03.34.08.49.1.3.32.55.57.79.24.24.53.47.76.77.05.07.1.14.15.22.03-.12.07-.24.1-.36.11-.4.21-.78.27-1.18.11-.79.09-1.61-.08-2.4-.05-.23-.12-.46-.22-.67-.02-.03-.04-.06-.05-.1-.05-.11-.11-.21-.17-.31-.11-.16-.24-.3-.39-.42-.15-.13-.33-.24-.49-.42-.08-.09-.15-.2-.19-.32-.04-.11-.06-.23-.07-.33-.02-.21-.05-.42-.06-.62-.04-.42-.06-.83-.06-1.25.12.4.21.81.29 1.22.04.2.07.41.11.61.03.2.09.36.21.48.12.13.3.23.47.36s.32.28.44.44c.1-.51.22-1.02.43-1.5.13-.31.29-.6.42-.91.13-.3.22-.62.19-.96.07.33.01.67-.08 1s-.22.64-.31.95c-.18.62-.23 1.28-.28 1.94 0 .02-.01.04-.02.06.09.21.16.42.22.64.22.83.28 1.7.19 2.56-.04.41-.12.81-.21 1.2.11-.13.22-.24.34-.36.3-.28.65-.5.98-.69.33-.2.67-.38.96-.59.21-.15.4-.32.54-.51.06-.29.02-.6-.1-.89-.04-.09-.08-.19-.11-.3-.04-.11-.06-.23-.06-.34-.01-.23.04-.44.07-.64l.24-1.2c.08-.4.21-.81.47-1.12-.24.34-.32.74-.36 1.14l-.13 1.21c-.02.2-.04.4-.02.58s.1.33.2.52c.04.07.07.14.1.21.03-.15.06-.32.1-.48.21-.82.87-1.47 1.62-1.7-.29.26-.55.54-.75.84s-.35.63-.42.97c-.08.34-.08.75-.25 1.17-.09.2-.21.4-.36.55-.15.16-.31.29-.47.42-.33.24-.67.44-1 .63-.33.2-.63.39-.9.63s-.51.51-.7.81c-.1.16-.19.33-.26.5-.01.15-.01.3 0 .45.01.18.05.36.11.54.06.19.13.39.19.61.01.04.02.08.03.12.02-.02.03-.04.05-.07.17-.19.4-.3.62-.35s.44-.07.65-.08c.42-.02.84-.02 1.23-.15s.74-.38.97-.75c-.19.38-.53.68-.92.85-.4.18-.84.22-1.25.28-.21.03-.41.06-.59.13-.18.06-.34.16-.44.29-.1.14-.16.32-.22.52-.03.08-.05.16-.09.24-.01.03-.02.06-.03.09-.04.12-.09.23-.15.33-.11.2-.22.37-.29.53-.04.08-.06.15-.08.22s-.02.13-.02.2c.01.15.06.31.13.49s.15.38.22.6c.07.21.12.43.17.64.09.43.14.87.15 1.31.01.23.01.45 0 .68.31.72.75 1.49 1.13 1.82.09.08.18.16.27.24.2-.23.4-.46.62-.67.31-.31.64-.6 1-.87.18-.13.36-.26.56-.37.19-.12.39-.22.56-.31.17-.1.33-.2.45-.3.11-.11.17-.2.22-.36.04-.13.06-.3.11-.49-.01-.13.01-.26.05-.36.03-.11.08-.21.12-.3.09-.18.16-.33.17-.45.02-.12-.04-.25-.14-.38-.11-.13-.24-.25-.39-.37-.29-.24-.62-.48-.84-.82-.22-.33-.31-.75-.2-1.12-.06.38.09.76.33 1.03.24.28.57.45.9.66.16.1.33.21.49.36.08.07.15.16.21.27.06.1.1.23.11.35.06-.04.13-.09.19-.13.19-.12.37-.22.54-.33.12-.07.22-.16.33-.25.02-.09.09-.16.18-.2.01 0 .03-.01.04-.01h.01c.09-.1.18-.21.27-.32.01-.01.01-.02.02-.03.02-.08.04-.16.05-.24.05-.32.04-.65-.02-.96-.11-.64-.53-1.21-.75-1.9-.05-.18-.09-.36-.1-.56 0-.02 0-.05 0-.07s0-.03 0-.05c.01-.15.04-.31.09-.45.15-.36.38-.63.54-.91s.26-.59.29-.91-.02-.66-.12-1c.2.28.33.63.34 1 .02.36-.07.74-.25 1.06-.11.2-.24.38-.34.56.13-.09.27-.17.41-.23.18-.09.36-.16.51-.27s.27-.27.39-.43l.71-.97c.23-.32.46-.67.49-1.08 0 .41-.22.78-.43 1.12l-.65 1.02c-.11.17-.23.34-.39.49-.16.14-.36.23-.53.33-.3.15-.56.38-.72.65-.01.19.02.4.09.6.1.31.25.61.4.93.15.31.29.65.36 1.02.04.19.05.38.05.56.06-.1.12-.2.17-.31.21-.37.45-.75.73-1.09.55-.68 1.2-1.26 1.94-1.72.18-.11.37-.22.57-.3.38-.49.75-.97 1.01-1.52.13-.28.24-.59.38-.88s.32-.56.58-.76c-.24.22-.4.5-.51.79s-.19.6-.31.91c-.18.46-.42.88-.69 1.29.06-.02.12-.04.18-.05.22-.05.44-.08.66-.08.21-.01.42 0 .6-.04s.33-.14.49-.27.33-.26.5-.39c.34-.32.68-.57 1.04-.79z" fill="#ffc807" opacity=".3"/><path d="m36.87 59.41c-.38.04-.72-.23-.76-.6-.03-.27.1-.51.31-.65l-.05-.48c-.02-.16-.04-.32-.1-.44-.09-.18-.29-.32-.5-.47-.05-.04-.11-.07-.16-.11-.47-.34-.86-.78-1.14-1.28l-.03-.05c-.05-.1-.11-.2-.17-.25-.09-.07-.26-.09-.4-.11l-.7-.07c-.06.49-.01 1 .16 1.47.03.09.07.18.1.26.11.26.22.53.24.83.03.3-.03.58-.09.86 0 .02-.01.04-.01.07.12.08.22.19.27.33.13.35-.04.75-.4.88-.35.13-.75-.04-.88-.4-.13-.35.04-.75.4-.88h.01c.01-.04.02-.08.02-.12.05-.24.1-.47.08-.68-.02-.22-.11-.43-.2-.66-.04-.1-.08-.19-.11-.29-.2-.56-.27-1.15-.2-1.74l-.06-.01c-.52-.05-1.11-.12-1.64-.37-.25-.12-.46-.27-.64-.46-.06 1.15-.11 2.23-.17 3.23.22.13.36.36.34.63-.02.38-.34.67-.72.65s-.67-.34-.65-.72c.02-.27.18-.49.42-.59.04-.74.08-1.51.12-2.33-.02.04-.03.07-.04.1-.08.2-.17.4-.29.58-.17.26-.4.46-.61.65-.24.21-.46.4-.57.65-.04.09-.07.18-.1.29-.06.21-.13.45-.31.65-.24.27-.58.36-.88.43-.06.01-.11.03-.17.04.01.09 0 .19-.04.29-.13.36-.52.54-.87.42-.36-.13-.54-.52-.42-.87.13-.36.52-.54.87-.42.04.01.08.03.12.05.12-.04.24-.07.35-.1.24-.06.45-.11.57-.25.09-.1.13-.25.18-.42.03-.12.07-.24.13-.37.16-.36.45-.62.72-.86.02-.02.04-.03.05-.05-.34-.02-.76.13-1.25.47-.06.04-.12.08-.19.13-.47.32-1.01.69-1.65.72-.21.01-.4-.01-.59-.03-.17-.02-.33-.04-.49-.03-.02 0-.04 0-.06.01-.01.15-.07.29-.18.41-.26.27-.7.28-.97.02s-.28-.7-.02-.97c.25-.27.67-.28.94-.04.08-.02.17-.03.25-.04.21-.01.41.01.6.03.17.02.33.04.48.03.47-.03.89-.32 1.34-.62.06-.04.13-.09.19-.13.79-.52 1.45-.68 2.03-.49.02 0 .03.01.04.02.08-.13.14-.28.21-.45.14-.34.31-.72.66-.95.02-.36.04-.72.05-1.1l.23-5.44.06-1.36c.02-.44.01-.87-.06-1.28-.07-.4-.23-.79-.4-1.21s-.36-.86-.45-1.36c-.05-.25-.07-.51-.06-.78.01-.26.06-.51.11-.75.11-.48.28-.91.42-1.33s.23-.82.24-1.2c.01-.39-.07-.8-.18-1.21-.11-.42-.26-.85-.38-1.3-.13-.46-.22-.93-.28-1.4-.07-.56-.1-1.12-.07-1.68.24.22.48.36.72.37.16.01.21-.64.34-.8-.07.66-.08 1.33-.01 1.99.05.43.12.85.23 1.27s.25.86.36 1.32.2.96.18 1.47c-.02.52-.16 1.01-.31 1.45s-.32.85-.42 1.26c-.05.2-.09.4-.1.59s0 .38.03.58c.13.79.63 1.6.8 2.6.08.49.07.98.04 1.44l-.08 1.36-.34 5.43c0 .04 0 .07-.01.11.03.04.05.09.05.14.05.45.44.78.79.95.44.21.95.26 1.45.32l1.36.15c.2.02.49.05.71.23.16.13.25.29.33.43l.03.05c.23.43.56.8.96 1.08.05.04.1.07.15.1.26.17.54.37.71.7.11.22.13.44.16.64l.05.47c.24.09.42.3.45.56.07.4-.2.74-.58.79z" fill="#ffc807"/><path d="m125.26 56.1c-.29.04-.55-.19-.59-.5-.02-.22.08-.43.24-.54l-.04-.4c-.01-.13-.03-.27-.07-.37-.07-.15-.23-.27-.39-.39-.04-.03-.08-.06-.12-.09-.36-.28-.66-.65-.88-1.07l-.02-.04c-.04-.09-.08-.17-.13-.21-.06-.05-.17-.07-.31-.09l-.54-.06c-.05.41-.01.83.13 1.22.02.07.05.15.08.22.08.22.17.44.19.7.02.25-.03.49-.07.71 0 .02-.01.04-.01.05.09.06.17.16.21.28.1.29-.03.62-.31.74-.27.11-.58-.04-.68-.33s.03-.63.31-.74h.01c.01-.03.01-.07.02-.1.04-.2.08-.39.06-.56-.01-.18-.08-.36-.15-.55-.03-.08-.06-.16-.09-.24-.16-.46-.21-.96-.15-1.45l-.04-.01c-.4-.05-.86-.1-1.27-.31-.19-.1-.36-.23-.49-.38-.04.96-.09 1.85-.13 2.69.17.1.28.3.27.52-.02.32-.26.56-.56.54-.29-.02-.52-.28-.5-.6.01-.23.14-.41.32-.49.03-.62.06-1.26.09-1.94-.01.03-.02.06-.03.09-.06.16-.13.33-.22.48-.13.22-.3.38-.47.54-.18.17-.36.34-.44.54-.03.07-.05.15-.07.24-.05.18-.1.37-.24.54-.19.23-.45.3-.68.36-.04.01-.09.02-.13.04.01.08 0 .16-.03.24-.1.3-.4.45-.68.35-.27-.11-.42-.43-.32-.73s.4-.45.68-.35c.03.01.06.03.09.05.09-.03.18-.06.27-.08.19-.05.35-.09.44-.21.07-.08.1-.21.14-.35.03-.1.05-.2.1-.31.13-.31.35-.51.56-.71.01-.01.03-.03.04-.04-.26-.02-.58.11-.97.39-.05.03-.09.07-.14.11-.37.27-.78.57-1.27.6-.16.01-.31-.01-.46-.03-.13-.02-.26-.03-.38-.03-.02 0-.03.01-.05.01-.01.12-.06.24-.14.34-.2.23-.54.24-.75.02s-.22-.58-.02-.81c.2-.22.52-.23.73-.03.06-.02.13-.03.19-.03.16-.01.32.01.46.03.13.02.25.03.37.03.36-.02.69-.26 1.03-.52.05-.04.1-.07.15-.11.61-.44 1.12-.57 1.56-.41.01 0 .02.01.03.02.06-.11.11-.24.16-.37.11-.28.24-.6.51-.79.01-.3.03-.6.04-.91l.18-4.53.04-1.13c.01-.37.01-.73-.05-1.06-.05-.33-.17-.66-.31-1.01-.13-.35-.28-.72-.35-1.13-.04-.21-.06-.43-.05-.65s.04-.43.09-.63c.09-.4.22-.76.32-1.11.11-.35.18-.68.19-1 0-.33-.05-.67-.14-1.01-.08-.35-.2-.7-.3-1.08s-.17-.77-.22-1.17c-.02-.13-.08-.73-.09-.86 0 0 .11.3.19.4.2.22.44-.02.5-.12.1-.15.2-.35.25-.5-.1.35-.12.77-.1.98.04.36.09.71.18 1.06.08.35.19.71.28 1.1.09.38.15.79.14 1.23-.02.44-.12.84-.24 1.21s-.25.71-.33 1.05c-.04.17-.07.33-.08.49s0 .32.03.48c.1.66.49 1.33.62 2.16.06.41.05.81.03 1.2l-.04 1.12-.26 4.52v.09c.02.03.04.07.04.11.04.37.34.65.61.79.34.17.73.22 1.12.26l1.05.12c.16.02.37.04.55.19.12.11.19.24.25.36l.02.04c.18.35.44.67.74.9.04.03.08.06.11.09.2.15.42.31.55.58.08.18.1.37.12.53l.04.4c.18.07.32.25.35.47.01.33-.19.61-.48.65z" fill="#83b9f6"/><path d="m133.53 14.63c-.43-.03-.86-.04-1.28.02-.42.05-.85.19-1.18.47-.04.03-.08.07-.12.11s-.08.08-.12.12c-.07.09-.14.18-.2.27-.13.18-.28.36-.49.47-.2.11-.43.14-.65.14s-.43-.03-.65-.04c-.85-.09-1.71-.21-2.55-.17-.83.04-1.68.26-2.35.78.05.25.08.51.07.77-.02.29-.1.59-.25.84s-.36.45-.58.62-.46.29-.7.41-.48.22-.71.33-.45.24-.67.37c-.43.28-.83.61-1.15 1-.15.17-.27.36-.38.56-.15.28-.21.6-.15.92.05.3.07.61.03.92-.06.48-.24.85-.27 1.19-.04.34.01.71.1 1.08s.22.75.33 1.15.21.84.2 1.31l-.01.18.01.08c.02.14.05.28.09.41.13.42.22.88.54 1.08.06.04.44.12.74.19.12.03.25-.01.35-.09.34-.3.72-.57 1.13-.78.06-.03.11-.06.17-.08.16-.07.29-.18.39-.34.09-.15.16-.31.22-.47.08-.22.12-.45.2-.69.04-.12.09-.24.17-.34s.18-.18.29-.24.22-.09.33-.13l.32-.1.65-.21 1.29-.41-1.27.47-.64.24-.32.12c-.11.04-.21.08-.3.13s-.17.12-.24.21-.1.19-.14.3c-.07.22-.1.47-.17.7-.06.19-.14.38-.24.56.2-.05.41-.08.61-.09.45-.03.89.02 1.31.07.43.06.85.13 1.27.16s.84.03 1.25-.08c.1-.03.2-.07.3-.1l.28-.14c.18-.11.36-.24.53-.38.18-.13.36-.26.56-.36s.42-.14.63-.11c-.21-.02-.43.03-.62.14-.19.1-.36.24-.53.38s-.34.29-.52.42c-.1.06-.19.11-.29.17-.1.04-.21.09-.31.13-.42.14-.87.17-1.3.16s-.86-.05-1.29-.08c-.42-.03-.85-.04-1.25.01-.41.05-.79.17-1.15.39-.68.39-1.24 1.01-1.79 1.64-.03.03-.05.07-.07.1-.01.02-.02.05-.03.07-.03.06-.01.14.03.22l.28.16c.16.09.33.2.49.35s.29.35.36.55c.08.2.12.39.17.57s.1.35.18.49c.03.05.07.11.11.16h.01c.29.11.62-.01.92-.16.31-.15.61-.35.96-.45s.71-.08 1.05-.02.67.18 1 .29c-.33-.09-.67-.19-1.01-.23s-.69-.03-1.01.08-.6.32-.91.5c-.15.09-.32.17-.5.22-.07.02-.14.03-.21.04.25.17.54.27.85.34.34.08.7.13 1.05.25.35.11.67.3.96.53.29.22.56.48.82.74-.28-.24-.56-.47-.86-.67s-.62-.36-.96-.44-.69-.11-1.05-.16c-.36-.06-.73-.16-1.06-.38-.16-.11-.32-.26-.43-.44-.12-.18-.19-.38-.25-.56s-.11-.36-.18-.51-.15-.27-.27-.36c-.16-.13-.38-.12-.53.03-.34.35-.83.78-1.08 1.53 0 0-.01.1-.01.11-.01.16.01.17-.01.34-.02.12-.55.24-.63.16-.04-.04-.13-.17-.14-.24-.03-.78-.49-1.95-.54-2.01-.14-.15-.52-.04-.84 0-.06.01-.11.02-.16.05-.03.02-.07.04-.1.06s-.07.04-.1.06c-.08.06-.12.17-.09.27.03.09.04.18.03.27-.01.17-.06.34-.14.47-.16.28-.37.47-.51.72-.15.24-.27.51-.34.8-.04.14-.06.29-.08.44-.01.07-.02.15 0 .22.01.04.02.07.05.1.02.02.05.04.08.03-.03.01-.06 0-.08-.02-.03-.03-.04-.06-.05-.1-.03-.07-.02-.15-.02-.23.01-.15.02-.3.05-.45.06-.3.16-.59.3-.85.14-.27.34-.49.46-.74.06-.12.09-.25.09-.38 0-.1-.03-.2-.08-.27-.28.25-.53.56-.79.87-.19.23-.39.47-.62.67-.23.21-.49.38-.77.49-.14.05-.3.08-.45.07s-.3-.04-.44-.08l-.83-.25.85.18c.14.03.28.05.42.04s.27-.04.4-.1c.25-.12.48-.3.68-.51s.37-.45.55-.7c.17-.25.34-.5.54-.75.2-.24.43-.48.68-.66.01-.01.15-.18.22-.26.29-.37.23-.93-.13-1.22-.12-.1-.25-.19-.38-.28-.47-.32-.98-.56-1.53-.63-.27-.03-.55-.03-.81.04-.22.05-.71.28-.73.3-.61.6-1.41.95-2.22.99-.41.02-.8-.05-1.19-.02-.2.02-.39.06-.57.15s-.34.23-.44.41c.09-.19.25-.34.43-.44s.38-.16.58-.19c.4-.05.8 0 1.19-.04.73-.07 1.43-.42 1.96-.94-.25-.02-.49-.14-.69-.29-.24-.19-.43-.42-.63-.65.21.21.42.42.67.58.24.16.52.25.79.21s.51-.2.8-.3.59-.14.89-.13c.17.01.34.03.51.06l-.29-.27-.49-.47c-.16-.16-.33-.31-.48-.49-.15-.17-.3-.36-.41-.58s-.17-.45-.21-.69c-.04-.23-.07-.46-.12-.69-.03-.11-.06-.22-.11-.33-.05-.1-.11-.2-.19-.29.08.08.15.17.21.27.05.1.1.21.13.33.07.23.11.46.17.68.05.23.12.44.23.63s.26.36.41.51c.16.15.33.29.5.44l.52.43.89.74c.15.07.3.14.45.22.04.03.09.05.13.08.17.1.37.15.57.13.23-.02.46-.06.57-.15.04-.03.08-.08.12-.12.08-.09.14-.19.17-.31.05-.17.11-.32.18-.45.08-.19.17-.36.22-.52.02-.08.05-.16.06-.24l.02-.12v-.13c.01-.35-.07-.72-.18-1.09-.11-.38-.24-.77-.34-1.18-.1-.42-.17-.87-.1-1.34.06-.48.25-.85.28-1.18.05-.34 0-.71-.09-1.08-.1-.37-.23-.74-.37-1.12-.13-.38-.27-.79-.35-1.22-.01-.06-.02-.12-.03-.19-.02-.12-.07-.22-.17-.29-.54-.39-1.17-.66-1.79-.93-.29-.12-.58-.24-.86-.38-.02.01-.04.02-.06.01-.63-.08-1.28.05-1.94.04-.33-.01-.67-.05-.98-.19-.32-.13-.58-.35-.84-.56-.26-.22-.53-.4-.81-.56-.29-.15-.59-.28-.91-.37-.62-.2-1.27-.3-1.91-.41.65.08 1.29.17 1.93.35.32.09.63.2.93.35s.58.33.85.54c.26.2.53.41.82.52.3.12.61.15.93.15.49-.01.98-.1 1.49-.11-.28-.15-.55-.31-.81-.51-.17-.13-.32-.29-.45-.48s-.2-.41-.25-.62c-.05-.22-.08-.42-.13-.63s-.1-.41-.16-.62c-.24-.81-.59-1.59-1.05-2.3.49.68.88 1.44 1.16 2.25.07.2.13.41.19.62s.1.42.16.62.13.39.25.54c.11.16.26.29.42.4.65.44 1.41.71 2.16.99.6.22 1.21.45 1.78.79 0-.1 0-.21 0-.31.02-.84.14-1.65.16-2.45.01-.4 0-.79-.07-1.17-.03-.19-.07-.38-.12-.57s-.11-.38-.17-.57c-.12-.38-.25-.78-.32-1.19-.08-.41-.09-.85.01-1.25.02.83.37 1.54.67 2.29.15.38.29.77.37 1.2.07.36.1.73.1 1.1.02-.04.03-.09.05-.14.05-.2.08-.41.11-.63.07-.45.27-.87.55-1.2.28-.34.64-.59 1.03-.71.2-.06.4-.09.6-.14.19-.05.39-.13.53-.3-.13.17-.33.27-.52.33s-.4.1-.59.17c-.38.14-.71.4-.96.74-.25.33-.41.73-.46 1.15-.03.21-.04.44-.09.66-.03.11-.06.23-.13.34-.07.13-.12.27-.13.41-.03.66-.09 1.31-.08 1.94 0 .39.03.78.1 1.15s.2.74.34 1.11c.07.18.14.36.21.55.15-.27.32-.51.52-.73.37-.42.82-.76 1.28-1.03.23-.14.47-.26.72-.36.24-.1.48-.2.72-.3.46-.21.92-.46 1.2-.88.13-.21.22-.46.24-.72.02-.25 0-.52-.05-.78-.02-.03-.02-.06-.02-.09-.09-.52-.24-1.04-.22-1.59.01-.57.17-1.12.39-1.62.22-.51.5-.98.78-1.44-.27.48-.53.96-.73 1.47s-.34 1.05-.33 1.6c0 .49.14.96.25 1.44.34-.24.72-.41 1.1-.52.42-.12.86-.18 1.29-.19.87-.02 1.72.12 2.57.23.21.03.43.06.64.06s.42-.02.61-.12c.38-.19.56-.67.93-.94.35-.28.79-.41 1.21-.45.4-.06.83-.04 1.25 0z" fill="#83b9f6" opacity=".3"/><path d="m148.57 56.1c-.29.04-.55-.19-.59-.5-.02-.22.08-.43.24-.54l-.04-.4c-.01-.13-.03-.27-.07-.37-.07-.15-.23-.27-.39-.39-.04-.03-.08-.06-.12-.09-.36-.28-.66-.65-.88-1.07l-.02-.04c-.04-.09-.08-.17-.13-.21-.06-.05-.17-.07-.31-.09l-.54-.06c-.05.41-.01.83.13 1.22.02.07.05.15.08.22.08.22.17.44.19.7.02.25-.02.49-.07.71 0 .02-.01.04-.01.05.09.06.17.16.21.28.1.29-.03.62-.31.74-.27.11-.58-.04-.68-.33s.03-.63.31-.74h.01c.01-.03.01-.07.02-.1.04-.2.08-.39.06-.56-.02-.18-.08-.36-.16-.55-.03-.08-.06-.16-.09-.24-.16-.46-.21-.96-.15-1.45l-.04-.01c-.4-.05-.86-.1-1.27-.31-.19-.1-.36-.23-.49-.38-.05.96-.09 1.85-.13 2.69.17.1.28.3.27.52-.02.32-.26.56-.56.54-.29-.02-.52-.28-.5-.6.01-.23.14-.41.32-.49.03-.62.06-1.26.09-1.94-.01.03-.02.06-.03.09-.06.16-.13.33-.22.48-.13.22-.3.38-.47.54-.18.17-.36.34-.44.54-.03.07-.05.15-.08.24-.05.18-.1.37-.24.54-.19.23-.45.3-.68.36-.04.01-.09.02-.13.04.01.08 0 .16-.03.24-.1.3-.4.45-.68.35-.28-.11-.42-.43-.32-.73s.4-.45.68-.35c.03.01.06.03.09.05.09-.03.18-.06.27-.08.19-.05.35-.09.44-.21.07-.08.1-.21.14-.35.03-.1.05-.2.1-.31.13-.31.35-.51.56-.71.01-.01.03-.03.04-.04-.26-.02-.58.11-.97.39-.05.03-.1.07-.14.11-.36.27-.78.57-1.27.6-.16.01-.31-.01-.46-.03-.13-.02-.26-.03-.38-.03-.02 0-.03.01-.05.01-.01.12-.06.24-.14.34-.2.23-.54.24-.75.02s-.22-.58-.02-.81c.2-.22.52-.23.73-.03.06-.02.13-.03.19-.03.16-.01.32.01.46.03.13.02.25.03.37.03.36-.02.69-.26 1.04-.52.05-.04.1-.07.15-.11.61-.44 1.12-.57 1.56-.41.01 0 .02.01.03.02.06-.11.11-.24.17-.37.11-.28.24-.6.51-.79.01-.3.03-.6.04-.91l.18-4.53.04-1.13c.01-.37.01-.73-.05-1.06-.05-.33-.17-.66-.31-1.01-.13-.35-.27-.72-.35-1.13-.04-.21-.06-.43-.05-.65s.04-.43.09-.63c.09-.4.22-.76.32-1.11.11-.35.18-.68.19-1 0-.33-.05-.67-.14-1.01-.09-.35-.2-.7-.3-1.08s-.17-.77-.22-1.17c-.07-.56-.08-1.12-.04-1.68.01.07.07.12.13.13.25.01.51-.31.73-.67-.12.7-.14 1.42-.07 2.13.04.36.09.71.18 1.06.08.35.19.71.28 1.1.09.38.15.79.14 1.23-.02.44-.12.84-.24 1.21s-.25.71-.33 1.05c-.04.17-.07.33-.08.49s0 .32.03.48c.1.66.49 1.33.62 2.16.06.41.05.81.03 1.2l-.04 1.11-.26 4.52v.09c.02.03.04.07.04.11.04.37.34.65.61.79.34.17.73.22 1.12.26l1.05.12c.16.02.37.04.55.19.12.11.19.24.25.36l.02.04c.18.35.44.67.74.9.04.03.08.06.11.09.2.15.42.31.54.58.08.18.1.37.12.53l.04.4c.18.07.32.25.35.47.03.33-.18.61-.47.65z" fill="#83b9f6"/><path d="m152.98 31.26c.26.19.56.33.85.47-.3-.11-.61-.22-.89-.39-.28-.16-.56-.39-.74-.7s-.26-.66-.38-.97c-.08-.23-.36-.53-.51-.69-.07-.08-.17-.13-.27-.14-.32-.02-.65-.04-.97-.04-.4-.01-1.52.05-1.59.06-.47.07-.94.19-1.34.43.53.32.97.81 1.23 1.38.1.21.18.41.27.61.03.07.12.09.18.04.3-.28.67-.47 1.05-.56.46-.11.95-.07 1.37.12-.88-.26-1.86.14-2.33.89.12.19.27.35.45.49.47.38 1.06.6 1.65.76.6.16 1.21.28 1.79.54-.59-.21-1.2-.27-1.81-.38s-1.24-.27-1.79-.66c-.27-.19-.52-.44-.71-.74-.19-.29-.32-.6-.47-.87-.21-.39-.84-.85-1.17-1.08-.13-.09-.3-.08-.42.02-.21.18-.41.36-.64.54-.02.01-.57.4-.74.48-.13.06-.26.11-.4.14-.22.05-.42.17-.56.36l-.01.02c.12.11.23.24.32.38.15.23.25.47.34.72.05.15.09.31.14.46.44-.01.91-.02 1.36.14.22.07.44.21.61.36.18.15.33.32.51.44.36.25.77.4 1.2.49s.87.12 1.31.15c-.44.01-.88.01-1.32-.05s-.88-.18-1.28-.43c-.2-.12-.38-.28-.55-.41s-.35-.23-.56-.28c-.37-.1-.77-.08-1.18-.04.06.19.11.38.19.56.18.43.45.81.77 1.16s.68.65 1.05.93c-.4-.24-.79-.5-1.14-.82-.36-.31-.68-.68-.93-1.13-.25-.44-.39-.93-.58-1.35-.13-.3-.31-.57-.51-.75-.03.05-.06.1-.09.15-.11.18-.25.45-.4.7-.22.36-.48.67-.73.67-.07 0-.12-.05-.13-.13v-.01c-.02-.18-.05-.51-.22-.77-.11-.18-.33-.24-.51-.15-.23.11-.76.38-.8.39-.21.1-.42.21-.63.3-.17.22-.25.52-.29.83-.04.3-.06.62-.14.92s-.21.61-.45.79c.22-.21.32-.51.36-.81.05-.3.03-.61.05-.92.01-.16.02-.32.06-.48.01-.06.03-.12.05-.18-.41.16-.86.26-1.29.3-.45.05-.9.05-1.34.07-.22.01-.44.03-.65.06s-.43.08-.64.14c-.14.04-.28.09-.42.15v.02c.06.46-.05.89-.19 1.27s-.3.75-.47 1.12c-.17.36-.36.72-.56 1.06l-.15.26c-.05.08-.11.17-.12.26-.01.05 0 .09.02.13s.06.07.1.08c.08.04.18.06.26.12-.08-.06-.17-.07-.26-.1-.04-.02-.09-.04-.12-.08s-.05-.1-.04-.16c.01-.11.07-.2.11-.29l.13-.27c.18-.36.34-.72.48-1.09s.27-.75.38-1.13c.1-.35.16-.72.1-1.05-.15.08-.31.16-.45.25-.76.47-1.41 1.17-1.86 1.99.41-.85 1.03-1.6 1.78-2.13.18-.13.37-.24.56-.35.02-.03.05-.05.09-.06.01 0 .02-.01.04-.01.17-.09.35-.17.53-.23.22-.08.44-.14.66-.19s.45-.08.67-.11c.29-.03.57-.06.85-.09-.51-.27-1.01-.55-1.5-.86-.33-.2-.65-.42-.97-.63-.07-.05-.14-.1-.21-.15-.09-.06-.2-.07-.3-.01-.26.15-.54.3-.83.41-.36.14-.76.17-1.13.15s-.74-.07-1.1-.07c-.18 0-.36.01-.54.06-.18.04-.35.12-.5.23.15-.12.31-.21.49-.27s.36-.09.55-.11c.37-.03.74-.01 1.1-.02s.71-.07 1.03-.23c.26-.12.5-.28.74-.45-.08-.05-.17-.1-.25-.15-.32-.17-.66-.3-1.02-.35s-.73-.04-1.1-.03l-2.24.06 2.23-.22c.37-.04.75-.07 1.13-.05.39.02.77.13 1.12.29.36.16.69.36 1.01.56.32.19.65.38.98.55.66.35 1.34.67 2.03.95.02.01.03.01.04.02.12.08.27.11.41.07.17-.05.34-.12.51-.2.59-.27 1.14-.65 1.76-.96-.01-.03-.02-.06-.04-.09-.07-.11-.12-.23-.15-.36-.05-.18-.18-.33-.35-.38-.5-.16-1-.36-1.46-.68-.27-.18-.52-.42-.73-.69-.01.01-.02.01-.04.01h-.01c-.4 0-.81.14-1.25.19-.11.01-.22.02-.34.02-.11-.01-.23-.01-.33-.04-.22-.04-.43-.11-.63-.19-.41-.16-.79-.36-1.19-.5-.2-.07-.41-.12-.62-.14s-.42.01-.63.07c.2-.08.42-.12.63-.12.22.01.43.05.64.1.42.12.82.29 1.22.41.2.06.41.11.61.13.1.02.2.01.3.01.1-.01.2-.02.3-.04.35-.07.7-.2 1.09-.27-.19-.27-.36-.52-.61-.69-.29-.21-.64-.33-1-.42s-.73-.17-1.1-.26l-2.2-.51 2.22.35c.35.06.7.11 1.06.17-.15-.27-.26-.56-.33-.85-.05-.19-.07-.37-.13-.53-.05-.15-.15-.29-.26-.43-.23-.28-.44-.59-.6-.92s-.29-.68-.37-1.04c.11.35.26.69.44 1 .19.31.4.59.65.84.12.13.26.27.34.47.08.19.11.37.17.54.11.33.52.99.52 1.03.25.06.49.16.73.3.17.11.34.25.47.41.14.15.26.31.38.46.23.3.5.53.81.72.45.27.95.43 1.48.55.19.04.38-.01.52-.15.05-.05.1-.09.15-.14.07-.06.14-.16.21-.27.18-.28.25-.63.21-.97-.04-.36-.02-.72.07-1.06.04-.17.1-.34.17-.5s.16-.3.24-.44c.16-.27.32-.51.39-.77.17-.52.13-1.13.06-1.75-.07-.59-.17-1.22-.12-1.87-.64-.26-1.31-.44-1.99-.52-.34-.05-.68-.05-1.05-.08-.36-.03-.74-.09-1.09-.29-.31-.18-.56-.44-.77-.71-.04-.02-.08-.05-.1-.1 0-.01 0-.01-.01-.02-.01-.02-.01-.04-.02-.06-.2-.28-.37-.58-.54-.87-.19-.31-.41-.61-.67-.86-.26-.24-.58-.44-.93-.47.36-.01.71.15 1 .38s.54.52.75.83c.11.15.21.31.32.46 0-.14 0-.27.02-.4.03-.31.08-.61.1-.91.01-.15.01-.3-.01-.44-.01-.14-.06-.29-.09-.44s-.05-.32 0-.47c.04-.15.14-.29.28-.33-.14.05-.21.2-.24.34s.01.29.05.43.1.28.13.44c.03.15.05.31.05.47.01.31-.02.62-.02.92s.03.58.14.82c.02.04.02.08.01.12.2.23.42.43.67.55.29.15.63.19.97.2s.71 0 1.07.03c.69.05 1.38.21 2.04.45.06-.2.13-.39.23-.57.17-.3.41-.55.65-.75.49-.41 1.05-.65 1.52-.99.23-.17.45-.36.63-.58.09-.11.17-.23.24-.35s.14-.25.18-.39c.08-.28.04-.59.02-.91-.03-.31-.05-.65.08-.95-.1.31-.04.62.03.93.07.3.14.63.11.98-.01.17-.05.35-.12.5-.06.16-.16.3-.26.43-.2.26-.44.48-.69.67-.12.09-.25.18-.38.26.15-.01.29-.02.44-.01.25.01.5.05.74.13s.45.19.67.29c.43.19.9.24 1.37.18.47-.05.93-.19 1.39-.33-.45.17-.9.34-1.38.42-.24.04-.48.07-.72.05-.24-.01-.49-.06-.72-.15-.23-.08-.45-.18-.67-.24s-.45-.08-.68-.07c-.39.01-.78.1-1.17.2-.13.09-.25.18-.36.28-.22.18-.4.39-.53.64-.12.25-.2.51-.23.8-.02.29-.01.59.02.89.03.31.08.62.12.93.04.32.08.64.08.98.01.34-.03.69-.13 1.03-.03.08-.05.17-.09.25s-.07.16-.11.23c-.08.15-.16.28-.24.42-.16.26-.27.5-.33.77-.03.14-.05.25-.05.37s.01.25.03.4c.18.33.24 1.04.59 1.29.08.06.28.22.36.27.06.03.14.07.23.12.05.01.09.01.14.01.4 0 .8-.22 1.19-.5.06-.12.11-.25.14-.39.05-.24.05-.51.03-.77-.01-.13-.02-.27-.04-.4-.02-.14-.03-.28-.04-.42-.02-.28-.03-.57.01-.86s.14-.58.33-.81c.18-.23.42-.37.66-.48l1.4-.69-1.34.81c-.22.14-.43.29-.57.49-.14.21-.21.46-.23.72s0 .53.04.79c.02.13.04.27.07.4.03.14.05.28.07.42.03.25.05.51.03.77.25-.2.51-.4.8-.57.51-.3 1.08-.43 1.63-.47.08-.01.16-.01.24-.01.05 0 .1-.02.14-.06.34-.33.72-.61 1.11-.85.44-.28.9-.52 1.35-.77.23-.12.46-.24.71-.33.25-.08.5-.13.76-.15.51-.03 1.02.05 1.51.14-.5-.05-1.01-.1-1.51-.04-.25.03-.49.09-.72.18-.23.1-.45.23-.67.36-.44.27-.88.54-1.29.84-.28.2-.55.42-.8.66.28.01.55.02.83.04 2.17.16 4.3.61 6.41 1.08-1.57-.27-3.14-.53-4.72-.67.04.05.08.11.12.17.09.17.15.35.19.52.09.34.14.68.28.97.1.36.33.59.59.78z" fill="#83b9f6" opacity=".3"/><path d="m45.98 62.67h-34.69c-2.73 0-4.94-2.21-4.94-4.94v-47.2c0-2.73 2.21-4.94 4.94-4.94h34.69c2.73 0 4.94 2.21 4.94 4.94v47.2c0 2.73-2.21 4.94-4.94 4.94z" fill="none" stroke="#ffc807" stroke-miterlimit="10" stroke-width=".5"/><path d="m156.02 62.67h-90.6c-2.73 0-4.94-2.21-4.94-4.94v-47.2c0-2.73 2.21-4.94 4.94-4.94h90.6c2.73 0 4.94 2.21 4.94 4.94v47.2c-.01 2.73-2.22 4.94-4.94 4.94z" fill="none" stroke="#83b9f6" stroke-miterlimit="10" stroke-width=".5"/><text fill="#ffc807" font-family="'TitilliumWeb-Italic'" font-size="4" transform="translate(15.6184 68.8408)">Biological Data</text><text fill="#83b9f6" font-family="'TitilliumWeb-Italic'" font-size="4" transform="translate(93.5186 68.8406)">Reconstruction Data</text><path d="m50.92 35.25h6.57" fill="none" stroke="#ffc807" stroke-miterlimit="10" stroke-width=".5"/><path d="m56.09 37.1.78-1.85-.78-1.85 4.39 1.85z" fill="#ffc807"/></svg>