<?xml version="1.0" encoding="utf-8"?>
<!-- Generator: Adobe Illustrator 23.0.4, SVG Export Plug-In . SVG Version: 6.00 Build 0)  -->
<svg version="1.1" xmlns="http://www.w3.org/2000/svg" xmlns:xlink="http://www.w3.org/1999/xlink" x="0px" y="0px"
	 viewBox="0 0 382.3 566.9" style="enable-background:new 0 0 382.3 566.9;" xml:space="preserve">
<style type="text/css">
	.st0{opacity:0.2;}
	.st1{fill:url(#SVGID_1_);}
	.st2{fill:url(#SVGID_2_);}
	.st3{opacity:0.5;}
	.st4{fill:url(#SVGID_3_);}
	.st5{fill:url(#SVGID_4_);}
	.st6{fill:url(#SVGID_5_);}
	.st7{fill:url(#SVGID_6_);}
	.st8{fill:url(#SVGID_7_);}
	.st9{fill:url(#SVGID_8_);}
	.st10{fill:url(#SVGID_9_);}
	.st11{fill:url(#SVGID_10_);}
	.st12{fill:url(#SVGID_11_);}
	.st13{fill:url(#SVGID_12_);}
	.st14{fill:#FFDFC8;}
	.st15{fill:#B71446;}
	.st16{font-family:ArialRoundedMTBold;}
	.st17{font-size:9px;}
	.st18{fill:#FADFC9;}
	.st19{fill:#B63B51;}
	.st20{fill:#FFAF6B;}
	.st21{font-size:23px;}
	.st22{fill:none;stroke:#FFFFFF;stroke-width:1.04;stroke-miterlimit:10;}
</style>
<g id="shadow">
	<g id="Layeranatomyshadow" class="st0">
		
			<!-- <image style="overflow:visible;" width="279" height="87" xlink:href="C3359D86C5264884.png"  transform="matrix(1 0 0 1 36.3856 346)"> -->
		<!-- </image> -->
	</g>
</g>
<g id="Plain_background">
	<g id="Layeranatomyback">
		<linearGradient id="SVGID_1_" gradientUnits="userSpaceOnUse" x1="70.5494" y1="417.8907" x2="191.5992" y2="259.8792">
			<stop  offset="0" style="stop-color:#C90046"/>
			<stop  offset="0.9997" style="stop-color:#FFAF6B"/>
		</linearGradient>
		<path class="st1" d="M280.8,367l-179.5,8.8c-5.1,0-16.3-4.7-16.7-18.1V172.9c0-5.1,4.2-8.3,9.3-8.3h179.6
			c13.3-0.2,24.2,7.8,24.2,13l-7.6,180.2C290.1,362.8,285.9,367,280.8,367z"/>
		<linearGradient id="SVGID_2_" gradientUnits="userSpaceOnUse" x1="275.9804" y1="192.2308" x2="-95.7294" y2="574.5989">
			<stop  offset="0" style="stop-color:#FFFFFF"/>
			<stop  offset="0.1269" style="stop-color:#FDFAFA"/>
			<stop  offset="0.2865" style="stop-color:#F8EAEA"/>
			<stop  offset="0.4636" style="stop-color:#F0D0D1"/>
			<stop  offset="0.6534" style="stop-color:#E4ADAE"/>
			<stop  offset="0.8511" style="stop-color:#D57F81"/>
			<stop  offset="0.9992" style="stop-color:#C8585A"/>
		</linearGradient>
		<path class="st2" d="M290.2,376.5H103.3c-5.1,0-9.3-4.2-9.3-9.3V180.3c0-5.1,4.2-9.3,9.3-9.3h186.9c5.1,0,9.3,4.2,9.3,9.3v186.9
			C299.5,372.3,295.3,376.5,290.2,376.5z"/>
		<g class="st3">
			
				<!-- <image style="overflow:visible;" width="243" height="235" xlink:href="C3359D86C5264883.png"  transform="matrix(1 0 0 1 81.3856 158)"> -->
			<!-- </image> -->
		</g>
		<g>
			
				<linearGradient id="SVGID_3_" gradientUnits="userSpaceOnUse" x1="3607.2063" y1="-2604.0081" x2="3519.6226" y2="-2854.7271" gradientTransform="matrix(0.7079 -0.7063 0.7063 0.7079 -443.1504 4652.1479)">
				<stop  offset="0" style="stop-color:#C90046"/>
				<stop  offset="0.48" style="stop-color:#C8585A"/>
				<stop  offset="1" style="stop-color:#E0B185"/>
			</linearGradient>
			<path class="st4" d="M118.8,196.1c0,0,100.5-20.9,165.7,83.1l2.4,10c0,0-65.1-83.4-165.8-79.6L118.8,196.1z"/>
			
				<linearGradient id="SVGID_4_" gradientUnits="userSpaceOnUse" x1="3512.2051" y1="-2567.2725" x2="3421.3943" y2="-2827.228" gradientTransform="matrix(0.7079 -0.7063 0.7063 0.7079 -443.1504 4652.1479)">
				<stop  offset="0" style="stop-color:#C90046"/>
				<stop  offset="0.2571" style="stop-color:#CA3450"/>
				<stop  offset="0.48" style="stop-color:#C8585A"/>
				<stop  offset="1" style="stop-color:#E0B185"/>
			</linearGradient>
			<path class="st5" d="M116.6,297.8l3.4,21.3c0,0,63.3-9.6,99.2,29.1c0.3,0.3,0.7,0.3,1,0.1l1.4-8
				C221.6,340.3,178.7,295.8,116.6,297.8z"/>
			
				<linearGradient id="SVGID_5_" gradientUnits="userSpaceOnUse" x1="3533.3108" y1="-2574.5288" x2="3442.8684" y2="-2833.4307" gradientTransform="matrix(0.7079 -0.7063 0.7063 0.7079 -443.1504 4652.1479)">
				<stop  offset="0" style="stop-color:#C90046"/>
				<stop  offset="0.48" style="stop-color:#C8585A"/>
				<stop  offset="1" style="stop-color:#E0B185"/>
			</linearGradient>
			<path class="st6" d="M119.4,293.6l-2.4-20.2c0,0,67-3.3,116,53.4l1.7,8.9C234.6,335.8,181.4,292.5,119.4,293.6z"/>
			
				<linearGradient id="SVGID_6_" gradientUnits="userSpaceOnUse" x1="3554.2788" y1="-2585.1387" x2="3466.1174" y2="-2837.5105" gradientTransform="matrix(0.7079 -0.7063 0.7063 0.7079 -443.1504 4652.1479)">
				<stop  offset="0" style="stop-color:#C90046"/>
				<stop  offset="0.48" style="stop-color:#C8585A"/>
				<stop  offset="1" style="stop-color:#E0B185"/>
			</linearGradient>
			<path class="st7" d="M116.8,249.8c0,0,72.2-11,130.9,61.6l3.1,10c0,0-64.7-48.4-130.6-51.3L116.8,249.8z"/>
			
				<linearGradient id="SVGID_7_" gradientUnits="userSpaceOnUse" x1="3582.6013" y1="-2595.3582" x2="3494.8987" y2="-2846.4167" gradientTransform="matrix(0.7079 -0.7063 0.7063 0.7079 -443.1504 4652.1479)">
				<stop  offset="0" style="stop-color:#C90046"/>
				<stop  offset="0.48" style="stop-color:#C8585A"/>
				<stop  offset="1" style="stop-color:#E0B185"/>
			</linearGradient>
			<path class="st8" d="M116.8,214c0,0,88.9-16.8,154.9,76.2l2.7,10c0,0-73-55.5-153-55.2L116.8,214z"/>
			
				<linearGradient id="SVGID_8_" gradientUnits="userSpaceOnUse" x1="3536.678" y1="-2747.9375" x2="3545.7393" y2="-2747.9375" gradientTransform="matrix(0.7079 -0.7063 0.7063 0.7079 -443.1504 4652.1479)">
				<stop  offset="0.4859" style="stop-color:#EA5D5A"/>
				<stop  offset="0.9997" style="stop-color:#FFAF6B"/>
			</linearGradient>
			<path class="st9" d="M124.8,201.3l-5.8-4.3c-0.2,0.2-0.2-0.6-0.2-0.4l2.5,14l5.8,4.2L124.8,201.3z"/>
			
				<linearGradient id="SVGID_9_" gradientUnits="userSpaceOnUse" x1="3512.0459" y1="-2729.7166" x2="3531.7188" y2="-2729.7166" gradientTransform="matrix(0.7079 -0.7063 0.7063 0.7079 -443.1504 4652.1479)">
				<stop  offset="0.4859" style="stop-color:#EA5D5A"/>
				<stop  offset="0.9997" style="stop-color:#FFAF6B"/>
			</linearGradient>
			<path class="st10" d="M122.9,219.2l-6.1-4.4c-0.2,0.2-0.2-0.6-0.2-0.4l4.8,31.2l6.1,4.6L122.9,219.2z"/>
			
				<linearGradient id="SVGID_10_" gradientUnits="userSpaceOnUse" x1="3493.6365" y1="-2708.5847" x2="3506.3667" y2="-2708.5847" gradientTransform="matrix(0.7079 -0.7063 0.7063 0.7079 -443.1504 4652.1479)">
				<stop  offset="0.4859" style="stop-color:#EA5D5A"/>
				<stop  offset="0.9997" style="stop-color:#FFAF6B"/>
			</linearGradient>
			<path class="st11" d="M122.9,255l-5.8-5.4c-0.2,0.2-0.2,0.4-0.2,0.6l3.1,19.9l6.2,5.1L122.9,255z"/>
			
				<linearGradient id="SVGID_11_" gradientUnits="userSpaceOnUse" x1="3475.7461" y1="-2692.0134" x2="3489.6572" y2="-2692.0134" gradientTransform="matrix(0.7079 -0.7063 0.7063 0.7079 -443.1504 4652.1479)">
				<stop  offset="0.4859" style="stop-color:#EA5D5A"/>
				<stop  offset="0.9997" style="stop-color:#FFAF6B"/>
			</linearGradient>
			<path class="st12" d="M122.9,278.7l-6.2-5.4c-0.2,0.2,3.1,22,3.1,22l5.9,4.2L122.9,278.7z"/>
			
				<linearGradient id="SVGID_12_" gradientUnits="userSpaceOnUse" x1="3455.9568" y1="-2666.6177" x2="3475.7612" y2="-2682.8215" gradientTransform="matrix(0.7079 -0.7063 0.7063 0.7079 -443.1504 4652.1479)">
				<stop  offset="0.4859" style="stop-color:#EA5D5A"/>
				<stop  offset="0.9997" style="stop-color:#FFAF6B"/>
			</linearGradient>
			<path class="st13" d="M122.7,303l-6.1-5.5c-0.2,0.2-0.3,0.4-0.2,0.7l3.6,20.8l6.1,5.4L122.7,303z"/>
		</g>
		<g>
			<path class="st14" d="M125.9,201.1c10.7-1.4,99.5-10.1,160.6,86.6c0.3,0.4,0.2,1-0.2,1.4l-6.3,5.6c-0.5,0.4-1.2,0.3-1.6-0.2
				c-6.2-9.6-57-82.9-150.4-79.8c-0.5,0-1-0.4-1.1-0.9l-2-11.5C124.9,201.7,125.3,201.2,125.9,201.1z"/>
			<path class="st14" d="M122.9,304.2l3,19.1c0.1,0.6,0.6,0.9,1.1,0.9c7-0.7,49.8-3.5,82.6,31.7c0.4,0.4,1,0.5,1.4,0.1l8.6-7
				c0.5-0.4,0.5-1,0.2-1.5c-5.1-6.2-39.5-45.8-96-44.5C123.3,303,122.8,303.5,122.9,304.2z"/>
			<path class="st14" d="M125.6,298.5l-2.5-18.6c-0.1-0.7,0.4-1.2,1.1-1.2c9.1,0.4,65.2,5.2,110,56.4c0.4,0.5,0.3,1.2-0.1,1.5
				l-9.3,7.5c-0.4,0.4-1.1,0.3-1.5-0.1c-5.1-6.1-39.9-45.2-96.6-44.6C126.1,299.4,125.6,299.1,125.6,298.5z"/>
			<path class="st14" d="M124.1,255c9.3-0.5,72.3-1.2,126.4,65c0.4,0.4,0.3,1.1-0.1,1.5l-11.3,9.9c-0.4,0.4-1.1,0.3-1.5-0.1
				c-5.9-6.6-49.7-52.8-110.4-55.9c-0.5,0-0.9-0.4-1-0.9l-3-18.3C123,255.6,123.4,255,124.1,255z"/>
			<path class="st14" d="M124,219.1c10.1-1,88.5-6,150,80c0.3,0.4,0.2,1.1-0.2,1.4l-17.2,14.7c-0.5,0.4-1.1,0.3-1.5-0.2
				c-6-7.8-52.7-64.7-126.7-64.9c-0.5,0-1-0.4-1-0.9l-4.3-29C123,219.7,123.4,219.1,124,219.1z"/>
		</g>
		<g>
			<g>
				<text transform="matrix(1 -3.699999e-04 3.699999e-04 1 209.095 230.3247)" class="st15 st16 st17">L1</text>
			</g>
			<g>
				<text transform="matrix(1 1.079999e-03 -1.079999e-03 1 192.2471 256.4319)" class="st15 st16 st17">L23</text>
			</g>
			<g>
				<text transform="matrix(0.9999 -1.125996e-02 1.125996e-02 0.9999 180.3223 283.9776)" class="st15 st16 st17">L4</text>
			</g>
			<g>
				<text transform="matrix(0.9999 1.104999e-02 -1.104999e-02 0.9999 172.092 304.9076)" class="st15 st16 st17">L5</text>
			</g>
			<g>
				<text transform="matrix(0.9999 1.710006e-02 -1.710006e-02 0.9999 160.4263 322.7944)" class="st15 st16 st17">L6</text>
			</g>
		</g>
	</g>
</g>
<g id="Fill">
	<g id="L1fill">
		<path class="st18" d="M125.9,201.1c10.7-1.4,99.5-10.1,160.6,86.6c0.3,0.4,0.2,1-0.2,1.4l-6.3,5.6c-0.5,0.4-1.2,0.3-1.6-0.2
			c-6.2-9.6-57-82.9-150.4-79.8c-0.5,0-1-0.4-1.1-0.9l-2-11.5C124.9,201.7,125.3,201.2,125.9,201.1z"/>
		<g>
			<text transform="matrix(1 -3.699999e-04 3.699999e-04 1 209.095 230.3247)" class="st19 st16 st17">L1</text>
		</g>
	</g>
	<g id="L23fill">
		<path class="st18" d="M124,219.1c10.1-1,88.5-6,150,80c0.3,0.4,0.2,1.1-0.2,1.4l-17.2,14.7c-0.5,0.4-1.1,0.3-1.5-0.2
			c-6-7.8-52.7-64.7-126.7-64.9c-0.5,0-1-0.4-1-0.9l-4.3-29C123,219.7,123.4,219.1,124,219.1z"/>
		<g>
			<text transform="matrix(1 1.079999e-03 -1.079999e-03 1 192.2471 256.4319)" class="st19 st16 st17">L23</text>
		</g>
	</g>
	<g id="L4fill">
		<path class="st18" d="M124.1,255c9.3-0.5,72.3-1.2,126.4,65c0.4,0.4,0.3,1.1-0.1,1.5l-11.3,9.9c-0.4,0.4-1.1,0.3-1.5-0.1
			c-5.9-6.6-49.7-52.8-110.4-55.9c-0.5,0-0.9-0.4-1-0.9l-3-18.3C123,255.6,123.4,255,124.1,255z"/>
		<g>
			<text transform="matrix(0.9999 -1.125996e-02 1.125996e-02 0.9999 180.3223 283.9776)" class="st19 st16 st17">L4</text>
		</g>
	</g>
	<g id="L5fill">
		<path class="st18" d="M125.6,298.5l-2.5-18.6c-0.1-0.7,0.4-1.2,1.1-1.2c9.1,0.4,65.2,5.2,110,56.4c0.4,0.5,0.3,1.2-0.1,1.5
			l-9.3,7.5c-0.4,0.4-1.1,0.3-1.5-0.1c-5.1-6.1-39.9-45.2-96.6-44.6C126.1,299.4,125.6,299.1,125.6,298.5z"/>
		<g>
			<text transform="matrix(0.9999 1.104999e-02 -1.104999e-02 0.9999 172.092 304.9076)" class="st19 st16 st17">L5</text>
		</g>
	</g>
	<g id="L6fill">
		<path class="st18" d="M122.9,304.2l3,19.1c0.1,0.6,0.6,0.9,1.1,0.9c7-0.7,49.8-3.5,82.6,31.7c0.4,0.4,1,0.5,1.4,0.1l8.6-7
			c0.5-0.4,0.5-1,0.2-1.5c-5.1-6.2-39.5-45.8-96-44.5C123.3,303,122.8,303.5,122.9,304.2z"/>
		<g>
			<text transform="matrix(0.9999 1.710006e-02 -1.710006e-02 0.9999 160.4263 322.7944)" class="st19 st16 st17">L6</text>
		</g>
	</g>
</g>
<g id="Lines__x2B__text">
	<g id="Layeranatomylines">
		<text transform="matrix(1 0 0 1 260.6189 198.8684)" class="st20 st16 st21">S1</text>
		<path class="st22" d="M125.9,201.1c10.7-1.4,99.5-10.1,160.6,86.6c0.3,0.4,0.2,1-0.2,1.4l-6.3,5.6c-0.5,0.4-1.2,0.3-1.6-0.2
			c-6.2-9.6-57-82.9-150.4-79.8c-0.5,0-1-0.4-1.1-0.9l-2-11.5C124.9,201.7,125.3,201.2,125.9,201.1z"/>
		<path class="st22" d="M122.9,304.2l3,19.1c0.1,0.6,0.6,0.9,1.1,0.9c7-0.7,49.8-3.5,82.6,31.7c0.4,0.4,1,0.5,1.4,0.1l8.6-7
			c0.5-0.4,0.5-1,0.2-1.5c-5.1-6.2-39.5-45.8-96-44.5C123.3,303,122.8,303.5,122.9,304.2z"/>
		<path class="st22" d="M125.6,298.5l-2.5-18.6c-0.1-0.7,0.4-1.2,1.1-1.2c9.1,0.4,65.2,5.2,110,56.4c0.4,0.5,0.3,1.2-0.1,1.5
			l-9.3,7.5c-0.4,0.4-1.1,0.3-1.5-0.1c-5.1-6.1-39.9-45.2-96.6-44.6C126.1,299.4,125.6,299.1,125.6,298.5z"/>
		<path class="st22" d="M124.1,255c9.3-0.5,72.3-1.2,126.4,65c0.4,0.4,0.3,1.1-0.1,1.5l-11.3,9.9c-0.4,0.4-1.1,0.3-1.5-0.1
			c-5.9-6.6-49.7-52.8-110.4-55.9c-0.5,0-0.9-0.4-1-0.9l-3-18.3C123,255.6,123.4,255,124.1,255z"/>
		<path class="st22" d="M124,219.1c10.1-1,88.5-6,150,80c0.3,0.4,0.2,1.1-0.2,1.4l-17.2,14.7c-0.5,0.4-1.1,0.3-1.5-0.2
			c-6-7.8-52.7-64.7-126.7-64.9c-0.5,0-1-0.4-1-0.9l-4.3-29C123,219.7,123.4,219.1,124,219.1z"/>
	</g>
</g>
</svg>
